<?xml version="1.0" encoding="utf-8"?>
<!-- Generator: Adobe Illustrator 21.0.2, SVG Export Plug-In . SVG Version: 6.00 Build 0)  -->
<svg version="1.1" id="Layer_1" xmlns="http://www.w3.org/2000/svg" xmlns:xlink="http://www.w3.org/1999/xlink" x="0px" y="0px"
	 viewBox="0 0 130 79" style="enable-background:new 0 0 130 79;" xml:space="preserve">
<style type="text/css">
	.st0{fill:#FFFFFF;}
	.st1{opacity:0.4;fill:#FFFFFF;}
</style>
<g>
	<polygon class="st0" points="97.4,0 88,17.5 78.7,0 71.7,0 71.7,31.5 78.1,31.5 78.1,9.5 86,24.9 89.9,24.9 97.8,9.5 97.8,31.5 
		104.3,31.5 104.3,0 	"/>
	<polygon class="st0" points="109.2,0 109.2,31.5 130,31.5 130,26.1 115.7,26.1 115.7,18.1 126.3,18.1 126.3,12.9 115.7,12.9 
		115.7,5.5 129,5.5 129,0 	"/>
	<polygon class="st0" points="35.6,35.5 35.6,0 26.9,0 26.9,18.2 8.8,18.2 8.8,0 0,0 0,43 8.8,43 8.8,25.7 26.9,25.7 26.9,35.5 
		18.3,35.5 18.3,42.9 26.8,42.9 26.8,78.5 35.6,78.5 35.6,42.9 130,42.9 130,35.5 	"/>
	<polygon class="st0" points="40,47 40,78.5 60.8,78.5 60.8,73 46.5,73 46.5,65.1 57.1,65.1 57.1,59.8 46.5,59.8 46.5,52.4 
		59.8,52.4 59.8,47 	"/>
	<path class="st0" d="M79.2,53.9l3.7,12.3h-7.4L79.2,53.9z M75.6,46.7L65.1,78.5h7l2.1-7.2H84l2.1,7.2h7L82.8,46.7H75.6z"/>
	<polygon class="st0" points="123.1,47 113.7,64.4 104.4,47 97.4,47 97.4,78.5 103.8,78.5 103.8,56.5 111.7,71.8 115.6,71.8 
		123.5,56.5 123.5,78.5 130,78.5 130,47 	"/>
	<g>
		<path class="st1" d="M67.9,0.1c0.3,0,0.5,0.2,0.5,0.5v26.7c0,0.3-0.2,0.4-0.4,0.2l-13.7-9.9c-0.2-0.2-0.6-0.2-0.8,0l-4.7,3.2
			c-0.2,0.2-0.4,0.1-0.4-0.2v-2.1c0-0.3-0.2-0.5-0.5-0.5H45c-0.3,0-0.5,0.2-0.5,0.5v4.9c0,0.3-0.2,0.6-0.4,0.8l-4.5,3.2
			c-0.2,0.2-0.4,0.1-0.4-0.2V0.6c0-0.3,0.2-0.5,0.5-0.5H67.9z"/>
		<path class="st0" d="M67.9,0c0.3,0,0.5,0.2,0.5,0.5v17.6c0,0.3-0.2,0.4-0.4,0.2L54.3,8.5c-0.2-0.2-0.6-0.2-0.8,0l-13.9,9.8
			c-0.2,0.2-0.4,0.1-0.4-0.2V0.5c0-0.3,0.2-0.5,0.5-0.5H67.9z"/>
		<path class="st0" d="M53.5,19.1c0.2-0.2,0.6-0.2,0.8,0L68,29c0.2,0.2,0.4,0.5,0.4,0.8v1c0,0.3-0.2,0.4-0.4,0.2l-13.7-9.9
			c-0.2-0.2-0.6-0.2-0.8,0l-13.9,9.8c-0.2,0.2-0.4,0.1-0.4-0.2v-1c0-0.3,0.2-0.6,0.4-0.8L53.5,19.1z"/>
		<path class="st0" d="M53.4,27c0,0.3-0.2,0.5-0.5,0.5h-1.7c-0.3,0-0.5-0.2-0.5-0.5v-1.7c0-0.3,0.2-0.5,0.5-0.5h1.7
			c0.3,0,0.5,0.2,0.5,0.5V27z"/>
		<path class="st0" d="M57,27c0,0.3-0.2,0.5-0.5,0.5h-1.7c-0.3,0-0.5-0.2-0.5-0.5v-1.7c0-0.3,0.2-0.5,0.5-0.5h1.7
			c0.3,0,0.5,0.2,0.5,0.5V27z"/>
		<path class="st0" d="M53.4,30.6c0,0.3-0.2,0.5-0.5,0.5h-1.7c-0.3,0-0.5-0.2-0.5-0.5V29c0-0.3,0.2-0.5,0.5-0.5h1.7
			c0.3,0,0.5,0.2,0.5,0.5V30.6z"/>
		<path class="st0" d="M57,30.6c0,0.3-0.2,0.5-0.5,0.5h-1.7c-0.3,0-0.5-0.2-0.5-0.5V29c0-0.3,0.2-0.5,0.5-0.5h1.7
			c0.3,0,0.5,0.2,0.5,0.5V30.6z"/>
	</g>
</g>
</svg>
