<?xml version="1.0" encoding="utf-8"?>
<!-- Generator: Adobe Illustrator 21.0.2, SVG Export Plug-In . SVG Version: 6.00 Build 0)  -->
<svg version="1.1" id="Layer_1" xmlns="http://www.w3.org/2000/svg" xmlns:xlink="http://www.w3.org/1999/xlink" x="0px" y="0px"
	 viewBox="0 0 78 78" style="enable-background:new 0 0 78 78;" xml:space="preserve">
<style type="text/css">
	.st0{fill:#FFFFFF;}
	.st1{opacity:0.5;fill:#7AA154;enable-background:new    ;}
	.st2{fill:#DFE0CF;}
	.st3{fill:#7AA154;}
	.st4{opacity:0.5;fill:#FFFFFF;enable-background:new    ;}
	.st5{fill:#555555;}
</style>
<g>
	<g>
		<path class="st0" d="M39,4.1c-9.8,0-17.7,8-17.7,17.8c0,1.1,0.1,2.3,0.3,3.4c0.2,0.8,0.4,1.5,0.6,2.3l1.7,3.7L39,57.9l15.1-26.8
			l1.7-3.7c0.2-0.8,0.5-1.5,0.6-2.3c0.2-1.1,0.3-2.2,0.3-3.4C56.8,12,48.8,4.1,39,4.1z"/>
		<path class="st1" d="M39,4.1c-9.8,0-17.7,8-17.7,17.8c0,1.1,0.1,2.3,0.3,3.4c0.2,0.8,0.4,1.5,0.6,2.3l1.7,3.7L39,57.9l15.1-26.8
			l1.7-3.7c0.2-0.8,0.5-1.5,0.6-2.3c0.2-1.1,0.3-2.2,0.3-3.4C56.8,12,48.8,4.1,39,4.1z"/>
		<circle class="st2" cx="39" cy="21.7" r="14.2"/>
		<circle class="st3" cx="39" cy="21.7" r="11.9"/>
		<path class="st4" d="M39.9,14.8c5,0,9.2,3,11,7.2c0-0.1,0-0.2,0-0.3c0-6.6-5.3-11.9-11.9-11.9S27,15.1,27,21.7
			c0,1.7,0.4,3.2,1,4.7C28.2,19.9,33.5,14.8,39.9,14.8z"/>
		<path class="st1" d="M39.9,14.8c5,0,9.2,3,11,7.2c0-0.1,0-0.2,0-0.3c0-6.6-5.3-11.9-11.9-11.9S27,15.1,27,21.7
			c0,1.7,0.4,3.2,1,4.7C28.2,19.9,33.5,14.8,39.9,14.8z"/>
	</g>
</g>
<g>
	<path class="st0" d="M47.8,23.4c0.2-0.3,0.1-0.7-0.2-0.9l-8.2-8.1c-0.2-0.2-0.4-0.2-0.6-0.2c-0.2,0-0.4,0.1-0.6,0.2l-8,8.1
		c-0.2,0.2-0.3,0.6-0.2,0.9c0.2,0.3,0.5,0.5,0.8,0.5h1.3v7.5C34,33,36.4,34,39,34c2.6,0,5-1,6.9-2.6v-7.5h1.3
		C47.4,23.9,47.7,23.7,47.8,23.4z"/>
</g>
<path class="st5" d="M40.8,23.5h-3.7c-0.5,0-0.8,0.4-0.8,0.9v9.4C37.1,34,38,34,38.9,34c1,0,1.9-0.2,2.8-0.3v-9.5
	C41.7,23.8,41.2,23.5,40.8,23.5z"/>
</svg>
