<?xml version="1.0" encoding="utf-8"?>
<!-- Generator: Adobe Illustrator 21.0.2, SVG Export Plug-In . SVG Version: 6.00 Build 0)  -->
<svg version="1.1" id="Layer_1" xmlns="http://www.w3.org/2000/svg" xmlns:xlink="http://www.w3.org/1999/xlink" x="0px" y="0px"
	 viewBox="0 0 78 78" style="enable-background:new 0 0 78 78;" xml:space="preserve">
<style type="text/css">
	.st0{fill:#FFFFFF;}
	.st1{fill:#7AA154;}
	.st2{opacity:0.1;fill:#555555;enable-background:new    ;}
	.st3{opacity:0.75;fill:#FFFFFF;enable-background:new    ;}
	.st4{opacity:0.25;fill:#555555;enable-background:new    ;}
	.st5{opacity:0.5;fill:#555555;enable-background:new    ;}
	.st6{fill:#555555;}
	.st7{opacity:0.25;}
	.st8{opacity:0.75;fill:#555555;enable-background:new    ;}
	.st9{opacity:0.5;fill:#7AA154;enable-background:new    ;}
</style>
<path class="st0" d="M67.3,30.2L50.9,9h-1.2V7.6l0,0L48,5.4h-4.8l0,0l0,0V9H26l0,0l0,0L9.5,30.2h1.3h0.4H13v26.4h8.4h10.9h6.3h0.9
	h24.9V32.8v-2.6L67.3,30.2L67.3,30.2z"/>
<polygon class="st1" points="12.9,30.2 10.8,30.2 11.9,28.1 12.9,27.7 "/>
<g>
	<rect x="39.4" y="27.9" class="st0" width="25" height="28.6"/>
	<rect x="40.6" y="27.9" class="st2" width="23.8" height="28.6"/>
	<polygon class="st3" points="50.9,9 26,9 41.4,30.2 67.3,30.2 	"/>
	<polygon class="st4" points="25.7,11.5 13,27.9 12.9,27.9 12.9,56.6 40.6,56.6 40.6,31.8 	"/>
	<polygon class="st5" points="39.4,30.2 25.7,11.5 13,27.9 12.9,27.9 12.9,56.6 40.6,31.9 	"/>
	<polygon class="st0" points="25.7,11.5 39.4,30.2 41.4,30.2 26,9 9.5,30.2 11.2,30.2 	"/>
	<rect x="20.2" y="35" class="st6" width="10.9" height="21.6"/>
	<g>
		<g>
			<rect x="53.2" y="35" class="st0" width="5" height="12.9"/>
			<rect x="46.8" y="35" class="st0" width="5" height="12.9"/>
		</g>
		<g class="st7">
			<polygon class="st6" points="53.2,47.9 58.2,35 53.2,35 			"/>
			<polygon class="st6" points="46.8,35 46.8,47.9 51.8,35 			"/>
		</g>
		<rect x="45.6" y="48.9" class="st8" width="13.8" height="1.5"/>
	</g>
	<polygon class="st9" points="25.7,11.5 39.4,30.2 41.4,30.2 26,9 9.5,30.2 11.2,30.2 	"/>
</g>
<polygon class="st1" points="50.9,9 26,9 41.4,30.2 67.3,30.2 "/>
<polygon class="st0" points="49.7,7.6 47.9,5.4 43.1,5.4 43.1,5.4 43.1,5.4 43.1,13.1 43.1,13.1 44.9,15.5 49.7,15.5 "/>
<g>
	<rect x="44.9" y="7.6" class="st4" width="4.8" height="7.7"/>
	<polygon class="st8" points="43.1,5.4 43.1,13.1 43.1,13.1 44.9,15.5 44.8,7.7 	"/>
	<polygon class="st6" points="47.9,5.4 43.1,5.4 44.9,7.7 49.7,7.7 	"/>
</g>
<circle class="st0" cx="25.2" cy="25.9" r="3"/>
<circle class="st6" cx="25.2" cy="25.9" r="2"/>
<polygon class="st0" points="68.5,31.8 40.6,31.8 39.3,30.1 67.3,30.1 "/>
<polygon class="st9" points="68.5,31.8 40.6,31.8 39.3,30.1 67.3,30.1 "/>
</svg>
