<?xml version="1.0" encoding="utf-8"?>
<!-- Generator: Adobe Illustrator 21.0.2, SVG Export Plug-In . SVG Version: 6.00 Build 0)  -->
<svg version="1.1" id="Layer_1" xmlns="http://www.w3.org/2000/svg" xmlns:xlink="http://www.w3.org/1999/xlink" x="0px" y="0px"
	 viewBox="0 0 78 78" style="enable-background:new 0 0 78 78;" xml:space="preserve">
<style type="text/css">
	.st0{fill:#FFFFFF;}
	.st1{fill:#FFFFFF;enable-background:new    ;}
	.st2{opacity:0.25;fill:#4C4C4C;enable-background:new    ;}
	.st3{fill:#4C4C4C;}
	.st4{opacity:0.5;fill:#4C4C4C;enable-background:new    ;}
</style>
<g>
	<path class="st0" d="M61.2,50c0,3.4-2.8,6.3-6.3,6.3H23.1c-3.4,0-6.3-2.8-6.3-6.3V16c0-3.4,2.8-6.3,6.3-6.3h31.8
		c3.4,0,6.3,2.8,6.3,6.3V50z"/>
	<g>
		<path class="st1" d="M61.2,50c0,3.4-2.8,6.3-6.3,6.3H23.1c-3.4,0-6.3-2.8-6.3-6.3V16c0-3.4,2.8-6.3,6.3-6.3h31.8
			c3.4,0,6.3,2.8,6.3,6.3V50z"/>
		<path class="st2" d="M56.4,20.5c0,3.8-3.1,6.7-6.7,6.7H28.4c-3.8,0-6.7-3.1-6.7-6.7l0,0c0-3.8,3.1-6.7,6.7-6.7h21.2
			C53.4,13.6,56.4,16.7,56.4,20.5L56.4,20.5z"/>
		<circle class="st3" cx="25.2" cy="35.1" r="4.2"/>
		<circle class="st3" cx="37.5" cy="35.1" r="4.2"/>
		<circle class="st3" cx="25.2" cy="46.6" r="4.2"/>
		<circle class="st3" cx="37.5" cy="46.6" r="4.2"/>
		<path class="st4" d="M49.6,27.2c3.8,0,6.7-3.1,6.7-6.7c0-3.8-3.1-6.7-6.7-6.7h-3.8L32.2,27.2H49.6z"/>
		<path class="st0" d="M25.6,32v2.7h2.7v0.7h-2.7v2.7h-0.8v-2.7h-2.7v-0.7h2.7V32H25.6z"/>
		<path class="st0" d="M40,44.7l-2,1.9l1.9,1.9l-0.5,0.5L37.5,47l-2,2L35,48.4l2-2l-1.9-1.9l0.5-0.5l1.9,1.9l2-2L40,44.7z"/>
		<path class="st0" d="M27.8,46.2V47h-5.6v-0.8H27.8z"/>
		<g>
			<path class="st0" d="M40.3,34.7v0.8h-5.6v-0.8H40.3z"/>
			<g>
				<circle class="st0" cx="37.4" cy="33.2" r="0.8"/>
				<circle class="st0" cx="37.4" cy="37" r="0.8"/>
			</g>
		</g>
	</g>
	<path class="st2" d="M58.3,45.7c0,3.3-2.7,6-6,6h-1.2c-3.3,0-6-2.7-6-6v-9.6c0-3.3,2.7-6,6-6h1.2c3.3,0,6,2.7,6,6V45.7z"/>
	<path class="st4" d="M51.2,51.7h1.2c3.3,0,6-2.7,6-6v-9.6c0-0.2,0-0.4,0-0.6L45.8,48.1C46.6,50.2,48.8,51.7,51.2,51.7z"/>
	<path class="st0" d="M47.6,40.6v-0.9h8.1v0.9H47.6z M47.6,43.7v-0.9h8.1v0.9H47.6z"/>
</g>
</svg>
