<?xml version="1.0" encoding="utf-8"?>
<!-- Generator: Adobe Illustrator 21.0.2, SVG Export Plug-In . SVG Version: 6.00 Build 0)  -->
<svg version="1.1" id="Layer_1" xmlns="http://www.w3.org/2000/svg" xmlns:xlink="http://www.w3.org/1999/xlink" x="0px" y="0px"
	 viewBox="0 0 78 78" style="enable-background:new 0 0 78 78;" xml:space="preserve">
<style type="text/css">
	.st0{opacity:0.75;}
	.st1{fill:#555555;}
	.st2{opacity:0.5;fill:#FFFFFF;enable-background:new    ;}
	.st3{fill:none;stroke:#FFFFFF;stroke-width:0.6606;stroke-miterlimit:10;}
</style>
<g>
	<g>
		<g>
			<g>
				<g class="st0">
					<path class="st1" d="M41.5,26c2.4-4.8,1.6-10.9-2.4-14.9C33.9,6,25.7,6,20.7,11.1s-5.1,13.3,0,18.4c3.8,3.8,9.2,4.8,13.9,2.9
						l6.6,6.6v3.7h3.7l0.1,0.1v3.7h3.7l0.1,0.1v3.7h3.7l2.1,2.1l6.4-0.2l0.2-6.4L41.5,26z M25.9,17.1c-1.2-1.2-1.2-3.2,0-4.4
						s3.2-1.2,4.4,0c1.2,1.2,1.2,3.2,0,4.4C29.1,18.2,27.1,18.2,25.9,17.1z"/>
				</g>
			</g>
		</g>
		<polygon class="st2" points="58.4,48.2 58.4,50.7 59.2,50.7 59.3,46.3 39.3,26.2 39,28.7 		"/>
		<g>
			<path class="st2" d="M38.1,12.8c3,3,4.5,7.2,4.2,11.2c1.3-4.4,0.2-9.4-3.2-12.9c-4.5-4.5-11.5-5-16.6-1.5
				C27.7,7.5,33.9,8.5,38.1,12.8z"/>
		</g>
	</g>
	<circle class="st3" cx="28.1" cy="14.7" r="3.3"/>
</g>
</svg>
