<?xml version="1.0" encoding="utf-8"?>
<!-- Generator: Adobe Illustrator 21.1.0, SVG Export Plug-In . SVG Version: 6.00 Build 0)  -->
<svg version="1.1" xmlns="http://www.w3.org/2000/svg" xmlns:xlink="http://www.w3.org/1999/xlink" x="0px" y="0px"
	 viewBox="0 0 250 250" style="enable-background:new 0 0 250 250;" xml:space="preserve">
<style type="text/css">
	
		.st0{opacity:0.5;fill:none;stroke:#7AA154;stroke-width:3;stroke-linecap:round;stroke-miterlimit:10;stroke-dasharray:0,6.49,0,6.49,0,6.49;enable-background:new    ;}
	.st1{fill:none;stroke:#78A140;stroke-miterlimit:10;}
	.st2{fill:#FFFFFF;}
	.st3{fill:#FFFFFF;stroke:#555555;stroke-width:2;stroke-linecap:round;stroke-miterlimit:10;}
	.st4{fill:none;}
	.st5{enable-background:new    ;}
	.st6{fill:#7AA154;}
	.st7{fill:#555555;}
	.st8{display:none;}
	
		.st9{display:inline;opacity:0.5;fill:none;stroke:#7AA154;stroke-width:3;stroke-linecap:round;stroke-miterlimit:10;stroke-dasharray:0,6.49,0,6.49,0,6.49;enable-background:new    ;}
	.st10{display:inline;fill:none;stroke:#78A140;stroke-miterlimit:10;}
	.st11{display:inline;fill:#FFFFFF;}
	.st12{display:inline;fill:#FFFFFF;stroke:#555555;stroke-width:2;stroke-linecap:round;stroke-miterlimit:10;}
	.st13{display:inline;fill:none;}
	.st14{display:inline;fill:#7AA154;}
	.st15{font-family:'Helvetica-LightOblique';}
	.st16{font-size:16px;}
	.st17{display:inline;}
	.st18{opacity:0.75;fill:#7AA154;enable-background:new    ;}
	.st19{fill:#1A3DBC;}
	.st20{opacity:0.75;}
	.st21{opacity:0.5;fill:#FFFFFF;enable-background:new    ;}
	.st22{fill:none;stroke:#FFFFFF;stroke-width:0.954;stroke-miterlimit:10;}
	.st23{display:inline;fill:#555555;}
	.st24{font-family:'PillGothic600mg-Bold';}
	.st25{font-size:32px;}
</style>
<g id="Layer_1">
	<g id="Layer_1_1_">
		<circle class="st0" cx="125" cy="100" r="95"/>
		<circle class="st1" cx="125" cy="100" r="84"/>
		
			<rect x="1.9" y="64.6" transform="matrix(1 -6.009630e-03 6.009630e-03 1 -0.5921 0.753)" class="st2" width="246.2" height="68.6"/>
		<ellipse transform="matrix(1 -6.009630e-03 6.009630e-03 1 -2.779136e-02 0.7513)" class="st3" cx="125" cy="5" rx="4" ry="4"/>
		<rect class="st4" width="250" height="198"/>
		<rect x="1.8" y="47.4" class="st2" width="246.3" height="105.2"/>
		<g class="st5">
			<path class="st6" d="M70.5,62.3l2.4-11.5l3.9,0c0.3,0,0.6,0,0.9,0c0.3,0,0.6,0,0.9,0.1c0.3,0.1,0.6,0.1,0.8,0.3
				c0.3,0.1,0.5,0.3,0.7,0.5c0.3,0.3,0.6,0.6,0.7,1s0.3,0.8,0.3,1.3c0.1,0.4,0.1,0.9,0,1.3c0,0.5-0.1,0.9-0.2,1.3
				c-0.1,0.4-0.2,0.8-0.3,1.2c-0.1,0.4-0.3,0.8-0.5,1.2c-0.2,0.4-0.4,0.7-0.7,1.1c-0.3,0.3-0.5,0.7-0.9,1c-0.3,0.3-0.7,0.5-1,0.7
				c-0.4,0.2-0.7,0.3-1.1,0.4c-0.4,0.1-0.7,0.2-1.1,0.2c-0.4,0-0.8,0.1-1.1,0.1L70.5,62.3z M71.8,61.3l2.6,0c0.5,0,1,0,1.4-0.1
				c0.4-0.1,0.9-0.2,1.4-0.4c0.4-0.2,0.8-0.5,1.1-0.8c0.3-0.3,0.6-0.7,0.8-1.1c0.2-0.4,0.4-0.8,0.6-1.2c0.1-0.4,0.3-0.8,0.3-1.2
				c0.1-0.4,0.1-0.8,0.2-1.3c0-0.4,0-0.8,0-1.2c-0.1-0.4-0.2-0.7-0.4-1.1c-0.2-0.3-0.5-0.6-0.8-0.8c-0.3-0.2-0.7-0.3-1.1-0.3
				c-0.5-0.1-0.9-0.1-1.4-0.1l-2.6,0L71.8,61.3z"/>
			<path class="st6" d="M85.2,62.4c-0.5,0-1-0.1-1.4-0.3c-0.4-0.2-0.8-0.4-1-0.8c-0.3-0.4-0.5-0.8-0.5-1.4s-0.1-1.2,0.1-1.9
				c0.1-0.6,0.3-1.2,0.6-1.7c0.3-0.5,0.6-1,1-1.4s0.9-0.7,1.4-0.9c0.5-0.2,1.1-0.4,1.8-0.4c0.7,0,1.2,0.1,1.6,0.3
				c0.4,0.2,0.8,0.5,1,0.9c0.2,0.4,0.4,0.8,0.4,1.4c0,0.5,0,1.1-0.1,1.7c-0.1,0.7-0.3,1.3-0.6,1.8c-0.3,0.5-0.6,1-1.1,1.4
				c-0.4,0.4-0.9,0.7-1.4,0.9C86.3,62.3,85.8,62.4,85.2,62.4z M88.9,58c0.1-0.5,0.1-0.9,0.1-1.4s-0.1-0.8-0.3-1.1
				c-0.2-0.3-0.4-0.6-0.7-0.7c-0.3-0.2-0.7-0.3-1.2-0.3c-0.5,0-1,0.1-1.4,0.3c-0.4,0.2-0.7,0.5-1,0.8c-0.3,0.3-0.5,0.7-0.7,1.1
				c-0.2,0.4-0.3,0.9-0.4,1.3c-0.1,0.5-0.1,1-0.1,1.4c0,0.4,0.1,0.8,0.3,1.1c0.2,0.3,0.4,0.5,0.7,0.7c0.3,0.2,0.7,0.3,1.2,0.2
				c0.5,0,1-0.1,1.4-0.3c0.4-0.2,0.7-0.5,1-0.8c0.3-0.3,0.5-0.7,0.7-1.1C88.7,58.9,88.8,58.5,88.9,58z"/>
			<path class="st6" d="M100.2,56.1l4.6-5.6l1.3,0l-5.5,6.5l-1,5l-1.1,0l1-5l-2.8-6.6l1.2,0L100.2,56.1z"/>
			<path class="st6" d="M108.3,62.3c-0.5,0-1-0.1-1.4-0.3c-0.4-0.2-0.8-0.4-1-0.8c-0.3-0.4-0.5-0.8-0.5-1.4s-0.1-1.2,0.1-1.9
				c0.1-0.6,0.3-1.2,0.6-1.7c0.3-0.5,0.6-1,1-1.4s0.9-0.7,1.4-0.9c0.5-0.2,1.1-0.4,1.8-0.4c0.7,0,1.2,0.1,1.6,0.3
				c0.4,0.2,0.8,0.5,1,0.9c0.2,0.4,0.4,0.8,0.4,1.4c0,0.5,0,1.1-0.1,1.7c-0.1,0.7-0.3,1.3-0.6,1.8s-0.6,1-1.1,1.4
				c-0.4,0.4-0.9,0.7-1.4,0.9C109.4,62.2,108.9,62.3,108.3,62.3z M112,57.9c0.1-0.5,0.1-1,0.1-1.4s-0.1-0.8-0.3-1.1
				c-0.2-0.3-0.4-0.6-0.7-0.7c-0.3-0.2-0.7-0.3-1.2-0.3c-0.5,0-1,0.1-1.4,0.3c-0.4,0.2-0.7,0.5-1,0.8c-0.3,0.3-0.5,0.7-0.7,1.1
				c-0.2,0.4-0.3,0.9-0.4,1.3c-0.1,0.5-0.1,1-0.1,1.4c0,0.4,0.1,0.8,0.3,1.1c0.2,0.3,0.4,0.5,0.7,0.7c0.3,0.2,0.7,0.3,1.2,0.2
				c0.5,0,1-0.1,1.4-0.3c0.4-0.2,0.7-0.5,1-0.8c0.3-0.3,0.5-0.7,0.7-1.1C111.8,58.8,111.9,58.3,112,57.9z"/>
			<path class="st6" d="M121.3,53.7l1,0l-1.7,8.3l-1,0l0.2-1.2c-0.2,0.2-0.3,0.3-0.5,0.5c-0.2,0.2-0.4,0.3-0.6,0.4
				c-0.2,0.1-0.5,0.2-0.8,0.3c-0.3,0.1-0.6,0.1-1,0.1c-0.6,0-1-0.1-1.3-0.2c-0.3-0.2-0.6-0.4-0.8-0.6c-0.2-0.3-0.3-0.6-0.3-1
				s0-0.8,0.1-1.2l1.1-5.5l1,0l-1.1,5.4c-0.1,0.7-0.1,1.3,0.2,1.6c0.3,0.4,0.8,0.6,1.5,0.6c0.4,0,0.8-0.1,1.1-0.2
				c0.3-0.2,0.7-0.4,0.9-0.7c0.3-0.3,0.5-0.6,0.7-1c0.2-0.4,0.3-0.8,0.4-1.3L121.3,53.7z"/>
			<path class="st6" d="M136.8,60.3L136.8,60.3l4.6-10l1.1,0l-5.4,11.6l-1.2,0l-0.6-10.2l0,0l-4.8,10.2l-1.2,0l-0.6-11.5l1.1,0
				l0.4,10l0,0l4.7-10l1.2,0L136.8,60.3z"/>
			<path class="st6" d="M146.3,57c0.2,0,0.4-0.1,0.7-0.1c0.3,0,0.5-0.1,0.7-0.2c0.2-0.1,0.3-0.2,0.4-0.4c0.1-0.2,0.1-0.3,0.1-0.5
				c0.1-0.2,0.1-0.5,0-0.7c0-0.2-0.1-0.4-0.3-0.5c-0.1-0.1-0.3-0.3-0.6-0.3s-0.5-0.1-0.9-0.1c-0.7,0-1.2,0.1-1.7,0.4
				c-0.5,0.3-0.8,0.8-1.1,1.5l-1,0c0.1-0.5,0.3-0.9,0.6-1.3c0.3-0.3,0.6-0.6,0.9-0.9c0.4-0.2,0.7-0.4,1.2-0.5
				c0.4-0.1,0.9-0.2,1.3-0.2c0.4,0,0.8,0,1.1,0.1c0.3,0.1,0.6,0.2,0.9,0.4c0.2,0.2,0.4,0.5,0.5,0.8c0.1,0.3,0.1,0.7,0,1.2l-0.9,4.5
				c-0.1,0.4-0.1,0.6,0,0.7c0.1,0.1,0.4,0.1,0.8-0.1l-0.2,0.8c-0.1,0-0.2,0.1-0.3,0.1c-0.2,0-0.3,0.1-0.4,0.1c-0.1,0-0.3,0-0.4,0
				c-0.3-0.1-0.5-0.2-0.5-0.4c0-0.2,0-0.5,0-0.8c-0.5,0.5-1,0.8-1.6,1s-1.2,0.4-1.8,0.4c-0.4,0-0.7,0-1-0.1
				c-0.3-0.1-0.6-0.2-0.8-0.4c-0.2-0.2-0.4-0.4-0.5-0.7c-0.1-0.3-0.1-0.6,0-1c0.3-1.4,1.4-2.2,3.4-2.5L146.3,57z M147.8,57.5
				c-0.4,0.2-0.9,0.3-1.3,0.3c-0.4,0.1-0.8,0.1-1.3,0.1c-0.7,0.1-1.4,0.2-1.8,0.5c-0.5,0.3-0.8,0.7-0.9,1.3c-0.1,0.3,0,0.5,0,0.7
				c0.1,0.2,0.2,0.3,0.3,0.5c0.1,0.1,0.3,0.2,0.5,0.3c0.2,0.1,0.4,0.1,0.6,0.1c0.4,0,0.8-0.1,1.1-0.2c0.4-0.1,0.7-0.2,1.1-0.4
				c0.3-0.2,0.6-0.5,0.8-0.8c0.2-0.3,0.4-0.7,0.5-1.1L147.8,57.5z"/>
			<path class="st6" d="M151.4,61.8l-1,0l1.7-8.3l1,0l-0.2,1.2c0.5-0.4,0.9-0.7,1.4-1c0.5-0.3,1-0.4,1.6-0.4c0.5,0,1,0.1,1.4,0.3
				c0.4,0.2,0.7,0.5,0.9,0.9c0.1,0.3,0.2,0.6,0.2,0.9c0,0.3-0.1,0.6-0.1,1l-1.1,5.4l-1,0l1.1-5.4c0.2-0.7,0.1-1.3-0.1-1.7
				c-0.3-0.4-0.8-0.6-1.5-0.6c-0.3,0-0.6,0-0.8,0.1c-0.3,0.1-0.5,0.2-0.7,0.4c-0.2,0.2-0.4,0.3-0.6,0.5c-0.2,0.2-0.3,0.4-0.4,0.6
				c-0.1,0.3-0.3,0.5-0.3,0.8c-0.1,0.2-0.1,0.5-0.2,0.8L151.4,61.8z"/>
			<path class="st6" d="M162.2,61.8c-0.1,0-0.3,0.1-0.5,0.1c-0.2,0.1-0.4,0.1-0.7,0.1c-0.5,0-0.8-0.1-1-0.4
				c-0.2-0.2-0.2-0.7-0.1-1.3l1.2-6.1l-1.2,0l0.2-0.8l1.2,0l0.5-2.3l1,0l-0.5,2.3l1.6,0l-0.2,0.8l-1.6,0l-1.2,5.7
				c0,0.2-0.1,0.4-0.1,0.5c0,0.1,0,0.3,0,0.4c0,0.1,0.1,0.2,0.2,0.2c0.1,0,0.3,0.1,0.5,0.1c0.1,0,0.3,0,0.4,0c0.1,0,0.3,0,0.4-0.1
				L162.2,61.8z"/>
			<path class="st6" d="M171.1,61.7c-0.1,0-0.3,0.1-0.5,0.1c-0.2,0.1-0.4,0.1-0.7,0.1c-0.5,0-0.8-0.1-1-0.4
				c-0.2-0.2-0.2-0.7-0.1-1.3l1.2-6.1l-1.2,0l0.2-0.8l1.2,0l0.5-2.3l1,0l-0.5,2.3l1.6,0l-0.2,0.8l-1.6,0l-1.2,5.7
				c0,0.2-0.1,0.4-0.1,0.5c0,0.1,0,0.3,0,0.4c0,0.1,0.1,0.2,0.2,0.2c0.1,0,0.3,0.1,0.5,0.1c0.1,0,0.3,0,0.4,0c0.1,0,0.3,0,0.4-0.1
				L171.1,61.7z"/>
			<path class="st6" d="M175.9,61.9c-0.5,0-1-0.1-1.4-0.3c-0.4-0.2-0.8-0.4-1-0.8c-0.3-0.4-0.5-0.8-0.5-1.4s-0.1-1.2,0.1-1.9
				c0.1-0.6,0.3-1.2,0.6-1.7c0.3-0.5,0.6-1,1-1.4s0.9-0.7,1.4-0.9c0.5-0.2,1.1-0.4,1.8-0.4c0.7,0,1.2,0.1,1.6,0.3
				c0.4,0.2,0.8,0.5,1,0.9s0.4,0.8,0.4,1.4c0,0.5,0,1.1-0.1,1.7c-0.1,0.7-0.3,1.3-0.6,1.8s-0.6,1-1.1,1.4c-0.4,0.4-0.9,0.7-1.4,0.9
				C177,61.8,176.5,61.9,175.9,61.9z M179.6,57.5c0.1-0.5,0.1-1,0.1-1.4s-0.1-0.8-0.3-1.1c-0.2-0.3-0.4-0.6-0.7-0.7
				c-0.3-0.2-0.7-0.3-1.2-0.3c-0.5,0-1,0.1-1.4,0.3c-0.4,0.2-0.7,0.5-1,0.8c-0.3,0.3-0.5,0.7-0.7,1.1c-0.2,0.4-0.3,0.9-0.4,1.3
				c-0.1,0.5-0.1,1-0.1,1.4c0,0.4,0.1,0.8,0.3,1.1c0.2,0.3,0.4,0.5,0.7,0.7c0.3,0.2,0.7,0.3,1.2,0.2c0.5,0,1-0.1,1.4-0.3
				c0.4-0.2,0.7-0.5,1-0.8c0.3-0.3,0.5-0.7,0.7-1.1C179.4,58.4,179.5,57.9,179.6,57.5z"/>
		</g>
		<g class="st5">
			<path class="st6" d="M67.2,79.7l2.4-11.5l1.1,0l-1.2,6l7.1-6l1.2,0l-5.5,4.6l3.9,6.9l-1.3,0l-3.5-6.2l-2.2,1.8l-0.9,4.5
				L67.2,79.7z"/>
			<path class="st6" d="M78.7,79.6l-1,0l1.7-8.3l1,0l-0.2,1.2c0.5-0.4,0.9-0.7,1.4-1c0.5-0.3,1-0.4,1.6-0.4c0.5,0,1,0.1,1.4,0.3
				c0.4,0.2,0.7,0.5,0.9,0.9c0.1,0.3,0.2,0.6,0.2,0.9c0,0.3-0.1,0.6-0.1,1l-1.1,5.4l-1,0l1.1-5.4c0.2-0.7,0.1-1.3-0.1-1.7
				C84,72.1,83.5,72,82.8,72c-0.3,0-0.6,0-0.8,0.1c-0.3,0.1-0.5,0.2-0.7,0.4c-0.2,0.2-0.4,0.3-0.6,0.5c-0.2,0.2-0.3,0.4-0.4,0.6
				c-0.1,0.3-0.3,0.5-0.3,0.8c-0.1,0.2-0.1,0.5-0.2,0.8L78.7,79.6z"/>
			<path class="st6" d="M89.9,79.8c-0.5,0-1-0.1-1.4-0.3c-0.4-0.2-0.8-0.4-1-0.8c-0.3-0.4-0.5-0.8-0.5-1.4s-0.1-1.2,0.1-1.9
				c0.1-0.6,0.3-1.2,0.6-1.7c0.3-0.5,0.6-1,1-1.4s0.9-0.7,1.4-0.9c0.5-0.2,1.1-0.4,1.8-0.4c0.7,0,1.2,0.1,1.6,0.3
				c0.4,0.2,0.8,0.5,1,0.9s0.4,0.8,0.4,1.4c0,0.5,0,1.1-0.1,1.7c-0.1,0.7-0.3,1.3-0.6,1.8s-0.6,1-1.1,1.4c-0.4,0.4-0.9,0.7-1.4,0.9
				C91,79.7,90.4,79.8,89.9,79.8z M93.6,75.4c0.1-0.5,0.1-1,0.1-1.4s-0.1-0.8-0.3-1.1c-0.2-0.3-0.4-0.6-0.7-0.7
				c-0.3-0.2-0.7-0.3-1.2-0.3c-0.5,0-1,0.1-1.4,0.3c-0.4,0.2-0.7,0.5-1,0.8c-0.3,0.3-0.5,0.7-0.7,1.1c-0.2,0.4-0.3,0.9-0.4,1.3
				c-0.1,0.5-0.1,1-0.1,1.4c0,0.4,0.1,0.8,0.3,1.1c0.2,0.3,0.4,0.5,0.7,0.7c0.3,0.2,0.7,0.3,1.2,0.2c0.5,0,1-0.1,1.4-0.3
				c0.4-0.2,0.7-0.5,1-0.8c0.3-0.3,0.5-0.7,0.7-1.1C93.3,76.3,93.5,75.9,93.6,75.4z"/>
			<path class="st6" d="M102.8,78.2l3.6-7l1,0l-4.4,8.3l-1,0l-0.4-7h0l-3.3,7l-1.2,0l-0.8-8.3l1,0l0.7,7.1l3.4-7.1l1.1,0L102.8,78.2
				z"/>
			<path class="st6" d="M110.6,79.4l6.9-11.6l1.2,0l2,11.5l-1.1,0l-0.6-3.6l-5.2,0l-2.1,3.6L110.6,79.4z M114.4,74.9l4.5,0l-1-6
				L114.4,74.9z"/>
			<path class="st6" d="M123.2,79.4l-1,0l2.4-11.5l1,0l-0.9,4.6c0.4-0.5,0.9-0.9,1.5-1.2c0.6-0.3,1.2-0.4,1.8-0.4
				c0.6,0,1.2,0.1,1.6,0.4c0.4,0.2,0.7,0.6,1,1c0.2,0.4,0.4,0.9,0.4,1.4c0,0.5,0,1.1-0.1,1.7c-0.1,0.6-0.3,1.2-0.6,1.7s-0.6,1-1,1.4
				c-0.4,0.4-0.8,0.7-1.3,0.9c-0.5,0.2-1.1,0.3-1.8,0.3c-0.3,0-0.5,0-0.8-0.1c-0.3-0.1-0.5-0.2-0.7-0.3s-0.4-0.3-0.6-0.5
				s-0.3-0.4-0.4-0.7h0L123.2,79.4z M124.1,75.2c-0.1,0.5-0.1,1-0.1,1.4c0,0.4,0.1,0.8,0.3,1.1c0.2,0.3,0.4,0.6,0.7,0.7
				c0.3,0.2,0.7,0.3,1.1,0.3c0.4,0,0.8-0.1,1.2-0.2c0.4-0.1,0.7-0.4,1-0.6c0.3-0.3,0.6-0.6,0.8-1c0.2-0.4,0.4-0.9,0.5-1.4
				c0.1-0.5,0.2-1,0.2-1.5c0-0.5-0.1-0.9-0.3-1.2c-0.2-0.3-0.4-0.6-0.7-0.8c-0.3-0.2-0.7-0.3-1.2-0.3c-0.4,0-0.8,0.1-1.2,0.3
				c-0.4,0.2-0.7,0.4-1,0.8c-0.3,0.3-0.6,0.7-0.8,1.1C124.3,74.3,124.2,74.7,124.1,75.2z"/>
			<path class="st6" d="M135.2,79.5c-0.5,0-1-0.1-1.4-0.3c-0.4-0.2-0.8-0.4-1-0.8c-0.3-0.4-0.5-0.8-0.5-1.4s-0.1-1.2,0.1-1.9
				c0.1-0.6,0.3-1.2,0.6-1.7c0.3-0.5,0.6-1,1-1.4s0.9-0.7,1.4-0.9c0.5-0.2,1.1-0.4,1.8-0.4c0.7,0,1.2,0.1,1.6,0.3
				c0.4,0.2,0.8,0.5,1,0.9c0.2,0.4,0.4,0.8,0.4,1.4c0,0.5,0,1.1-0.1,1.7c-0.1,0.7-0.3,1.3-0.6,1.8s-0.6,1-1.1,1.4
				c-0.4,0.4-0.9,0.7-1.4,0.9C136.3,79.4,135.8,79.5,135.2,79.5z M138.9,75.1c0.1-0.5,0.1-1,0.1-1.4s-0.1-0.8-0.3-1.1
				c-0.2-0.3-0.4-0.6-0.7-0.7c-0.3-0.2-0.7-0.3-1.2-0.3c-0.5,0-1,0.1-1.4,0.3c-0.4,0.2-0.7,0.5-1,0.8c-0.3,0.3-0.5,0.7-0.7,1.1
				c-0.2,0.4-0.3,0.9-0.4,1.3c-0.1,0.5-0.1,1-0.1,1.4c0,0.4,0.1,0.8,0.3,1.1c0.2,0.3,0.4,0.5,0.7,0.7c0.3,0.2,0.7,0.3,1.2,0.2
				c0.5,0,1-0.1,1.4-0.3c0.4-0.2,0.7-0.5,1-0.8c0.3-0.3,0.5-0.7,0.7-1.1C138.7,76,138.8,75.6,138.9,75.1z"/>
			<path class="st6" d="M148.2,70.9l1,0l-1.7,8.3l-1,0l0.2-1.2c-0.2,0.2-0.3,0.3-0.5,0.5c-0.2,0.2-0.4,0.3-0.6,0.4
				c-0.2,0.1-0.5,0.2-0.8,0.3c-0.3,0.1-0.6,0.1-1,0.1c-0.6,0-1-0.1-1.3-0.2c-0.3-0.2-0.6-0.4-0.8-0.6c-0.2-0.3-0.3-0.6-0.3-1
				s0-0.8,0.1-1.2l1.1-5.5l1,0l-1.1,5.4c-0.1,0.7-0.1,1.3,0.2,1.6c0.3,0.4,0.8,0.6,1.5,0.6c0.4,0,0.8-0.1,1.1-0.2
				c0.3-0.2,0.7-0.4,0.9-0.7c0.3-0.3,0.5-0.6,0.7-1c0.2-0.4,0.3-0.8,0.4-1.3L148.2,70.9z"/>
			<path class="st6" d="M152.6,79.2c-0.1,0-0.3,0.1-0.5,0.1c-0.2,0.1-0.4,0.1-0.7,0.1c-0.5,0-0.8-0.1-1-0.4
				c-0.2-0.2-0.2-0.7-0.1-1.3l1.2-6.1l-1.2,0l0.2-0.8l1.2,0l0.5-2.3l1,0l-0.5,2.3l1.6,0l-0.2,0.8l-1.6,0l-1.2,5.7
				c0,0.2-0.1,0.4-0.1,0.5c0,0.1,0,0.3,0,0.4c0,0.1,0.1,0.2,0.2,0.2c0.1,0,0.3,0.1,0.5,0.1c0.1,0,0.3,0,0.4,0c0.1,0,0.3,0,0.4-0.1
				L152.6,79.2z"/>
			<path class="st6" d="M161.5,79.2c-0.1,0-0.3,0.1-0.5,0.1c-0.2,0.1-0.4,0.1-0.7,0.1c-0.5,0-0.8-0.1-1-0.4
				c-0.2-0.2-0.2-0.7-0.1-1.3l1.2-6.1l-1.2,0l0.2-0.8l1.2,0l0.5-2.3l1,0l-0.5,2.3l1.6,0l-0.2,0.8l-1.6,0l-1.2,5.7
				c0,0.2-0.1,0.4-0.1,0.5c0,0.1,0,0.3,0,0.4c0,0.1,0.1,0.2,0.2,0.2c0.1,0,0.3,0.1,0.5,0.1c0.1,0,0.3,0,0.4,0c0.1,0,0.3,0,0.4-0.1
				L161.5,79.2z"/>
			<path class="st6" d="M163.1,79.1l2.4-11.5l1,0l-0.9,4.4c0.5-0.4,0.9-0.7,1.4-1c0.5-0.3,1-0.4,1.6-0.4c0.5,0,1,0.1,1.4,0.3
				s0.7,0.5,0.9,0.9c0.1,0.3,0.2,0.6,0.2,0.9c0,0.3-0.1,0.6-0.1,1l-1.1,5.4l-1,0l1.1-5.4c0.2-0.7,0.1-1.3-0.1-1.7
				c-0.3-0.4-0.8-0.6-1.5-0.6c-0.3,0-0.6,0-0.8,0.1c-0.3,0.1-0.5,0.2-0.7,0.4c-0.2,0.2-0.4,0.3-0.6,0.5c-0.2,0.2-0.3,0.4-0.4,0.6
				c-0.1,0.3-0.3,0.5-0.3,0.8c-0.1,0.2-0.1,0.5-0.2,0.8l-0.9,4.5L163.1,79.1z"/>
			<path class="st6" d="M173.4,75.2c-0.1,0.4-0.1,0.9-0.1,1.3c0,0.4,0.1,0.7,0.3,1c0.2,0.3,0.4,0.5,0.7,0.7c0.3,0.2,0.7,0.3,1.2,0.3
				c0.6,0,1.2-0.2,1.7-0.5c0.5-0.3,0.9-0.8,1.2-1.4l1.1,0c-0.2,0.4-0.4,0.8-0.7,1.1c-0.3,0.3-0.6,0.6-0.9,0.9
				c-0.3,0.3-0.7,0.5-1.1,0.6c-0.4,0.1-0.9,0.2-1.4,0.2c-0.7,0-1.2-0.1-1.6-0.3c-0.4-0.2-0.8-0.5-1-0.9c-0.2-0.4-0.4-0.8-0.4-1.4
				c0-0.5,0-1.1,0.1-1.7c0.1-0.6,0.3-1.2,0.6-1.7c0.3-0.5,0.6-1,1-1.4c0.4-0.4,0.9-0.7,1.4-1c0.5-0.2,1.1-0.4,1.7-0.4
				c1.1,0,2,0.4,2.4,1.2c0.5,0.8,0.6,1.9,0.3,3.4L173.4,75.2z M179,74.3c0.1-0.4,0.1-0.8,0.1-1.1s-0.1-0.7-0.3-0.9
				c-0.2-0.3-0.4-0.5-0.7-0.6s-0.7-0.2-1.1-0.2s-0.8,0.1-1.2,0.2c-0.4,0.2-0.7,0.4-1,0.6c-0.3,0.3-0.5,0.6-0.7,0.9
				c-0.2,0.4-0.4,0.7-0.5,1.1L179,74.3z"/>
		</g>
		<g class="st5">
			<path class="st7" d="M36.1,100.7c2.3,0.8,3.8,2.4,3.8,4.7l0,1.2c0,3.6-2.7,5.5-6.8,5.5l-9.3,0.1l-0.1-21.8l8.7-0.1
				c4.1,0,6.8,2.1,6.8,5.7l0,0.7C39.2,98.3,38,100.1,36.1,100.7z M28.1,99.4l4,0c1.6,0,2.7-0.8,2.6-2.4l0-0.7c0-1.9-1.3-2.4-3.2-2.4
				l-3.5,0L28.1,99.4z M35.4,105c0-1.6-1.5-2.4-3.1-2.4l-4.2,0l0,6l4.2,0c1.7,0,3.1-0.5,3.1-2.5L35.4,105z"/>
			<path class="st7" d="M48.4,102.7l0,5.5l9.9-0.1l0,3.7L44,112l-0.1-21.8l13.6-0.1l0,3.8L48.3,94l0,5.1l7.3,0l0,3.6L48.4,102.7z"/>
			<path class="st7" d="M75.5,90l4.1,0l0.1,21.8l-4.2,0L66,96.9l0.1,15l-4.1,0l-0.1-21.8l4.2,0l9.6,15L75.5,90z"/>
			<path class="st7" d="M88.8,102.5l0,5.5l9.9-0.1l0,3.7l-14.3,0.1L84.3,90l13.6-0.1l0,3.8l-9.2,0.1l0,5.1l7.3,0l0,3.6L88.8,102.5z"
				/>
			<path class="st7" d="M115.9,93.6l-9.2,0.1l0,5.1l7.3,0l0,3.6l-7.3,0l0.1,9.2l-4.4,0l-0.1-21.8l13.6-0.1L115.9,93.6z"/>
			<path class="st7" d="M119.5,89.8l4.4,0l0.1,21.8l-4.4,0L119.5,89.8z"/>
			<path class="st7" d="M127.2,93.5l0-3.8l17.7-0.1l0,3.8l-6.6,0l0.1,18l-4.5,0l-0.1-18L127.2,93.5z"/>
			<path class="st7" d="M163,105.2c0,4-3.1,6.4-7.7,6.4c-3.1,0-6.3-1.1-8.3-3.3l2.1-2.8c1.6,1.6,3.8,2.4,6,2.4
				c2.2,0,3.5-0.9,3.4-2.5c0-1.6-1-2.3-4.2-3.2c-4.4-1.3-6.8-3-6.9-6.5c-0.1-4.3,3.6-6.4,7.6-6.4c2.9,0,5.3,0.8,7.6,2.7l-2,3
				c-1.8-1.4-3.4-1.9-5.4-1.9c-2.1,0-3.3,0.9-3.3,2.5c0,1.6,1.1,2.2,4.3,3.2C160.7,100,162.9,101.9,163,105.2z"/>
			<path class="st7" d="M191.3,96.1l0,8.2c0,4.7-3.5,7.2-8.6,7.2l-0.5,0c-5.2,0-8.7-2.4-8.7-7.1l0-8.2c0-4.4,3.7-7.1,8.6-7.2l0.5,0
				C187.5,89,191.3,91.7,191.3,96.1z M186.9,96.5c0-2.4-1.8-3.7-4.2-3.7l-0.5,0c-2.5,0-4.2,1.4-4.2,3.7l0,7.6c0,2.5,1.7,3.7,4.2,3.7
				l0.5,0c2.6,0,4.2-1.2,4.2-3.7L186.9,96.5z"/>
			<path class="st7" d="M209.1,93l-9.2,0.1l0,5.1l7.3,0l0,3.6l-7.3,0l0.1,9.2l-4.4,0l-0.1-21.8l13.6-0.1L209.1,93z"/>
		</g>
		<g class="st5">
			<path class="st7" d="M28.1,122.2l7.3,21.9l-4.9,0l-1.5-5l-6.8,0l-1.4,5l-4.9,0l7.2-22L28.1,122.2z M28.2,135.7l-2.6-8.5l-2.5,8.5
				L28.2,135.7z"/>
			<path class="st7" d="M59,122.2l4.1,0l0.1,21.8l-4.2,0l-9.6-14.9l0.1,15l-4.1,0l-0.1-21.8l4.2,0l9.6,15L59,122.2z"/>
			<path class="st7" d="M72.2,134.7l0,5.5l9.9-0.1l0,3.7l-14.3,0.1l-0.1-21.8l13.6-0.1l0,3.8l-9.2,0.1l0,5.1l7.3,0l0,3.6L72.2,134.7
				z"/>
			<path class="st7" d="M99.7,122l4.1,16.2l2.7-16.2l4.6,0l-4.4,21.8l-4.9,0l-4-15.5L94,143.8l-5,0l-4.7-21.7l4.6,0l3,16.1l3.8-16.1
				L99.7,122z"/>
			<path class="st7" d="M135,121.8l4.4,0l0.1,21.8l-4.4,0l-0.1-8.8l-9.2,0.1l0.1,8.8l-4.4,0l-0.1-21.8l4.4,0l0.1,9.2l9.2-0.1
				L135,121.8z"/>
			<path class="st7" d="M161.6,128.4l0,8.2c0,4.7-3.5,7.2-8.6,7.2l-0.5,0c-5.2,0-8.7-2.4-8.7-7.1l0-8.2c0-4.4,3.7-7.1,8.6-7.2l0.5,0
				C157.8,121.3,161.6,124,161.6,128.4z M157.2,128.8c0-2.4-1.8-3.7-4.2-3.7l-0.5,0c-2.5,0-4.2,1.4-4.2,3.7l0,7.6
				c0,2.5,1.7,3.7,4.2,3.7l0.5,0c2.6,0,4.2-1.2,4.2-3.7L157.2,128.8z"/>
			<path class="st7" d="M170.7,121.6l6.5,12l6.4-12.1l4.8,0l0.1,21.8l-4.5,0l-0.1-15.2l-5.4,10.7l-2.7,0l-5.5-10.6l0.1,15.2l-4.4,0
				l-0.1-21.8L170.7,121.6z"/>
			<path class="st7" d="M197.5,133.9l0,5.5l9.9-0.1l0,3.7l-14.3,0.1l-0.1-21.8l13.6-0.1l0,3.8l-9.2,0.1l0,5.1l7.3,0l0,3.6
				L197.5,133.9z"/>
			<path class="st7" d="M222.8,125.7l0,1.1c0,2-1.5,3.1-2.9,4.2c-1.6,1.2-2.3,1.9-2.3,3.7l0,1.4l-4.3,0l0-1.9c0-1.9,0.8-3.1,2.4-4.2
				c1.2-0.9,2.5-1.8,2.4-2.7l0-0.8c0-1.2-1.2-1.6-2.9-1.6c-1.6,0-3.4,0.7-4.4,1.4l-1.5-3c1.7-1.2,4.1-2.2,6.5-2.2
				C220.1,120.9,222.8,122.4,222.8,125.7z M213.1,139.1l5.1,0l0,3.9l-5.1,0L213.1,139.1z"/>
		</g>
	</g>
	<g id="Layer_2" class="st8">
		<circle class="st9" cx="125" cy="100" r="95"/>
		<circle class="st10" cx="125" cy="100" r="84"/>
		
			<rect x="1.9" y="64.6" transform="matrix(1 -6.009739e-03 6.009739e-03 1 -0.5921 0.753)" class="st11" width="246.2" height="68.6"/>
		<ellipse transform="matrix(1 -6.009739e-03 6.009739e-03 1 -2.779174e-02 0.7513)" class="st12" cx="125" cy="5" rx="4" ry="4"/>
		<rect class="st13" width="250" height="198"/>
		<rect x="1.8" y="47.4" class="st11" width="246.3" height="105.2"/>
		<text transform="matrix(1 -6.010000e-03 6.010000e-03 1 69.2314 62.2876)" class="st14 st15 st16">Do You Want to</text>
		<text transform="matrix(1 -6.010000e-03 6.010000e-03 1 65.8797 79.7168)" class="st14 st15 st16">Know About the </text>
		<g class="st17">
			<g>
				<g>
					<path class="st2" d="M178.4,175.5l-58.1-19.2c-0.5-0.2-0.9-0.3-1.4-0.3c-0.2,0-0.3,0-0.5,0s-0.4,0-0.6,0h-0.1
						c-0.1,0-0.2,0-0.3,0c-0.2,0-0.4,0.1-0.5,0.1c-0.3,0-0.5,0.1-0.8,0.1c-0.2,0-0.4,0.1-0.5,0.2c-0.2,0.1-0.4,0.1-0.6,0.2
						c-0.3,0.1-6.3,4.1-11.4,7.6l-0.1-0.1c-3-2.6-6.8-4.4-11.4-5.4c-1.5-0.3-2.9-0.5-4.4-0.5c-4.3,0-8.2,1.3-11.5,3.9
						c-3.4,2.6-5.7,6.3-6.8,10.7c-1.3,5.2-1.1,10,0.5,14.4c0.5,1.3,1.1,2.5,1.8,3.7c-6.9,7.3-6.8,18.9,0.4,26.1
						c5.4,5.4,13.4,6.8,20.1,4.2l9.5,9.5v5.4h5.4l0.1,0.1v5.4h5.4l0.1,0.1v5.4h5.4l3,3l9.2-0.3l0.3-9.2l-28.4-28.4
						c0.5-1,0.9-2,1.2-3l0,0l0,0c0.1-0.4,0.2-0.7,0.3-1.1c0-0.1,0-0.2,0.1-0.3c0.1-0.3,0.1-0.6,0.2-0.8c0-0.1,0-0.2,0-0.3
						c0.1-0.4,0.1-0.7,0.1-1.1c0-0.1,0-0.1,0-0.2c0-0.1,0-0.1,0-0.2c0.1,0,0.1,0,0.2,0.1l58.1,19.2c0.2,0.1,0.4,0.1,0.7,0.2
						c0.1,0,0.1,0,0.2,0c0.2,0,0.3,0.1,0.5,0.1c0.1,0,0.2,0,0.2,0c0.2,0,0.3,0,0.5,0c0.1,0,0.1,0,0.2,0c0,0,0,0,0.1,0
						c0.2,0,0.4,0,0.6,0c0,0,0,0,0.1,0c0.2,0,0.4,0,0.6-0.1c0.1,0,0.1,0,0.2,0c0.1,0,0.3-0.1,0.4-0.1c0.1,0,0.1,0,0.2-0.1
						c0.1,0,0.3-0.1,0.4-0.1c0.1,0,0.1,0,0.2-0.1c0.2-0.1,0.4-0.2,0.6-0.3l0,0c0.2-0.1,0.4-0.2,0.5-0.3c0.1,0,0.1-0.1,0.2-0.1
						c0.1-0.1,0.2-0.2,0.4-0.3c0.1,0,0.1-0.1,0.2-0.1c0.1-0.1,0.2-0.2,0.3-0.3c0.1,0,0.1-0.1,0.1-0.1c0.2-0.1,0.3-0.3,0.5-0.5l0,0
						c0.1-0.2,0.3-0.3,0.4-0.5c0-0.1,0.1-0.1,0.1-0.2c0.1-0.1,0.2-0.3,0.3-0.4c0-0.1,0.1-0.1,0.1-0.2c0.1-0.1,0.1-0.3,0.2-0.4
						c0-0.1,0.1-0.1,0.1-0.2c0.1-0.2,0.2-0.4,0.2-0.6l11.5-34.9C184.3,181,182.2,176.8,178.4,175.5z M86.6,180
						c1.3-1.9,2.8-2.8,4.8-2.8c0.7,0,1.3,0.1,2,0.2l-0.8,2.5l0,0l-0.2,0.5c0,0,1.2,3.3,2.6,7.3l0,0c-0.1-0.1-0.2-0.1-0.3-0.2
						c-0.2-0.1-0.3-0.2-0.5-0.3c-0.1-0.1-0.2-0.1-0.3-0.2c-0.2-0.1-0.3-0.2-0.5-0.3c-0.1,0-0.2-0.1-0.3-0.1
						c-0.2-0.1-0.5-0.2-0.8-0.3l0,0c-0.3-0.1-0.5-0.2-0.8-0.3c-0.1,0-0.2-0.1-0.3-0.1c-0.2-0.1-0.4-0.1-0.6-0.2
						c-0.1,0-0.2-0.1-0.3-0.1c-0.2,0-0.3-0.1-0.5-0.1c-0.1,0-0.2-0.1-0.3-0.1c-0.2,0-0.3-0.1-0.5-0.1c-0.1,0-0.2,0-0.4-0.1
						c-0.2,0-0.3-0.1-0.5-0.1c-0.1,0-0.2,0-0.4-0.1c-0.2,0-0.3,0-0.5-0.1c-0.1,0-0.2,0-0.3,0c-0.2,0-0.4,0-0.5,0s-0.2,0-0.3,0
						c-0.2,0-0.5,0-0.7,0h-0.1c-0.1,0-0.1,0-0.2,0C85.1,183.4,85.5,181.8,86.6,180z M79.5,192.7c1.4-1.4,3.4-1.7,5.1-0.9
						c0.1,0.2,0.1,0.4,0.2,0.5c0,0.1,0,0.1,0.1,0.2c0,0.1,0.1,0.2,0.1,0.3s0,0.1,0.1,0.2c0,0.1,0.1,0.2,0.1,0.3s0,0.2,0.1,0.2
						c0,0.1,0,0.2,0.1,0.3c0,0.1,0,0.2,0,0.2c0,0.1,0,0.2,0,0.2c0,0.1,0,0.1,0,0.2c0,0.1,0,0.2,0,0.2c0,0.1,0,0.1,0,0.2
						c0,0.1,0,0.1,0,0.2c0,0.1,0,0.1,0,0.2c0,0.1,0,0.2,0,0.3c-0.4,1.5-1.9,1.6-2.6,1.6c-1.4,0-3-0.7-4.5-1.9
						C78.3,194.5,78.7,193.5,79.5,192.7z M71.5,173.3c1.9-7.7,8.4-13,16.2-13c1.3,0,2.6,0.1,3.9,0.4c4.7,1,7.9,2.8,10.2,4.7
						c-3.1,2.1-5.6,3.8-5.6,3.8l-2.1,6.2c-0.9-0.2-1.8-0.3-2.7-0.3c-2.7,0-4.8,1.2-6.5,3.7c-1.3,2-2,4-1.9,6.3c-0.1,0-0.2,0-0.2,0
						c-0.1,0-0.2,0-0.4,0.1c-0.2,0-0.3,0.1-0.5,0.1c-0.1,0-0.2,0-0.4,0.1c-0.2,0-0.3,0.1-0.5,0.1c-0.1,0-0.2,0.1-0.4,0.1
						c-0.2,0-0.3,0.1-0.5,0.1c-0.1,0-0.2,0.1-0.4,0.1c-0.2,0.1-0.3,0.1-0.5,0.2c-0.1,0-0.2,0.1-0.3,0.1c-0.2,0.1-0.4,0.2-0.6,0.2
						c-0.1,0-0.1,0-0.2,0.1c-0.3,0.1-0.5,0.2-0.8,0.3c-0.1,0-0.2,0.1-0.3,0.1c-0.2,0.1-0.3,0.2-0.5,0.2c-0.1,0.1-0.2,0.1-0.3,0.2
						c-0.1,0.1-0.3,0.2-0.4,0.2c-0.1,0.1-0.2,0.1-0.3,0.2c-0.1,0.1-0.3,0.2-0.4,0.3s-0.2,0.1-0.3,0.2c-0.1,0-0.1,0.1-0.2,0.1l0,0
						c-0.5,0.3-0.9,0.7-1.4,1.1C70.6,184.7,70,179.3,71.5,173.3z M79.5,199.1c-0.2-0.2-0.3-0.3-0.4-0.5c1.2,0.6,2.4,0.9,3.6,0.9
						s2.2-0.3,3-0.9l0,0c0,0,0.1,0,0.1-0.1c0.1,0,0.1-0.1,0.2-0.1c0.1-0.1,0.2-0.2,0.3-0.2c0.1-0.1,0.1-0.1,0.2-0.2
						c0.1-0.1,0.2-0.2,0.2-0.3s0.1-0.1,0.1-0.1c0.1-0.2,0.2-0.3,0.3-0.5c-0.2,0.7-0.6,1.4-1.2,2C84.1,200.8,81.3,200.8,79.5,199.1z"
						/>
					<g>
						<g>
							<path class="st7" d="M106,176.3c-0.8,0.8-2.1,1.2-3.7,1.2c-0.4,0-0.8,0-1.3-0.1c-0.3,0-0.6-0.1-1-0.2
								c-0.9-0.2-1.9-0.5-2.9-0.8c-1.9-0.6-3.9-1.2-5.8-1.2c-2.7,0-4.8,1.2-6.5,3.7c-1.4,2.1-2,4.3-1.9,6.8c0.1,2.1,0.8,4,1.4,5.7
								c0.1,0.2,0.1,0.4,0.2,0.6c0.5,0.2,0.9,0.5,1.3,0.9c1.2,1.2,1.6,2.8,1.2,4.3c0.1-0.3,0.2-0.5,0.3-0.8c0.4-1.7-0.2-3.6-0.9-5.6
								c-1.1-3.3-2.3-6.7,0.3-10.6c1.3-1.9,2.8-2.8,4.8-2.8c1.6,0,3.4,0.6,5.2,1.1c1,0.3,2,0.6,3.1,0.9c0.7,0.2,1.5,0.3,2.2,0.3
								c0.2,0,0.3,0,0.5,0c1.5,0,2.8-0.3,3.8-0.9c0-0.1,0.1-0.1,0.1-0.2C106.5,177.7,106.4,176.9,106,176.3z"/>
							<path class="st18" d="M178.4,175.5l-58.1-19.2c-0.5-0.2-0.9-0.3-1.4-0.3c-0.2,0-0.3,0-0.5,0c-0.3,0-0.6,0-0.9,0
								c-0.2,0-0.4,0.1-0.5,0.1c-0.3,0-0.5,0.1-0.8,0.1c-0.2,0-0.4,0.1-0.5,0.2c-0.2,0.1-0.4,0.1-0.6,0.2
								c-0.5,0.2-18.8,12.6-18.8,12.6l-3.7,11.2c0,0,1.1,3.2,2.5,7.2c3.2,2.4,9,6.1,9.1,17.5l58.1,19.2c3.9,1.3,8-0.8,9.3-4.7
								l11.5-34.9C184.3,181,182.2,176.8,178.4,175.5z"/>
							<path class="st6" d="M117.8,160.9c0.1,0,0.1,0,0.2,0h0.1l0,0c0.1,0,0.2,0,0.3,0c0.1,0,0.2,0,0.3,0.1l58.1,19.2
								c1.3,0.4,2,1.8,1.6,3.1l-11.5,34.9c-0.4,1.2-1.4,1.7-2.3,1.7c-0.3,0-0.5,0-0.8-0.1l-58.1-19.2c-0.1,0-0.2-0.1-0.3-0.1
								c-0.1-0.1-0.2-0.1-0.3-0.2H105c0,0-0.1-0.1-0.2-0.1c0,0-0.1-0.1-0.2-0.2l-0.1-0.1l-0.1-0.1c0-0.1-0.1-0.1-0.1-0.2
								c0,0,0-0.1-0.1-0.1c-0.8-2.2-4.3-12.1-6.8-19.1l2.7-8c6.2-4.2,14.8-10,16.8-11.3h0.1c0.1,0,0.1-0.1,0.2-0.1h0.1h0.1
								C117.7,160.9,117.8,160.9,117.8,160.9 M117.7,156c-0.1,0-0.2,0-0.3,0c-0.2,0-0.4,0.1-0.5,0.1c-0.3,0-0.5,0.1-0.8,0.1
								c-0.2,0-0.4,0.1-0.5,0.2c-0.2,0.1-0.4,0.1-0.6,0.2c-0.5,0.2-18.8,12.6-18.8,12.6l-3.7,11.2c0,0,1.1,3.2,2.5,7.2
								c10.6,6.5,8.7,17.3,9.1,17.5l58.1,19.2c0.8,0.3,1.5,0.4,2.3,0.4c3.1,0,6-2,7-5l11.5-34.9c1.3-3.9-0.8-8-4.7-9.3l-58.1-19.2
								c-0.5-0.2-0.9-0.3-1.4-0.3c-0.2,0-0.3,0-0.5,0C118.2,156,117.9,156,117.7,156L117.7,156z"/>
							
								<ellipse transform="matrix(0.3135 -0.9496 0.9496 0.3135 -97.4354 220.4847)" class="st18" cx="103.8" cy="177.6" rx="5.5" ry="5.5"/>
							
								<ellipse transform="matrix(0.3135 -0.9496 0.9496 0.3135 -97.4394 220.4843)" class="st2" cx="103.8" cy="177.6" rx="2.7" ry="2.7"/>
							<path class="st19" d="M106,176.2L106,176.2L106,176.2L106,176.2z"/>
							<path class="st7" d="M108.6,171.8c-0.9-2.9-2.7-5.5-5.2-7.7c-3-2.6-6.8-4.4-11.4-5.4c-1.5-0.3-2.9-0.5-4.4-0.5
								c-4.3,0-8.2,1.3-11.5,3.9c-3.4,2.6-5.7,6.3-6.8,10.7c-1.3,5.2-1.1,10,0.5,14.4c1.2,3.4,3.4,6.5,6.3,9.3
								c0.9,0.8,1.9,1.5,2.9,2c1.2,0.6,2.4,0.9,3.6,0.9c2,0,3.6-0.9,4.3-2.4c0.4-1.5,0-3.1-1.2-4.3c-0.4-0.4-0.8-0.7-1.3-0.9
								c0.5,1.5,0.9,2.9,0.7,3.9c-0.4,1.5-1.9,1.6-2.6,1.6c-1.4,0-3-0.7-4.5-1.9c-0.2-0.2-0.4-0.3-0.5-0.5c-6.2-6-8.3-13.3-6.2-21.7
								c1.9-7.7,8.4-13,16.2-13c1.3,0,2.6,0.1,3.9,0.4c11,2.4,14.2,8.9,15,11.6c0.3,1,0.5,2.4-0.3,3.5c-0.1,0.1-0.2,0.3-0.3,0.4
								c0.4,0.6,0.5,1.5,0.3,2.2c0.3-0.8,0.1-1.6-0.3-2.2c-0.8,0.8-2.1,1.2-3.7,1.2c-0.4,0-0.8,0-1.3-0.1c-0.1,0.8,0.2,1.6,0.8,2.2
								c0.2,0,0.3,0,0.5,0c1.5,0,2.8-0.3,3.8-0.9c0.8-0.4,1.4-0.9,1.9-1.6C108.8,176.1,109.5,174.4,108.6,171.8z"/>
							<path class="st7" d="M84.6,191.8c0.5,1.5,0.9,2.8,0.7,3.8c0.1,0.3,0.3,0.5,0.4,0.9c0.2,0.6,0.2,1.4,0.1,2.1
								c0.6-0.4,1-0.9,1.3-1.6c0.4-1.5,0-3.1-1.2-4.3C85.5,192.4,85,192.1,84.6,191.8z"/>
							<path class="st7" d="M102.4,179.6c0.7,0,1.4-0.1,2-0.2c-0.4-0.6-0.7-1.2-1-2c-0.3,0-0.7,0.1-1,0.1c-0.4,0-0.8,0-1.3-0.1
								c-0.1,0.8,0.2,1.6,0.8,2.2C102.1,179.6,102.2,179.6,102.4,179.6z"/>
						</g>
						<g>
							<path class="st2" d="M159.5,194.1l-9.7-20.3c-0.2-0.4-0.5-0.7-0.9-0.8s-0.8-0.1-1.2,0.1l-20.3,9.7c-0.8,0.4-1.1,1.3-0.7,2.1
								s1.3,1.1,2.1,0.7l18.9-9l9,18.9c0.2,0.4,0.5,0.7,0.9,0.8s0.8,0.1,1.2-0.1C159.5,195.8,159.9,194.8,159.5,194.1z"/>
							<polygon class="st2" points="129.4,187.6 124.3,202 132,204.8 137.1,190.4 146.9,193.8 141.8,208.2 149.7,211 154.8,196.6 
								146.6,179.5 							"/>
						</g>
						<g class="st20">
							<path class="st7" d="M102.1,212c3.5-7,2.3-15.7-3.5-21.6c-7.3-7.3-19.2-7.3-26.5,0c-7.3,7.3-7.3,19.2,0,26.5
								c5.4,5.4,13.4,6.8,20.1,4.2l9.5,9.5v5.4h5.4l0.1,0.1v5.4h5.4l0.1,0.1v5.4h5.4l3,3l9.2-0.3l0.3-9.2L102.1,212z M79.5,199
								c-1.7-1.7-1.7-4.6,0-6.3s4.6-1.7,6.3,0c1.7,1.7,1.7,4.6,0,6.3C84.1,200.7,81.3,200.7,79.5,199z"/>
						</g>
					</g>
				</g>
				<polygon class="st21" points="126.6,244 126.5,247.6 127.6,247.6 127.8,241.2 98.9,212.3 98.5,215.9 				"/>
				<g>
					<path class="st21" d="M97.2,192.8c4.4,4.4,6.4,10.4,6.1,16.1c1.9-6.4,0.3-13.5-4.7-18.6c-6.5-6.5-16.6-7.2-23.9-2.2
						C82.2,185.2,91.1,186.7,97.2,192.8z"/>
				</g>
			</g>
			<circle class="st22" cx="82.7" cy="195.7" r="4.8"/>
		</g>
		<text transform="matrix(1 -6.010000e-03 6.010000e-03 1 21.471 112.1253)" class="st23 st24 st25">BENEFITS OF </text>
		<text transform="matrix(1 -6.010000e-03 6.010000e-03 1 15.3269 144.2573)" class="st23 st24 st25">A NEW HOME?</text>
	</g>
</g>
<g id="Layer_2_1_" class="st8">
	<text transform="matrix(1 -6.010000e-03 6.010000e-03 1 69.4235 62.2876)" class="st14 st15 st16">Do You Want to</text>
	<text transform="matrix(1 -6.010000e-03 6.010000e-03 1 66.0719 79.7168)" class="st14 st15 st16">Know About the </text>
	<text transform="matrix(1 -6.010000e-03 6.010000e-03 1 21.6632 112.1253)" class="st23 st24 st25">BENEFITS OF </text>
	<text transform="matrix(1 -6.010000e-03 6.010000e-03 1 15.5191 144.2573)" class="st23 st24 st25">A NEW HOME?</text>
</g>
</svg>
