<?xml version="1.0" encoding="utf-8"?>
<!-- Generator: Adobe Illustrator 21.1.0, SVG Export Plug-In . SVG Version: 6.00 Build 0)  -->
<svg version="1.1" xmlns="http://www.w3.org/2000/svg" xmlns:xlink="http://www.w3.org/1999/xlink" x="0px" y="0px"
	 viewBox="0 0 250 250" style="enable-background:new 0 0 250 250;" xml:space="preserve">
<style type="text/css">
	
		.st0{opacity:0.5;fill:none;stroke:#7AA154;stroke-width:3;stroke-linecap:round;stroke-miterlimit:10;stroke-dasharray:0,6.49,0,6.49,0,6.49;enable-background:new    ;}
	.st1{fill:none;stroke:#78A140;stroke-miterlimit:10;}
	.st2{fill:#FFFFFF;stroke:#555555;stroke-width:2;stroke-linecap:round;stroke-miterlimit:10;}
	.st3{fill:none;}
	.st4{fill:#7AA154;}
	.st5{font-family:'Helvetica-LightOblique';}
	.st6{font-size:16px;}
	.st7{fill:#555555;}
	.st8{font-family:'PillGothic600mg-Bold';}
	.st9{font-size:32px;}
	.st10{fill:#FFFFFF;}
	.st11{enable-background:new    ;}
	.st12{display:none;}
	.st13{display:inline;fill:#7AA154;}
	.st14{display:inline;fill:#555555;}
</style>
<g id="Layer_1">
	<g id="Layer_1_1_">
		<circle class="st0" cx="125" cy="100" r="95"/>
		<circle class="st1" cx="125" cy="100" r="84"/>
		<ellipse transform="matrix(1 -6.009630e-03 6.009630e-03 1 -2.779136e-02 0.7513)" class="st2" cx="125" cy="5" rx="4" ry="4"/>
		<rect class="st3" width="250" height="198"/>
	</g>
	<g id="Layer_2">
		<text transform="matrix(1 -6.010000e-03 6.010000e-03 1 62.536 86.724)" class="st4 st5 st6">Do You Want to </text>
		<text transform="matrix(1 -6.010000e-03 6.010000e-03 1 3.5283 119.0798)" class="st7 st8 st9">FIND</text>
		<text transform="matrix(1 -6.010000e-03 6.010000e-03 1 86.4283 118.5816)" class="st7 st8 st9"> </text>
		<text transform="matrix(1 -6.010000e-03 6.010000e-03 1 94.1283 118.5353)" class="st7 st8 st9">A</text>
		<text transform="matrix(1 -6.010000e-03 6.010000e-03 1 118.0283 118.3916)" class="st7 st8 st9"> </text>
		<text transform="matrix(1 -6.010000e-03 6.010000e-03 1 125.7283 118.3454)" class="st7 st8 st9">HOME?</text>
	</g>
	<rect y="67" class="st10" width="250" height="66"/>
	<g class="st11">
		<path class="st4" d="M70.5,87l2.4-11.5l3.9,0c0.3,0,0.6,0,0.9,0c0.3,0,0.6,0,0.9,0.1c0.3,0.1,0.6,0.1,0.8,0.3
			c0.3,0.1,0.5,0.3,0.7,0.5c0.3,0.3,0.6,0.6,0.7,1s0.3,0.8,0.3,1.3c0.1,0.4,0.1,0.9,0,1.3c0,0.5-0.1,0.9-0.2,1.3
			c-0.1,0.4-0.2,0.8-0.3,1.2c-0.1,0.4-0.3,0.8-0.5,1.2c-0.2,0.4-0.4,0.7-0.7,1.1c-0.3,0.3-0.5,0.7-0.9,1c-0.3,0.3-0.7,0.5-1,0.7
			c-0.4,0.2-0.7,0.3-1.1,0.4c-0.4,0.1-0.7,0.2-1.1,0.2c-0.4,0-0.8,0.1-1.1,0.1L70.5,87z M71.8,86.1l2.6,0c0.5,0,1,0,1.4-0.1
			c0.4-0.1,0.9-0.2,1.4-0.4c0.4-0.2,0.8-0.5,1.1-0.8c0.3-0.3,0.6-0.7,0.8-1.1c0.2-0.4,0.4-0.8,0.6-1.2c0.1-0.4,0.3-0.8,0.3-1.2
			c0.1-0.4,0.1-0.8,0.2-1.3c0-0.4,0-0.8,0-1.2c-0.1-0.4-0.2-0.7-0.4-1.1c-0.2-0.3-0.5-0.6-0.8-0.8c-0.3-0.2-0.7-0.3-1.1-0.3
			c-0.5-0.1-0.9-0.1-1.4-0.1l-2.6,0L71.8,86.1z"/>
		<path class="st4" d="M85.2,87.1c-0.5,0-1-0.1-1.4-0.3c-0.4-0.2-0.8-0.4-1-0.8c-0.3-0.4-0.5-0.8-0.5-1.4s-0.1-1.2,0.1-1.9
			c0.1-0.6,0.3-1.2,0.6-1.7c0.3-0.5,0.6-1,1-1.4s0.9-0.7,1.4-0.9c0.5-0.2,1.1-0.4,1.8-0.4c0.7,0,1.2,0.1,1.6,0.3
			c0.4,0.2,0.8,0.5,1,0.9C89.9,80,90,80.5,90,81c0,0.5,0,1.1-0.1,1.7c-0.1,0.7-0.3,1.3-0.6,1.8c-0.3,0.5-0.6,1-1.1,1.4
			c-0.4,0.4-0.9,0.7-1.4,0.9C86.3,87,85.8,87.1,85.2,87.1z M88.9,82.7c0.1-0.5,0.1-0.9,0.1-1.4s-0.1-0.8-0.3-1.1
			c-0.2-0.3-0.4-0.6-0.7-0.7c-0.3-0.2-0.7-0.3-1.2-0.3c-0.5,0-1,0.1-1.4,0.3c-0.4,0.2-0.7,0.5-1,0.8c-0.3,0.3-0.5,0.7-0.7,1.1
			c-0.2,0.4-0.3,0.9-0.4,1.3c-0.1,0.5-0.1,1-0.1,1.4c0,0.4,0.1,0.8,0.3,1.1c0.2,0.3,0.4,0.5,0.7,0.7c0.3,0.2,0.7,0.3,1.2,0.2
			c0.5,0,1-0.1,1.4-0.3c0.4-0.2,0.7-0.5,1-0.8c0.3-0.3,0.5-0.7,0.7-1.1C88.7,83.6,88.8,83.2,88.9,82.7z"/>
		<path class="st4" d="M100.2,80.8l4.6-5.6l1.3,0l-5.5,6.5l-1,5l-1.1,0l1-5l-2.8-6.6l1.2,0L100.2,80.8z"/>
		<path class="st4" d="M108.3,87c-0.5,0-1-0.1-1.4-0.3c-0.4-0.2-0.8-0.4-1-0.8c-0.3-0.4-0.5-0.8-0.5-1.4s-0.1-1.2,0.1-1.9
			c0.1-0.6,0.3-1.2,0.6-1.7c0.3-0.5,0.6-1,1-1.4s0.9-0.7,1.4-0.9c0.5-0.2,1.1-0.4,1.8-0.4c0.7,0,1.2,0.1,1.6,0.3
			c0.4,0.2,0.8,0.5,1,0.9c0.2,0.4,0.4,0.8,0.4,1.4c0,0.5,0,1.1-0.1,1.7c-0.1,0.7-0.3,1.3-0.6,1.8s-0.6,1-1.1,1.4
			c-0.4,0.4-0.9,0.7-1.4,0.9C109.4,86.9,108.9,87,108.3,87z M112,82.6c0.1-0.5,0.1-1,0.1-1.4s-0.1-0.8-0.3-1.1
			c-0.2-0.3-0.4-0.6-0.7-0.7c-0.3-0.2-0.7-0.3-1.2-0.3c-0.5,0-1,0.1-1.4,0.3c-0.4,0.2-0.7,0.5-1,0.8c-0.3,0.3-0.5,0.7-0.7,1.1
			c-0.2,0.4-0.3,0.9-0.4,1.3c-0.1,0.5-0.1,1-0.1,1.4c0,0.4,0.1,0.8,0.3,1.1c0.2,0.3,0.4,0.5,0.7,0.7c0.3,0.2,0.7,0.3,1.2,0.2
			c0.5,0,1-0.1,1.4-0.3c0.4-0.2,0.7-0.5,1-0.8c0.3-0.3,0.5-0.7,0.7-1.1C111.8,83.5,111.9,83,112,82.6z"/>
		<path class="st4" d="M121.3,78.4l1,0l-1.7,8.3l-1,0l0.2-1.2c-0.2,0.2-0.3,0.3-0.5,0.5c-0.2,0.2-0.4,0.3-0.6,0.4
			c-0.2,0.1-0.5,0.2-0.8,0.3c-0.3,0.1-0.6,0.1-1,0.1c-0.6,0-1-0.1-1.3-0.2c-0.3-0.2-0.6-0.4-0.8-0.6c-0.2-0.3-0.3-0.6-0.3-1
			s0-0.8,0.1-1.2l1.1-5.5l1,0l-1.1,5.4c-0.1,0.7-0.1,1.3,0.2,1.6c0.3,0.4,0.8,0.6,1.5,0.6c0.4,0,0.8-0.1,1.1-0.2
			c0.3-0.2,0.7-0.4,0.9-0.7c0.3-0.3,0.5-0.6,0.7-1c0.2-0.4,0.3-0.8,0.4-1.3L121.3,78.4z"/>
		<path class="st4" d="M136.8,85.1L136.8,85.1l4.6-10l1.1,0l-5.4,11.6l-1.2,0l-0.6-10.2l0,0l-4.8,10.2l-1.2,0l-0.6-11.5l1.1,0
			l0.4,10l0,0l4.7-10l1.2,0L136.8,85.1z"/>
		<path class="st4" d="M146.3,81.7c0.2,0,0.4-0.1,0.7-0.1c0.3,0,0.5-0.1,0.7-0.2c0.2-0.1,0.3-0.2,0.4-0.4c0.1-0.2,0.1-0.3,0.1-0.5
			c0.1-0.2,0.1-0.5,0-0.7c0-0.2-0.1-0.4-0.3-0.5c-0.1-0.1-0.3-0.3-0.6-0.3s-0.5-0.1-0.9-0.1c-0.7,0-1.2,0.1-1.7,0.4
			c-0.5,0.3-0.8,0.8-1.1,1.5l-1,0c0.1-0.5,0.3-0.9,0.6-1.3c0.3-0.3,0.6-0.6,0.9-0.9c0.4-0.2,0.7-0.4,1.2-0.5
			c0.4-0.1,0.9-0.2,1.3-0.2c0.4,0,0.8,0,1.1,0.1c0.3,0.1,0.6,0.2,0.9,0.4c0.2,0.2,0.4,0.5,0.5,0.8c0.1,0.3,0.1,0.7,0,1.2l-0.9,4.5
			c-0.1,0.4-0.1,0.6,0,0.7c0.1,0.1,0.4,0.1,0.8-0.1l-0.2,0.8c-0.1,0-0.2,0.1-0.3,0.1c-0.2,0-0.3,0.1-0.4,0.1c-0.1,0-0.3,0-0.4,0
			c-0.3-0.1-0.5-0.2-0.5-0.4c0-0.2,0-0.5,0-0.8c-0.5,0.5-1,0.8-1.6,1s-1.2,0.4-1.8,0.4c-0.4,0-0.7,0-1-0.1c-0.3-0.1-0.6-0.2-0.8-0.4
			c-0.2-0.2-0.4-0.4-0.5-0.7c-0.1-0.3-0.1-0.6,0-1c0.3-1.4,1.4-2.2,3.4-2.5L146.3,81.7z M147.8,82.2c-0.4,0.2-0.9,0.3-1.3,0.3
			c-0.4,0.1-0.8,0.1-1.3,0.1c-0.7,0.1-1.4,0.2-1.8,0.5c-0.5,0.3-0.8,0.7-0.9,1.3c-0.1,0.3,0,0.5,0,0.7c0.1,0.2,0.2,0.3,0.3,0.5
			c0.1,0.1,0.3,0.2,0.5,0.3c0.2,0.1,0.4,0.1,0.6,0.1c0.4,0,0.8-0.1,1.1-0.2c0.4-0.1,0.7-0.2,1.1-0.4c0.3-0.2,0.6-0.5,0.8-0.8
			c0.2-0.3,0.4-0.7,0.5-1.1L147.8,82.2z"/>
		<path class="st4" d="M151.4,86.5l-1,0l1.7-8.3l1,0l-0.2,1.2c0.5-0.4,0.9-0.7,1.4-1c0.5-0.3,1-0.4,1.6-0.4c0.5,0,1,0.1,1.4,0.3
			c0.4,0.2,0.7,0.5,0.9,0.9c0.1,0.3,0.2,0.6,0.2,0.9c0,0.3-0.1,0.6-0.1,1l-1.1,5.4l-1,0l1.1-5.4c0.2-0.7,0.1-1.3-0.1-1.7
			c-0.3-0.4-0.8-0.6-1.5-0.6c-0.3,0-0.6,0-0.8,0.1c-0.3,0.1-0.5,0.2-0.7,0.4c-0.2,0.2-0.4,0.3-0.6,0.5c-0.2,0.2-0.3,0.4-0.4,0.6
			c-0.1,0.3-0.3,0.5-0.3,0.8c-0.1,0.2-0.1,0.5-0.2,0.8L151.4,86.5z"/>
		<path class="st4" d="M162.2,86.5c-0.1,0-0.3,0.1-0.5,0.1c-0.2,0.1-0.4,0.1-0.7,0.1c-0.5,0-0.8-0.1-1-0.4c-0.2-0.2-0.2-0.7-0.1-1.3
			l1.2-6.1l-1.2,0l0.2-0.8l1.2,0l0.5-2.3l1,0l-0.5,2.3l1.6,0l-0.2,0.8l-1.6,0l-1.2,5.7c0,0.2-0.1,0.4-0.1,0.5c0,0.1,0,0.3,0,0.4
			c0,0.1,0.1,0.2,0.2,0.2c0.1,0,0.3,0.1,0.5,0.1c0.1,0,0.3,0,0.4,0c0.1,0,0.3,0,0.4-0.1L162.2,86.5z"/>
		<path class="st4" d="M171.1,86.4c-0.1,0-0.3,0.1-0.5,0.1c-0.2,0.1-0.4,0.1-0.7,0.1c-0.5,0-0.8-0.1-1-0.4c-0.2-0.2-0.2-0.7-0.1-1.3
			l1.2-6.1l-1.2,0l0.2-0.8l1.2,0l0.5-2.3l1,0l-0.5,2.3l1.6,0l-0.2,0.8l-1.6,0l-1.2,5.7c0,0.2-0.1,0.4-0.1,0.5c0,0.1,0,0.3,0,0.4
			c0,0.1,0.1,0.2,0.2,0.2c0.1,0,0.3,0.1,0.5,0.1c0.1,0,0.3,0,0.4,0c0.1,0,0.3,0,0.4-0.1L171.1,86.4z"/>
		<path class="st4" d="M175.9,86.6c-0.5,0-1-0.1-1.4-0.3c-0.4-0.2-0.8-0.4-1-0.8c-0.3-0.4-0.5-0.8-0.5-1.4s-0.1-1.2,0.1-1.9
			c0.1-0.6,0.3-1.2,0.6-1.7c0.3-0.5,0.6-1,1-1.4s0.9-0.7,1.4-0.9c0.5-0.2,1.1-0.4,1.8-0.4c0.7,0,1.2,0.1,1.6,0.3
			c0.4,0.2,0.8,0.5,1,0.9s0.4,0.8,0.4,1.4c0,0.5,0,1.1-0.1,1.7c-0.1,0.7-0.3,1.3-0.6,1.8s-0.6,1-1.1,1.4c-0.4,0.4-0.9,0.7-1.4,0.9
			C177,86.5,176.5,86.6,175.9,86.6z M179.6,82.2c0.1-0.5,0.1-1,0.1-1.4s-0.1-0.8-0.3-1.1c-0.2-0.3-0.4-0.6-0.7-0.7
			c-0.3-0.2-0.7-0.3-1.2-0.3c-0.5,0-1,0.1-1.4,0.3c-0.4,0.2-0.7,0.5-1,0.8c-0.3,0.3-0.5,0.7-0.7,1.1c-0.2,0.4-0.3,0.9-0.4,1.3
			c-0.1,0.5-0.1,1-0.1,1.4c0,0.4,0.1,0.8,0.3,1.1c0.2,0.3,0.4,0.5,0.7,0.7c0.3,0.2,0.7,0.3,1.2,0.2c0.5,0,1-0.1,1.4-0.3
			c0.4-0.2,0.7-0.5,1-0.8c0.3-0.3,0.5-0.7,0.7-1.1C179.4,83.1,179.5,82.6,179.6,82.2z"/>
	</g>
	<g class="st11">
		<path class="st7" d="M35.9,100.3l-9.2,0.1l0,5.1l7.3,0l0,3.6l-7.3,0l0.1,9.2l-4.4,0l-0.1-21.8l13.6-0.1L35.9,100.3z"/>
		<path class="st7" d="M39.5,96.5l4.4,0l0.1,21.8l-4.4,0L39.5,96.5z"/>
		<path class="st7" d="M62.7,96.3l4.1,0l0.1,21.8l-4.2,0l-9.6-14.9l0.1,15l-4.1,0L49,96.4l4.2,0l9.6,15L62.7,96.3z"/>
		<path class="st7" d="M79.4,96.2c5.1,0,8.7,2.4,8.7,7.6l0,6.6c0,5.2-4,7.6-8.9,7.6l-7.7,0l-0.1-21.8L79.4,96.2z M83.7,104.2
			c0-2.9-1.9-4.2-4.3-4.2l-3.6,0l0.1,14.2l3.3,0c2.4,0,4.5-1.2,4.5-4.2L83.7,104.2z"/>
		<path class="st7" d="M110,95.9l7.3,21.9l-4.9,0l-1.5-5l-6.8,0l-1.4,5l-4.9,0l7.2-22L110,95.9z M110.1,109.3l-2.6-8.5l-2.5,8.5
			L110.1,109.3z"/>
		<path class="st7" d="M140.8,95.9l4.4,0l0.1,21.8l-4.4,0l-0.1-8.8l-9.2,0.1l0.1,8.8l-4.4,0L127.2,96l4.4,0l0.1,9.2l9.2-0.1
			L140.8,95.9z"/>
		<path class="st7" d="M167.4,102.5l0,8.2c0,4.7-3.5,7.2-8.6,7.2l-0.5,0c-5.2,0-8.7-2.4-8.7-7.1l0-8.2c0-4.4,3.7-7.1,8.6-7.2l0.5,0
			C163.6,95.4,167.4,98.1,167.4,102.5z M162.9,102.9c0-2.4-1.8-3.7-4.2-3.7l-0.5,0c-2.5,0-4.2,1.4-4.2,3.7l0,7.6
			c0,2.5,1.7,3.7,4.2,3.7l0.5,0c2.6,0,4.2-1.2,4.2-3.7L162.9,102.9z"/>
		<path class="st7" d="M176.4,95.7l6.5,12l6.4-12.1l4.8,0l0.1,21.8l-4.5,0l-0.1-15.2l-5.4,10.7l-2.7,0l-5.5-10.6l0.1,15.2l-4.4,0
			l-0.1-21.8L176.4,95.7z"/>
		<path class="st7" d="M203.2,108l0,5.5l9.9-0.1l0,3.7l-14.3,0.1l-0.1-21.8l13.6-0.1l0,3.8l-9.2,0.1l0,5.1l7.3,0l0,3.6L203.2,108z"
			/>
		<path class="st7" d="M228.5,99.8l0,1.1c0,2-1.5,3.1-2.9,4.2c-1.6,1.2-2.3,1.9-2.3,3.7l0,1.4l-4.3,0l0-1.9c0-1.9,0.8-3.1,2.4-4.2
			c1.2-0.9,2.5-1.8,2.4-2.7l0-0.8c0-1.2-1.2-1.6-2.9-1.6c-1.6,0-3.4,0.7-4.4,1.4l-1.5-3c1.7-1.2,4.1-2.2,6.5-2.2
			C225.9,95,228.5,96.5,228.5,99.8z M218.8,113.2l5.1,0l0,3.9l-5.1,0L218.8,113.2z"/>
	</g>
</g>
<g id="Layer_2_1_" class="st12">
	<text transform="matrix(1 -6.010000e-03 6.010000e-03 1 69.2319 86.997)" class="st13 st5 st6">Do You Want to</text>
	<text transform="matrix(1 -6.010000e-03 6.010000e-03 1 20.1436 118.3604)" class="st14 st8 st9">FIND A HOME?</text>
</g>
</svg>
