<?xml version="1.0" encoding="utf-8"?>
<!-- Generator: Adobe Illustrator 21.0.2, SVG Export Plug-In . SVG Version: 6.00 Build 0)  -->
<svg version="1.1" id="Layer_1" xmlns="http://www.w3.org/2000/svg" xmlns:xlink="http://www.w3.org/1999/xlink" x="0px" y="0px"
	 viewBox="0 0 80 120" style="enable-background:new 0 0 80 120;" xml:space="preserve">
<style type="text/css">
	.st0{fill:#FFFFFF;}
	.st1{opacity:0.5;fill:#7AA154;}
	.st2{opacity:0.25;}
	.st3{fill:#4C4C4C;}
	.st4{opacity:0.25;fill:#7AA154;}
</style>
<g>
	<path class="st0" d="M40,0C17.9,0,0,18.1,0,40.4c0,14.9,9.8,24.8,9.8,24.8c5.6,5.6,10.2,18,10.2,24.2c0,2.9,2.9,2.9,2.9,2.9h14.9
		V67.2c-1.1-5-2.5-15.5,2.2-23.8C44.7,35,54.7,31,59.4,29.5c1.1,4.9,2.6,15.6-2.2,24c-3.5,6.2-9.9,10-14.9,12.2v26.7h14.9
		c0,0,2.9,0,2.9-2.9c0-6.3,4.6-18.7,10.2-24.2c0,0,9.8-9.8,9.8-24.8C80,18.1,62.1,0,40,0z M17.7,39.1c0,0,11-0.6,17.4,5.9
		c0.2,0.2,0.4,0.4,0.6,0.6C33.7,51.2,33.5,57.2,34,62c-3.4-0.7-7.4-2.2-10.4-5.2C17.1,50.3,17.7,39.1,17.7,39.1z"/>
	<path class="st1" d="M40,0C17.9,0,0,18.1,0,40.4c0,14.9,9.8,24.8,9.8,24.8c5.6,5.6,10.2,18,10.2,24.2c0,2.9,2.9,2.9,2.9,2.9h14.9
		V67.2c-1.1-5-2.5-15.5,2.2-23.8C44.7,35,54.7,31,59.4,29.5c1.1,4.9,2.6,15.6-2.2,24c-3.5,6.2-9.9,10-14.9,12.2v26.7h14.9
		c0,0,2.9,0,2.9-2.9c0-6.3,4.6-18.7,10.2-24.2c0,0,9.8-9.8,9.8-24.8C80,18.1,62.1,0,40,0z M17.7,39.1c0,0,11-0.6,17.4,5.9
		c0.2,0.2,0.4,0.4,0.6,0.6C33.7,51.2,33.5,57.2,34,62c-3.4-0.7-7.4-2.2-10.4-5.2C17.1,50.3,17.7,39.1,17.7,39.1z"/>
	<g>
		<g>
			<path class="st0" d="M54.3,96.9H25.7c-1.6,0-2.9,1.3-2.9,2.9c0,1.6,1.3,2.9,2.9,2.9h28.6c1.6,0,2.9-1.3,2.9-2.9
				C57.1,98.2,55.9,96.9,54.3,96.9z"/>
			<path class="st0" d="M54.3,105.6H25.7c-1.6,0-2.9,1.3-2.9,2.9c0,1.6,1.3,2.9,2.9,2.9h28.6c1.6,0,2.9-1.3,2.9-2.9
				C57.1,106.9,55.9,105.6,54.3,105.6z"/>
			<path class="st0" d="M45.7,114.2H34.3c-1.6,0-2.9,1.3-2.9,2.9c0,1.6,1.3,2.9,2.9,2.9h11.4c1.6,0,2.9-1.3,2.9-2.9
				C48.6,115.5,47.3,114.2,45.7,114.2z"/>
		</g>
	</g>
	<path class="st0" d="M60,89.4c0-6.3,4.6-18.7,10.2-24.2c0,0,9.8-9.8,9.8-24.8C80,22.1,68,6.7,51.5,1.7c0,0-4.7-1.7-11.8-1.7
		c0,0.6,0,43.7,0,43.7c0.1-0.1,0.1-0.2,0.2-0.4C44.7,35,54.7,31,59.4,29.5c1.1,4.9,2.6,15.6-2.2,24c-3.5,6.2-9.9,10-14.9,12.2v26.7
		h14.9C57.1,92.3,60,92.3,60,89.4z"/>
	<g class="st2">
		<g>
			<path class="st3" d="M54.3,96.9H25.7c-1.6,0-2.9,1.3-2.9,2.9c0,1.6,1.3,2.9,2.9,2.9h28.6c1.6,0,2.9-1.3,2.9-2.9
				C57.1,98.2,55.9,96.9,54.3,96.9z"/>
			<path class="st3" d="M54.3,105.6H25.7c-1.6,0-2.9,1.3-2.9,2.9c0,1.6,1.3,2.9,2.9,2.9h28.6c1.6,0,2.9-1.3,2.9-2.9
				C57.1,106.9,55.9,105.6,54.3,105.6z"/>
			<path class="st3" d="M45.7,114.2H34.3c-1.6,0-2.9,1.3-2.9,2.9c0,1.6,1.3,2.9,2.9,2.9h11.4c1.6,0,2.9-1.3,2.9-2.9
				C48.6,115.5,47.3,114.2,45.7,114.2z"/>
		</g>
	</g>
	<path class="st4" d="M60,89.4c0-6.3,4.6-18.7,10.2-24.2c0,0,9.8-9.8,9.8-24.8C80,22.1,68,6.7,51.5,1.7c0,0-4.7-1.7-11.8-1.7
		c0,0.6,0,43.7,0,43.7c0.1-0.1,0.1-0.2,0.2-0.4C44.7,35,54.7,31,59.4,29.5c1.1,4.9,2.6,15.6-2.2,24c-3.5,6.2-9.9,10-14.9,12.2v26.7
		h14.9C57.1,92.3,60,92.3,60,89.4z"/>
</g>
</svg>
