<?xml version="1.0" encoding="utf-8"?>
<!-- Generator: Adobe Illustrator 21.0.2, SVG Export Plug-In . SVG Version: 6.00 Build 0)  -->
<svg version="1.1" id="Layer_1" xmlns="http://www.w3.org/2000/svg" xmlns:xlink="http://www.w3.org/1999/xlink" x="0px" y="0px"
	 viewBox="0 0 637.3 398.9" style="enable-background:new 0 0 637.3 398.9;" xml:space="preserve">
<style type="text/css">
	.st0{fill:#C1C1C1;}
	.st1{fill:#78A140;}
	.st2{fill:#FFFFFF;}
	.st3{opacity:0.5;fill:#7AA154;}
	.st4{opacity:0.25;}
	.st5{fill:#4C4C4C;}
	.st6{opacity:0.25;fill:#7AA154;}
</style>
<g>
	<g>
		<path id="XMLID_69_" class="st0" d="M196.1,300.5c0.8-0.1,1.6-0.3,2.3-0.2c8.2,0.5,16.5,1,24.7,1.6c5.3,0.4,10.7,1,16,1.4
			c3.9,0.3,4.7-0.2,4.8-4c0.2-7.5,0.2-15,0.4-22.5c0.1-5.1,0.4-10.2,0.7-15.2c0.7-9.6,1.6-19.2,2.4-28.8c0.2-2,0.9-2.6,2.9-2.4
			c10.1,0.8,20.3,1.5,30.4,2.2c1.8,0.1,2.3,0.9,2.2,2.6c-0.4,7.9-0.6,15.9-1.1,23.8c-0.1,2.5,0.7,3.9,2.9,4.7
			c6.6,2.3,12.7,6.3,19.8,7.3c1.1,0.2,2.1,1,3.1,1.5c1.4,0.7,2.9,1.5,4.4,1.8c2.5,0.6,5.1,0.6,7.6,1.2c5.9,1.4,11.6,1.5,17.2-1.1
			c4.9-2.3,9.7-2,14.5,0.5c1.9,0.9,4.1,1.3,6.2,1.6c1.6,0.3,2,1,2,2.5c0,5.4-0.5,11,0.6,16.3c1.1,5.4,3.7,10.6,5.9,15.7
			c0.9,2.1,0.5,3.6-0.3,5.6c-1.2,3.1-1.8,6.5-2.2,9.8c-0.3,2.9,0.1,5.9,0.2,9.5c-2-1-3.9-1.9-5.7-2.9c-0.9-0.6-1.7-1.4-2.5-2.2
			c-1.7-1.8-3.4-1.9-5.3-0.2c-0.8,0.7-2,1-2.9,1.6c-0.7,0.4-1.2,1.1-1.7,1.6c0.6,0.6,1,1.2,1.7,1.6c1.5,1,3.2,1.7,4.5,2.9
			c1.9,1.7,1.5,3.5-0.6,5c-2.2,1.6-4.4,3.2-6.2,5.1c-3.2,3.4-6.6,6.1-11.5,6.3c-0.9,0-1.8,0.4-2.7,0.6c-1.8,0.5-2.5,1.6-2.3,3.4
			c0.2,2.4-1.2,4-3.7,4.3c-0.9,0.1-1.9,0-2.8,0.2c-0.7,0.1-2,0.7-1.9,0.9c0.4,3.1-4,5.3-1.5,8.7c0.2,0.2-0.3,1.1-0.6,1.4
			c-0.6,0.6-1.3,1.1-2,1.5c-3.7,2.6-3.6,2.6-1.8,6.6c0.9,2,0.9,4.3,1.4,6.5c0.8,3.2,1.8,6.4,2.8,10.1c-2.4-0.5-4.5-0.7-6.4-1.4
			c-4.7-1.8-9.3-3.8-13.9-5.8c-3.3-1.4-5.2-4-5.8-7.6c-0.4-2.6-0.6-5.3-1.2-7.8c-0.4-1.5-1.1-3.5-2.3-4.2c-2.8-1.5-4.1-4-5.5-6.5
			c-3.8-6.8-7.4-13.6-11.7-20.1c-5-7.6-12.7-9.7-21.3-8.9c-3.2,0.3-5.5,2.4-7.3,5.1c-1.2,1.8-2.5,3.7-4.1,5.1
			c-0.8,0.7-2.7,0.8-3.6,0.3c-3.3-1.9-6.9-3.7-9.5-6.4c-2.4-2.4-4.2-5.6-5.3-8.8c-3.5-10.1-9.8-18.2-17.5-25.4
			c-2.1-2-4.5-3.6-6.8-5.3C196,301,196.1,300.7,196.1,300.5z"/>
		<path id="XMLID_5_" class="st1" d="M89.8,270.9c-6-1-11.4-1.9-16.9-2.7c-4.4-0.6-8.8-1.2-13.2-1.6c-1.7-0.2-2.5-0.9-2.5-2.5
			c-0.1-5.3-3.2-9.5-4.8-14.2c0-0.1-0.1-0.2-0.1-0.2c-3.7-2.9-6.2-6.9-9.7-10c-2.5-2.3-5.2-4.3-7.9-6.3c-2.2-1.6-4.7-2.9-7-4.4
			c-1-0.7-2.2-1.5-2.7-2.5c-1.9-4.3-3.4-8.7-5.3-13c-1.5-3.2-3.5-6.2-5.2-9.4c-1.3-2.6-2.4-5.3-3.6-7.9c-1-2.1-0.1-3.9,1-5.5
			c1.5-2.3,1.2-4.2-0.3-6.3c-1.6-2.2-2.8-4.5-4.3-6.8c0.2-0.2,0.4-0.5,0.6-0.7c1,0,2.1,0,3.1,0.1c2.2,0.1,2.7-0.7,1.9-2.7
			c-0.5-1.3-0.5-2.7-0.5-4.1c0-2.3-0.8-3.1-2.9-2.6c-3.3,0.7-4.9-0.6-5.4-4c-0.4-2.6-0.9-5.2-2-7.5c-1.9-4.4-2.8-8.7-1.5-13.4
			c1.3-4.8,1-9.6,0.4-14.4c-0.3-2.2,0.2-4,1.5-6c3.6-5.4,5.7-11.6,7.4-18.5c14.4,4,28.7,7.9,43.3,11.9c-1.4,6.2-2.8,12.2-4.2,18.1
			c-2,8.7-4.2,17.4-6.1,26.2c-0.3,1.1,0.1,2.7,0.7,3.7c16,23.7,32.2,47.2,48.1,71c2.5,3.7,3.7,8.2,5.2,12.4c0.4,1.1-0.2,2.7-0.7,3.8
			c-1.1,2.1-2.3,4.2-3.8,6.1c-1.8,2.3-2,5-2.1,7.7C90.2,266.7,89.9,269,89.8,270.9z"/>
		<path id="XMLID_67_" class="st0" d="M180.6,26.6c1.6,0.5,3.2,1.3,4.8,1.4c12.5,1.1,25,2.1,37.5,3c6.2,0.4,12.5,0.5,18.7,0.6
			c1.6,0,2.2,0.5,2.1,2.3c-1.4,18.7-2.6,37.5-3.9,56.2c-0.1,1.1-0.3,2.2-0.4,3.6c-4.9-0.5-9.6-0.9-14.3-1.4c-20.5-2-40.9-4-61.4-6.1
			c-1.9-0.2-2.7,0.6-3,2.3c-0.2,1.3-0.7,2.1-2.2,1.7c-4.7-1.2-9.3-0.3-13.8,1.1c-1.5,0.5-2.5,0.1-3-1.4c-1.4-3.8-2.8-7.5-4-11.3
			c-0.2-0.7,0-1.7,0.1-2.5c0.8-4.7-1-6.6-5.7-6c-0.5,0.1-1,0.1-1.9,0.2c0.7-3.9,1-7.8,2.3-11.3c1.6-4.7-0.7-7.6-3.5-10.7
			c-0.2-0.2-0.4-0.4-0.6-0.5c-7.6-4.8-8.4-12.3-8.1-20.2c0.2-3.5,1-7.1,1.6-10.9c2.4,0.5,4.5,0.9,6.7,1.4
			c10.9,2.3,21.8,4.8,32.8,6.9c5.7,1.1,11.5,1.5,17.3,2.2C179.3,27.3,180,26.8,180.6,26.6C180.7,26.5,180.6,26.6,180.6,26.6z"/>
		<path id="XMLID_66_" class="st0" d="M161.4,303.1c3.8-28.2,7.6-56.2,11.5-84.5c24.3,1.7,48.4,3.4,72.9,5.2
			c-0.2,1.8-0.5,3.5-0.6,5.1c-1.1,14.9-2.2,29.8-3.2,44.6c-0.3,5.5-0.1,5.5,0.6,6.7c-0.5,1.1-1,1.7-1,2.4
			c-0.2,5.1-0.3,10.2-0.3,15.4c0,2.1-0.9,2.6-2.8,2.5c-9-0.7-17.9-1.4-26.9-2.1c-4.8-0.4-9.5-0.7-14.3-1c-0.9,0-2.2,0.1-2.5,0.7
			c-1.3,2.1-3.1,1.6-4.9,1.4c-5.5-0.7-11-1.3-16.5-2c-1.9-0.2-2.8,0.4-3.2,2.3c-0.8,4-0.9,4-4.9,3.7
			C164,303.4,162.9,303.2,161.4,303.1z"/>
		<path id="XMLID_65_" class="st0" d="M482.6,303.8c2,5.2,2,5.2,7.4,4.9c6.5-0.4,13-0.9,19.4-1.4c0.8-0.1,2.3-0.9,2.3-1.4
			c0.1-1.9-1.5-1.4-2.6-1.3c-6.5,0.4-13,0.7-19.4,1.3c-2.4,0.2-3.7-0.3-4.1-3c-0.6-3.8-1.9-7.5-2.5-11.2c-0.5-3-0.2-6.1-0.4-9.1
			c-0.1-1.9,0.1-4.3-0.9-5.6c-3.2-4.3-4.3-9.2-5.7-14.1c-2-7.2-4.1-14.4-6.3-22.3c9.1-1.1,17.9-2.2,27.3-3.3
			c-1.2,4.6,2.2,6.2,4.6,8.3c6.2,5.6,12.7,10.9,18.8,16.7c2.3,2.2,4.1,4.9,5.8,7.7c1.9,3.2,3.8,6.2,6.9,8.4c0.6,0.4,1.1,2,0.9,2.8
			c-2.1,6.2-2.3,12.7-2.1,19.5c-1.8-0.1-3.5-0.2-5.1-0.3c-2.3-0.1-4.1,0.3-3.9,3.3c0.1,0.6-0.2,1.1-0.4,1.9c-2-0.4-3.9-0.8-5.8-1
			c-0.9-0.1-1.9-0.3-2.8,0c-0.6,0.2-0.9,1-1.4,1.5c0.5,0.4,1,1.1,1.6,1.2c2.4,0.4,4.9,0.6,7.3,1c3.7,0.6,4,0.4,4.4-3.2
			c0-0.4,0.1-0.8,0.1-1.3c6.3-2.1,11,2.6,9.4,8.1c-0.9,3,0.9,4.7,2.1,6.9c3.7,6.6,7.2,13.4,10.7,20.1c3.4,6.5,7,12.9,10.2,19.5
			c0.8,1.7,0.9,3.8,1.1,5.8c0.2,2.1-0.4,4.3,0.1,6.3c1.4,5.3-0.6,9.9-2.6,14.5c-0.5,1.2-2.1,2.2-3.4,2.7c-1.7,0.7-2.9,0.1-3.7-1.9
			c-0.8-2.1-1.9-4.2-3.3-6c-1.2-1.4-2.8-2.7-4.5-3.4c-2.1-0.8-3.6-1.7-4-4.1c-0.2-0.9-0.7-1.8-1.4-2.4c-1.7-1.4-3.5-2.6-3.6-5.2
			c0-0.5-1-1.1-1.6-1.6c-3.8-2.8-5.8-6.4-5.2-11.2c0.2-2-0.6-3.1-2.3-3.7c-1.7-0.6-2.4-1.9-2.6-3.7c-0.3-4.3-0.8-8.7-1.4-13
			c-0.1-1-1.2-1.9-2-2.6c-2.9-2.3-6-4.4-8.9-6.8c-4.5-3.7-10.9-5.4-16.3-1.6c-1.3,0.9-3,2.4-4.3,2.2c-2.9-0.5-6.4-1.2-8.1-3.1
			c-3.6-4.2-8.7-4-13.1-5.6c-0.6-0.2-1.5,0.1-2.2,0.3c-2.2,0.4-4.3,1-6.5,1.4c-5,0.9-5.4,0.6-7.6-4.1c-0.8-1.7-0.3-2.4,1.4-2.5
			c2.5-0.2,5-0.3,7.4-0.7c6.9-1.2,13.8-2.4,20.7-3.7C481,304.2,481.7,304,482.6,303.8z"/>
		<path id="XMLID_4_" class="st1" d="M110.1,207.9c20,3.4,39.8,6.7,59.9,10.1c-3.8,28.3-7.6,56.3-11.4,84.7c-3.6-0.4-7-0.7-10.4-1
			c-3.8-0.4-7.6-0.8-11.4-1.5c-1.9-0.3-3.8-0.9-5.4-1.9c-11.4-6.7-22.8-13.4-34.2-20.2c-0.7-0.4-1.3-0.8-1.9-1.2
			c-3.5-2.5-3.5-2.5-2.6-6.5c0.2-1.1,0.5-2.2,0.4-3.3c-0.3-4.6,0.9-8.8,3.9-12.3c3.7-4.3,3.9-8.6,1.1-13.4c-1.3-2.3-1.5-4.4-0.4-7.2
			c1.1-2.8,0.7-6.2,0.7-9.3c0-4,0.3-4.3,4-3c4.4,1.5,5.3,1,6-3.8C108.9,214.8,109.5,211.6,110.1,207.9z"/>
		<path id="XMLID_3_" class="st1" d="M105.4,219.8c-1.5-0.5-2.6-0.8-3.6-1.1c-4-1.2-6.3,0.5-6.3,4.7c0,2.6,0.1,5.1,0.1,7.7
			c0,0.7-0.2,1.5-0.4,3c-3.3-4.9-6.3-9.2-9.2-13.4c-11.4-16.8-22.9-33.6-34.3-50.4c-1.8-2.7-3.7-5.4-5.5-8.1
			c-0.4-0.6-0.5-1.6-0.4-2.4c3.3-14.1,6.6-28.3,9.9-42.4c0.1-0.3,0.3-0.6,0.3-0.6c21.4,4.1,42.6,8.2,64.1,12.4
			C115.2,159.3,110.3,189.3,105.4,219.8z"/>
		<path id="XMLID_62_" class="st0" d="M181.6,153.7c1.3,0.1,2.2,0.1,3.1,0.2c6.5,0.6,13,1.2,19.5,1.9c4.8,0.5,9.5,1,14.3,1.5
			c2.9,0.3,5.9,0.7,8.8,0.8c1.2,0.1,2.4-0.3,3.3-0.5c1,0.4,1.7,1,2.6,1.1c7.8,1,15.6,1.9,23.4,2.7c2.1,0.2,2.8,0.9,2.7,3
			c-0.4,11.9-0.8,23.9-1.2,35.8c-0.2,7-0.5,14-0.8,21.5c-28.1-2-55.9-4-84.1-6C176,194.8,178.8,174.3,181.6,153.7z"/>
		<path id="XMLID_61_" class="st0" d="M239.3,96.6c-1.4,19.9-2.9,39.4-4.3,59.6c-26.5-2.8-52.7-5.5-79.3-8.3
			c0.5-3.5,1.1-6.7,1.5-9.8c1.8-14.2,3.6-28.4,5.4-42.6c0.8-6.4,0.9-6.3,7.2-5.6c21,2.1,41.9,4.1,62.9,6.2
			C234.8,96.2,237,96.4,239.3,96.6z"/>
		<path id="XMLID_60_" class="st0" d="M87.6,120.4c-7.2-1.5-14.1-2.8-20.8-4.5c-16.8-4.4-33.6-9.1-50.4-13.6c-0.2,0-0.3-0.1-0.5-0.1
			c-6.3-1.5-6.3-1.5-6-7.9c0.1-2,0.2-3.9,0.5-5.9c0.2-1.1,0.7-2.3,1.3-3.3c1.6-2.7,3.7-5.1,4.9-8c4.1-9.8,7.9-19.6,11.7-29.5
			c0.7-1.8,1.4-2.9,3.7-2.1c2.3,0.7,5.3-0.3,6.9,2.4c0.6,1.1,1.3,2.2,1.4,3.4c0.5,4.5,2.4,6.5,7,7.2c0.8,0.1,1.5,0.2,2.3,0.1
			c3.2-0.4,5.9,0.4,8.8,2.1c4.3,2.5,9.2,1.3,13.9,0c1.4-0.4,2.9-0.5,4.3-0.3c3.9,0.4,7.7,1,11.6,1.7c2,0.3,3.9,0.9,5.9,1.3
			c2.7,0.6,5.4,0.9,7.9,1.9c1.5,0.6,3.1,2,3.9,3.4c0.9,1.8-1.2,2.4-2.4,3.3c-2.7,1.9-5.9,3.5-7.7,6.1c-1.6,2.4-1.7,5.9-2.3,8.9
			c-0.2,1.1,0.1,2.2-0.1,3.3c-1.6,8.8-3.3,17.6-5,26.4C88.1,117.7,87.9,118.8,87.6,120.4z"/>
		<path id="XMLID_2_" class="st1" d="M110.9,205.1c4-25.3,8-50.2,12-75.6c3.2,0.5,6.4,1,9.5,1.6c6.5,1.2,12.9,2.4,19.4,3.5
			c2.1,0.3,3,0.9,2.4,3.3c-0.6,2.8-0.8,5.7-1.2,8.6c-0.5,3.6-0.3,3.9,3.4,4.3c6.5,0.7,13.1,1.4,19.6,2.1c0.7,0.1,1.5,0.3,2.7,0.5
			c-2.8,20.5-5.5,40.9-8.3,61.7C150.4,211.8,130.7,208.5,110.9,205.1z"/>
		<path id="XMLID_58_" class="st0" d="M344.4,175c0,1.1-0.1,2.1-0.1,3.2c0,0.6,0.6,1.4,0.4,1.8c-1.7,2.8-0.2,5,1.8,6.5
			c2.6,2.1,3,4.4,2.9,7.5c-0.3,8,0,16,0.1,24.1c0,0.8,0,1.7,0.1,2.8c-1,0-1.9,0.1-2.7,0.1c-21.7,0.5-43.4,1.2-65.1,1.5
			c-7,0.1-14.1-0.4-21.6-0.7c0.5-15.6,1-30.7,1.5-46.3c1.7,0.1,3.1,0.1,4.6,0.3c22.6,2,45.2,2.2,67.8,0.5
			C337.6,176.2,341.1,175.5,344.4,175L344.4,175z"/>
		<path id="XMLID_57_" class="st0" d="M391.7,43.6c-3.8,2-7.2,3.7-10.5,5.7c-1.7,1.1-3.4,2.6-4.4,4.3c-1.6,2.6-2.5,5.6-3.8,8.3
			c-0.5,1-1.5,1.8-2.4,2.6c-1.6,1.4-2.1,3.1-2.2,5.2c-0.1,1.8-0.6,3.8-1.6,5.1c-3,3.9-3.9,7.7-2,12.4c0.9,2.3,0.8,5,1.2,7.5
			c0.8,4.9,2.2,6.3,7,6.9c2.1,0.3,3,1.3,4.2,3.1c1.4,2.2,3.9,3.7,5.8,5.6c0.9,0.9,1.6,2,2.4,3.1c-0.2,0.2-0.4,0.5-0.5,0.7
			c-18.9,1.3-37.7,2.6-56.5,3.9c-0.1-3.3-0.2-6.4-0.3-9.4c-0.2-6-0.3-11.9-0.6-17.9c-0.2-2.9-1.3-5.4-3.8-7.2
			c-0.6-0.4-1-1.6-0.9-2.4c0.8-4.7,0.7-9.3-0.1-14c-0.6-3.5,0-7.1-0.2-10.7c-0.1-1.4-0.4-3-1.1-4.2c-3.5-6-2.7-12.5-3-19.2
			c1.6,0,3.2,0,4.7-0.1c6.2-0.5,12.2,0.1,18,2.7c3.6,1.7,7.5,2.1,11.5,1.5c4.9-0.7,9.6,0.3,14,2.3c5.8,2.6,11.7,4.1,18.1,2.4
			C386.9,41.3,389.7,41,391.7,43.6z"/>
		<path id="XMLID_56_" class="st0" d="M240.1,125.4c1.1-15.2,2.2-30.1,3.2-44.5c25.5,0.3,50.7,0.7,75.6,1c1.3,1.5,2.9,2.9,3.9,4.8
			c1,2,2,4.2,2.1,6.4c0.6,10.4,1.3,20.8-0.9,31.1c-0.4,2-0.2,4.2-0.3,6.3c-2.7-0.7-5.2-1.4-7.7-1.8c-1.9-0.3-4.1-0.5-5.8,0.2
			c-2.3,0.8-4,0.4-5.8-0.8c-2.4-1.6-4.9-2-7.8-1.8c-17.9,1.4-35.8,0.8-53.7-0.6C242.1,125.7,241.3,125.6,240.1,125.4z"/>
		<path id="XMLID_55_" class="st0" d="M113.4,14.8c0.5-0.1,0.7-0.1,0.9-0.1c5.9,1.2,5.1,0.8,4.1,5.7c-1.6,7.6-1.5,15.1,1.6,22.3
			c0.7,1.7,2.1,3.2,3.4,4.6c1,1.1,2.4,1.9,3.5,3c2.2,2.2,3.9,4.4,2.7,8.1c-1.2,3.4-1.5,7.2-2.2,10.8c-0.5,2.6,0.6,3.9,3.2,4
			c0.6,0,1.2-0.1,1.8-0.1c2.8-0.3,2.7-0.1,2.6,2.7c-0.1,1.8,0.2,3.7,0.7,5.4c0.8,3,1.9,5.9,2.9,8.7c1.7,4.6,3.1,5.3,7.8,4
			c3.7-1,7.3-1.8,11.1-0.9c0.7,0.2,1.5,0.3,2.4,0.5c-1.6,13-3.2,25.8-4.8,38.9c-5.5-1-10.9-2-16.4-3c-15-2.7-30-5.5-45.1-8.2
			c-2.2-0.4-3-1.1-2.5-3.5c1.8-8.9,3.5-17.9,5.1-26.9c0.5-2.7,0.3-5.4,0.5-8.1c0.2-1.8,1-3,2.7-4c2.8-1.7,5.4-3.8,8-5.8
			c1.7-1.3,2.5-4.6,0.9-6.2c-4.5-4.7-3-10.2-2.1-15.4c1.6-9.1,3.7-18,5.5-27.1C112.3,21.1,112.8,18,113.4,14.8z"/>
		<path id="XMLID_54_" class="st0" d="M262.3,172.4c-0.1-3.5-0.3-7-0.3-10.5c0-2.2-0.9-3-3-3.2c-6.3-0.6-12.5-1.4-18.8-2.1
			c-1.2-0.1-2.4-0.1-2.2-2c0.7-8.6,1.3-17.2,1.9-26.1c3.9,0.3,7.6,0.7,11.3,0.8c15.1,0.5,30.2,1.4,45.3-0.1c2.3-0.2,4.4,0.1,6.3,1.4
			c2.5,1.6,5.1,2,8,1.2c4.3-1.2,8.2,0.8,12.2,1.8c0.3,0.1,0.6,0.4,0.7,0.7c3.4,7.5,6.9,15,10.1,22.6c0.8,2,0.6,4.4,1,6.6
			c0.5,3.1,1.5,6,4,8.1c0.4,0.3,0.5,0.8,0.8,1.2C335.7,175.1,270.8,174.8,262.3,172.4z"/>
		<path id="XMLID_53_" class="st0" d="M64.6,1.6c3.1,0.8,6.2,1.5,9.3,2.3c1.2,0.5,2.3,1.2,3.5,1.5C87.4,8,97.5,10.5,107.6,13
			c1,0.2,1.9,0.6,2.7,0.8c-1.5,16.4-7.4,31.8-8.2,48.6c-2.4-0.6-4.8-1.2-7.3-1.8c-1.9-0.5-3.7-1-5.6-1.3c-4.3-0.7-8.5-1.4-12.8-1.9
			c-1.6-0.2-3.3,0-4.9,0.4c-4.9,1.4-9.6,2.5-14.3-1c-1.3-1-3.5-0.9-5.3-1.1c-1.6-0.2-3.3,0.1-4.8-0.2c-2.4-0.5-4-1.5-4-4.6
			c0-4.4-3.8-7.7-8.1-7.9c-1.3-0.1-2.6-0.4-3.5-0.5c0.2-3.4,0.4-6.5,0.6-9.6c0.1-0.6,0.4-1.3,0.7-1.8c1.2-2.3,2.7-4.5,0.5-7
			c-0.3-0.3-0.2-0.9-0.2-1.4c0-4.4-0.1-8.8-0.1-13.2c0-1.3-0.1-2.6,0.3-4.2c5.1,3.8,12.2,2.9,17.2,8.2c-2,1.4-4,2.6-5.8,4
			c-0.5,0.4-1.3,1.6-1.1,1.8c1.4,2,2.8,4.2,4.7,5.6c1.3,1,4.1-1.1,4.9-3.1c0.2-0.6,0.5-1.1,0.5-1.7c0.1-3.2,0.4-6.2,2.8-8.7
			C57,10.9,57,10,56.9,9.4c-0.2-3-0.6-5.9-0.9-8.8C59.2,1,61.9,1.3,64.6,1.6z"/>
		<path id="XMLID_52_" class="st0" d="M243.6,77.1c1-15.1,2-29.9,3.1-45.1c3.5,0.1,7,0.3,10.4,0.4c11.5,0.3,23,0.7,34.5,0.8
			c7,0.1,14-0.1,21-0.3c2.3-0.1,3.1,0.9,3.1,2.9c0,1.2,0.2,2.4,0.1,3.6c-0.3,4.3,0.4,8.4,2.3,12.4c1.8,3.7,2.3,7.8,1.8,12
			c-0.2,1.9,0.1,3.9,0.3,5.8c0.1,0.8,0.3,1.7,0.5,2.5c0.9,5.1-0.1,6.5-5.1,6.5c-17.1,0-34.1,0-51.2-0.1c-6.1-0.1-12.3-0.6-18.4-1
			C245.2,77.4,244.6,77.3,243.6,77.1z"/>
		<path id="XMLID_51_" class="st0" d="M344.5,175.1c-1.7-2-3.4-4-5-6c-0.3-0.4-0.7-1-0.6-1.2c0.2-0.4,0.8-0.9,1.3-1
			c4.9-0.4,9.7-0.8,14.6-1.1c5.7-0.4,11.4-0.9,17.1-1.2c4.9-0.2,9.8,0,14.7,0c0.5,3,0.5,5.6,1.3,7.8c1,2.6,2.4,5,4.1,7.2
			c1.9,2.6,4.3,4.8,6.6,7.1c0.9,0.8,2.1,1.5,3.2,1.9c1.9,0.7,2.5,1.7,1.9,3.7c-1.9,6.3-1,8.5,5,11c4,1.7,6.3,4,6.3,8.5
			c0.1,2.8,1.1,5.2,4.3,5.8c-0.3,2.6,0,4.9-3,6.3c-1.1,0.5-1.5,3.2-1.8,4.9c-0.5,3.2-0.3,3.2-4.1,2.8c0.1-1.1,0.2-2.1,0.3-3.2
			c0.3-2.9-0.3-3.6-3.1-3.4c-9.8,0.5-19.6,1.1-29.4,1.7c-7.5,0.4-15,0.9-22.5,1.4c-1.8,0.1-2.5-0.4-2.6-2.2
			c-0.3-7.8-0.8-15.7-1-23.5c-0.1-3.7,0.1-7.3,0.3-11c0.1-2.3-0.7-4-2.6-5.5c-1.6-1.3-3.6-2.5-2-5.4
			C348.9,178.7,346.4,175.2,344.5,175.1C344.4,175,344.5,175.1,344.5,175.1z"/>
		<path id="XMLID_50_" class="st0" d="M353.6,272.3c-0.4-0.1-0.7,0-0.9-0.1c-6-3.3-12.1-2.9-18-0.2c-4.5,2.1-8.9,1.7-13.5,0.8
			c-2.4-0.4-4.9-0.7-7.3-1.3c-1.7-0.4-3.4-1.4-5.1-2c-2.6-0.9-5.3-1.7-8-2.6c-1.9-0.6-3.8-1.3-5.7-2c-2.8-1.1-5.5-2.4-8.3-3.5
			c-1.7-0.6-2.3-1.6-2.2-3.4c0.4-7.4,0.7-14.8,1.1-22.3c0-0.8,0-1.5,0.1-2.3c0.2-2.4-0.9-3.4-3.4-3.6c-10.5-0.6-21-1.5-31.4-2.2
			c-0.8-0.1-1.7-0.3-2.6-0.4c0-1.8-0.2-3.4,2.4-3.1c24.1,2.7,48.1,0.4,72.2,0.1c8.2-0.1,16.4-0.2,24.6-0.2c1.2,0,2.3-0.2,2.6,1.6
			c1.1,6.7,2.8,13.4,3.3,20.2c0.6,8.2,0.4,16.5,0.4,24.8C354,271.1,353.7,271.7,353.6,272.3z"/>
		<path id="XMLID_49_" class="st0" d="M384.6,60.5c0.3,4.5,1.9,5.5,7.7,4.5c0.8,5.8,5.1,7.2,10.1,7.9c4.1,0.6,8.2,1.5,12.4,2.1
			c2,0.3,3.2,1.4,4,3.1c0.8,1.7,1.5,3.5,2,5.2c0.2,0.6-0.2,1.4-0.5,2c-0.6,1.1-1.6,2.1-2,3.3c-0.2,0.8,0,2.1,0.6,2.7
			c0.5,0.5,1.8,0.7,2.5,0.4c1.5-0.6,2.7-1.7,4.3-2.7c-0.1,0.7-0.1,1.4-0.4,1.9c-1.8,3.8-1.9,7.7-1.7,11.8c0.1,3.3-0.2,6.6-0.1,10
			c0.1,1.6,0.3,3.5,1.2,4.8c1.9,2.7,1.2,5.4,0.9,8.1c0,0.4-1.1,1-1.7,1.1c-8.8,1-17.6,2.1-26.5,2.6c-1.9,0.1-4.3-1.9-5.8-3.6
			c-2.6-2.8-4.6-6.1-3.7-10.4c0.6-3.2-0.6-5.6-3.4-7.4c-2.4-1.5-4.3-3.3-5.8-5.9c-0.8-1.5-3.4-2.6-5.3-2.8c-3.1-0.4-4.2-2.1-4.7-4.8
			c-0.6-3.6-1.5-7.2-1.9-10.8c-0.2-1.6,0.3-3.6,1.2-4.9c2-2.9,3.5-5.8,3.5-9.6c0-1.4,1.9-3.2,3.3-4.1c2.5-1.6,5.3-2.6,8-3.8
			C383.4,60.7,384,60.6,384.6,60.5z"/>
		<path id="XMLID_48_" class="st0" d="M384.4,117.1c2,5.2,3.8,10.2,8.6,13.3c1.1,0.7,2.1,1.7,3.1,2.6c3.7,3.3,3.5,8.1-0.4,11.2
			c-1.3,1-2.9,1.8-3.7,3.1c-0.9,1.2-1.6,3.1-1.3,4.5c0.4,1.7,0,2.9-0.8,4.3c-1.1,1.9-2,3.9-3.2,6.1c-9.4-1.8-19.1,0.1-28.9,0.5
			c-6,0.3-12,0.7-17.9,1.3c-1.7,0.1-2.3-0.4-2.5-2c-0.8-9.3-5.8-17-9.6-25.1c-2.3-4.9-1.7-10-0.5-15c0.1-0.5,1.5-0.9,2.3-1
			c13.4-1,26.8-1.8,40.1-2.8C374.8,117.8,379.7,117.4,384.4,117.1z"/>
		<path id="XMLID_47_" class="st0" d="M399.9,132c7.4-0.8,14.6-1.5,21.8-2.3c5.9-0.6,5.9-0.6,8.7,4.7c0.8,1.5,1.2,2.9,0.4,4.6
			c-0.5,0.9-0.4,2.2-0.3,3.3c0.8,8.2,1.7,16.3,2.4,24.5c0.2,2.5,0.1,5.1,0.2,7.6c0.1,2-0.3,4.3,0.6,6c1.5,3.1,1,5.9,0.3,8.9
			c-0.9,3.7-1.6,7.5-2.4,11.2c-0.5,2.3-1.1,4.3-2.8,6.1c-1.4,1.5-1.9,3.9-3,6.1c-0.6-0.1-1.5-0.4-2.4-0.3c-1,0.1-2,0.6-2.9,1.1
			c-0.5,0.2-0.8,0.6-1.3,1c-0.3-0.5-0.9-1-1-1.6c-0.4-1.7-0.7-3.3-0.9-5c-0.3-2.4-1.6-4.1-3.8-5.1c-1.8-0.9-3.7-1.8-5.5-2.8
			c-2.1-1.1-3-2.7-2.1-5.1c0.4-1.1,0.8-2.3,0.9-3.5c0.2-2.2-0.4-4-2.9-4.8c-2-0.6-3.4-1.9-4.6-3.7c-1.4-2.1-3.6-3.6-5.4-5.4
			c-4.4-4.3-5.4-13.7-2-18.8c1.6-2.4,3.1-4.7,1.7-7.8c-0.2-0.4,0.3-1.1,0.6-1.5c0.6-0.6,1.3-1.1,2-1.6
			C402.2,143.2,403.3,138.9,399.9,132z"/>
		<path id="XMLID_46_" class="st0" d="M354,231c18.1-1.1,35.8-2.2,53.5-3.3c0.1,2.4-0.6,4.9,0.4,6.1c0.9,1.1,3.5,0.9,6,1.5
			c-2.8,6.4-4.9,13.1-8.4,19.1c-4.8,8.3-9.1,16.4-7.7,26.7c-1,0.1-2,0.2-3,0.3c-6.1,0.2-12.1,0.3-18.2,0.5
			c-4.6,0.1-9.3,0.3-14.1,0.4c-0.1-2.4,0.5-4.9-0.4-6.5c-0.8-1.5-3.3-2-5.5-3.2C358.1,259.1,357.1,245.3,354,231z"/>
		<path id="XMLID_45_" class="st0" d="M482.1,301c-5,1.1-9.9,2.4-14.8,3.2c-5,0.8-10,1.1-15,1.6c-4.5,0.5-5.9,3.1-3.8,7.1
			c0.7,1.4,1.4,2.9,2.1,4.2c-2.9,2.1-3.2,2-4.4-0.8c-0.4-1-1.4-1.7-2.2-2.5c-0.8,0.8-1.6,1.5-2.3,2.4c-0.5,0.6-0.7,1.3-1.7,1.9
			c-0.4-3.2-0.8-6.4-1.2-9.7c-2-14.1-1.7-28.3-1.1-42.4c0.2-6.1,0.6-12.1,0.8-18.2c0.1-1.7,0.6-2.4,2.3-2.7
			c8.1-1.2,16.2-2.5,24.3-3.9c1.8-0.3,2.2,0.6,2.6,1.9c2.6,9.3,5.3,18.6,8,27.8c0.5,1.7,1.3,3.3,2.3,4.7c1.6,2.2,2,4.4,2,7.1
			c-0.1,4.5,0.8,9.1,1.3,13.7C481.3,297.9,481.7,299.2,482.1,301z"/>
		<path id="XMLID_44_" class="st0" d="M426,329.6c-1.3,3-4.4,4.7-2.3,7.7c1.4,2,3.4,3.6,5,5.8c-1.6-0.9-3.2-1.7-4.7-2.7
			c-1.1-0.7-1.9-1.8-3-2.3c-1.3-0.6-2.8-0.9-4.2-0.8c-0.4,0-0.5,2.2-0.8,3.5c-4.6,0.1-9.5,0.3-14.7,0.4c-0.5-5.9-5.2-6.4-9-7.6
			c-1.1-0.4-3.2,0.7-4.1,1.7c-1.4,1.5-2.5,2.4-4.7,1.3c-2.7-1.3-5.7-2.3-8.6-3c-1.6-0.4-3.5,0.1-5.2,0.3c-0.8,0.1-1.5,0.7-2.8,1.3
			c-0.1-4.2-0.6-7.9-0.2-11.5c0.4-3.8,2.2-7.6,2.5-11.4c0.2-1.8-1.1-4.3-2.5-5.7c-2.3-2.4-2.3-5.5-3.2-8.2c-1.1-3.5-1.2-7.3-2-11
			c-0.4-1.9,0.4-2.8,2-2.9c6.1-0.2,12.3-0.2,18.4-0.3c4.5,0,9,0,13.6-0.1c1.9-0.1,2.7,0.3,2.9,2.4c0.2,2,0.9,4,1.9,5.7
			c0.9,1.5,0.8,2.5-0.3,3.8c-3.9,4.7-5.6,10.2-5.7,16.3c-0.1,2.2,0.9,3.1,3.1,3c6.1-0.4,12.1-0.6,18.2-1c1.6-0.1,2.6,0.2,3.3,1.7
			c0.6,1.1,1.3,2.2,2,3.3c1.1,1.7,2.4,3.3-0.8,4.4c-0.5,0.2-0.9,2.2-0.6,3.1c0.6,1.7,1.7,3.2,4,2.8
			C424.2,329.6,425.1,329.6,426,329.6z"/>
		<path id="XMLID_43_" class="st0" d="M570.4,49.2c0.8,1.7,1.6,3,2,4.5c0.8,2.4,1.3,4.9,2.1,7.3c0.9,2.9,1.4,6.2,3.1,8.6
			c4.6,6.4,6.2,13.2,5.6,21c-0.3,3.1,0.5,6.4,1.4,9.5c1.1,4.1,1.8,8.1,1.1,12.5c-3.7-0.6-7.5-0.6-10.9-1.9c-2.1-0.8-3.7-3.2-5.2-5.1
			c-1.7-2.1-3.2-2.4-5.9-1.6c-14,4-28.1,7.8-42.2,11.6c-0.3,0.1-0.7,0.1-1.1,0.1c-1.1-2.2-1.2-4.1,0.6-6c1.1-1.2,1.9-2.6,2.9-3.9
			c2-2.6,2.7-5.3,1.5-8.6c-1.3-3.6-0.4-4.5,3.4-5.3c4.6-1,9.2-2,13.6-3.5c4.3-1.5,7-5.5,6.6-9.5c-0.7-6.7,2.9-11.5,5.1-17
			c1.6-4.1,4.4-6.9,8.5-8.6C565.2,52.1,567.7,50.5,570.4,49.2z"/>
		<path id="XMLID_42_" class="st0" d="M435.5,246.1c-0.1,3.2-0.2,6-0.3,8.8c-0.3,10.7-0.9,21.3-0.8,32c0,7.2,1,14.4,1.6,21.7
			c0.2,2.9,0.5,5.8,0.9,8.6c0.2,1.5-0.4,2.2-1.7,2.6c-3,0.7-6,1.5-9.4,2.4c-1.6-2.6-3.5-5.6-5.3-8.7c-0.8-1.4-1.6-2-3.4-1.9
			c-5.5,0.5-11.1,0.6-16.6,0.9c-1,0.1-2,0.1-3.3,0.1c0.2-5.5,1.5-10.2,4.8-14.3c2.7-3.3,2.7-4.1,0.5-7.6c-0.7-1.2-1.1-2.7-1.3-4.1
			c-0.4-2.9-0.5-5.8-0.7-8.6c-0.6-7.5,2.7-13.7,6.1-19.9c1.2-2.2,2.6-4.4,4-6.5c0.5-0.7,1.2-1.5,2-1.6
			C420,248.5,427.5,247.4,435.5,246.1z"/>
		<path id="XMLID_41_" class="st0" d="M581.3,194.1c-1.3,1.6-2.7,3.1-4,4.7c-0.6,0.8-0.9,1.9-1.3,2.8c1,0.3,2,0.7,3,0.9
			c0.6,0.1,1.2,0,1.8,0c3,0.1,3.6,0.8,3.5,3.7c-0.1,2.4-1.1,3.4-3.8,3.4c-0.8,0-1.7-0.4-2.2-0.1c-0.8,0.5-1.5,1.5-1.9,2.4
			c-0.5,1.2-0.7,2.6-1.1,3.9c-0.3,1-1,2.3-0.6,2.9c0.5,0.7,1.9,0.8,2.9,0.9c1.3,0,2.6-0.3,3.9-0.4c0.1,0.3,0.2,0.6,0.4,0.9
			c-1.8,1-3.6,2.4-5.6,3c-4.4,1.2-7.1,3.8-8.3,8.2c-0.4,1.4-1.1,2.7-1.8,4c-1.5,2.9-3.8,3.6-6.7,2.3c-4.5-2.1-8.9-4.4-13.4-6.3
			c-1.7-0.7-4-1.1-5.7-0.5c-4.4,1.4-8.1,0.3-12.1-1.4c-2.1-0.9-4.6-1.3-6.9-1.3c-7,0.2-13.6,2.5-19.9,5.4c-4.6,2.1-9.5,1.2-14.3,1.8
			c-0.5-2.4,0-3.9,2-5c2.4-1.3,4.6-2.9,7-4.2c2.4-1.3,4.4-2.9,6.1-5.2c1.5-2,4-3.6,6.4-4.4c2.8-0.9,4.3-2.5,4.7-5
			c0.4-2.6,1.9-3.3,4.3-3.6c18.9-2.4,37.3-7.4,55.8-12c2.4-0.6,4.6-1.5,6.9-2.3C580.8,193.6,581,193.8,581.3,194.1z"/>
		<path id="XMLID_40_" class="st0" d="M516.5,148.1c0.1-0.7,0.2-1.5,0.2-2.2c0.1-2.3,0.6-4.7,0.2-7c-1.2-6.8-2.7-13.6-4-20.4
			c-0.1-0.6,0.4-1.5,0.9-2c0.8-0.7,1.8-1.2,2.7-1.8c0.2,0.2,0.4,0.3,0.5,0.4c1.2,4,1.3,4.2,5.3,3.1c14-3.8,28-7.6,42-11.6
			c1.5-0.4,2.3-0.2,3.3,0.8c4.7,5,4.8,5,3.7,12c-0.3,2.1-0.2,3.8,1.2,5.5c0.8,0.9,1.5,2.1,2,3.2c2.3,4.5,1.4,5.7-2.3,9
			c-4.2,3.7-9.3,4.7-14.3,6.1c-5.6,1.5-11.3,2.8-16.9,4.3c-2.3,0.6-4.6,1.4-5.2,4.4c-0.2,1.3-1.4,2.4-2.4,3.4
			c-3.2-5.7-3.5-5.8-8.8-3.9c-3.8,1.4-3.8,1.3-6.4-1.7c-0.5-0.6-1.2-1.1-1.9-1.6C516.3,148.1,516.4,148,516.5,148.1L516.5,148.1z"/>
		<path id="XMLID_39_" class="st0" d="M477.3,93.6c2.4,4.2,4.8,8.1,6.8,12.2c0.5,1.1,0.2,3.1-0.5,4.3c-2.7,5.2-4.9,10.5-5,16.5
			c0,1.7-0.9,2.5-2.4,2.8c-3.4,0.5-6.8,0.9-10.1,1.4c-4.7,0.6-9.4,1.3-14.2,1.9c-3.1,0.4-6.2,0.6-9.3,0.9c0.7-4.6,1.2-8.7,2-12.8
			c0.8-4,0-7.7-2.4-10.9c-3.5-4.7-4.7-9.7-2.9-15.4c0.4-1.2,0.4-2.5,0.6-3.8c0.4-3.3,1.7-5,4.9-5.8c2.5-0.6,3.3-2,2.7-4.3
			c-0.4-1.7,0.1-2.8,1.1-4.2c1-1.3,1.5-3.1,2-4.8c0.3-0.9,0.3-1.9,0.4-3.3c3,1,5.6,2,8.2,2.8c2.1,0.7,4.1,1.5,6.2,1.9
			c1.5,0.3,2.1,0.7,2.3,2.3c0.3,1.6,1.5,3.1,2.1,4.7c0.4,1.2,1.1,2.6,0.8,3.7c-1,3.9-2.4,7.7-3.7,11.4c-0.7,1.9,0.1,3.3,1.5,4.1
			c0.9,0.5,2.6,0.4,3.3-0.2C473.8,97.6,475.5,95.6,477.3,93.6z"/>
		<path id="XMLID_38_" class="st0" d="M516.5,147.9c-2,0.7-2.7,2.4-2.7,4.3c0,3.1-1.4,5-4.2,6.2c-2.8,1.2-4.4,3.5-5.2,6.6
			c-0.4,1.6-1.7,3-2.5,4.5c-0.6,1.2-1,2.5-1.6,3.7c-0.8,1.6-1.6,3.1-2.6,4.9c-2.8-3.1-5.9-2.9-9.4-2.1c-4.2,0.9-8.4,1-12.2-2
			c-1.4-1.1-3.6-1.2-5.3-1.7c-1.7-9.1-3.5-18.2-5.1-27.4c-0.6-3.6-0.7-7.2-0.9-10.4c5.6-1.2,10.5-2.4,15.4-3.3
			c1.5-0.3,3.2,0.5,4.7,0.9c7.2,1.9,14.9-1,19.1-7.1c1.5-2.2,3.5-4.1,5.7-6.6c0.6,2,0.8,3.3,1.3,4.4c2.3,5,1.9,10.7,3.6,15.9
			c0.6,1.7,0,3.9-0.1,5.8c-0.1,1.6-0.3,3.2,1.9,3.4l-0.1-0.1C516.4,148,516.5,147.9,516.5,147.9z"/>
		<path id="XMLID_37_" class="st0" d="M470.3,175.3c1.6,0.4,3.4,0.3,4.4,1.2c4.4,3.6,9.4,3,14.4,2.3c4.3-0.7,4.6-0.6,6.8,3.1
			c2.4,4,5.1,7.8,7.7,11.8c-0.6,0.7-1.6,1.7-2.6,2.8c-2,2.4-4.1,4.8-6,7.2c-2.2,2.9-4.4,5.5-8.5,6.2c-16.2,2.6-32.4,5.5-48.6,8.5
			c-4.5,0.8-8.8,2.4-13.3,3.5c-0.8,0.2-1.6,0.2-3,0.4c0.4-2.5,0.7-4.7,0.9-6.8c0.5-0.1,0.7-0.3,0.8-0.2c4.9,0.9,4.8,0.8,6-4.1
			c0.3-1.2,1.2-2.4,1.9-3.5c0.5-0.8,1.5-1.4,1.6-2.2c0.6-5,4.7-4.9,7.9-5.1c5.1-0.3,9.8-1.2,13.4-5.1c0.4-0.4,1.3-0.5,1.9-0.3
			c2.6,0.7,3.9-0.7,4.8-2.7c1-2.3,1.8-4.8,2.8-7.1c0.3-0.8,1-2,1.7-2.1c3.5-0.7,3.9-3.4,4.4-6.1C470,176.6,470.1,176.2,470.3,175.3z
			"/>
		<path id="XMLID_36_" class="st0" d="M412.5,246.7c0.8-2.3,1.5-4.1,2.1-6c1.4-4,3.1-7.9,2.8-12.3c-0.2-2.2,1.1-3,3.1-3.2
			c2.3-0.2,4.6-0.3,6.9-0.8c6.2-1.5,12.3-3.5,18.5-4.6c13.2-2.5,26.5-4.6,39.8-6.9c7.9-1.3,15.8-2.6,23.7-3.9c0.5-0.1,1-0.1,1.7-0.1
			c-0.4,2.2-0.8,3.6-3.1,4.5c-3.5,1.4-7,3.1-8.9,6.8c-0.5,1-1.9,1.7-2.9,2.3c-2.9,1.8-5.8,3.5-8.8,5.3c-2,1.2-3.1,2.9-3,5.3
			c0.1,1.6-0.5,2.4-2.2,2.6c-16.6,2.6-33.2,5.2-49.8,7.9c-5.9,0.9-11.8,1.9-17.7,2.8C414.1,246.6,413.5,246.6,412.5,246.7z"/>
		<path id="XMLID_35_" class="st0" d="M579.9,190.6c-27.6,8.5-55.8,13.5-84.1,17.7c-0.2-0.2-0.4-0.4-0.6-0.6
			c3.2-3.6,6.5-7.2,9.7-10.9c1-1.1,1.9-1.3,3.3-0.6c1.3,0.6,3.1,0.8,4.4,0.5c3.8-1,7.5-2.4,11.1-3.8c4.8-1.8,7-5.8,7.9-10.5
			c0.3-1.4,0.3-2.9,0.7-4.3c0.5-2.1,0-4.8,3-5.6c0.4-0.1,0.5-0.8,0.8-1.3c2.7-4.6,5.4-9.3,8.2-13.8c0.4-0.7,1.7-0.9,2.6-1.1
			c1.6-0.4,3.3-0.4,4.9-0.8c1.6-0.4,4.7,2,4.9,3.8c0.3,3.9,2.2,6.7,5.9,8.1c0.9,0.3,1.7,0.7,2.6,1.1c6,2.4,5.1,1.6,5.6,8.9
			c0.1,1.3,0.3,2.7,0.4,4c0,0.6-0.1,1.2-0.3,1.8c-0.4,1-1.5,2.5-1.2,2.8c0.9,1,2.2,1.6,3.5,2.2c0.4,0.2,1.2-0.1,1.7-0.3
			C578.5,186.4,578.5,186.4,579.9,190.6z"/>
		<path id="XMLID_34_" class="st0" d="M461.2,134.3c1.2,6.2,2.3,12,3.3,17.9c0.4,2.1,0.3,4.2,0.5,6.3c0.2,1.7,0.3,3.4,0.9,4.9
			c2.2,5,1.6,10,0.6,15.1c-0.1,0.5-0.7,1.2-1.2,1.4c-2.6,0.8-3.7,2.8-4.6,5.1c-0.4,1.2-0.9,2.4-1.3,3.6c-0.7,2-1.1,4.2-4.3,3.2
			c-0.8-0.2-2.2,0.7-3,1.5c-2.4,2.2-5,3.7-8.3,3.9c-2.9,0.1-5.9,0.7-9.3,1.1c0.4-1.9,0.7-3.8,1.1-5.6c0.5-2,1.5-3.9,1.7-5.9
			c0.2-2-0.2-4.1-0.5-6.2c-0.2-1.3-1-2.7-0.8-3.9c1-7.3-0.9-14.4-1.5-21.6c-0.4-4.4-0.8-8.8-1.1-13.3c-0.1-0.7,0.1-1.5,0.2-2.6
			c3.1,0.8,5.4,0,6.9-2.6c0.2-0.3,0.9-0.4,1.4-0.5c5.7-0.6,11.5-1.2,17.2-1.8C460,134.3,460.9,134.3,461.2,134.3z"/>
		<path id="XMLID_33_" class="st0" d="M558.4,239.9c-3.6,2.4-4.2,5.6-4.5,8.7c-0.4,4.1-2.4,7.1-5.1,9.9c-1.2,1.2-2.2,2.9-2.6,4.6
			c-0.6,2.5-2,4.2-3.8,5.8c-2.5,2.1-4.8,4.4-7.4,6.9c-2.8-0.8-4.3-3.6-5.5-6.5c-2.2-5-5.8-8.7-9.9-12.2c-6-5.1-11.9-10.3-17.8-15.4
			c-3-2.6-2.7-4.3,1-5.8c5.7-2.4,11.5-4.7,17.8-5.2c2.6-0.2,4.9-0.2,7.2,1.1c4.1,2.4,8.4,3.1,13,1.5c1.1-0.4,2.5-0.3,3.5,0.1
			C548.8,235.4,553.3,237.6,558.4,239.9z"/>
		<path id="XMLID_32_" class="st0" d="M610.7,65.4c-1-1.1-2.4-2.1-2.9-3.4c-3-7.5-5.9-15.1-8.8-22.7c-0.2-0.7-0.5-1.7-0.2-2.1
			c3-4.8,2.8-10.3,3.8-15.5c1-5.8,2.1-11.5,3.3-17.2c0.7-3.3,1.8-4,5.2-4.2c1.5-0.1,3.1,0.1,4.6-0.2c2.8-0.4,4.2,0.9,4.9,3.3
			c0.9,3,2,6,2.5,9.1c0.7,3.9,2.9,6.4,6.3,8.1c1.6,0.8,3.2,1.6,4.8,2.4c3.8,2.1,4.2,5.3,0.7,7.8c-2.7,1.9-5,4-6.5,7
			c-0.4,0.8-1.6,1.7-2.5,1.8c-1.7,0.2-2.6,1-3.1,2.5c-1.2,3.2-3.2,5.9-5.9,8.2c-3.5,2.8-4.9,6.6-5,11c0,1.2-0.1,2.3-0.2,3.5
			C611.4,65.1,611,65.3,610.7,65.4z"/>
		<path id="XMLID_31_" class="st0" d="M516.6,152.2c4.3,5.1,8.3,1.2,12.5,0.5c0.4,1.5,0.7,3,1.3,4.4c0.8,2.1,2.2,2.4,3.7,0.8
			c1.7-1.9,3-4,4.5-6c0.3-0.4,0.8-0.8,1.2-1c0.8-0.3,1.7-0.3,2.5-0.6c3.1-1.2,5,0,6.5,3c-1,0-1.8,0.1-2.6,0.1
			c-2.6-0.2-4,1.3-5.1,3.4c-2.4,4.3-5,8.5-7.5,12.8c-0.1,0.1-0.2,0.4-0.3,0.4c-4.2,1.3-3.1,5.1-3.9,8c-0.2,0.7-0.3,1.3-0.4,2
			c-0.3,6.7-4.3,10.2-10.4,12c-1.8,0.5-3.6,1-5.4,1.7c-2.4,0.9-4.6,0.5-6.1-1.3c-2.8-3.2-5.3-6.6-7.8-10c-0.3-0.4-0.1-1.4,0.2-2
			c1.3-2.7,2.3-5.7,4.2-7.8c2.4-2.7,3.2-5.9,4.4-9c0.2-0.4,0.6-0.9,1-1.1C513.1,160.2,515.4,157,516.6,152.2z"/>
		<path id="XMLID_30_" class="st0" d="M413.9,49.9c-0.8,0.6-1.9,1-2.5,1.7c-1.6,1.9-1.3,4-0.3,6c1,1.8,2.6,1.4,4.3,1.1
			c0.8-0.1,2.1,0.5,2.6,1.2c1.2,1.7,2.6,2.4,4.6,2c0.5-0.1,1-0.1,1.5-0.1c4.6,0.1,9-0.2,12.7-3.8c2.4-2.3,5.9-3.4,9.4-1.1
			c0.8,0.6,2.4,0.5,3.4,0.3c3.9-0.9,6.3,0.8,6.7,5.1c-3,0.1-6,0.1-8.9,0.3c-2.2,0.1-4.5,0.3-5.8,2.6c-0.2,0.3-0.6,0.5-1,0.7
			c-3.7,1.9-7.4,3.6-11,5.7c-1.2,0.7-2,2.1-2.7,3.3c-1.2,1.9-2.3,4-3.7,6.5c-0.6-1.5-1-2.5-1.3-3.4c-1.3-3.5-3.3-5.9-7.5-6.3
			c-4.7-0.4-9.3-1.5-13.9-2.3c-3.7-0.7-5.3-2.6-5.6-6.2c-0.1-1.4,0.3-2.1,1.7-2.2c3.3-0.2,5.6-1.8,7.7-4.5c1.8-2.4,4.3-4.4,6.5-6.5
			c0.6-0.5,1.4-0.8,2.2-1.2C413.2,49.2,413.5,49.6,413.9,49.9z"/>
		<path id="XMLID_29_" class="st0" d="M573.6,48.9c6.2-1.9,12.1-3.7,18.4-5.6c-0.3,3-0.4,6.1-1.1,9c-1.9,7.7-2,15.5-0.5,23.3
			c0.3,1.4,0.5,2.9,0.8,4.6c-1.1,0.4-2.2,1-3.3,0.9c-0.7,0-1.8-0.8-2.1-1.5c-1.9-3.7-3.8-7.4-5.5-11.2c-1-2.2-2.3-4.5-2.5-6.9
			c-0.4-3.7-1.4-7-3.2-10.2C574,50.5,573.9,49.6,573.6,48.9z"/>
		<path id="XMLID_28_" class="st0" d="M594.1,79.3c-0.9-5.9-2.6-11.6-1.5-17.7c1.2-6.6,1.7-13.3,2.5-19.9c0.1-0.5,0.3-0.9,0.7-2
			c0.7,1.5,1.2,2.4,1.6,3.4c2.5,6.4,4.9,12.7,7.3,19.1c1,2.7,2.4,4.8,5.3,5.8c1.3,0.4,1.6,3.3,0.4,4c-5,3-9.6,6.9-15.7,7.6
			C594.5,79.5,594.5,79.4,594.1,79.3z"/>
		<path id="XMLID_27_" class="st0" d="M575.1,113.8c3.4,0.5,6.6,1,9.8,1.6c0.6,0.1,1.3,0.9,1.4,1.4c1.3,9.7,2.5,19.5-1.9,28.8
			c-0.2,0.4-0.5,0.9-0.8,1.4c-2.3-0.8-4.6-1.4-6.7-2.3c-2.1-0.9-2.5-5.6-0.8-7.2c3-2.8,3.4-4.6,1.9-8.4c-0.5-1.2-0.8-2.5-1.7-3.4
			C573,122.1,574.2,118.1,575.1,113.8z"/>
		<path id="XMLID_26_" class="st0" d="M604.8,108.1c-4.7,3.8-8.7,8.6-15.2,9.9c-0.8-7.2-1.5-14.3-2.4-21.8c5-1.8,10.5-3.7,16.3-5.8
			c1.2,3.6,2.3,6.7,3.3,9.7c-4,2.4-7.7,4.7-11.4,7.1c-1,0.6-1.9,1.5-2.4,2.6c-0.4,0.9,0,2,0,3.1c1,0,2.2,0.3,3-0.1
			c2.4-1.1,4.6-2.5,6.9-3.8C603.5,108.6,604.2,108.4,604.8,108.1z"/>
		<path id="XMLID_25_" class="st0" d="M586.1,84.3c8.9-1.6,17.6-3.3,24.6-9.6c1.3,2.1,2.1,3.6,0.9,5.7c-1.2,2.1-0.3,3.5,1.9,4.3
			c1.6,0.6,3,1.5,4.5,2.3c1.9,1.1,3.6,1.6,5.3-0.7c-0.1,3.6-3.4,5.9-8.3,5.9c-2.1-5.2-4.5-6.5-10.5-4.9c-5.3,1.4-10.4,3.4-15.5,5.1
			c-0.9,0.3-1.7,0.6-3,1C586.1,90.2,586.1,87.2,586.1,84.3z"/>
		<path id="XMLID_24_" class="st0" d="M549.5,148.6c5.9-1.6,11.8-3.3,17.7-4.8c0.7-0.2,1.6,0.6,2.4,1.4c-2.6-0.3-3.6,1.2-4.3,3.1
			c-1.6,4.2-2,8.4-0.1,12.7c0.4,0.9,0.2,2,0.3,3c-1.3-0.2-2.8,0-3.8-0.7c-0.9-0.6-2-2.2-1.8-3.2c0.6-5-3.6-5.9-6.4-8
			c-1.3-1-2.7-1.9-4.1-2.8C549.3,149.1,549.4,148.9,549.5,148.6z"/>
		<path id="XMLID_23_" class="st0" d="M570.3,147.5c1.3,3,2.5,6,3.8,8.9c1.6,3.9,2.1,4.1,5.8,2.3c0.4-0.2,0.8-0.3,1.9-0.8
			c-0.2,2,0,3.7-0.6,5.1c-1.5,3.2-2.7,6.4-2,10.1c0.2,0.9-0.4,2-0.7,3c-0.3,0-0.5,0-0.8,0c0-0.8-0.2-1.6,0-2.3c1-3.6-0.5-6.7-2-9.8
			c-0.3-0.5-0.5-1.4-0.9-1.5c-4.8-1.3-4-5.8-5.2-9c-0.7-1.8-0.2-4-0.3-6C569.7,147.5,570,147.5,570.3,147.5z"/>
		<path id="XMLID_22_" class="st0" d="M609.6,99.4c-1-2.9-2-5.8-3.3-9.4c1.7,0.1,3.3-0.2,4.4,0.4c0.6,0.3,0.8,2.1,0.8,3.1
			c-0.1,1.9-0.6,3.8-0.9,5.7C610.4,99.3,610,99.3,609.6,99.4z"/>
		<path id="XMLID_21_" class="st0" d="M571.5,141.6c2.8,4.5,5.5,8.9,8.5,13.6c-0.6,0.3-1.5,0.8-2.6,1.5c-2.2-5.2-4.2-10.1-6.2-15
			C571.2,141.7,571.4,141.7,571.5,141.6z"/>
		<path id="XMLID_20_" class="st0" d="M567.2,160.1c-0.4-2.1-0.7-4.2-1.1-6.3c0.4-0.1,0.8-0.1,1.2-0.2c0.4,2.1,0.8,4.2,1.2,6.4
			C568,160,567.6,160.1,567.2,160.1z"/>
		<polygon id="XMLID_19_" class="st2" points="516.5,147.9 516.4,148 516.3,148.1 		"/>
	</g>
	<g>
		<path class="st2" d="M48.5,201.8c-5,0-9.1,4.1-9.1,9.1c0,3.4,2.2,5.6,2.2,5.6c1.3,1.3,2.3,4.1,2.3,5.5c0,0.7,0.7,0.7,0.7,0.7H48
			V217c-0.2-1.1-0.6-3.5,0.5-5.4c1.1-1.9,3.4-2.8,4.4-3.1c0.2,1.1,0.6,3.5-0.5,5.4c-0.8,1.4-2.3,2.3-3.4,2.7v6h3.4
			c0,0,0.7,0,0.7-0.7c0-1.4,1-4.2,2.3-5.5c0,0,2.2-2.2,2.2-5.6C57.6,205.9,53.6,201.8,48.5,201.8z M43.5,210.6c0,0,2.5-0.1,4,1.3
			c0,0,0.1,0.1,0.1,0.1c-0.5,1.3-0.5,2.6-0.4,3.7c-0.8-0.2-1.7-0.5-2.4-1.2C43.3,213.2,43.5,210.6,43.5,210.6z"/>
		<path class="st3" d="M48.5,201.8c-5,0-9.1,4.1-9.1,9.1c0,3.4,2.2,5.6,2.2,5.6c1.3,1.3,2.3,4.1,2.3,5.5c0,0.7,0.7,0.7,0.7,0.7H48
			V217c-0.2-1.1-0.6-3.5,0.5-5.4c1.1-1.9,3.4-2.8,4.4-3.1c0.2,1.1,0.6,3.5-0.5,5.4c-0.8,1.4-2.3,2.3-3.4,2.7v6h3.4
			c0,0,0.7,0,0.7-0.7c0-1.4,1-4.2,2.3-5.5c0,0,2.2-2.2,2.2-5.6C57.6,205.9,53.6,201.8,48.5,201.8z M43.5,210.6c0,0,2.5-0.1,4,1.3
			c0,0,0.1,0.1,0.1,0.1c-0.5,1.3-0.5,2.6-0.4,3.7c-0.8-0.2-1.7-0.5-2.4-1.2C43.3,213.2,43.5,210.6,43.5,210.6z"/>
		<g>
			<g>
				<path class="st2" d="M51.8,223.7h-6.5c-0.4,0-0.7,0.3-0.7,0.7c0,0.4,0.3,0.7,0.7,0.7h6.5c0.4,0,0.7-0.3,0.7-0.7
					C52.4,224,52.1,223.7,51.8,223.7z"/>
				<path class="st2" d="M51.8,225.6h-6.5c-0.4,0-0.7,0.3-0.7,0.7s0.3,0.7,0.7,0.7h6.5c0.4,0,0.7-0.3,0.7-0.7S52.1,225.6,51.8,225.6
					z"/>
				<path class="st2" d="M49.8,227.6h-2.6c-0.4,0-0.7,0.3-0.7,0.7s0.3,0.7,0.7,0.7h2.6c0.4,0,0.7-0.3,0.7-0.7S50.2,227.6,49.8,227.6
					z"/>
			</g>
		</g>
		<path class="st2" d="M53.1,222c0-1.4,1-4.2,2.3-5.5c0,0,2.2-2.2,2.2-5.6c0-4.1-2.7-7.6-6.5-8.7c0,0-1.1-0.4-2.7-0.4
			c0,0.1,0,9.9,0,9.9c0,0,0-0.1,0-0.1c1.1-1.9,3.4-2.8,4.4-3.1c0.2,1.1,0.6,3.5-0.5,5.4c-0.8,1.4-2.3,2.3-3.4,2.7v6h3.4
			C52.4,222.7,53.1,222.7,53.1,222z"/>
		<g class="st4">
			<g>
				<path class="st5" d="M51.8,223.7h-6.5c-0.4,0-0.7,0.3-0.7,0.7c0,0.4,0.3,0.7,0.7,0.7h6.5c0.4,0,0.7-0.3,0.7-0.7
					C52.4,224,52.1,223.7,51.8,223.7z"/>
				<path class="st5" d="M51.8,225.6h-6.5c-0.4,0-0.7,0.3-0.7,0.7s0.3,0.7,0.7,0.7h6.5c0.4,0,0.7-0.3,0.7-0.7S52.1,225.6,51.8,225.6
					z"/>
				<path class="st5" d="M49.8,227.6h-2.6c-0.4,0-0.7,0.3-0.7,0.7s0.3,0.7,0.7,0.7h2.6c0.4,0,0.7-0.3,0.7-0.7S50.2,227.6,49.8,227.6
					z"/>
			</g>
		</g>
		<path class="st6" d="M53.1,222c0-1.4,1-4.2,2.3-5.5c0,0,2.2-2.2,2.2-5.6c0-4.1-2.7-7.6-6.5-8.7c0,0-1.1-0.4-2.7-0.4
			c0,0.1,0,9.9,0,9.9c0,0,0-0.1,0-0.1c1.1-1.9,3.4-2.8,4.4-3.1c0.2,1.1,0.6,3.5-0.5,5.4c-0.8,1.4-2.3,2.3-3.4,2.7v6h3.4
			C52.4,222.7,53.1,222.7,53.1,222z"/>
	</g>
	<g>
		<path class="st2" d="M28.3,171.1c-5,0-9.1,4.1-9.1,9.1c0,3.4,2.2,5.6,2.2,5.6c1.3,1.3,2.3,4.1,2.3,5.5c0,0.7,0.7,0.7,0.7,0.7h3.4
			v-5.7c-0.2-1.1-0.6-3.5,0.5-5.4c1.1-1.9,3.4-2.8,4.4-3.1c0.2,1.1,0.6,3.5-0.5,5.4c-0.8,1.4-2.3,2.3-3.4,2.7v6h3.4
			c0,0,0.7,0,0.7-0.7c0-1.4,1-4.2,2.3-5.5c0,0,2.2-2.2,2.2-5.6C37.4,175.2,33.3,171.1,28.3,171.1z M23.2,179.9c0,0,2.5-0.1,4,1.3
			c0,0,0.1,0.1,0.1,0.1c-0.5,1.3-0.5,2.6-0.4,3.7c-0.8-0.2-1.7-0.5-2.4-1.2C23.1,182.4,23.2,179.9,23.2,179.9z"/>
		<path class="st3" d="M28.3,171.1c-5,0-9.1,4.1-9.1,9.1c0,3.4,2.2,5.6,2.2,5.6c1.3,1.3,2.3,4.1,2.3,5.5c0,0.7,0.7,0.7,0.7,0.7h3.4
			v-5.7c-0.2-1.1-0.6-3.5,0.5-5.4c1.1-1.9,3.4-2.8,4.4-3.1c0.2,1.1,0.6,3.5-0.5,5.4c-0.8,1.4-2.3,2.3-3.4,2.7v6h3.4
			c0,0,0.7,0,0.7-0.7c0-1.4,1-4.2,2.3-5.5c0,0,2.2-2.2,2.2-5.6C37.4,175.2,33.3,171.1,28.3,171.1z M23.2,179.9c0,0,2.5-0.1,4,1.3
			c0,0,0.1,0.1,0.1,0.1c-0.5,1.3-0.5,2.6-0.4,3.7c-0.8-0.2-1.7-0.5-2.4-1.2C23.1,182.4,23.2,179.9,23.2,179.9z"/>
		<g>
			<g>
				<path class="st2" d="M31.6,193H25c-0.4,0-0.7,0.3-0.7,0.7c0,0.4,0.3,0.7,0.7,0.7h6.5c0.4,0,0.7-0.3,0.7-0.7
					C32.2,193.2,31.9,193,31.6,193z"/>
				<path class="st2" d="M31.6,194.9H25c-0.4,0-0.7,0.3-0.7,0.7c0,0.4,0.3,0.7,0.7,0.7h6.5c0.4,0,0.7-0.3,0.7-0.7
					C32.2,195.2,31.9,194.9,31.6,194.9z"/>
				<path class="st2" d="M29.6,196.9H27c-0.4,0-0.7,0.3-0.7,0.7s0.3,0.7,0.7,0.7h2.6c0.4,0,0.7-0.3,0.7-0.7S30,196.9,29.6,196.9z"/>
			</g>
		</g>
		<path class="st2" d="M32.9,191.3c0-1.4,1-4.2,2.3-5.5c0,0,2.2-2.2,2.2-5.6c0-4.1-2.7-7.6-6.5-8.7c0,0-1.1-0.4-2.7-0.4
			c0,0.1,0,9.9,0,9.9c0,0,0-0.1,0-0.1c1.1-1.9,3.4-2.8,4.4-3.1c0.2,1.1,0.6,3.5-0.5,5.4c-0.8,1.4-2.3,2.3-3.4,2.7v6h3.4
			C32.2,191.9,32.9,191.9,32.9,191.3z"/>
		<g class="st4">
			<g>
				<path class="st5" d="M31.6,193H25c-0.4,0-0.7,0.3-0.7,0.7c0,0.4,0.3,0.7,0.7,0.7h6.5c0.4,0,0.7-0.3,0.7-0.7
					C32.2,193.2,31.9,193,31.6,193z"/>
				<path class="st5" d="M31.6,194.9H25c-0.4,0-0.7,0.3-0.7,0.7c0,0.4,0.3,0.7,0.7,0.7h6.5c0.4,0,0.7-0.3,0.7-0.7
					C32.2,195.2,31.9,194.9,31.6,194.9z"/>
				<path class="st5" d="M29.6,196.9H27c-0.4,0-0.7,0.3-0.7,0.7s0.3,0.7,0.7,0.7h2.6c0.4,0,0.7-0.3,0.7-0.7S30,196.9,29.6,196.9z"/>
			</g>
		</g>
		<path class="st6" d="M32.9,191.3c0-1.4,1-4.2,2.3-5.5c0,0,2.2-2.2,2.2-5.6c0-4.1-2.7-7.6-6.5-8.7c0,0-1.1-0.4-2.7-0.4
			c0,0.1,0,9.9,0,9.9c0,0,0-0.1,0-0.1c1.1-1.9,3.4-2.8,4.4-3.1c0.2,1.1,0.6,3.5-0.5,5.4c-0.8,1.4-2.3,2.3-3.4,2.7v6h3.4
			C32.2,191.9,32.9,191.9,32.9,191.3z"/>
	</g>
	<g>
		<path class="st2" d="M28.2,130.2c-5,0-9.1,4.1-9.1,9.1c0,3.4,2.2,5.6,2.2,5.6c1.3,1.3,2.3,4.1,2.3,5.5c0,0.7,0.7,0.7,0.7,0.7h3.4
			v-5.7c-0.2-1.1-0.6-3.5,0.5-5.4c1.1-1.9,3.4-2.8,4.4-3.1c0.2,1.1,0.6,3.5-0.5,5.4c-0.8,1.4-2.3,2.3-3.4,2.7v6h3.4
			c0,0,0.7,0,0.7-0.7c0-1.4,1-4.2,2.3-5.5c0,0,2.2-2.2,2.2-5.6C37.3,134.3,33.3,130.2,28.2,130.2z M23.2,139.1c0,0,2.5-0.1,4,1.3
			c0,0,0.1,0.1,0.1,0.1c-0.5,1.3-0.5,2.6-0.4,3.7c-0.8-0.2-1.7-0.5-2.4-1.2C23,141.6,23.2,139.1,23.2,139.1z"/>
		<path class="st3" d="M28.2,130.2c-5,0-9.1,4.1-9.1,9.1c0,3.4,2.2,5.6,2.2,5.6c1.3,1.3,2.3,4.1,2.3,5.5c0,0.7,0.7,0.7,0.7,0.7h3.4
			v-5.7c-0.2-1.1-0.6-3.5,0.5-5.4c1.1-1.9,3.4-2.8,4.4-3.1c0.2,1.1,0.6,3.5-0.5,5.4c-0.8,1.4-2.3,2.3-3.4,2.7v6h3.4
			c0,0,0.7,0,0.7-0.7c0-1.4,1-4.2,2.3-5.5c0,0,2.2-2.2,2.2-5.6C37.3,134.3,33.3,130.2,28.2,130.2z M23.2,139.1c0,0,2.5-0.1,4,1.3
			c0,0,0.1,0.1,0.1,0.1c-0.5,1.3-0.5,2.6-0.4,3.7c-0.8-0.2-1.7-0.5-2.4-1.2C23,141.6,23.2,139.1,23.2,139.1z"/>
		<g>
			<g>
				<path class="st2" d="M31.5,152.1H25c-0.4,0-0.7,0.3-0.7,0.7c0,0.4,0.3,0.7,0.7,0.7h6.5c0.4,0,0.7-0.3,0.7-0.7
					C32.1,152.4,31.8,152.1,31.5,152.1z"/>
				<path class="st2" d="M31.5,154.1H25c-0.4,0-0.7,0.3-0.7,0.7s0.3,0.7,0.7,0.7h6.5c0.4,0,0.7-0.3,0.7-0.7S31.8,154.1,31.5,154.1z"
					/>
				<path class="st2" d="M29.5,156h-2.6c-0.4,0-0.7,0.3-0.7,0.7s0.3,0.7,0.7,0.7h2.6c0.4,0,0.7-0.3,0.7-0.7S29.9,156,29.5,156z"/>
			</g>
		</g>
		<path class="st2" d="M32.8,150.4c0-1.4,1-4.2,2.3-5.5c0,0,2.2-2.2,2.2-5.6c0-4.1-2.7-7.6-6.5-8.7c0,0-1.1-0.4-2.7-0.4
			c0,0.1,0,9.9,0,9.9c0,0,0-0.1,0-0.1c1.1-1.9,3.4-2.8,4.4-3.1c0.2,1.1,0.6,3.5-0.5,5.4c-0.8,1.4-2.3,2.3-3.4,2.7v6h3.4
			C32.1,151.1,32.8,151.1,32.8,150.4z"/>
		<g class="st4">
			<g>
				<path class="st5" d="M31.5,152.1H25c-0.4,0-0.7,0.3-0.7,0.7c0,0.4,0.3,0.7,0.7,0.7h6.5c0.4,0,0.7-0.3,0.7-0.7
					C32.1,152.4,31.8,152.1,31.5,152.1z"/>
				<path class="st5" d="M31.5,154.1H25c-0.4,0-0.7,0.3-0.7,0.7s0.3,0.7,0.7,0.7h6.5c0.4,0,0.7-0.3,0.7-0.7S31.8,154.1,31.5,154.1z"
					/>
				<path class="st5" d="M29.5,156h-2.6c-0.4,0-0.7,0.3-0.7,0.7s0.3,0.7,0.7,0.7h2.6c0.4,0,0.7-0.3,0.7-0.7S29.9,156,29.5,156z"/>
			</g>
		</g>
		<path class="st6" d="M32.8,150.4c0-1.4,1-4.2,2.3-5.5c0,0,2.2-2.2,2.2-5.6c0-4.1-2.7-7.6-6.5-8.7c0,0-1.1-0.4-2.7-0.4
			c0,0.1,0,9.9,0,9.9c0,0,0-0.1,0-0.1c1.1-1.9,3.4-2.8,4.4-3.1c0.2,1.1,0.6,3.5-0.5,5.4c-0.8,1.4-2.3,2.3-3.4,2.7v6h3.4
			C32.1,151.1,32.8,151.1,32.8,150.4z"/>
	</g>
	<g>
		<path class="st2" d="M92.1,184c-5,0-9.1,4.1-9.1,9.1c0,3.4,2.2,5.6,2.2,5.6c1.3,1.3,2.3,4.1,2.3,5.5c0,0.7,0.7,0.7,0.7,0.7h3.4
			v-5.7c-0.2-1.1-0.6-3.5,0.5-5.4c1.1-1.9,3.4-2.8,4.4-3.1c0.2,1.1,0.6,3.5-0.5,5.4c-0.8,1.4-2.3,2.3-3.4,2.7v6H96
			c0,0,0.7,0,0.7-0.7c0-1.4,1-4.2,2.3-5.5c0,0,2.2-2.2,2.2-5.6C101.2,188.1,97.2,184,92.1,184z M87.1,192.8c0,0,2.5-0.1,4,1.3
			c0,0,0.1,0.1,0.1,0.1c-0.5,1.3-0.5,2.6-0.4,3.7c-0.8-0.2-1.7-0.5-2.4-1.2C86.9,195.3,87.1,192.8,87.1,192.8z"/>
		<path class="st3" d="M92.1,184c-5,0-9.1,4.1-9.1,9.1c0,3.4,2.2,5.6,2.2,5.6c1.3,1.3,2.3,4.1,2.3,5.5c0,0.7,0.7,0.7,0.7,0.7h3.4
			v-5.7c-0.2-1.1-0.6-3.5,0.5-5.4c1.1-1.9,3.4-2.8,4.4-3.1c0.2,1.1,0.6,3.5-0.5,5.4c-0.8,1.4-2.3,2.3-3.4,2.7v6H96
			c0,0,0.7,0,0.7-0.7c0-1.4,1-4.2,2.3-5.5c0,0,2.2-2.2,2.2-5.6C101.2,188.1,97.2,184,92.1,184z M87.1,192.8c0,0,2.5-0.1,4,1.3
			c0,0,0.1,0.1,0.1,0.1c-0.5,1.3-0.5,2.6-0.4,3.7c-0.8-0.2-1.7-0.5-2.4-1.2C86.9,195.3,87.1,192.8,87.1,192.8z"/>
		<g>
			<g>
				<path class="st2" d="M95.4,205.8h-6.5c-0.4,0-0.7,0.3-0.7,0.7c0,0.4,0.3,0.7,0.7,0.7h6.5c0.4,0,0.7-0.3,0.7-0.7
					C96,206.1,95.7,205.8,95.4,205.8z"/>
				<path class="st2" d="M95.4,207.8h-6.5c-0.4,0-0.7,0.3-0.7,0.7s0.3,0.7,0.7,0.7h6.5c0.4,0,0.7-0.3,0.7-0.7S95.7,207.8,95.4,207.8
					z"/>
				<path class="st2" d="M93.4,209.8h-2.6c-0.4,0-0.7,0.3-0.7,0.7s0.3,0.7,0.7,0.7h2.6c0.4,0,0.7-0.3,0.7-0.7S93.8,209.8,93.4,209.8
					z"/>
			</g>
		</g>
		<path class="st2" d="M96.7,204.2c0-1.4,1-4.2,2.3-5.5c0,0,2.2-2.2,2.2-5.6c0-4.1-2.7-7.6-6.5-8.7c0,0-1.1-0.4-2.7-0.4
			c0,0.1,0,9.9,0,9.9c0,0,0-0.1,0-0.1c1.1-1.9,3.4-2.8,4.4-3.1c0.2,1.1,0.6,3.5-0.5,5.4c-0.8,1.4-2.3,2.3-3.4,2.7v6H96
			C96,204.8,96.7,204.8,96.7,204.2z"/>
		<g class="st4">
			<g>
				<path class="st5" d="M95.4,205.8h-6.5c-0.4,0-0.7,0.3-0.7,0.7c0,0.4,0.3,0.7,0.7,0.7h6.5c0.4,0,0.7-0.3,0.7-0.7
					C96,206.1,95.7,205.8,95.4,205.8z"/>
				<path class="st5" d="M95.4,207.8h-6.5c-0.4,0-0.7,0.3-0.7,0.7s0.3,0.7,0.7,0.7h6.5c0.4,0,0.7-0.3,0.7-0.7S95.7,207.8,95.4,207.8
					z"/>
				<path class="st5" d="M93.4,209.8h-2.6c-0.4,0-0.7,0.3-0.7,0.7s0.3,0.7,0.7,0.7h2.6c0.4,0,0.7-0.3,0.7-0.7S93.8,209.8,93.4,209.8
					z"/>
			</g>
		</g>
		<path class="st6" d="M96.7,204.2c0-1.4,1-4.2,2.3-5.5c0,0,2.2-2.2,2.2-5.6c0-4.1-2.7-7.6-6.5-8.7c0,0-1.1-0.4-2.7-0.4
			c0,0.1,0,9.9,0,9.9c0,0,0-0.1,0-0.1c1.1-1.9,3.4-2.8,4.4-3.1c0.2,1.1,0.6,3.5-0.5,5.4c-0.8,1.4-2.3,2.3-3.4,2.7v6H96
			C96,204.8,96.7,204.8,96.7,204.2z"/>
	</g>
	<g>
		<path class="st2" d="M131,175c-5,0-9.1,4.1-9.1,9.1c0,3.4,2.2,5.6,2.2,5.6c1.3,1.3,2.3,4.1,2.3,5.5c0,0.7,0.7,0.7,0.7,0.7h3.4
			v-5.7c-0.2-1.1-0.6-3.5,0.5-5.4c1.1-1.9,3.4-2.8,4.4-3.1c0.2,1.1,0.6,3.5-0.5,5.4c-0.8,1.4-2.3,2.3-3.4,2.7v6h3.4
			c0,0,0.7,0,0.7-0.7c0-1.4,1-4.2,2.3-5.5c0,0,2.2-2.2,2.2-5.6C140.2,179.1,136.1,175,131,175z M126,183.9c0,0,2.5-0.1,4,1.3
			c0,0,0.1,0.1,0.1,0.1c-0.5,1.3-0.5,2.6-0.4,3.7c-0.8-0.2-1.7-0.5-2.4-1.2C125.8,186.4,126,183.9,126,183.9z"/>
		<path class="st3" d="M131,175c-5,0-9.1,4.1-9.1,9.1c0,3.4,2.2,5.6,2.2,5.6c1.3,1.3,2.3,4.1,2.3,5.5c0,0.7,0.7,0.7,0.7,0.7h3.4
			v-5.7c-0.2-1.1-0.6-3.5,0.5-5.4c1.1-1.9,3.4-2.8,4.4-3.1c0.2,1.1,0.6,3.5-0.5,5.4c-0.8,1.4-2.3,2.3-3.4,2.7v6h3.4
			c0,0,0.7,0,0.7-0.7c0-1.4,1-4.2,2.3-5.5c0,0,2.2-2.2,2.2-5.6C140.2,179.1,136.1,175,131,175z M126,183.9c0,0,2.5-0.1,4,1.3
			c0,0,0.1,0.1,0.1,0.1c-0.5,1.3-0.5,2.6-0.4,3.7c-0.8-0.2-1.7-0.5-2.4-1.2C125.8,186.4,126,183.9,126,183.9z"/>
		<g>
			<g>
				<path class="st2" d="M134.3,196.9h-6.5c-0.4,0-0.7,0.3-0.7,0.7s0.3,0.7,0.7,0.7h6.5c0.4,0,0.7-0.3,0.7-0.7
					S134.7,196.9,134.3,196.9z"/>
				<path class="st2" d="M134.3,198.9h-6.5c-0.4,0-0.7,0.3-0.7,0.7c0,0.4,0.3,0.7,0.7,0.7h6.5c0.4,0,0.7-0.3,0.7-0.7
					C134.9,199.2,134.7,198.9,134.3,198.9z"/>
				<path class="st2" d="M132.3,200.8h-2.6c-0.4,0-0.7,0.3-0.7,0.7s0.3,0.7,0.7,0.7h2.6c0.4,0,0.7-0.3,0.7-0.7
					S132.7,200.8,132.3,200.8z"/>
			</g>
		</g>
		<path class="st2" d="M135.6,195.2c0-1.4,1-4.2,2.3-5.5c0,0,2.2-2.2,2.2-5.6c0-4.1-2.7-7.6-6.5-8.7c0,0-1.1-0.4-2.7-0.4
			c0,0.1,0,9.9,0,9.9c0,0,0-0.1,0-0.1c1.1-1.9,3.4-2.8,4.4-3.1c0.2,1.1,0.6,3.5-0.5,5.4c-0.8,1.4-2.3,2.3-3.4,2.7v6h3.4
			C134.9,195.9,135.6,195.9,135.6,195.2z"/>
		<g class="st4">
			<g>
				<path class="st5" d="M134.3,196.9h-6.5c-0.4,0-0.7,0.3-0.7,0.7s0.3,0.7,0.7,0.7h6.5c0.4,0,0.7-0.3,0.7-0.7
					S134.7,196.9,134.3,196.9z"/>
				<path class="st5" d="M134.3,198.9h-6.5c-0.4,0-0.7,0.3-0.7,0.7c0,0.4,0.3,0.7,0.7,0.7h6.5c0.4,0,0.7-0.3,0.7-0.7
					C134.9,199.2,134.7,198.9,134.3,198.9z"/>
				<path class="st5" d="M132.3,200.8h-2.6c-0.4,0-0.7,0.3-0.7,0.7s0.3,0.7,0.7,0.7h2.6c0.4,0,0.7-0.3,0.7-0.7
					S132.7,200.8,132.3,200.8z"/>
			</g>
		</g>
		<path class="st6" d="M135.6,195.2c0-1.4,1-4.2,2.3-5.5c0,0,2.2-2.2,2.2-5.6c0-4.1-2.7-7.6-6.5-8.7c0,0-1.1-0.4-2.7-0.4
			c0,0.1,0,9.9,0,9.9c0,0,0-0.1,0-0.1c1.1-1.9,3.4-2.8,4.4-3.1c0.2,1.1,0.6,3.5-0.5,5.4c-0.8,1.4-2.3,2.3-3.4,2.7v6h3.4
			C134.9,195.9,135.6,195.9,135.6,195.2z"/>
	</g>
	<g>
		<path class="st2" d="M125.3,253.2c-5,0-9.1,4.1-9.1,9.1c0,3.4,2.2,5.6,2.2,5.6c1.3,1.3,2.3,4.1,2.3,5.5c0,0.7,0.7,0.7,0.7,0.7h3.4
			v-5.7c-0.2-1.1-0.6-3.5,0.5-5.4c1.1-1.9,3.4-2.8,4.4-3.1c0.2,1.1,0.6,3.5-0.5,5.4c-0.8,1.4-2.3,2.3-3.4,2.7v6h3.4
			c0,0,0.7,0,0.7-0.7c0-1.4,1-4.2,2.3-5.5c0,0,2.2-2.2,2.2-5.6C134.4,257.3,130.4,253.2,125.3,253.2z M120.3,262.1
			c0,0,2.5-0.1,4,1.3c0,0,0.1,0.1,0.1,0.1c-0.5,1.3-0.5,2.6-0.4,3.7c-0.8-0.2-1.7-0.5-2.4-1.2C120.1,264.6,120.3,262.1,120.3,262.1z
			"/>
		<path class="st3" d="M125.3,253.2c-5,0-9.1,4.1-9.1,9.1c0,3.4,2.2,5.6,2.2,5.6c1.3,1.3,2.3,4.1,2.3,5.5c0,0.7,0.7,0.7,0.7,0.7h3.4
			v-5.7c-0.2-1.1-0.6-3.5,0.5-5.4c1.1-1.9,3.4-2.8,4.4-3.1c0.2,1.1,0.6,3.5-0.5,5.4c-0.8,1.4-2.3,2.3-3.4,2.7v6h3.4
			c0,0,0.7,0,0.7-0.7c0-1.4,1-4.2,2.3-5.5c0,0,2.2-2.2,2.2-5.6C134.4,257.3,130.4,253.2,125.3,253.2z M120.3,262.1
			c0,0,2.5-0.1,4,1.3c0,0,0.1,0.1,0.1,0.1c-0.5,1.3-0.5,2.6-0.4,3.7c-0.8-0.2-1.7-0.5-2.4-1.2C120.1,264.6,120.3,262.1,120.3,262.1z
			"/>
		<g>
			<g>
				<path class="st2" d="M128.6,275.1h-6.5c-0.4,0-0.7,0.3-0.7,0.7s0.3,0.7,0.7,0.7h6.5c0.4,0,0.7-0.3,0.7-0.7
					S128.9,275.1,128.6,275.1z"/>
				<path class="st2" d="M128.6,277.1h-6.5c-0.4,0-0.7,0.3-0.7,0.7c0,0.4,0.3,0.7,0.7,0.7h6.5c0.4,0,0.7-0.3,0.7-0.7
					C129.2,277.4,128.9,277.1,128.6,277.1z"/>
				<path class="st2" d="M126.6,279H124c-0.4,0-0.7,0.3-0.7,0.7c0,0.4,0.3,0.7,0.7,0.7h2.6c0.4,0,0.7-0.3,0.7-0.7
					C127.3,279.3,127,279,126.6,279z"/>
			</g>
		</g>
		<path class="st2" d="M129.9,273.4c0-1.4,1-4.2,2.3-5.5c0,0,2.2-2.2,2.2-5.6c0-4.1-2.7-7.6-6.5-8.7c0,0-1.1-0.4-2.7-0.4
			c0,0.1,0,9.9,0,9.9c0,0,0-0.1,0-0.1c1.1-1.9,3.4-2.8,4.4-3.1c0.2,1.1,0.6,3.5-0.5,5.4c-0.8,1.4-2.3,2.3-3.4,2.7v6h3.4
			C129.2,274.1,129.9,274.1,129.9,273.4z"/>
		<g class="st4">
			<g>
				<path class="st5" d="M128.6,275.1h-6.5c-0.4,0-0.7,0.3-0.7,0.7s0.3,0.7,0.7,0.7h6.5c0.4,0,0.7-0.3,0.7-0.7
					S128.9,275.1,128.6,275.1z"/>
				<path class="st5" d="M128.6,277.1h-6.5c-0.4,0-0.7,0.3-0.7,0.7c0,0.4,0.3,0.7,0.7,0.7h6.5c0.4,0,0.7-0.3,0.7-0.7
					C129.2,277.4,128.9,277.1,128.6,277.1z"/>
				<path class="st5" d="M126.6,279H124c-0.4,0-0.7,0.3-0.7,0.7c0,0.4,0.3,0.7,0.7,0.7h2.6c0.4,0,0.7-0.3,0.7-0.7
					C127.3,279.3,127,279,126.6,279z"/>
			</g>
		</g>
		<path class="st6" d="M129.9,273.4c0-1.4,1-4.2,2.3-5.5c0,0,2.2-2.2,2.2-5.6c0-4.1-2.7-7.6-6.5-8.7c0,0-1.1-0.4-2.7-0.4
			c0,0.1,0,9.9,0,9.9c0,0,0-0.1,0-0.1c1.1-1.9,3.4-2.8,4.4-3.1c0.2,1.1,0.6,3.5-0.5,5.4c-0.8,1.4-2.3,2.3-3.4,2.7v6h3.4
			C129.2,274.1,129.9,274.1,129.9,273.4z"/>
	</g>
</g>
</svg>
