<?xml version="1.0" encoding="utf-8"?>
<!-- Generator: Adobe Illustrator 21.0.2, SVG Export Plug-In . SVG Version: 6.00 Build 0)  -->
<svg version="1.1" xmlns="http://www.w3.org/2000/svg" xmlns:xlink="http://www.w3.org/1999/xlink" x="0px" y="0px"
	 viewBox="0 0 220 200" style="enable-background:new 0 0 220 200;" xml:space="preserve">
<style type="text/css">
	.st0{display:none;}
	.st1{display:inline;}
	.st2{clip-path:url(#SVGID_2_);fill:#78A140;}
	.st3{clip-path:url(#SVGID_2_);fill:#BDD1A8;}
	.st4{clip-path:url(#SVGID_2_);fill:#7AA154;}
	.st5{fill:#7AA154;}
	.st6{clip-path:url(#SVGID_4_);fill:#7AA154;}
	.st7{clip-path:url(#SVGID_6_);fill:#7AA154;}
	.st8{fill:#77777A;}
	.st9{clip-path:url(#SVGID_8_);fill:#77777A;}
	.st10{clip-path:url(#SVGID_10_);fill:#77777A;}
	.st11{clip-path:url(#SVGID_12_);fill:#77777A;}
	.st12{clip-path:url(#SVGID_14_);fill:#799900;}
	.st13{clip-path:url(#SVGID_14_);fill:#78A140;}
	.st14{clip-path:url(#SVGID_14_);fill:#BDD1A8;}
	.st15{fill:#78A140;}
	.st16{fill:#BDD1A8;}
	.st17{fill:#FFFFFF;}
	.st18{fill:#545454;}
	.st19{fill:#E88724;}
	.st20{fill:#799900;}
	.st21{font-family:'HelveticaNeue-LightItalic';}
	.st22{font-size:14.4508px;}
	.st23{letter-spacing:1;}
</style>
<g id="Layer_1" class="st0">
	<g class="st1">
		<g>
			<defs>
				<rect id="SVGID_1_" x="19" width="180.2" height="144.1"/>
			</defs>
			<clipPath id="SVGID_2_">
				<use xlink:href="#SVGID_1_"  style="overflow:visible;"/>
			</clipPath>
			<path class="st2" d="M153.6,28.4c-12.5-12.8-29.9-19.7-47.8-19c-16.3,0.6-31.6,7.4-43,19L62.5,28C74,16.2,89.4,9.4,105.8,8.8
				c18-0.7,35.6,6.3,48.2,19.2L153.6,28.4z"/>
			<path class="st3" d="M164.7,27.3c-0.2,0-0.5,0.1-0.7,0.2c-0.5,0.4-0.6,1.1-0.2,1.5c0.2,0.3,0.5,0.4,0.9,0.4
				c0.2,0,0.5-0.1,0.7-0.2c0.5-0.4,0.6-1.1,0.2-1.5C165.3,27.5,165,27.3,164.7,27.3 M53.5,25.5c-0.3,0-0.6,0.1-0.8,0.4
				c-0.4,0.5-0.3,1.2,0.1,1.5c0.2,0.2,0.5,0.3,0.7,0.3c0.3,0,0.6-0.1,0.8-0.4c0.4-0.5,0.3-1.2-0.1-1.5C54,25.6,53.7,25.5,53.5,25.5
				 M161.9,24c-0.3,0-0.5,0.1-0.7,0.3c-0.5,0.4-0.5,1.1-0.1,1.5c0.2,0.2,0.5,0.4,0.8,0.4c0.3,0,0.5-0.1,0.7-0.3
				c0.4-0.4,0.5-1.1,0.1-1.6C162.5,24.1,162.2,24,161.9,24 M56.4,22.2c-0.3,0-0.6,0.1-0.8,0.3c-0.4,0.4-0.4,1.1,0,1.6
				c0.2,0.2,0.5,0.3,0.8,0.3c0.3,0,0.6-0.1,0.8-0.3c0.4-0.4,0.4-1.1,0-1.6C56.9,22.3,56.7,22.2,56.4,22.2 M158.9,20.8
				c-0.3,0-0.6,0.1-0.8,0.3c-0.4,0.4-0.4,1.1,0,1.6c0.2,0.2,0.5,0.3,0.8,0.3c0.3,0,0.6-0.1,0.8-0.3c0.4-0.4,0.4-1.1,0-1.6
				C159.4,20.9,159.1,20.8,158.9,20.8 M59.5,19.2c-0.3,0-0.5,0.1-0.7,0.3c-0.4,0.4-0.5,1.1-0.1,1.6c0.2,0.2,0.5,0.3,0.8,0.3
				c0.3,0,0.5-0.1,0.8-0.3c0.4-0.4,0.5-1.1,0.1-1.5C60.1,19.3,59.8,19.2,59.5,19.2 M155.6,17.8c-0.3,0-0.6,0.1-0.8,0.4
				c-0.4,0.5-0.3,1.1,0.1,1.5c0.2,0.2,0.5,0.3,0.7,0.3c0.3,0,0.6-0.1,0.8-0.4c0.4-0.5,0.4-1.2-0.1-1.6v0
				C156.2,17.9,155.9,17.8,155.6,17.8 M62.8,16.3c-0.2,0-0.5,0.1-0.7,0.2c-0.5,0.4-0.5,1.1-0.1,1.5c0.2,0.3,0.5,0.4,0.8,0.4
				c0.2,0,0.5-0.1,0.7-0.3c0.5-0.4,0.5-1.1,0.2-1.5C63.5,16.4,63.1,16.3,62.8,16.3 M152.3,15c-0.3,0-0.7,0.1-0.9,0.4
				c-0.4,0.5-0.3,1.2,0.2,1.5c0.2,0.1,0.4,0.2,0.7,0.2c0.3,0,0.7-0.1,0.9-0.4c0.4-0.5,0.3-1.2-0.2-1.5C152.7,15.1,152.5,15,152.3,15
				 M66.3,13.6c-0.2,0-0.5,0.1-0.6,0.2c-0.5,0.4-0.6,1-0.2,1.5c0.2,0.3,0.6,0.5,0.9,0.5c0.2,0,0.4-0.1,0.6-0.2
				c0.5-0.4,0.6-1,0.2-1.5C67,13.7,66.6,13.6,66.3,13.6 M148.7,12.4c-0.4,0-0.7,0.2-0.9,0.5c-0.3,0.5-0.2,1.2,0.3,1.5
				c0.2,0.1,0.4,0.2,0.6,0.2c0.3,0,0.7-0.2,0.9-0.5c0.3-0.5,0.2-1.2-0.3-1.5C149.1,12.5,148.9,12.4,148.7,12.4 M69.9,11.1
				c-0.2,0-0.4,0.1-0.6,0.2c-0.5,0.3-0.7,1-0.3,1.5c0.2,0.3,0.6,0.5,0.9,0.5c0.2,0,0.4-0.1,0.6-0.2c0.5-0.3,0.7-1,0.3-1.5
				C70.7,11.3,70.3,11.1,69.9,11.1 M145,10.1c-0.4,0-0.7,0.2-0.9,0.5c-0.3,0.5-0.1,1.2,0.4,1.5c0.2,0.1,0.4,0.2,0.6,0.2
				c0.4,0,0.7-0.2,0.9-0.5c0.3-0.5,0.1-1.2-0.4-1.5C145.4,10.1,145.2,10.1,145,10.1 M73.7,8.9c-0.2,0-0.4,0-0.5,0.1
				c-0.5,0.3-0.7,1-0.4,1.5c0.2,0.4,0.6,0.6,1,0.6c0.2,0,0.4,0,0.5-0.1c0.5-0.3,0.7-1,0.4-1.5C74.5,9.1,74.1,8.9,73.7,8.9
				 M141.2,7.9c-0.4,0-0.8,0.2-1,0.6c-0.3,0.5-0.1,1.2,0.5,1.5v0c0.2,0.1,0.3,0.1,0.5,0.1c0.4,0,0.8-0.2,1-0.6
				c0.3-0.5,0.1-1.2-0.5-1.5h0C141.5,8,141.3,7.9,141.2,7.9 M77.6,6.9c-0.2,0-0.3,0-0.5,0.1c-0.6,0.3-0.8,0.9-0.5,1.5
				c0.2,0.4,0.6,0.6,1,0.6c0.2,0,0.3,0,0.5-0.1c0.6-0.3,0.8-0.9,0.5-1.5C78.4,7.1,78,6.9,77.6,6.9 M137.2,6c-0.4,0-0.8,0.2-1,0.7
				c-0.2,0.6,0,1.2,0.6,1.4c0.1,0.1,0.3,0.1,0.4,0.1c0.4,0,0.8-0.2,1-0.7c0.2-0.6,0-1.2-0.6-1.5C137.5,6.1,137.4,6,137.2,6
				 M81.6,5.1c-0.1,0-0.3,0-0.4,0.1c-0.6,0.2-0.8,0.9-0.6,1.4c0.2,0.4,0.6,0.7,1,0.7c0.1,0,0.3,0,0.4-0.1c0.6-0.2,0.8-0.9,0.6-1.4
				C82.5,5.4,82.1,5.1,81.6,5.1 M133.1,4.4c-0.4,0-0.9,0.3-1,0.7c-0.2,0.6,0.1,1.2,0.6,1.4c0.1,0.1,0.3,0.1,0.4,0.1
				c0.4,0,0.9-0.3,1-0.7c0.2-0.6-0.1-1.2-0.6-1.4C133.4,4.4,133.3,4.4,133.1,4.4 M85.8,3.6c-0.1,0-0.2,0-0.3,0.1
				c-0.6,0.2-0.9,0.8-0.7,1.4c0.2,0.5,0.6,0.8,1,0.8c0.1,0,0.2,0,0.3-0.1c0.6-0.2,0.9-0.8,0.7-1.4C86.7,3.9,86.2,3.6,85.8,3.6
				 M129,3c-0.5,0-0.9,0.3-1,0.8c-0.2,0.6,0.1,1.2,0.7,1.4c0.1,0,0.2,0,0.3,0c0.5,0,0.9-0.3,1-0.8c0.2-0.6-0.1-1.2-0.7-1.4h0
				C129.2,3,129.1,3,129,3 M90,2.4c-0.1,0-0.2,0-0.3,0c-0.6,0.2-0.9,0.8-0.8,1.3C89,4.2,89.5,4.6,90,4.6c0.1,0,0.2,0,0.3,0
				c0.6-0.2,0.9-0.8,0.8-1.3C90.9,2.7,90.5,2.4,90,2.4 M124.8,1.9c-0.5,0-1,0.3-1.1,0.8c-0.1,0.6,0.2,1.2,0.8,1.3h0
				c0.1,0,0.2,0,0.2,0c0.5,0,1-0.3,1.1-0.9c0.1-0.6-0.2-1.2-0.8-1.3C124.9,1.9,124.8,1.9,124.8,1.9 M94.3,1.4c-0.1,0-0.1,0-0.2,0
				l0,0c-0.6,0.1-1,0.7-0.9,1.3c0.1,0.5,0.6,0.9,1.1,0.9c0.1,0,0.1,0,0.2,0c0.6-0.1,1-0.7,0.9-1.3C95.2,1.7,94.8,1.4,94.3,1.4
				 M120.4,1c-0.5,0-1,0.4-1.1,0.9c-0.1,0.6,0.3,1.2,0.9,1.3l0.2,0c0.5,0,1-0.4,1.1-0.9c0.1-0.6-0.3-1.2-0.9-1.3
				C120.6,1,120.5,1,120.4,1 M98.6,0.7c0,0-0.1,0-0.2,0c-0.6,0.1-1,0.6-0.9,1.2c0.1,0.6,0.5,0.9,1.1,0.9l0.1,0
				c0.6-0.1,1-0.6,0.9-1.2C99.6,1.1,99.1,0.7,98.6,0.7 M116.1,0.4c-0.6,0-1,0.4-1.1,1c-0.1,0.6,0.4,1.1,1,1.2l0.1,0
				c0.5,0,1-0.4,1.1-1c0.1-0.6-0.4-1.1-1-1.2C116.2,0.4,116.1,0.4,116.1,0.4 M103,0.2C102.9,0.2,102.9,0.2,103,0.2
				c-0.7,0-1.1,0.6-1.1,1.2c0,0.6,0.5,1,1.1,1l0.1,0c0.6,0,1.1-0.6,1-1.2C104,0.6,103.5,0.2,103,0.2 M111.7,0.1
				c-0.6,0-1.1,0.5-1.1,1c0,0.6,0.4,1.1,1,1.1l0,0c0.6,0,1.1-0.5,1.1-1C112.8,0.6,112.4,0.1,111.7,0.1
				C111.8,0.1,111.7,0.1,111.7,0.1 M107.3,0L107.3,0c-0.6,0-1.1,0.5-1.1,1.1c0,0.6,0.5,1.1,1.1,1.1h0c0.6,0,1.1-0.5,1.1-1.1
				C108.4,0.5,107.9,0,107.3,0"/>
			<path class="st4" d="M48,44.3l0.2-0.8h4.2l-1.1,5.1h-0.8l0.4-1.7c-0.5,0.6-1,1.1-1.7,1.4c-0.6,0.4-1.5,0.5-2.4,0.5
				c-0.6,0-1.2-0.1-1.7-0.3c-0.5-0.2-0.9-0.5-1.2-1c-0.3-0.4-0.5-1-0.5-1.6c-0.1-0.7,0-1.4,0.2-2.3c0.2-0.7,0.4-1.4,0.7-2
				c0.3-0.6,0.7-1.2,1.2-1.6c0.5-0.5,1-0.8,1.7-1.1c0.6-0.3,1.3-0.4,2.1-0.4c0.5,0,1,0.1,1.4,0.2c0.4,0.1,0.8,0.3,1.1,0.6
				c0.3,0.3,0.5,0.6,0.7,1c0.2,0.4,0.2,0.8,0.2,1.4h-1c0-0.4-0.1-0.7-0.2-1c-0.1-0.3-0.3-0.5-0.6-0.7c-0.2-0.2-0.5-0.3-0.8-0.5
				c-0.3-0.1-0.7-0.2-1-0.2c-0.6,0-1.2,0.1-1.7,0.3c-0.5,0.2-1,0.5-1.4,1s-0.7,0.9-1,1.5c-0.3,0.6-0.5,1.2-0.6,1.9
				c-0.1,0.5-0.2,1.1-0.1,1.6c0.1,0.5,0.2,0.9,0.4,1.3c0.2,0.4,0.5,0.7,0.9,0.9c0.4,0.2,0.9,0.3,1.4,0.3c0.3,0,0.5,0,0.8-0.1
				c0.3-0.1,0.6-0.2,0.9-0.3c0.3-0.1,0.6-0.3,0.9-0.5c0.3-0.2,0.5-0.5,0.8-0.8c0.2-0.3,0.4-0.6,0.5-1c0.1-0.3,0.2-0.7,0.3-1.1H48z"
				/>
			<path class="st4" d="M58.3,44.5c0.2,0,0.3,0,0.6-0.1c0.2,0,0.4-0.1,0.6-0.2c0.2-0.1,0.3-0.2,0.3-0.3c0.1-0.2,0.1-0.3,0.1-0.4
				c0-0.2,0.1-0.4,0-0.6c0-0.2-0.1-0.3-0.2-0.5c-0.1-0.1-0.3-0.2-0.5-0.3c-0.2-0.1-0.5-0.1-0.8-0.1c-0.6,0-1.1,0.1-1.5,0.3
				c-0.4,0.2-0.7,0.6-0.9,1.3h-0.8c0.1-0.4,0.3-0.8,0.5-1.1c0.2-0.3,0.5-0.5,0.8-0.7c0.3-0.2,0.6-0.3,1-0.4c0.4-0.1,0.7-0.1,1.1-0.1
				c0.4,0,0.7,0,1,0.1c0.3,0.1,0.5,0.2,0.7,0.4s0.3,0.4,0.4,0.7c0.1,0.3,0.1,0.6,0,1l-0.8,3.9c-0.1,0.3-0.1,0.5,0,0.6
				c0.1,0.1,0.3,0.1,0.7-0.1l-0.1,0.6c-0.1,0-0.2,0-0.3,0.1c-0.1,0-0.3,0.1-0.4,0.1c-0.1,0-0.2,0-0.4,0c-0.3,0-0.4-0.2-0.5-0.4
				c0-0.2,0-0.4,0-0.7c-0.4,0.4-0.9,0.7-1.4,0.9c-0.5,0.2-1,0.3-1.5,0.3c-0.3,0-0.6,0-0.9-0.1c-0.3-0.1-0.5-0.2-0.7-0.4
				c-0.2-0.2-0.3-0.4-0.4-0.6c-0.1-0.3-0.1-0.5,0-0.9c0.2-1.2,1.2-1.9,2.9-2.1L58.3,44.5z M59.6,44.9c-0.4,0.1-0.8,0.2-1.1,0.3
				c-0.4,0-0.7,0.1-1.1,0.1c-0.6,0-1.2,0.2-1.6,0.4c-0.4,0.2-0.7,0.6-0.8,1.1c0,0.2,0,0.4,0,0.6c0.1,0.2,0.1,0.3,0.3,0.4
				c0.1,0.1,0.3,0.2,0.4,0.2c0.2,0.1,0.4,0.1,0.5,0.1c0.3,0,0.7,0,1-0.1c0.3-0.1,0.6-0.2,0.9-0.4c0.3-0.2,0.5-0.4,0.7-0.6
				c0.2-0.3,0.3-0.6,0.4-0.9L59.6,44.9z"/>
		</g>
		<path class="st5" d="M62.6,48.6l1.5-7.1h0.8l-1.5,7.1H62.6z M64.4,40l0.3-1.2h0.9L65.3,40H64.4z"/>
		<g>
			<defs>
				<rect id="SVGID_3_" x="19" width="180.2" height="144.1"/>
			</defs>
			<clipPath id="SVGID_4_">
				<use xlink:href="#SVGID_3_"  style="overflow:visible;"/>
			</clipPath>
			<path class="st6" d="M67,48.6h-0.8l1.5-7.1h0.8l-0.2,1c0.4-0.3,0.8-0.6,1.2-0.8c0.4-0.2,0.8-0.3,1.3-0.3c0.4,0,0.8,0.1,1.2,0.2
				c0.3,0.2,0.6,0.4,0.8,0.8c0.1,0.3,0.2,0.5,0.1,0.8c0,0.3-0.1,0.5-0.1,0.8l-1,4.6H71l1-4.6c0.1-0.6,0.1-1.1-0.1-1.4
				c-0.2-0.3-0.6-0.5-1.3-0.5c-0.3,0-0.5,0-0.7,0.1c-0.2,0.1-0.4,0.2-0.6,0.3c-0.2,0.1-0.4,0.3-0.5,0.4c-0.2,0.2-0.3,0.3-0.4,0.5
				c-0.1,0.2-0.2,0.4-0.3,0.7c-0.1,0.2-0.1,0.4-0.2,0.7L67,48.6z"/>
		</g>
		<path class="st5" d="M78.2,48.6l6-9.8h1.1l1.7,9.8h-1l-0.5-3.1h-4.5l-1.8,3.1H78.2z M81.4,44.7h3.9l-0.8-5.2L81.4,44.7z"/>
		<g>
			<defs>
				<rect id="SVGID_5_" x="19" width="180.2" height="144.1"/>
			</defs>
			<clipPath id="SVGID_6_">
				<use xlink:href="#SVGID_5_"  style="overflow:visible;"/>
			</clipPath>
			<path class="st7" d="M94.8,43.8c0-0.5-0.2-0.9-0.5-1.2c-0.3-0.3-0.7-0.4-1.3-0.4c-0.4,0-0.8,0.1-1.1,0.3
				c-0.3,0.2-0.6,0.4-0.9,0.7c-0.3,0.3-0.5,0.6-0.6,1c-0.2,0.4-0.3,0.7-0.4,1.1c-0.1,0.4-0.1,0.7-0.1,1.1c0,0.4,0.1,0.7,0.2,1
				c0.1,0.3,0.3,0.5,0.6,0.7c0.3,0.2,0.6,0.3,1,0.3c0.6,0,1.1-0.2,1.6-0.5c0.4-0.3,0.8-0.8,1-1.4h0.9c-0.2,0.4-0.3,0.8-0.6,1.1
				c-0.2,0.3-0.5,0.6-0.8,0.8c-0.3,0.2-0.6,0.4-1,0.5c-0.4,0.1-0.8,0.2-1.2,0.2c-0.6,0-1-0.1-1.4-0.3c-0.4-0.2-0.7-0.5-0.8-0.8
				c-0.2-0.3-0.3-0.7-0.3-1.2c0-0.5,0-0.9,0.1-1.5c0.1-0.5,0.3-1,0.5-1.4c0.2-0.5,0.5-0.8,0.9-1.2c0.3-0.3,0.7-0.6,1.2-0.8
				c0.5-0.2,0.9-0.3,1.5-0.3c0.8,0,1.4,0.2,1.9,0.6c0.4,0.4,0.6,1,0.6,1.8H94.8z"/>
			<path class="st7" d="M103.1,43.8c0-0.5-0.2-0.9-0.5-1.2c-0.3-0.3-0.7-0.4-1.3-0.4c-0.4,0-0.8,0.1-1.1,0.3
				c-0.3,0.2-0.6,0.4-0.9,0.7c-0.3,0.3-0.5,0.6-0.6,1c-0.2,0.4-0.3,0.7-0.4,1.1c-0.1,0.4-0.1,0.7-0.1,1.1c0,0.4,0.1,0.7,0.2,1
				c0.1,0.3,0.3,0.5,0.6,0.7c0.3,0.2,0.6,0.3,1,0.3c0.6,0,1.1-0.2,1.6-0.5c0.4-0.3,0.8-0.8,1-1.4h0.9c-0.2,0.4-0.3,0.8-0.6,1.1
				c-0.2,0.3-0.5,0.6-0.8,0.8c-0.3,0.2-0.6,0.4-1,0.5c-0.4,0.1-0.8,0.2-1.2,0.2c-0.6,0-1-0.1-1.4-0.3c-0.4-0.2-0.7-0.5-0.8-0.8
				c-0.2-0.3-0.3-0.7-0.3-1.2c0-0.5,0-0.9,0.1-1.5c0.1-0.5,0.3-1,0.5-1.4c0.2-0.5,0.5-0.8,0.9-1.2c0.3-0.3,0.7-0.6,1.2-0.8
				c0.5-0.2,0.9-0.3,1.5-0.3c0.8,0,1.4,0.2,1.9,0.6c0.4,0.4,0.6,1,0.6,1.8H103.1z"/>
			<path class="st7" d="M106.5,45.3c-0.1,0.4-0.1,0.7-0.1,1.1c0,0.3,0.1,0.6,0.3,0.9c0.1,0.3,0.4,0.5,0.6,0.6c0.3,0.2,0.6,0.2,1,0.2
				c0.5,0,1-0.1,1.5-0.4c0.4-0.3,0.8-0.7,1-1.2h0.9c-0.2,0.3-0.4,0.6-0.6,0.9c-0.2,0.3-0.5,0.5-0.8,0.8c-0.3,0.2-0.6,0.4-1,0.5
				c-0.4,0.1-0.8,0.2-1.2,0.2c-0.6,0-1-0.1-1.4-0.3c-0.4-0.2-0.7-0.5-0.8-0.8c-0.2-0.3-0.3-0.7-0.3-1.2c0-0.5,0-0.9,0.1-1.5
				c0.1-0.5,0.3-1,0.5-1.5c0.2-0.5,0.5-0.9,0.9-1.2c0.4-0.3,0.7-0.6,1.2-0.8c0.4-0.2,0.9-0.3,1.4-0.3c1,0,1.7,0.3,2.1,1
				s0.5,1.6,0.2,2.9H106.5z M111.3,44.6c0.1-0.3,0.1-0.7,0.1-1c0-0.3-0.1-0.6-0.3-0.8c-0.1-0.2-0.3-0.4-0.6-0.5
				c-0.3-0.1-0.6-0.2-0.9-0.2c-0.4,0-0.7,0.1-1,0.2c-0.3,0.1-0.6,0.3-0.8,0.5c-0.2,0.2-0.5,0.5-0.6,0.8c-0.2,0.3-0.3,0.6-0.4,1
				H111.3z"/>
			<path class="st7" d="M114.5,46.4c0,0.6,0.2,1,0.4,1.3c0.3,0.3,0.7,0.4,1.3,0.4c0.3,0,0.6,0,0.8-0.1c0.2-0.1,0.4-0.2,0.6-0.3
				c0.2-0.1,0.3-0.3,0.4-0.4c0.1-0.2,0.2-0.3,0.2-0.5c0.1-0.3,0-0.6-0.2-0.8c-0.2-0.2-0.4-0.3-0.8-0.4s-0.7-0.2-1-0.2
				c-0.4-0.1-0.7-0.2-1-0.3c-0.3-0.1-0.5-0.3-0.7-0.6c-0.2-0.3-0.2-0.6-0.1-1.1c0.1-0.6,0.4-1.1,1-1.5c0.5-0.4,1.2-0.6,2-0.6
				c0.8,0,1.4,0.2,1.8,0.5c0.4,0.3,0.6,0.9,0.5,1.7h-0.8c0-0.5-0.1-0.9-0.4-1.2c-0.3-0.2-0.7-0.3-1.2-0.3c-0.5,0-0.9,0.1-1.3,0.3
				c-0.3,0.2-0.5,0.5-0.6,0.9c-0.1,0.2,0,0.4,0.1,0.6c0.1,0.2,0.2,0.3,0.4,0.4c0.2,0.1,0.4,0.2,0.7,0.3c0.3,0.1,0.5,0.1,0.8,0.2
				c0.3,0.1,0.5,0.1,0.8,0.2c0.3,0.1,0.5,0.2,0.6,0.4c0.2,0.2,0.3,0.3,0.4,0.6c0.1,0.2,0.1,0.5,0,0.8c-0.1,0.3-0.2,0.6-0.4,0.9
				c-0.2,0.3-0.4,0.5-0.7,0.6c-0.3,0.2-0.6,0.3-1,0.4c-0.4,0.1-0.8,0.1-1.2,0.1c-0.4,0-0.8-0.1-1.1-0.2c-0.3-0.1-0.5-0.3-0.7-0.5
				c-0.2-0.2-0.3-0.5-0.4-0.8c-0.1-0.3-0.1-0.6,0-0.9H114.5z"/>
			<path class="st7" d="M122.1,46.4c0,0.6,0.2,1,0.4,1.3c0.3,0.3,0.7,0.4,1.3,0.4c0.3,0,0.6,0,0.8-0.1c0.2-0.1,0.4-0.2,0.6-0.3
				c0.2-0.1,0.3-0.3,0.4-0.4c0.1-0.2,0.2-0.3,0.2-0.5c0.1-0.3,0-0.6-0.2-0.8c-0.2-0.2-0.4-0.3-0.8-0.4s-0.7-0.2-1-0.2
				c-0.4-0.1-0.7-0.2-1-0.3c-0.3-0.1-0.5-0.3-0.7-0.6c-0.2-0.3-0.2-0.6-0.1-1.1c0.1-0.6,0.4-1.1,1-1.5c0.5-0.4,1.2-0.6,2-0.6
				c0.8,0,1.4,0.2,1.8,0.5c0.4,0.3,0.6,0.9,0.5,1.7h-0.8c0-0.5-0.1-0.9-0.4-1.2c-0.3-0.2-0.7-0.3-1.2-0.3c-0.5,0-0.9,0.1-1.3,0.3
				c-0.3,0.2-0.5,0.5-0.6,0.9c-0.1,0.2,0,0.4,0.1,0.6c0.1,0.2,0.2,0.3,0.4,0.4c0.2,0.1,0.4,0.2,0.7,0.3c0.3,0.1,0.5,0.1,0.8,0.2
				c0.3,0.1,0.5,0.1,0.8,0.2c0.3,0.1,0.5,0.2,0.6,0.4c0.2,0.2,0.3,0.3,0.4,0.6c0.1,0.2,0.1,0.5,0,0.8c-0.1,0.3-0.2,0.6-0.4,0.9
				c-0.2,0.3-0.4,0.5-0.7,0.6c-0.3,0.2-0.6,0.3-1,0.4c-0.4,0.1-0.8,0.1-1.2,0.1c-0.4,0-0.8-0.1-1.1-0.2c-0.3-0.1-0.5-0.3-0.7-0.5
				c-0.2-0.2-0.3-0.5-0.4-0.8c-0.1-0.3-0.1-0.6,0-0.9H122.1z"/>
			<path class="st7" d="M135.6,48.7c-0.1,0-0.2,0-0.4,0.1c-0.2,0-0.4,0.1-0.6,0.1c-0.4,0-0.7-0.1-0.9-0.3c-0.2-0.2-0.2-0.6-0.1-1.1
				l1.1-5.2h-1l0.2-0.7h1l0.4-2h0.8l-0.4,2h1.3l-0.2,0.7h-1.3l-1,4.9c0,0.2-0.1,0.3-0.1,0.5c0,0.1,0,0.2,0,0.3
				c0,0.1,0.1,0.1,0.2,0.2c0.1,0,0.2,0.1,0.4,0.1c0.1,0,0.2,0,0.3,0c0.1,0,0.2,0,0.3-0.1L135.6,48.7z"/>
			<path class="st7" d="M140.4,48.8c-0.5,0-0.9-0.1-1.2-0.2c-0.4-0.2-0.7-0.4-0.9-0.7c-0.2-0.3-0.4-0.7-0.5-1.2
				c-0.1-0.5,0-1,0.1-1.6c0.1-0.5,0.3-1,0.5-1.5c0.2-0.5,0.5-0.8,0.9-1.2c0.3-0.3,0.7-0.6,1.2-0.8c0.5-0.2,1-0.3,1.5-0.3
				c0.6,0,1,0.1,1.4,0.3c0.4,0.2,0.7,0.5,0.9,0.8c0.2,0.3,0.3,0.7,0.4,1.2c0,0.5,0,0.9-0.1,1.5c-0.1,0.6-0.3,1.1-0.6,1.5
				c-0.3,0.5-0.6,0.8-0.9,1.2c-0.4,0.3-0.8,0.6-1.2,0.8C141.4,48.7,140.9,48.8,140.4,48.8 M143.6,45.1c0.1-0.4,0.1-0.8,0.1-1.2
				c0-0.4-0.1-0.7-0.2-0.9c-0.1-0.3-0.3-0.5-0.6-0.6c-0.3-0.2-0.6-0.2-1.1-0.2c-0.4,0-0.8,0.1-1.2,0.3c-0.3,0.2-0.6,0.4-0.9,0.7
				c-0.3,0.3-0.5,0.6-0.6,1c-0.2,0.4-0.3,0.7-0.4,1.1c-0.1,0.4-0.1,0.8-0.1,1.2c0,0.4,0.1,0.7,0.3,1c0.1,0.3,0.4,0.5,0.6,0.6
				c0.3,0.1,0.6,0.2,1,0.2c0.4,0,0.8-0.1,1.2-0.3c0.3-0.2,0.6-0.4,0.9-0.7c0.3-0.3,0.5-0.6,0.6-1C143.4,45.8,143.5,45.5,143.6,45.1"
				/>
			<path class="st7" d="M151.2,43.7c0.1-0.7,0.4-1.4,0.7-2c0.3-0.6,0.7-1.2,1.2-1.6c0.5-0.5,1-0.8,1.7-1.1c0.6-0.3,1.3-0.4,2-0.4
				c0.8,0,1.4,0.1,1.9,0.4c0.5,0.3,0.9,0.6,1.2,1.1c0.3,0.5,0.5,1,0.5,1.7c0.1,0.6,0,1.3-0.1,2c-0.2,0.7-0.4,1.4-0.7,2
				c-0.3,0.6-0.7,1.2-1.2,1.6c-0.5,0.5-1,0.8-1.7,1.1c-0.6,0.3-1.3,0.4-2.1,0.4c-0.8,0-1.4-0.1-1.9-0.4c-0.5-0.3-0.9-0.6-1.2-1.1
				c-0.3-0.5-0.5-1-0.5-1.6C151,45.1,151,44.4,151.2,43.7 M154.8,48.1c0.6,0,1.2-0.1,1.7-0.4c0.5-0.2,1-0.6,1.3-1
				c0.4-0.4,0.7-0.9,1-1.4c0.3-0.5,0.4-1.1,0.6-1.7c0.1-0.7,0.2-1.3,0.1-1.8c-0.1-0.5-0.2-1-0.4-1.4c-0.2-0.4-0.6-0.7-1-0.9
				c-0.4-0.2-0.9-0.3-1.5-0.3c-0.6,0-1.2,0.1-1.7,0.4c-0.5,0.2-1,0.6-1.3,1c-0.4,0.4-0.7,0.9-1,1.4c-0.3,0.5-0.4,1.1-0.6,1.7
				c-0.1,0.6-0.2,1.1-0.1,1.7c0,0.5,0.2,1,0.4,1.4c0.2,0.4,0.5,0.7,0.9,1C153.7,48,154.2,48.1,154.8,48.1"/>
			<path class="st7" d="M168,41.5h0.8l-1.5,7.1h-0.8l0.2-1c-0.1,0.1-0.3,0.3-0.5,0.4c-0.2,0.1-0.3,0.3-0.6,0.4
				c-0.2,0.1-0.4,0.2-0.7,0.3c-0.2,0.1-0.5,0.1-0.8,0.1c-0.5,0-0.9-0.1-1.1-0.2c-0.3-0.1-0.5-0.3-0.7-0.6c-0.1-0.2-0.2-0.5-0.2-0.8
				c0-0.3,0-0.7,0.1-1l1-4.7h0.8l-1,4.6c-0.1,0.6-0.1,1.1,0.1,1.4c0.2,0.3,0.6,0.5,1.3,0.5c0.3,0,0.7-0.1,1-0.2
				c0.3-0.1,0.6-0.3,0.8-0.6c0.2-0.2,0.4-0.5,0.6-0.8c0.2-0.3,0.3-0.7,0.4-1.1L168,41.5z"/>
			<path class="st7" d="M170.9,48.6H170l1.5-7.1h0.8l-0.3,1.3h0c0.3-0.6,0.7-1,1.1-1.2c0.4-0.2,0.9-0.3,1.5-0.3l-0.2,0.9
				c-0.5,0-0.9,0.1-1.2,0.2c-0.3,0.2-0.6,0.4-0.8,0.6c-0.2,0.3-0.4,0.6-0.6,0.9c-0.2,0.4-0.3,0.7-0.3,1.1L170.9,48.6z"/>
		</g>
		<rect x="19" y="59.9" class="st8" width="2.4" height="21"/>
		<polygon class="st8" points="41.4,59.9 43.8,59.9 43.8,80.9 41.3,80.9 29.9,63.6 29.9,80.9 27.5,80.9 27.5,59.9 30.1,59.9 
			41.4,77.2 		"/>
		<g>
			<defs>
				<rect id="SVGID_7_" x="19" width="180.2" height="144.1"/>
			</defs>
			<clipPath id="SVGID_8_">
				<use xlink:href="#SVGID_7_"  style="overflow:visible;"/>
			</clipPath>
			<path class="st9" d="M62.8,75.6c0,3.6-2.9,5.6-6.9,5.6c-3.1,0-6-1.2-7.7-3.4l1.4-1.5c1.4,1.9,3.8,2.8,6.2,2.8
				c2.7,0,4.5-1.2,4.5-3.4c0-2.3-1.3-3.2-5-4.3c-4-1.2-6.5-2.8-6.5-6.2c0-3.7,3-5.6,6.9-5.6c3,0,5.3,1,7,2.8l-1.3,1.6
				c-1.4-1.4-3.2-2.3-5.6-2.3c-2.6,0-4.5,1.1-4.5,3.3c0,2.3,1.8,3.2,5.3,4.3C60.7,70.6,62.8,72.2,62.8,75.6"/>
			<path class="st9" d="M79.4,65.9c0-2.3-1.6-3.8-4.5-3.8h-5.2v8.6H75c2.8,0,4.5-1.1,4.5-3.5V65.9z M75.1,59.9
				c4.3,0,6.8,2.2,6.8,5.8v1.7c0,3.6-2.6,5.4-6.8,5.4h-5.4v8.1h-2.4v-21H75.1z"/>
		</g>
		<rect x="86.6" y="59.9" class="st8" width="2.4" height="21"/>
		<g>
			<defs>
				<rect id="SVGID_9_" x="19" width="180.2" height="144.1"/>
			</defs>
			<clipPath id="SVGID_10_">
				<use xlink:href="#SVGID_9_"  style="overflow:visible;"/>
			</clipPath>
			<path class="st10" d="M97.7,70h5.8c2-0.1,3.7-1.1,3.7-3.3v-1.3c0-2-1.5-3.3-4-3.3h-5.5V70z M105.3,71.5l4.9,9.4h-2.7l-4.5-8.9
				h-5.4v8.9h-2.4v-21h8.2c3.9,0,6.3,2,6.3,5.5v1.2C109.6,69.3,108,71,105.3,71.5"/>
		</g>
		<path class="st8" d="M124.4,72.5l-3.4-9.7l-3.5,9.7H124.4z M122.4,59.7l7.5,21.3h-2.7l-2.1-6.3h-8l-2.2,6.3h-2.7l7.6-21.3H122.4z"
			/>
		<polygon class="st8" points="129.5,62.1 129.5,59.9 146.1,59.9 146.1,62.1 138.9,62.1 138.9,80.9 136.5,80.9 136.5,62.1 		"/>
		<rect x="149.9" y="59.9" class="st8" width="2.4" height="21"/>
		<g>
			<defs>
				<rect id="SVGID_11_" x="19" width="180.2" height="144.1"/>
			</defs>
			<clipPath id="SVGID_12_">
				<use xlink:href="#SVGID_11_"  style="overflow:visible;"/>
			</clipPath>
			<path class="st11" d="M171.7,66.5c0-2.9-2.3-4.7-5.5-4.7h-0.5c-3.1,0-5.3,1.8-5.3,4.7v7.8c0,3.1,2.1,4.7,5.3,4.7h0.5
				c3.3,0,5.5-1.6,5.5-4.7V66.5z M174.1,66.4v8.1c0,4.3-3.2,6.8-8,6.8h-0.5c-4.6,0-7.8-2.4-7.8-6.8v-8.1c0-4.2,3.3-6.8,7.8-6.8h0.5
				C170.8,59.6,174.1,62.2,174.1,66.4"/>
		</g>
		<polygon class="st8" points="192.8,59.9 195.2,59.9 195.2,80.9 192.7,80.9 181.2,63.6 181.2,80.9 178.9,80.9 178.9,59.9 
			181.5,59.9 192.8,77.2 		"/>
		<polygon class="st8" points="191.5,84.8 191.5,84.6 193.1,84.6 193.1,84.8 192.4,84.8 192.4,86.6 192.2,86.6 192.2,84.8 		"/>
		<polygon class="st8" points="193.2,84.6 193.9,85.8 194.6,84.6 194.9,84.6 194.9,86.6 194.6,86.6 194.6,85 194,86.1 193.9,86.1 
			193.2,85 193.2,86.6 193,86.6 193,84.6 		"/>
		<g>
			<defs>
				<rect id="SVGID_13_" x="19" width="180.2" height="144.1"/>
			</defs>
			<clipPath id="SVGID_14_">
				<use xlink:href="#SVGID_13_"  style="overflow:visible;"/>
			</clipPath>
			<path class="st12" d="M112.3,105.8c0,0,0,0,0,0.2c0,0.4-0.1,1.4-0.1,1.8c0,0.5,0,1,0.1,1.4c0.7,2.4,3.6,3.1,5.7,3.1
				c6.6,0,11.9-7.8,11.9-18.8c0-2.5,0.1-6.1,0.8-8.4c0.1-0.3,0.3-1.2,0.3-1.3c-0.4,0-0.5,1.7-2.3,6.1c-0.2,0.5-0.3,1-0.4,1.4
				c0,0-0.3,0.5-0.3,0.5c-0.2,1.1-0.9,1.8-2.1,4c-1.8,3.2-5.1,4.6-8,4.6c-3.9,0-6.9-3.8-6.9-7.8c0-6.2,6.2-15.5,12-15.5h0.9l0-0.1
				c0-0.7,1.1-4,2.4-5.8c0-0.1,0.3-0.5,0.5-0.5c0.9,0,1.3,1.3,1.3,1.9c0,2-0.2,3.9-0.6,5.9c0,0.1-0.1,0.3-0.2,0.4
				c-0.1,0.7-0.4,1.4-0.4,2.3c-0.3,0.6-0.7,2.9-1.6,2.9c-0.4,0-0.2-0.7-0.2-1c-0.2,0-0.4,0.1-0.5,0.1c-0.9,0-1.2-1.6-1.2-2.9
				c0-0.8,0-1.4,0.1-1.7c0,0,0.2-0.2,0.2-0.3c0,0,0,0,0,0c-0.3,0-0.5,0-0.8,0c-5.6,0-10.8,8.8-10.8,14.1c0,2.3,1.2,5.1,4,5.1
				c7,0,13.7-11.9,15.7-18.7c0.1-0.2,0.3-0.5,0.6-0.6c0.3,0,1.1,0.4,1.1,1.1c-0.4,1.3-1.3,3.7-1.6,5.3c-0.1,0.4-0.3,1.5-0.3,1.8
				l-0.2,2.2c0,0-0.1,0.3-0.1,0.3c-0.1,1.3-0.1,2.4-0.1,3.6v1.7c0,0.3,0,0.6-0.1,1c-0.1,2.5-0.1,3.7-0.2,4.4c0,0.3-0.2,0.8-0.2,1.2
				c0,0,0,0.1,0,0.2c-0.5,1.6-0.8,3.2-1.5,4.8c0,0.1,0,0.1-0.2,0.2c-1.8,4.1-6.6,7.8-11,7.8c-0.2,0-0.4,0-0.5,0c-0.1,0-0.2,0-0.2,0
				c-2.2-0.1-5.6-1.9-5.6-4.5C111.5,108.2,111.8,107.1,112.3,105.8"/>
			<path class="st12" d="M145.5,92.1c0-0.1,0.1-0.2,0.2-0.2c0,0,0.1,0,0.1,0.1c0,0,0,0.1,0,0.1c-0.1,0.2-0.9,1.6-1,1.7
				c-0.1,0.1-0.5,1.1-0.5,1.1c-0.3,0.6-0.5,1.1-0.9,1.7c-0.9,0.8-0.5,2.8-2,2.8c-1.8,0-3.1-1.6-3.1-4.1v-0.4c0-0.1,0-0.1,0-0.1
				c-0.3,0-2.2,5.2-3,5.2c-1.7,0-3.1-1.4-3.1-3.5c0-2.9,3.9-9.1,6.5-9.1c1.6,0,2.4,1.2,2.4,2.8c0,0,0,0.1,0,0.1c0,0,0,0,0-0.1
				c0-0.3-0.2-0.6-0.5-0.6c-0.2,0-0.2,0.1-0.3,0.1c-3.1,0.4-6.3,5.9-6.3,8.2c0,0.3,0.4,0.6,0.7,0.6c1,0,2.6-2.8,3.8-4.8
				c0-0.1,0.3-0.4,0.6-0.4c0.2,0,0.1-0.1,0.2-0.1c0.6,0,1.2,0.6,1.2,0.8c0,1.9,0.1,3.5,0.9,3.5c0.6,0,1.6-1.4,2.7-2.8
				C144.2,94,145.2,92.5,145.5,92.1"/>
			<path class="st12" d="M145.8,92.9c0.1-0.1,0.2-0.2,0.3-0.4c3.2-4.2,7.6-8,9.2-16.3c0-0.1,0-0.3,0-0.5c0-0.5,0-0.9-0.7-0.9
				c-0.4,0-0.7,0.6-1.1,0.8l-0.1,0c-0.6,0.6-1.3,1.5-1.8,2.4C149,81,146.4,87.3,145.8,92.9 M143.9,95.1c-0.1-0.8-0.1-1.7-0.1-2.5
				c0-1.3,0-2.5,0.2-3.6c0,0,0-0.2,0-0.1c0.6-4.5,2.4-11.9,6.3-14.9c0.4-0.6,1.3-1.3,2.3-1.3c0.2,0,0.3,0,0.4,0
				c0.3,0,0.4-0.1,0.8-0.1c0.3,0,0.2,0.2,0.3,0.2c0.1,0,0.1,0,0.2,0c0.1,0,0.2,0,0.4,0.1c1.2,0.4,1.7,1.6,1.7,3.1
				c0,4.1-3.7,10.7-5.8,12.5c-0.2,0-0.6,0.5-0.7,0.6l-0.3,0.7l-0.4,0.1c0,0.5-1.3,1.1-1.5,1.5c-0.8,0.8-1.4,1.5-2.1,2.4
				c-0.2,1,0,7.4,1.8,7.4c2.2,0,2.3-1.5,3.4-2.4c0.2-0.2,0.7-0.1,1-0.4c0.3-0.4,0.6-1.1,0.9-1.5l1.5-1.7l0.9-1.3
				c0.8-1.5,0.7-1.6,1.1-2.2c0.2,0,0.2,0.1,0.3,0.2c0,0.3-0.4,0.8-1.9,4c-0.1,0.1-0.5,0.8-1.3,2c-0.2,0.3-0.2,0.6-0.3,0.8l-0.6,0.7
				c-1.3,1.4-2.1,3.1-3.7,3.2c-2.6,0-4.1-2.9-4.6-6.4l-0.1,0.1"/>
			<path class="st12" d="M156.4,92.9c0.1-0.1,0.2-0.2,0.3-0.4c3.2-4.2,7.6-8,9.2-16.3c0-0.1,0-0.3,0-0.5c0-0.5,0-0.9-0.7-0.9
				c-0.4,0-0.7,0.6-1.1,0.8l-0.1,0c-0.6,0.6-1.3,1.5-1.8,2.4C159.6,81,157,87.3,156.4,92.9 M154.5,95.1c-0.1-0.8-0.1-1.7-0.1-2.5
				c0-1.3,0-2.5,0.2-3.6c0,0,0-0.2,0-0.1c0.6-4.5,2.4-11.9,6.3-14.9c0.4-0.6,1.3-1.3,2.3-1.3c0.2,0,0.3,0,0.4,0
				c0.3,0,0.4-0.1,0.8-0.1c0.3,0,0.2,0.2,0.3,0.2c0.1,0,0.1,0,0.2,0c0.1,0,0.2,0,0.4,0.1c1.2,0.4,1.7,1.6,1.7,3.1
				c0,4.1-3.7,10.7-5.8,12.5c-0.2,0-0.6,0.5-0.7,0.6l-0.3,0.7l-0.4,0.1c0,0.5-1.3,1.1-1.5,1.5c-0.8,0.8-1.4,1.5-2.1,2.4
				c-0.2,1,0,7.4,1.8,7.4c2.2,0,2.3-1.5,3.4-2.4c0.2-0.2,0.7-0.1,1-0.4c0.3-0.4,0.6-1.1,0.9-1.5l1.5-1.7l0.9-1.3
				c0.8-1.5,0.7-1.6,1.1-2.2c0.2,0,0.2,0.1,0.3,0.2c0,0.3-0.4,0.8-1.9,4c-0.1,0.1-0.5,0.8-1.3,2c-0.2,0.3-0.2,0.6-0.3,0.8l-0.6,0.7
				c-1.3,1.4-2.1,3.1-3.7,3.2c-2.6,0-4.1-2.9-4.6-6.4l-0.1,0.1"/>
			<path class="st12" d="M168.3,93c0,0,0.1,0,0.3,0c0.5,0,1.2-0.4,1.6-0.7c0.7-0.7,1.1-1.3,1.1-2.4c0-0.1-0.1-0.2-0.2-0.2
				c-0.5,0-1,0.6-1.3,1c-0.2,0.1-0.2,0.4-0.4,0.5c-0.3,0.4-0.5,0.7-0.7,1.1C168.4,92.6,168.3,92.7,168.3,93 M174.4,91.9
				c0,0.1,0,0.2,0,0.3c0,0-2.3,4.4-2.5,4.6c-0.1,0.1-0.1,0.2-0.2,0.3l-0.3,0.4c0,0-0.1,0.2-0.3,0.3c-0.1,0.1-1.3,1.2-2,1.2
				c-0.2,0-0.5,0-0.5,0c-1.5-0.4-3.3-2.7-3.3-5.3c0-3.2,2.8-5.9,4.2-5.9c0,0,0.1,0,0.2,0c0.2,0,0.3-0.1,0.5-0.1
				c0.3,0,0.5,0.1,0.6,0.3c0.2,0.2,0.5,0.6,0.7,0.7l0.2,0.5c0,0.1,0.1,0.2,0.2,0.4c0.1,0.2,0.1,0.6,0.1,1c0,0.3-0.1,0.7-0.1,0.7
				c0,0.3,0,0.5-0.2,0.8c-0.5,0.7-1.5,1-2.5,1.2l-1.2,0.2c-0.3,0.3-0.3,1.4-0.3,2c0,1.6,0.8,2.3,1.3,2.3c0.6,0,1.3-0.4,1.4-0.6
				c0.3-0.2,1.3-1.6,1.7-2c0.1-0.1,0.1-0.3,0.2-0.5l0.2-0.2l0.3-0.4c0.2-0.3,0.4-0.8,0.6-1.1c0.1-0.1,0.5-0.8,0.6-1
				c0.1-0.1,0.2-0.3,0.3-0.3C174.3,91.8,174.4,91.8,174.4,91.9"/>
			<path class="st12" d="M174.7,90.4c0.2-0.5,1.6-2.8,1.6-3.2c0-0.2-0.6-0.5-0.6-0.5c-0.2,0-0.2,0.2-0.5,0.2c0,0-0.1,0-0.2,0
				c-0.2,0.1-0.6,0.5-0.8,0.8c0,0-0.2,0.5-0.2,0.7c-0.1,0.2-0.3,0.4-0.3,0.8c0,0,0,0.2,0,0.4l0,0.4c0.2,0.9,0.7,1.2,1,1.4
				c0.5,0.4,3.4-0.4,3.8,1.7v1.4c0,0-0.1,0.5-0.1,0.6c0,0,0.1,2.7,0.2,3.3c0,0.3,0.1,0.4,0.3,0.4c1.1,0,4.1-5.4,4.9-6.9
				c0-0.1,0.1-0.1,0.2-0.1c0.1,0,0.2,0,0.2,0.1c0,0,0,0.1,0,0.1l-1.4,3.4l-1,1.8c0,0-0.1,0.1-0.2,0.2c-0.3,0.5-0.4,1.1-0.9,1.5
				c-0.1,0.3-1.5,0.8-2.2,0.9c-0.6,0-1.8-0.7-2-1.6c-0.2-1.5,0-5.6-0.9-6.1l-1.1-0.4c0,0-1.1-0.5-1.3-1.5c0-0.1,0-0.2,0-0.3
				c0-1.5,1.5-4.1,3.4-4.4h0.3c0.5,0,0.7,0.2,0.7,0.6c0,0.3-0.2,0.8-0.4,1.1l-1.9,3.5C174.9,90.8,174.5,90.8,174.7,90.4"/>
			<path class="st12" d="M191.8,101.7v-1.8c-1.3,0.5-2.7,1.4-3.5,2.5c-0.5,0.3-1.3,0.8-1.5,1.4l-2.2,2.3c-0.8,0.4-1.3,1.9-1.9,2.7
				l-0.7,1c-0.2,0.2-0.5,0.9-0.6,1.2c-0.4,0.8-1.5,3.4-1.5,5.2c0,1,0.3,1.7,1.1,2C182.4,118.1,191.8,113.2,191.8,101.7 M179.2,116.1
				c0-6.6,8.8-15.1,12.6-17.2c0-0.3,0.1-2.5,0.1-3.3v-1.1c0-1.2-0.1-2.4-0.1-3.7c-0.2,0-0.2,0.5-0.5,0.6c0,0.5-0.2,0.9-0.5,1.1
				l-0.9,1.5c-0.2,0.3-0.3,0.8-0.6,1c-0.4,0.7-1.1,1.5-1.9,1.5c-0.7,0-3.4-1.5-3.6-2.2c-0.2-0.7-0.3-1.4-0.3-6.2
				c0-0.7-0.4-0.5-0.3-0.6c0.2-0.4,0.7-0.7,1.3-0.7c1,0,1.4,0.8,1.7,1.7c0,0.2,0,0.3,0,2.6c-0.3,1,0,2.2-0.3,2.2
				c0,0.4,0,2.2,0.8,2.2c1.2,0,2.8-2.2,4.6-5.3c0.1-0.3,0.8-1.6,1.1-1.6c0.2,0,0.1-0.5,0.7-0.5c0.9,0,1.8,0.9,1.8,1.8
				c0,2.6,0.1,7.3,0.1,7.3c1.3-0.7,1.5-0.7,1.8-0.8s1.1-0.3,1.1-0.3c0.5,0,0.9,0,1.3,0.3c-0.6-0.1-0.7-0.1-1.1,0
				c-0.3,0-0.6,0.3-0.9,0.5c-0.4,0.2-0.6,0.4-1,0.7c-0.5,0.3-1.1,0.5-1.1,0.6c0,1,0,1.9,0,2.9c0,2-0.1,4-0.8,6.1
				c-0.5,0.5-0.8,2.7-1.5,3c-0.9,0.6-1.7,2.2-1.9,2.2c-1,0-1.3,1.9-2.4,2.1c-0.7,0.6-1.5,1.4-2.1,1.9c-0.8,0.4-1.5,1.1-2.5,1.6
				c-1.1,0-1.3,1.1-3.1,1.1C179.5,118.9,179.2,116.5,179.2,116.1"/>
			<path class="st13" d="M64.6,115.7c12.5,12.8,29.9,19.7,47.8,19c16.3-0.6,31.6-7.4,43-19l0.4,0.4c-11.5,11.8-26.9,18.6-43.3,19.2
				c-18,0.7-35.6-6.3-48.2-19.2L64.6,115.7z"/>
			<path class="st14" d="M53.5,116.8c0.2,0,0.5-0.1,0.7-0.2c0.5-0.4,0.6-1.1,0.2-1.5c-0.2-0.3-0.5-0.4-0.9-0.4
				c-0.2,0-0.5,0.1-0.7,0.2c-0.5,0.4-0.6,1.1-0.2,1.5C52.8,116.6,53.1,116.8,53.5,116.8 M164.7,118.6c0.3,0,0.6-0.1,0.8-0.4
				c0.4-0.5,0.3-1.2-0.1-1.5c-0.2-0.2-0.5-0.3-0.7-0.3c-0.3,0-0.6,0.1-0.8,0.4c-0.4,0.5-0.3,1.2,0.1,1.5
				C164.2,118.5,164.5,118.6,164.7,118.6 M56.3,120.1c0.3,0,0.5-0.1,0.7-0.3c0.5-0.4,0.5-1.1,0.1-1.5c-0.2-0.2-0.5-0.4-0.8-0.4
				c-0.3,0-0.5,0.1-0.7,0.3c-0.4,0.4-0.5,1.1-0.1,1.6C55.7,120,56,120.1,56.3,120.1 M161.8,121.9c0.3,0,0.6-0.1,0.8-0.3
				c0.4-0.4,0.4-1.1,0-1.6c-0.2-0.2-0.5-0.3-0.8-0.3c-0.3,0-0.6,0.1-0.8,0.3c-0.4,0.4-0.4,1.1,0,1.6
				C161.2,121.8,161.5,121.9,161.8,121.9 M59.3,123.3c0.3,0,0.6-0.1,0.8-0.3c0.4-0.4,0.4-1.1,0-1.6c-0.2-0.2-0.5-0.3-0.8-0.3
				c-0.3,0-0.6,0.1-0.8,0.3c-0.4,0.4-0.4,1.1,0,1.6C58.8,123.2,59,123.3,59.3,123.3 M158.6,125c0.3,0,0.5-0.1,0.7-0.3
				c0.4-0.4,0.5-1.1,0.1-1.6c-0.2-0.2-0.5-0.3-0.8-0.3c-0.3,0-0.5,0.1-0.8,0.3c-0.4,0.4-0.5,1.1-0.1,1.5
				C158.1,124.8,158.4,125,158.6,125 M62.5,126.3c0.3,0,0.6-0.1,0.8-0.4c0.4-0.5,0.3-1.1-0.1-1.5c-0.2-0.2-0.5-0.3-0.7-0.3
				c-0.3,0-0.6,0.1-0.8,0.4c-0.4,0.5-0.4,1.2,0.1,1.6v0C62,126.2,62.3,126.3,62.5,126.3 M155.3,127.8c0.2,0,0.5-0.1,0.7-0.2
				c0.5-0.4,0.5-1.1,0.1-1.5c-0.2-0.3-0.5-0.4-0.8-0.4c-0.2,0-0.5,0.1-0.7,0.3c-0.5,0.4-0.5,1.1-0.2,1.5
				C154.7,127.7,155,127.8,155.3,127.8 M65.9,129.1c0.3,0,0.7-0.1,0.9-0.4c0.4-0.5,0.3-1.2-0.2-1.5c-0.2-0.1-0.4-0.2-0.7-0.2
				c-0.3,0-0.7,0.1-0.9,0.4c-0.4,0.5-0.3,1.2,0.2,1.5C65.4,129,65.7,129.1,65.9,129.1 M151.9,130.5c0.2,0,0.5-0.1,0.6-0.2
				c0.5-0.4,0.6-1,0.2-1.5c-0.2-0.3-0.6-0.5-0.9-0.5c-0.2,0-0.4,0.1-0.6,0.2c-0.5,0.4-0.6,1-0.2,1.5
				C151.2,130.4,151.5,130.5,151.9,130.5 M69.5,131.7c0.4,0,0.7-0.2,0.9-0.5c0.3-0.5,0.2-1.2-0.3-1.5c-0.2-0.1-0.4-0.2-0.6-0.2
				c-0.3,0-0.7,0.2-0.9,0.5c-0.3,0.5-0.2,1.2,0.3,1.5C69,131.6,69.3,131.7,69.5,131.7 M148.2,133c0.2,0,0.4-0.1,0.6-0.2
				c0.5-0.3,0.7-1,0.3-1.5c-0.2-0.3-0.6-0.5-0.9-0.5c-0.2,0-0.4,0.1-0.6,0.2c-0.5,0.3-0.7,1-0.3,1.5
				C147.5,132.8,147.9,133,148.2,133 M73.2,134c0.4,0,0.7-0.2,0.9-0.5c0.3-0.5,0.1-1.2-0.4-1.5c-0.2-0.1-0.4-0.2-0.6-0.2
				c-0.4,0-0.7,0.2-0.9,0.5c-0.3,0.5-0.1,1.2,0.4,1.5C72.8,134,73,134,73.2,134 M144.5,135.2c0.2,0,0.4,0,0.5-0.1
				c0.5-0.3,0.7-1,0.4-1.5c-0.2-0.4-0.6-0.6-1-0.6c-0.2,0-0.4,0-0.5,0.1c-0.5,0.3-0.7,1-0.4,1.5C143.7,135,144.1,135.2,144.5,135.2
				 M77,136.2c0.4,0,0.8-0.2,1-0.6c0.3-0.5,0.1-1.2-0.5-1.5v0c-0.2-0.1-0.3-0.1-0.5-0.1c-0.4,0-0.8,0.2-1,0.6
				c-0.3,0.5-0.1,1.2,0.5,1.5h0C76.7,136.1,76.8,136.2,77,136.2 M140.6,137.2c0.2,0,0.3,0,0.5-0.1c0.6-0.3,0.8-0.9,0.5-1.5
				c-0.2-0.4-0.6-0.6-1-0.6c-0.2,0-0.3,0-0.5,0.1c-0.6,0.3-0.8,0.9-0.5,1.5C139.8,137,140.1,137.2,140.6,137.2 M81,138.1
				c0.4,0,0.8-0.2,1-0.7c0.2-0.6,0-1.2-0.6-1.4c-0.1-0.1-0.3-0.1-0.4-0.1c-0.4,0-0.8,0.2-1,0.7c-0.2,0.6,0,1.2,0.6,1.5
				C80.7,138,80.8,138.1,81,138.1 M136.5,139c0.1,0,0.3,0,0.4-0.1c0.6-0.2,0.8-0.9,0.6-1.4c-0.2-0.4-0.6-0.7-1-0.7
				c-0.1,0-0.3,0-0.4,0.1c-0.6,0.2-0.8,0.9-0.6,1.4C135.7,138.7,136.1,139,136.5,139 M85,139.7c0.4,0,0.9-0.3,1-0.7
				c0.2-0.6-0.1-1.2-0.6-1.4c-0.1-0.1-0.3-0.1-0.4-0.1c-0.4,0-0.9,0.3-1,0.7c-0.2,0.6,0.1,1.2,0.6,1.4
				C84.8,139.7,84.9,139.7,85,139.7 M132.4,140.5c0.1,0,0.2,0,0.3-0.1c0.6-0.2,0.9-0.8,0.7-1.4c-0.2-0.5-0.6-0.8-1-0.8
				c-0.1,0-0.2,0-0.3,0.1c-0.6,0.2-0.9,0.8-0.7,1.4C131.5,140.2,131.9,140.5,132.4,140.5 M89.2,141.1c0.5,0,0.9-0.3,1-0.8
				c0.2-0.6-0.1-1.2-0.7-1.4c-0.1,0-0.2,0-0.3,0c-0.5,0-0.9,0.3-1,0.8c-0.2,0.6,0.1,1.2,0.7,1.4h0C89,141.1,89.1,141.1,89.2,141.1
				 M128.2,141.7c0.1,0,0.2,0,0.3,0c0.6-0.2,0.9-0.8,0.8-1.3c-0.1-0.5-0.6-0.8-1.1-0.8c-0.1,0-0.2,0-0.3,0c-0.6,0.2-0.9,0.8-0.8,1.3
				C127.3,141.4,127.7,141.7,128.2,141.7 M93.4,142.2c0.5,0,1-0.3,1.1-0.8c0.1-0.6-0.2-1.2-0.8-1.3h0c-0.1,0-0.2,0-0.2,0
				c-0.5,0-1,0.3-1.1,0.9c-0.1,0.6,0.2,1.2,0.8,1.3C93.3,142.2,93.3,142.2,93.4,142.2 M123.9,142.7c0.1,0,0.1,0,0.2,0l0,0
				c0.6-0.1,1-0.7,0.9-1.3c-0.1-0.5-0.6-0.9-1.1-0.9c-0.1,0-0.1,0-0.2,0c-0.6,0.1-1,0.7-0.9,1.3
				C122.9,142.4,123.4,142.7,123.9,142.7 M97.7,143.1c0.5,0,1-0.4,1.1-0.9c0.1-0.6-0.3-1.2-0.9-1.3l-0.2,0c-0.5,0-1,0.4-1.1,0.9
				c-0.1,0.6,0.3,1.2,0.9,1.3C97.6,143.1,97.7,143.1,97.7,143.1 M119.6,143.5c0,0,0.1,0,0.2,0c0.6-0.1,1-0.6,0.9-1.2
				c-0.1-0.6-0.5-0.9-1.1-0.9l-0.1,0c-0.6,0.1-1,0.6-0.9,1.2C118.6,143.1,119,143.5,119.6,143.5 M102.1,143.7c0.6,0,1-0.4,1.1-1
				c0.1-0.6-0.4-1.1-1-1.2l-0.1,0c-0.5,0-1,0.4-1.1,1c-0.1,0.6,0.4,1.1,1,1.2C102,143.7,102,143.7,102.1,143.7 M115.2,143.9
				C115.3,143.9,115.3,143.9,115.2,143.9c0.7,0,1.1-0.6,1.1-1.2c0-0.6-0.5-1-1.1-1l-0.1,0c-0.6,0-1.1,0.6-1,1.2
				C114.2,143.5,114.7,143.9,115.2,143.9 M106.5,144c0.6,0,1.1-0.5,1.1-1c0-0.6-0.4-1.1-1-1.1l0,0c-0.6,0-1.1,0.5-1.1,1
				C105.3,143.5,105.8,144,106.5,144C106.4,144,106.4,144,106.5,144 M110.8,144.1L110.8,144.1c0.6,0,1.1-0.5,1.1-1.1
				c0-0.6-0.5-1.1-1.1-1.1h0c-0.6,0-1.1,0.5-1.1,1.1C109.8,143.6,110.2,144.1,110.8,144.1"/>
		</g>
	</g>
</g>
<g id="Layer_2">
	<g>
		<g>
			<path class="st15" d="M157.7,30.2c-13.3-13.6-31.8-21-50.8-20.2c-17.3,0.7-33.5,7.8-45.7,20.2l-0.4-0.4
				C73,17.3,89.4,10,106.9,9.4c19.2-0.7,37.8,6.7,51.2,20.4L157.7,30.2z"/>
		</g>
		<g>
			<path class="st16" d="M168.6,29.1c-0.3,0-0.5,0.1-0.7,0.3c-0.5,0.4-0.6,1.1-0.2,1.6c0.2,0.3,0.6,0.4,0.9,0.4
				c0.3,0,0.5-0.1,0.7-0.3c0.5-0.4,0.6-1.1,0.2-1.6C169.2,29.3,168.9,29.1,168.6,29.1 M50.3,27.2c-0.3,0-0.7,0.1-0.9,0.4
				c-0.4,0.5-0.4,1.2,0.1,1.6c0.2,0.2,0.5,0.3,0.8,0.3c0.3,0,0.7-0.1,0.9-0.4c0.4-0.5,0.4-1.2-0.1-1.6
				C50.9,27.3,50.6,27.2,50.3,27.2 M165.6,25.5c-0.3,0-0.6,0.1-0.8,0.3c-0.5,0.4-0.5,1.2-0.1,1.6c0.2,0.3,0.6,0.4,0.9,0.4
				c0.3,0,0.6-0.1,0.8-0.3c0.5-0.4,0.5-1.2,0.1-1.7C166.2,25.7,165.9,25.5,165.6,25.5 M53.5,23.7c-0.3,0-0.6,0.1-0.8,0.4
				c-0.5,0.5-0.4,1.2,0,1.7c0.2,0.2,0.5,0.3,0.8,0.3c0.3,0,0.6-0.1,0.8-0.4c0.4-0.5,0.4-1.2,0-1.7C54,23.8,53.7,23.7,53.5,23.7
				 M162.3,22.2c-0.3,0-0.6,0.1-0.8,0.3c-0.5,0.5-0.5,1.2,0,1.7c0.2,0.2,0.5,0.3,0.8,0.3c0.3,0,0.6-0.1,0.8-0.3
				c0.5-0.5,0.5-1.2,0-1.7C162.9,22.3,162.6,22.2,162.3,22.2 M56.8,20.4c-0.3,0-0.6,0.1-0.8,0.3c-0.5,0.4-0.5,1.2-0.1,1.7
				c0.2,0.2,0.5,0.4,0.9,0.4c0.3,0,0.6-0.1,0.8-0.3c0.5-0.4,0.5-1.2,0.1-1.6C57.4,20.5,57.1,20.4,56.8,20.4 M158.9,19
				c-0.3,0-0.6,0.1-0.9,0.4c-0.4,0.5-0.4,1.2,0.1,1.6c0.2,0.2,0.5,0.3,0.8,0.3c0.3,0,0.6-0.1,0.9-0.4c0.4-0.5,0.4-1.2-0.1-1.7v0
				C159.5,19.1,159.2,19,158.9,19 M60.3,17.4c-0.3,0-0.5,0.1-0.7,0.3c-0.5,0.4-0.6,1.1-0.2,1.6c0.2,0.3,0.6,0.4,0.9,0.4
				c0.3,0,0.5-0.1,0.7-0.3c0.5-0.4,0.6-1.1,0.2-1.6C61,17.5,60.6,17.4,60.3,17.4 M155.3,16c-0.4,0-0.7,0.2-0.9,0.5
				c-0.4,0.5-0.3,1.2,0.2,1.6c0.2,0.2,0.5,0.2,0.7,0.2c0.3,0,0.7-0.2,0.9-0.5c0.4-0.5,0.3-1.2-0.2-1.6C155.8,16.1,155.6,16,155.3,16
				 M64,14.5c-0.2,0-0.5,0.1-0.7,0.2c-0.5,0.4-0.6,1.1-0.3,1.6c0.2,0.3,0.6,0.5,0.9,0.5c0.2,0,0.5-0.1,0.7-0.2
				c0.5-0.4,0.6-1.1,0.3-1.6C64.7,14.7,64.3,14.5,64,14.5 M151.6,13.3c-0.4,0-0.7,0.2-1,0.5c-0.4,0.5-0.2,1.3,0.3,1.6
				c0.2,0.1,0.4,0.2,0.7,0.2c0.4,0,0.7-0.2,1-0.5c0.4-0.5,0.2-1.3-0.3-1.6C152,13.3,151.8,13.3,151.6,13.3 M67.8,11.9
				c-0.2,0-0.4,0.1-0.6,0.2c-0.5,0.3-0.7,1.1-0.4,1.6c0.2,0.4,0.6,0.5,1,0.5c0.2,0,0.4-0.1,0.6-0.2c0.5-0.3,0.7-1.1,0.4-1.6
				C68.6,12.1,68.2,11.9,67.8,11.9 M147.6,10.8c-0.4,0-0.8,0.2-1,0.6c-0.3,0.6-0.2,1.3,0.4,1.6c0.2,0.1,0.4,0.2,0.6,0.2
				c0.4,0,0.8-0.2,1-0.6c0.3-0.6,0.2-1.3-0.4-1.6C148,10.8,147.8,10.8,147.6,10.8 M71.9,9.5c-0.2,0-0.4,0-0.6,0.1
				c-0.6,0.3-0.8,1-0.5,1.6c0.2,0.4,0.6,0.6,1,0.6c0.2,0,0.4,0,0.6-0.1c0.6-0.3,0.8-1,0.5-1.6C72.7,9.7,72.3,9.5,71.9,9.5
				 M143.6,8.5c-0.4,0-0.8,0.2-1,0.6c-0.3,0.6-0.1,1.3,0.5,1.6v0c0.2,0.1,0.4,0.1,0.5,0.1c0.4,0,0.8-0.2,1-0.6
				c0.3-0.6,0.1-1.3-0.5-1.6h0C143.9,8.5,143.7,8.5,143.6,8.5 M76,7.4c-0.2,0-0.3,0-0.5,0.1c-0.6,0.3-0.8,1-0.6,1.6
				c0.2,0.4,0.6,0.7,1.1,0.7c0.2,0,0.3,0,0.5-0.1c0.6-0.3,0.8-1,0.6-1.6C76.9,7.6,76.4,7.4,76,7.4 M139.3,6.5
				c-0.4,0-0.9,0.3-1.1,0.7c-0.3,0.6,0,1.3,0.6,1.5c0.2,0.1,0.3,0.1,0.5,0.1c0.5,0,0.9-0.3,1.1-0.7c0.3-0.6,0-1.3-0.6-1.5
				C139.7,6.5,139.5,6.5,139.3,6.5 M80.3,5.5c-0.1,0-0.3,0-0.4,0.1c-0.6,0.2-0.9,0.9-0.6,1.5c0.2,0.5,0.6,0.7,1.1,0.7
				c0.1,0,0.3,0,0.4-0.1c0.6-0.2,0.9-0.9,0.6-1.5C81.2,5.8,80.7,5.5,80.3,5.5 M135,4.7c-0.5,0-0.9,0.3-1.1,0.8
				c-0.2,0.6,0.1,1.3,0.7,1.5c0.1,0.1,0.3,0.1,0.4,0.1c0.5,0,0.9-0.3,1.1-0.8c0.2-0.6-0.1-1.3-0.7-1.5C135.3,4.8,135.2,4.7,135,4.7
				 M84.7,3.9c-0.1,0-0.2,0-0.4,0.1c-0.6,0.2-0.9,0.9-0.7,1.5c0.2,0.5,0.6,0.8,1.1,0.8c0.1,0,0.2,0,0.4-0.1C85.6,6,86,5.3,85.8,4.7
				C85.6,4.2,85.2,3.9,84.7,3.9 M130.6,3.3c-0.5,0-1,0.3-1.1,0.8c-0.2,0.6,0.2,1.3,0.8,1.5c0.1,0,0.2,0,0.3,0c0.5,0,1-0.3,1.1-0.8
				c0.2-0.6-0.2-1.3-0.8-1.5h0C130.8,3.3,130.7,3.3,130.6,3.3 M89.1,2.6c-0.1,0-0.2,0-0.3,0c-0.6,0.2-1,0.8-0.8,1.4
				c0.1,0.5,0.6,0.9,1.1,0.9c0.1,0,0.2,0,0.3,0c0.6-0.2,1-0.8,0.8-1.4C90.1,2.9,89.7,2.6,89.1,2.6 M126.1,2.1c-0.5,0-1,0.4-1.1,0.9
				c-0.2,0.6,0.2,1.3,0.9,1.4h0c0.1,0,0.2,0,0.3,0c0.5,0,1-0.4,1.1-0.9c0.1-0.6-0.2-1.2-0.9-1.4C126.3,2.1,126.2,2.1,126.1,2.1
				 M93.7,1.5c-0.1,0-0.2,0-0.2,0l0,0c-0.6,0.1-1,0.7-0.9,1.4c0.1,0.6,0.6,0.9,1.1,0.9c0.1,0,0.2,0,0.2,0c0.6-0.1,1-0.7,0.9-1.4
				C94.7,1.9,94.2,1.5,93.7,1.5 M121.5,1.1c-0.6,0-1,0.4-1.1,1c-0.1,0.6,0.3,1.2,0.9,1.3l0.2,0c0.6,0,1.1-0.4,1.1-1
				c0.1-0.6-0.3-1.2-0.9-1.3C121.7,1.1,121.6,1.1,121.5,1.1 M98.3,0.8c-0.1,0-0.1,0-0.2,0c-0.6,0.1-1.1,0.7-1,1.3
				c0.1,0.6,0.6,1,1.2,1l0.2,0c0.6-0.1,1.1-0.7,1-1.3C99.4,1.2,98.9,0.8,98.3,0.8 M116.9,0.5c-0.6,0-1.1,0.4-1.1,1
				c-0.1,0.6,0.4,1.2,1,1.3l0.1,0c0.6,0,1.1-0.4,1.2-1c0.1-0.6-0.4-1.2-1-1.3C117,0.5,116.9,0.5,116.9,0.5 M102.9,0.3
				C102.9,0.3,102.9,0.3,102.9,0.3c-0.7,0.1-1.2,0.6-1.2,1.3c0,0.6,0.6,1.1,1.2,1.1l0.1,0c0.6,0,1.1-0.6,1.1-1.2
				C104,0.7,103.5,0.3,102.9,0.3 M112.2,0.1c-0.6,0-1.1,0.5-1.2,1.1c0,0.6,0.5,1.2,1.1,1.2l0,0c0.6,0,1.1-0.5,1.2-1.1
				C113.4,0.7,112.9,0.2,112.2,0.1C112.3,0.1,112.3,0.1,112.2,0.1 M107.6,0.1L107.6,0.1c-0.7,0-1.2,0.5-1.2,1.2
				c0,0.6,0.5,1.1,1.2,1.1h0c0.6,0,1.2-0.5,1.1-1.2C108.7,0.6,108.2,0.1,107.6,0.1"/>
		</g>
		<g>
			<path class="st15" d="M149.6,135.4l-0.4-0.5c3.2-2.4,6.3-5,9.1-7.9l0.4,0.4C156,130.4,152.9,133,149.6,135.4"/>
		</g>
		<g>
			<path class="st16" d="M66,141.7c-0.4,0-0.7,0.2-1,0.5c-0.4,0.5-0.2,1.2,0.3,1.6c0.2,0.1,0.4,0.2,0.7,0.2c0.4,0,0.7-0.2,1-0.5
				c0.4-0.5,0.2-1.2-0.3-1.6C66.4,141.8,66.2,141.7,66,141.7 M62.2,138.9c-0.3,0-0.7,0.2-0.9,0.4c-0.4,0.5-0.3,1.2,0.2,1.6
				c0.2,0.2,0.5,0.3,0.7,0.3c0.3,0,0.7-0.2,0.9-0.4c0.4-0.5,0.3-1.2-0.2-1.6C62.7,139,62.5,138.9,62.2,138.9 M58.7,135.9
				c-0.3,0-0.6,0.1-0.9,0.4c-0.4,0.5-0.4,1.2,0.1,1.7c0.2,0.2,0.5,0.3,0.8,0.3c0.3,0,0.6-0.1,0.9-0.4c0.4-0.5,0.4-1.2-0.1-1.6
				C59.2,136,58.9,135.9,58.7,135.9 M55.3,132.7c-0.3,0-0.6,0.1-0.8,0.3c-0.5,0.5-0.5,1.2,0,1.7c0.2,0.2,0.5,0.3,0.8,0.3
				c0.3,0,0.6-0.1,0.8-0.3c0.5-0.5,0.5-1.2,0-1.7C55.9,132.8,55.6,132.7,55.3,132.7 M52.1,129.2c-0.3,0-0.5,0.1-0.8,0.3
				c-0.5,0.4-0.5,1.2-0.1,1.6c0.2,0.3,0.6,0.4,0.9,0.4c0.3,0,0.5-0.1,0.8-0.3c0.5-0.4,0.5-1.2,0.1-1.6
				C52.8,129.4,52.5,129.2,52.1,129.2 M49.2,125.6c-0.2,0-0.5,0.1-0.7,0.2c-0.5,0.4-0.6,1.1-0.2,1.6h0c0.2,0.3,0.6,0.5,0.9,0.5
				c0.2,0,0.5-0.1,0.7-0.2c0.5-0.4,0.6-1.1,0.2-1.6C49.9,125.8,49.5,125.6,49.2,125.6"/>
		</g>
		<g>
			<path class="st16" d="M152.7,142.4c-0.2,0-0.5,0.1-0.7,0.2c-0.5,0.4-0.7,1.1-0.3,1.6c0.2,0.3,0.6,0.5,1,0.5
				c0.2,0,0.5-0.1,0.7-0.2c0.5-0.4,0.7-1.1,0.3-1.6C153.5,142.5,153.1,142.4,152.7,142.4 M156.5,139.6c-0.3,0-0.5,0.1-0.7,0.2h0
				c-0.5,0.4-0.6,1.1-0.2,1.6c0.2,0.3,0.6,0.5,0.9,0.5c0.3,0,0.5-0.1,0.7-0.2c0.5-0.4,0.6-1.1,0.2-1.6
				C157.2,139.8,156.9,139.6,156.5,139.6 M160.1,136.6c-0.3,0-0.6,0.1-0.8,0.3c-0.5,0.4-0.5,1.2-0.1,1.6c0.2,0.3,0.6,0.4,0.9,0.4
				c0.3,0,0.5-0.1,0.8-0.3c0.5-0.4,0.5-1.2,0.1-1.6C160.8,136.8,160.4,136.6,160.1,136.6 M163.5,133.5c-0.3,0-0.6,0.1-0.8,0.3
				c-0.5,0.5-0.5,1.2,0,1.6c0.2,0.2,0.5,0.3,0.8,0.3c0.3,0,0.6-0.1,0.8-0.3c0.5-0.5,0.5-1.2,0-1.6
				C164.1,133.6,163.8,133.5,163.5,133.5 M166.7,130.1c-0.3,0-0.6,0.1-0.9,0.4c-0.4,0.5-0.4,1.2,0.1,1.6c0.2,0.2,0.5,0.3,0.8,0.3
				c0.3,0,0.6-0.1,0.9-0.4c0.4-0.5,0.4-1.2-0.1-1.6C167.3,130.2,167,130.1,166.7,130.1 M169.7,126.5c-0.3,0-0.7,0.2-0.9,0.4
				c-0.4,0.5-0.3,1.2,0.2,1.6c0.2,0.2,0.5,0.3,0.7,0.3c0.3,0,0.7-0.2,0.9-0.4c0.4-0.5,0.3-1.2-0.2-1.6
				C170.2,126.6,170,126.5,169.7,126.5"/>
		</g>
		<g>
			<path class="st15" d="M72.9,137.4c-4.8-2.9-8.7-6.6-11.8-9.9l0.4-0.4c3.1,3.3,7,7,11.7,9.8L72.9,137.4z"/>
		</g>
	</g>
	<g>
		<path class="st17" d="M104,173l39.3-15.9l-33.4,24.1L104,173z M91.8,164l9.3-1.5l41.1-6.7l-39.8,16.1l-6.5,2.6L91.8,164z
			 M79.5,154.6h59.6l-38.3,6.2l-10.3,1.7l0,0l-9.5,1.5L79.5,154.6z M74.6,132.7h17.8V153H74.6V132.7z M94.1,132.7H111V153H94.1
			V132.7z M112.7,132.7h17.4V153h-17.4V132.7z M131.7,132.7h16.7V153h-16.7V132.7z M73,131.1v23.5h4.8l1.8,11.3l10.5-1.7l4.8,12.3
			l7.4-2.9l7,9.9l40.1-28.9h0.6v-0.8v0v-22.7H73z"/>
	</g>
	<g>
		<g>
			<path class="st17" d="M148.4,132.7h-16.7V153h16.7V132.7z M140.7,147.8c-2.7,0-5-2.2-5-5c0-2.7,2.2-5,5-5s5,2.2,5,5
				C145.7,145.6,143.5,147.8,140.7,147.8"/>
		</g>
	</g>
	<g>
		<polygon class="st18" points="109.8,185.2 143.3,161.1 104,177 		"/>
	</g>
	<g>
		<polygon class="st19" points="101.1,166.5 91.8,168 95.9,178.4 102.4,175.9 142.2,159.8 		"/>
	</g>
	<g>
		<polygon class="st5" points="139.1,158.6 79.5,158.6 81,168.1 90.5,166.5 90.5,166.5 100.8,164.8 		"/>
	</g>
	<g>
		<rect x="94.1" y="136.7" class="st18" width="16.9" height="20.2"/>
	</g>
	<g>
		<rect x="74.6" y="136.7" class="st19" width="17.8" height="20.2"/>
	</g>
	<g>
		<rect x="112.7" y="136.7" class="st5" width="17.4" height="20.2"/>
	</g>
	<g>
		<path class="st16" d="M104,177l39.3-15.9l-33.4,24.1L104,177z M91.8,168l9.3-1.5l41.1-6.7l-39.8,16.1l-6.5,2.6L91.8,168z
			 M79.5,158.6h59.6l-38.3,6.2l-10.3,1.7l0,0l-9.5,1.5L79.5,158.6z M74.6,136.7h17.8V157H74.6V136.7z M94.1,136.7H111V157H94.1
			V136.7z M112.7,136.7h17.4V157h-17.4V136.7z M131.7,136.7h16.7V157h-16.7V136.7z M73,135.1v23.5h4.8l1.8,11.3l10.5-1.7l4.8,12.3
			l7.4-2.9l7,9.9l40.1-28.9h0.6v-0.8v0v-21.7v-0.8v-0.2H73z"/>
	</g>
	<g>
		<g>
			<path class="st17" d="M140.7,150.2c-1.8,0-3.3-1.5-3.3-3.3s1.5-3.3,3.3-3.3s3.3,1.5,3.3,3.3S142.6,150.2,140.7,150.2
				 M140.7,141.9c-2.7,0-5,2.2-5,5c0,2.7,2.2,5,5,5c2.7,0,5-2.2,5-5C145.7,144.1,143.5,141.9,140.7,141.9"/>
		</g>
		<g>
			<path class="st17" d="M140.7,151.8c-2.7,0-5-2.2-5-5c0-2.7,2.2-5,5-5c2.7,0,5,2.2,5,5C145.7,149.6,143.5,151.8,140.7,151.8
				 M148.4,136.7h-16.7V157h16.7V136.7z"/>
		</g>
		<g>
			<path class="st17" d="M140.7,143.5c-1.8,0-3.3,1.5-3.3,3.3s1.5,3.3,3.3,3.3s3.3-1.5,3.3-3.3S142.6,143.5,140.7,143.5"/>
		</g>
	</g>
	<g>
		<path class="st18" d="M30.7,62.5c4.3,0,7.2,2.2,7.2,6.1v2.3c0,3.8-3.2,5.7-7.2,5.7h-4.5V84h-4.4V62.5H30.7z M33.6,69.1
			c0-1.8-1.3-2.8-3.1-2.8h-4.2v6.9h4.2c1.8,0,3.1-0.8,3.1-2.7V69.1z"/>
		<path class="st18" d="M49.2,74.9v5.4h9.8V84H44.8V62.5h13.5v3.7h-9.1v5.1h7.2v3.6H49.2z"/>
		<path class="st18" d="M78,74.9l4.6,9.1h-4.7l-3.9-8.1h-3.8V84h-4.4V62.5h9c4.3,0,7.1,1.9,7.1,6v1C81.8,72.4,80.3,74.2,78,74.9z
			 M70.1,72.5h4.4c1.5,0,2.9-0.8,2.9-2.5v-1.3c0-1.6-1.2-2.5-3-2.5h-4.3V72.5z"/>
		<path class="st18" d="M103.8,78c0,4-3.1,6.3-7.6,6.3c-3.1,0-6.3-1.2-8.2-3.3l2.1-2.8c1.6,1.6,3.8,2.4,5.9,2.4
			c2.2,0,3.4-0.9,3.4-2.5c0-1.6-1-2.2-4.1-3.2c-4.3-1.3-6.7-3-6.7-6.4c-0.1-4.2,3.6-6.3,7.5-6.3c2.8,0,5.2,0.8,7.5,2.7l-2,2.9
			c-1.8-1.4-3.4-1.9-5.3-1.9c-2.1,0-3.3,0.9-3.3,2.4c0,1.5,1.1,2.2,4.3,3.2C101.5,72.8,103.8,74.7,103.8,78z"/>
		<path class="st18" d="M128.1,69.2v8.1c0,4.6-3.5,7.1-8.6,7.1H119c-5.1,0-8.6-2.4-8.6-7.1v-8.1c0-4.4,3.7-7,8.6-7h0.5
			C124.3,62.2,128.1,64.8,128.1,69.2z M123.7,69.5c0-2.3-1.8-3.6-4.2-3.6H119c-2.4,0-4.1,1.3-4.1,3.6V77c0,2.5,1.6,3.6,4.2,3.6h0.5
			c2.5,0,4.2-1.2,4.2-3.6V69.5z"/>
		<path class="st18" d="M148.9,62.5h4V84h-4.1l-9.4-14.8V84h-4V62.5h4.2l9.4,14.9V62.5z"/>
		<path class="st18" d="M171.2,62.3l7.1,21.7h-4.8l-1.4-4.9h-6.7l-1.5,4.9h-4.8l7.2-21.7H171.2z M171.3,75.6l-2.5-8.4l-2.6,8.4
			H171.3z"/>
		<path class="st18" d="M188.8,62.5v17.8h10V84h-14.4V62.5H188.8z"/>
	</g>
	<g>
		<path class="st18" d="M73.8,107.8c0,4-3.2,6.4-7.7,6.4c-3.1,0-6.4-1.2-8.3-3.4l2.2-2.8c1.6,1.6,3.8,2.5,6,2.5
			c2.2,0,3.5-0.9,3.5-2.5c0-1.6-1-2.3-4.2-3.2c-4.4-1.3-6.8-3.1-6.8-6.5c-0.1-4.3,3.6-6.4,7.6-6.4c2.9,0,5.3,0.8,7.6,2.7l-2,3
			c-1.8-1.4-3.4-1.9-5.4-1.9c-2.1,0-3.3,0.9-3.3,2.5c0,1.6,1.1,2.2,4.3,3.2C71.5,102.6,73.7,104.5,73.8,107.8z"/>
		<path class="st18" d="M79.1,95.9v-3.8h17.7v3.8h-6.6v18h-4.5v-18H79.1z"/>
		<path class="st18" d="M108.4,105.8l-6.9-13.7h5.1l4,9.4l4.1-9.4h5.1l-7,13.7v8.1h-4.5V105.8z"/>
		<path class="st18" d="M130.8,92.1v18.1H141v3.8h-14.6V92.1H130.8z"/>
		<path class="st18" d="M151.5,104.7v5.5h9.9v3.8H147V92.1h13.7v3.8h-9.2v5.1h7.4v3.6H151.5z"/>
	</g>
	<text transform="matrix(1 0 0 1 7.5303 48.9272)" class="st20 st21 st22 st23">Take Our Quiz to Find Your</text>
</g>
</svg>
