<?xml version="1.0" encoding="utf-8"?>
<!-- Generator: Adobe Illustrator 21.0.2, SVG Export Plug-In . SVG Version: 6.00 Build 0)  -->
<svg version="1.1" xmlns="http://www.w3.org/2000/svg" xmlns:xlink="http://www.w3.org/1999/xlink" x="0px" y="0px"
	 viewBox="0 0 32 32" style="enable-background:new 0 0 32 32;" xml:space="preserve">
<style type="text/css">
	.st0{fill:#FFFFFF;}
	.st1{display:none;}
	.st2{display:inline;fill:#FFFFFF;}
</style>
<g id="Layer_1">
	<path id="XMLID_64_" class="st0" d="M7.7,2.8c6.3,0,12.5,0,18.7,0c0.3,8.8,0.5,17.5,0.8,26.4c-1.1,0.1-2.2,0.2-3.2,0.2
		c-1.2,0.1-2.4,0.1-3.6,0.1c-0.6,0-1.2-0.1-1.8-0.3c-3.8-1.4-7.6-2.9-11.4-4.4c-0.2-0.1-0.4-0.2-0.7-0.3C5.5,24,5.5,24,5.5,22.8
		c0-0.3,0-0.7,0-1c-0.3-1.4-0.2-2.7,0.6-4C7,16.3,6.8,15,5.7,13.6c-0.5-0.6-0.7-1.3-0.5-2.2C5.4,10.6,5.2,9.5,5,8.6
		C4.8,7.4,4.9,7.3,6,7.5c1.4,0.2,1.7,0,1.6-1.5C7.7,5,7.7,4,7.7,2.8z"/>
</g>
<g id="Layer_2" class="st1">
	<path id="XMLID_63_" class="st2" d="M25.7,26.3c-0.4,0-0.7-0.1-1-0.1c-1.1-0.1-1.7,0.5-1.5,1.6c0.1,0.7,0.3,1.4,0.4,2.1
		c0,0.2,0,0.4,0,0.8c-1.2-1.2-2.2-2.2-3.2-3.2c-4-4-8-8-11.9-12c-0.6-0.6-1.3-1.3-1.9-1.9c-0.1-0.1-0.2-0.4-0.2-0.6
		c0.2-4,0.3-8,0.5-12.1c0-0.1,0-0.2,0-0.2c6,0,12,0,18.1,0.1C25.2,9.3,25.5,17.7,25.7,26.3z"/>
</g>
<g id="Layer_3" class="st1">
	<path id="XMLID_59_" class="st2" d="M6.5,28.4C6.5,19.9,6.6,11.5,6.7,3c1.1,0,2.1,0,3.2,0.1c2.2,0.1,4.4,0.2,6.5,0.2
		c0.7,0,1,0.2,1,1c-0.1,1,0,1.9,0,2.9c0,1.2,0.1,1.3,1.3,1.2c2.2-0.1,4.4-0.2,6.5-0.3c0.3,0,0.5,0,0.9,0c0.1,6.9,0.2,13.7,0.3,20.7
		C19.8,28.7,13.1,28.5,6.5,28.4z"/>
</g>
<g id="Layer_4" class="st1">
	<path id="XMLID_68_" class="st2" d="M26.6,31.5c-1.2,0-2.3-0.1-3.4-0.1c-0.9,0-1.8,0-2.7,0.1c-0.3,0-0.5-0.1-0.6-0.4
		c-0.2-1-0.9-1.8-1.4-2.7c0,0,0,0,0,0c-0.8-0.5-1.4-1.2-2.2-1.7c-0.6-0.4-1.2-0.7-1.8-1c-0.5-0.3-1-0.4-1.5-0.7
		c-0.2-0.1-0.5-0.2-0.6-0.4c-0.5-0.8-0.9-1.6-1.4-2.4c-0.4-0.6-0.9-1.1-1.3-1.7c-0.3-0.5-0.6-1-0.9-1.5c-0.3-0.4-0.1-0.8,0-1.1
		c0.2-0.5,0.1-0.9-0.2-1.3c-0.4-0.4-0.7-0.8-1-1.2c0-0.1,0.1-0.1,0.1-0.2c0.2,0,0.4-0.1,0.6-0.1c0.4,0,0.5-0.2,0.3-0.6
		c-0.1-0.2-0.2-0.5-0.2-0.8c-0.1-0.5-0.2-0.6-0.6-0.4c-0.6,0.2-1,0-1.2-0.6c-0.1-0.5-0.3-1-0.6-1.4C5.2,10.3,4.9,9.5,5,8.5
		c0.1-1-0.1-1.9-0.3-2.9C4.6,5.2,4.6,4.8,4.8,4.4c0.6-1.2,0.8-2.5,0.9-3.9c3,0.4,6,0.7,9,1.1c-0.1,1.3-0.2,2.5-0.3,3.7
		c-0.2,1.8-0.3,3.6-0.5,5.4c0,0.2,0.1,0.5,0.3,0.7c3.9,4.3,7.8,8.5,11.7,12.8c0.6,0.7,1,1.5,1.4,2.3c0.1,0.2,0,0.5,0,0.8
		c-0.2,0.5-0.3,0.9-0.6,1.3c-0.3,0.5-0.3,1.1-0.2,1.6C26.5,30.7,26.6,31.2,26.6,31.5z"/>
</g>
</svg>
