<?xml version="1.0" encoding="utf-8"?>
<!-- Generator: Adobe Illustrator 21.1.0, SVG Export Plug-In . SVG Version: 6.00 Build 0)  -->
<svg version="1.1" xmlns="http://www.w3.org/2000/svg" xmlns:xlink="http://www.w3.org/1999/xlink" x="0px" y="0px"
	 viewBox="0 0 250 250" style="enable-background:new 0 0 250 250;" xml:space="preserve">
<style type="text/css">
	
		.st0{opacity:0.5;fill:none;stroke:#7AA154;stroke-width:3;stroke-linecap:round;stroke-miterlimit:10;stroke-dasharray:0,6.49,0,6.49,0,6.49;enable-background:new    ;}
	.st1{fill:none;stroke:#78A140;stroke-miterlimit:10;}
	.st2{fill:#FFFFFF;stroke:#555555;stroke-width:2;stroke-linecap:round;stroke-miterlimit:10;}
	.st3{fill:none;}
	.st4{fill:#7AA154;}
	.st5{font-family:'Helvetica-LightOblique';}
	.st6{font-size:16.2216px;}
	.st7{fill:#555555;}
	.st8{font-family:'PillGothic600mg-Bold';}
	.st9{font-size:32.5331px;}
	.st10{fill:#FFFFFF;}
	.st11{opacity:0.25;fill:#7AA154;enable-background:new    ;}
	.st12{fill:#DFE0CF;}
	.st13{fill:#4C4C4C;}
	.st14{opacity:0.5;fill:#7AA154;enable-background:new    ;}
	.st15{opacity:0.1;fill:#4C4C4C;enable-background:new    ;}
	.st16{opacity:0.25;fill:#4C4C4C;enable-background:new    ;}
	.st17{opacity:0.5;fill:#4C4C4C;enable-background:new    ;}
	.st18{enable-background:new    ;}
	.st19{display:none;}
	.st20{display:inline;fill:#7AA154;}
	.st21{display:inline;fill:#555555;}
</style>
<g id="Layer_1">
	<circle class="st0" cx="125" cy="100" r="95"/>
	<circle class="st1" cx="125" cy="100" r="84"/>
	<ellipse transform="matrix(1 -6.009739e-03 6.009739e-03 1 -2.779174e-02 0.7513)" class="st2" cx="125" cy="5" rx="4" ry="4"/>
	<rect class="st3" width="250" height="198"/>
	<text transform="matrix(1 -6.010000e-03 6.010000e-03 1 61.5713 70.7535)" class="st4 st5 st6">Do You Want to </text>
	<text transform="matrix(1 -6.010000e-03 6.010000e-03 1 114.0636 102.4392)" class="st7 st8 st9"> </text>
	<g>
		<g>
			<g>
				<path class="st10" d="M164.5,180.7c1.5,0.9,1.9,2.8,1,4.3l-27.9,45.1c-0.9,1.5-2.8,1.9-4.3,1l-23-14.2c-1.5-0.9-1.9-2.8-1-4.3
					l27.9-45.1c0.9-1.5,2.8-1.9,4.3-1L164.5,180.7z"/>
				<path class="st11" d="M164.6,180.7c1.5,0.9,1.9,2.8,1,4.3l-27.9,45.1c-0.9,1.5-2.8,1.9-4.3,1l-23-14.2c-1.5-0.9-1.9-2.8-1-4.3
					l27.9-45.1c0.9-1.5,2.8-1.9,4.3-1L164.6,180.7z"/>
				<path class="st4" d="M144.9,174.2c-1.7,2.7-5.2,3.5-7.9,1.9c-0.3-0.2-0.5-0.3-0.7-0.5l-20.4,33c0.3,0.1,0.5,0.2,0.8,0.4
					c2.7,1.7,3.5,5.2,1.9,7.9c-0.2,0.3-0.3,0.5-0.5,0.7l10.8,6.6c0.1-0.3,0.2-0.6,0.4-0.8c1.7-2.7,5.2-3.5,7.9-1.9
					c0.5,0.3,0.9,0.6,1.2,1l20.5-33.2c-0.5-0.1-1-0.3-1.4-0.6c-2.7-1.7-3.5-5.2-1.9-7.9c0.3-0.4,0.6-0.8,0.9-1.1l-10.9-6.7
					C145.3,173.4,145.1,173.8,144.9,174.2z"/>
				
					<ellipse transform="matrix(0.5257 -0.8507 0.8507 0.5257 -103.9682 211.1882)" class="st12" cx="137.4" cy="198.8" rx="9.7" ry="12.3"/>
				<path class="st13" d="M142.5,198.5L142.5,198.5c-0.8,0.2-1.7,0.1-2.4-0.3c-0.1-0.5-0.2-1.1-0.5-1.6c-0.5-1-1.7-3-4.1-3.4
					c-3.3-0.6-5.3,3.6-4.3,5.9c1,2.3,5,2.8,5,2.8c-0.1,0-0.2-0.1-0.3-0.1c0.8,0.1,1.6,0,2.2-0.2c0.7,0.5,1.2,1.2,1.4,2l0,0
					c-1.2,1.9-0.8,4.4,0.8,5.8c3.2-0.1,6-1.5,7.6-4s1.5-5.7,0.2-8.6C146,195.8,143.6,196.6,142.5,198.5z"/>
				
					<ellipse transform="matrix(0.5257 -0.8507 0.8507 0.5257 -87.6511 211.625)" class="st12" cx="145.9" cy="184.4" rx="3" ry="3"/>
				<ellipse transform="matrix(0.5257 -0.8507 0.8507 0.5257 -120.392 210.1206)" class="st12" cx="128.2" cy="213" rx="3" ry="3"/>
			</g>
			<g>
				<path class="st10" d="M176.6,194.1c1.3,1.2,1.4,3.1,0.2,4.4L141.4,238c-1.2,1.3-3.1,1.4-4.4,0.2l-20.1-18.1
					c-1.3-1.2-1.4-3.1-0.2-4.4l35.4-39.5c1.2-1.3,3.1-1.4,4.4-0.2L176.6,194.1z"/>
				<path class="st14" d="M176.6,194.1c1.3,1.2,1.4,3.1,0.2,4.4L141.4,238c-1.2,1.3-3.1,1.4-4.4,0.2l-20.1-18.1
					c-1.3-1.2-1.4-3.1-0.2-4.4l35.4-39.5c1.2-1.3,3.1-1.4,4.4-0.2L176.6,194.1z"/>
				<path class="st4" d="M158.4,184.3c-2.1,2.4-5.7,2.5-8.1,0.4c-0.2-0.2-0.4-0.4-0.6-0.6L123.8,213c0.2,0.2,0.5,0.3,0.7,0.5
					c2.4,2.1,2.5,5.7,0.4,8.1c-0.2,0.2-0.4,0.4-0.7,0.6l9.4,8.4c0.2-0.3,0.3-0.5,0.5-0.7c2.1-2.4,5.7-2.5,8.1-0.4
					c0.4,0.4,0.7,0.8,1,1.2l26.1-29.1c-0.5-0.2-0.9-0.5-1.3-0.9c-2.4-2.1-2.5-5.7-0.4-8.1c0.3-0.4,0.7-0.7,1.1-0.9l-9.6-8.6
					C159,183.5,158.7,183.9,158.4,184.3z"/>
				
					<ellipse transform="matrix(0.6677 -0.7444 0.7444 0.6677 -105.429 177.9913)" class="st10" cx="146.7" cy="207.1" rx="9.7" ry="12.3"/>
				<path class="st13" d="M151.7,207.7L151.7,207.7c-0.8,0.1-1.6-0.2-2.3-0.8c0-0.5,0-1.1-0.2-1.7c-0.3-1-1.1-3.2-3.5-4.1
					c-3.1-1.2-5.9,2.6-5.3,5.1c0.5,2.5,4.4,3.6,4.4,3.6c-0.1-0.1-0.2-0.1-0.2-0.2c0.8,0.2,1.5,0.3,2.3,0.2c0.6,0.6,1,1.4,1.1,2.2
					l0,0c-1.5,1.7-1.5,4.2-0.2,5.9c3.2,0.5,6.2-0.4,8.2-2.6c2-2.2,2.5-5.3,1.7-8.4C155.7,205.7,153.2,206,151.7,207.7z"/>
				
					<ellipse transform="matrix(0.6677 -0.7444 0.7444 0.6677 -92.3455 181.897)" class="st10" cx="157.6" cy="194.4" rx="3" ry="3"/>
				
					<ellipse transform="matrix(0.6677 -0.7444 0.7444 0.6677 -118.5361 173.5114)" class="st10" cx="135.1" cy="219.5" rx="3" ry="3"/>
			</g>
		</g>
		<g>
			<path class="st10" d="M128.9,229.6c0,4.4-3.6,8-8,8H80.4c-4.4,0-8-3.6-8-8v-43.4c0-4.4,3.6-8,8-8h40.5c4.4,0,8,3.6,8,8V229.6z"/>
			<g>
				<path class="st15" d="M128.9,229.6c0,4.4-3.6,8-8,8H80.4c-4.4,0-8-3.6-8-8v-43.4c0-4.4,3.6-8,8-8h40.5c4.4,0,8,3.6,8,8V229.6z"
					/>
				<path class="st16" d="M122.8,191.9c0,4.8-3.9,8.6-8.6,8.6H87.1c-4.8,0-8.6-3.9-8.6-8.6l0,0c0-4.8,3.9-8.6,8.6-8.6h27.1
					C119,183.2,122.8,187.1,122.8,191.9L122.8,191.9z"/>
				<circle class="st13" cx="83.1" cy="210.6" r="5.4"/>
				<circle class="st13" cx="98.7" cy="210.6" r="5.4"/>
				<circle class="st13" cx="83.1" cy="225.2" r="5.4"/>
				<circle class="st13" cx="98.7" cy="225.2" r="5.4"/>
				<path class="st17" d="M114.2,200.5c4.8,0,8.6-3.9,8.6-8.6c0-4.8-3.9-8.6-8.6-8.6h-4.9L92,200.5H114.2z"/>
				<path class="st10" d="M83.5,206.6v3.5h3.4v0.9h-3.4v3.5h-1V211h-3.4v-0.9h3.4v-3.5H83.5z"/>
				<path class="st10" d="M101.9,222.8l-2.5,2.5l2.4,2.4l-0.6,0.6l-2.4-2.4l-2.5,2.5l-0.7-0.7l2.5-2.5l-2.4-2.4l0.6-0.6l2.4,2.4
					l2.5-2.5L101.9,222.8z"/>
				<path class="st10" d="M86.4,224.7v1h-7.2v-1H86.4z"/>
				<g>
					<path class="st10" d="M102.3,210.1v1h-7.2v-1H102.3z"/>
					<g>
						<circle class="st10" cx="98.5" cy="208.1" r="1"/>
						<circle class="st10" cx="98.5" cy="213" r="1"/>
					</g>
				</g>
			</g>
			<path class="st16" d="M125.3,224.1c0,4.2-3.4,7.6-7.6,7.6h-1.5c-4.2,0-7.6-3.4-7.6-7.6v-12.2c0-4.2,3.4-7.6,7.6-7.6h1.5
				c4.2,0,7.6,3.4,7.6,7.6V224.1z"/>
			<path class="st17" d="M116.2,231.7h1.5c4.2,0,7.6-3.4,7.6-7.6v-12.2c0-0.3,0-0.5,0-0.8l-16,16
				C110.4,229.8,113.1,231.7,116.2,231.7z"/>
			<path class="st10" d="M111.6,217.6v-1.2h10.3v1.2H111.6z M111.6,221.5v-1.2h10.3v1.2H111.6z"/>
		</g>
	</g>
	<rect y="56" class="st10" width="250" height="87.3"/>
	<g class="st18">
		<path class="st4" d="M67.7,70.8l2.4-11.7l4,0c0.3,0,0.6,0,0.9,0s0.6,0.1,0.9,0.1c0.3,0.1,0.6,0.1,0.8,0.3c0.3,0.1,0.5,0.3,0.7,0.5
			c0.3,0.3,0.6,0.6,0.7,1c0.2,0.4,0.3,0.8,0.3,1.3c0.1,0.4,0.1,0.9,0,1.4s-0.1,0.9-0.2,1.3c-0.1,0.4-0.2,0.8-0.3,1.2
			c-0.1,0.4-0.3,0.8-0.5,1.2c-0.2,0.4-0.4,0.8-0.7,1.1s-0.5,0.7-0.9,1c-0.3,0.3-0.7,0.6-1,0.7c-0.4,0.2-0.7,0.3-1.1,0.4
			s-0.8,0.2-1.1,0.2c-0.4,0-0.8,0.1-1.2,0.1L67.7,70.8z M69,69.8l2.6,0c0.5,0,1,0,1.4-0.1c0.5-0.1,0.9-0.2,1.4-0.5
			c0.4-0.2,0.8-0.5,1.1-0.8c0.3-0.3,0.6-0.7,0.8-1.1c0.2-0.4,0.4-0.8,0.6-1.2c0.1-0.4,0.3-0.9,0.3-1.3c0.1-0.4,0.1-0.9,0.2-1.3
			c0-0.4,0-0.9,0-1.2c-0.1-0.4-0.2-0.8-0.4-1.1c-0.2-0.3-0.5-0.6-0.8-0.8c-0.3-0.2-0.7-0.3-1.2-0.4S74.2,60,73.7,60l-2.6,0L69,69.8z
			"/>
		<path class="st4" d="M82.6,70.9c-0.5,0-1-0.1-1.5-0.3c-0.4-0.2-0.8-0.5-1.1-0.8c-0.3-0.4-0.5-0.8-0.6-1.4
			c-0.1-0.6-0.1-1.2,0.1-1.9c0.1-0.6,0.3-1.2,0.6-1.7c0.3-0.5,0.6-1,1-1.4s0.9-0.7,1.4-1c0.5-0.2,1.1-0.4,1.8-0.4
			c0.7,0,1.2,0.1,1.6,0.3c0.4,0.2,0.8,0.5,1,0.9c0.2,0.4,0.4,0.9,0.4,1.4c0,0.5,0,1.1-0.1,1.7c-0.1,0.7-0.4,1.3-0.7,1.8
			c-0.3,0.5-0.7,1-1.1,1.4c-0.4,0.4-0.9,0.7-1.4,0.9C83.7,70.8,83.2,70.9,82.6,70.9z M86.4,66.5c0.1-0.5,0.1-1,0.1-1.4
			c0-0.4-0.1-0.8-0.3-1.1c-0.2-0.3-0.4-0.6-0.7-0.8c-0.3-0.2-0.7-0.3-1.3-0.3c-0.5,0-1,0.1-1.4,0.3c-0.4,0.2-0.8,0.5-1.1,0.8
			c-0.3,0.3-0.5,0.7-0.7,1.1c-0.2,0.4-0.3,0.9-0.4,1.3c-0.1,0.5-0.1,1-0.1,1.4c0,0.4,0.1,0.8,0.3,1.1c0.2,0.3,0.4,0.6,0.7,0.7
			s0.7,0.3,1.2,0.3c0.5,0,1-0.1,1.4-0.3c0.4-0.2,0.8-0.5,1-0.8c0.3-0.3,0.5-0.7,0.7-1.1C86.1,67.4,86.3,66.9,86.4,66.5z"/>
		<path class="st4" d="M97.8,64.6l4.7-5.7l1.3,0l-5.6,6.6l-1.1,5.1l-1.1,0l1-5L94.3,59l1.3,0L97.8,64.6z"/>
		<path class="st4" d="M106,70.8c-0.5,0-1-0.1-1.5-0.3c-0.4-0.2-0.8-0.5-1.1-0.8c-0.3-0.4-0.5-0.8-0.6-1.4c-0.1-0.6-0.1-1.2,0.1-1.9
			c0.1-0.6,0.3-1.2,0.6-1.7c0.3-0.5,0.6-1,1-1.4s0.9-0.7,1.4-1c0.5-0.2,1.1-0.4,1.8-0.4c0.7,0,1.2,0.1,1.6,0.3s0.8,0.5,1,0.9
			c0.2,0.4,0.4,0.9,0.4,1.4c0,0.5,0,1.1-0.1,1.7c-0.1,0.7-0.4,1.3-0.7,1.8c-0.3,0.5-0.7,1-1.1,1.4c-0.4,0.4-0.9,0.7-1.4,0.9
			C107.2,70.7,106.6,70.8,106,70.8z M109.8,66.3c0.1-0.5,0.1-1,0.1-1.4c0-0.4-0.1-0.8-0.3-1.1c-0.2-0.3-0.4-0.6-0.7-0.8
			c-0.3-0.2-0.7-0.3-1.3-0.3c-0.5,0-1,0.1-1.4,0.3c-0.4,0.2-0.8,0.5-1.1,0.8c-0.3,0.3-0.5,0.7-0.7,1.1c-0.2,0.4-0.3,0.9-0.4,1.3
			c-0.1,0.5-0.1,1-0.1,1.4c0,0.4,0.1,0.8,0.3,1.1c0.2,0.3,0.4,0.6,0.7,0.7s0.7,0.3,1.2,0.3c0.5,0,1-0.1,1.4-0.3
			c0.4-0.2,0.8-0.5,1-0.8c0.3-0.3,0.5-0.7,0.7-1.1C109.6,67.2,109.7,66.8,109.8,66.3z"/>
		<path class="st4" d="M119.2,62.1l1,0l-1.7,8.4l-1,0l0.2-1.2c-0.2,0.2-0.3,0.3-0.5,0.5c-0.2,0.2-0.4,0.3-0.7,0.5
			c-0.2,0.1-0.5,0.3-0.8,0.3c-0.3,0.1-0.6,0.1-1,0.1c-0.6,0-1-0.1-1.4-0.2c-0.3-0.2-0.6-0.4-0.8-0.7c-0.2-0.3-0.3-0.6-0.3-1
			c0-0.4,0-0.8,0.1-1.2l1.1-5.5l1,0l-1.1,5.5c-0.1,0.7-0.1,1.3,0.2,1.7c0.3,0.4,0.8,0.6,1.5,0.6c0.4,0,0.8-0.1,1.1-0.2
			c0.4-0.2,0.7-0.4,0.9-0.7c0.3-0.3,0.5-0.6,0.7-1c0.2-0.4,0.3-0.8,0.4-1.3L119.2,62.1z"/>
		<path class="st4" d="M134.9,68.8L134.9,68.8l4.7-10.2l1.1,0l-5.5,11.7l-1.2,0l-0.6-10.3h0l-4.8,10.3l-1.2,0l-0.6-11.7l1.1,0
			l0.4,10.1h0l4.8-10.2l1.2,0L134.9,68.8z"/>
		<path class="st4" d="M144.6,65.4c0.2,0,0.4-0.1,0.7-0.1c0.3,0,0.5-0.1,0.7-0.2c0.2-0.1,0.3-0.2,0.4-0.4c0.1-0.2,0.1-0.3,0.2-0.5
			c0.1-0.2,0.1-0.5,0-0.7c0-0.2-0.1-0.4-0.3-0.5s-0.3-0.3-0.6-0.4c-0.2-0.1-0.6-0.1-0.9-0.1c-0.7,0-1.3,0.1-1.8,0.4
			c-0.5,0.3-0.9,0.8-1.1,1.5l-1,0c0.1-0.5,0.3-0.9,0.6-1.3c0.3-0.4,0.6-0.6,0.9-0.9s0.7-0.4,1.2-0.5c0.4-0.1,0.9-0.2,1.3-0.2
			c0.4,0,0.8,0,1.2,0.1s0.6,0.2,0.9,0.4c0.2,0.2,0.4,0.5,0.5,0.8c0.1,0.3,0.1,0.7,0,1.2l-0.9,4.6c-0.1,0.4-0.1,0.6,0,0.7
			c0.1,0.1,0.4,0.1,0.8-0.1l-0.2,0.8c-0.1,0-0.2,0.1-0.3,0.1c-0.2,0-0.3,0.1-0.4,0.1s-0.3,0-0.4,0c-0.3-0.1-0.5-0.2-0.5-0.4
			c0-0.2,0-0.5,0-0.8c-0.5,0.5-1,0.8-1.6,1c-0.6,0.2-1.2,0.4-1.8,0.4c-0.4,0-0.7,0-1-0.1c-0.3-0.1-0.6-0.2-0.8-0.4
			c-0.2-0.2-0.4-0.5-0.5-0.8c-0.1-0.3-0.1-0.7,0-1.1c0.3-1.4,1.4-2.3,3.5-2.6L144.6,65.4z M146.1,65.9c-0.5,0.2-0.9,0.3-1.3,0.3
			c-0.4,0.1-0.9,0.1-1.3,0.1c-0.8,0.1-1.4,0.2-1.9,0.5c-0.5,0.3-0.8,0.7-0.9,1.3c-0.1,0.3,0,0.5,0,0.7c0.1,0.2,0.2,0.3,0.3,0.5
			c0.1,0.1,0.3,0.2,0.5,0.3c0.2,0.1,0.4,0.1,0.6,0.1c0.4,0,0.8-0.1,1.2-0.2c0.4-0.1,0.7-0.3,1.1-0.5s0.6-0.5,0.8-0.8
			c0.2-0.3,0.4-0.7,0.5-1.1L146.1,65.9z"/>
		<path class="st4" d="M149.7,70.3l-1,0l1.7-8.4l1,0l-0.2,1.2c0.5-0.4,0.9-0.8,1.4-1c0.5-0.3,1-0.4,1.6-0.4c0.5,0,1,0.1,1.4,0.3
			c0.4,0.2,0.7,0.5,0.9,0.9c0.1,0.3,0.2,0.6,0.2,0.9c0,0.3-0.1,0.7-0.1,1l-1.1,5.5l-1,0l1.1-5.5c0.2-0.8,0.1-1.3-0.1-1.7
			c-0.3-0.4-0.8-0.6-1.6-0.6c-0.3,0-0.6,0-0.9,0.1s-0.5,0.2-0.8,0.4s-0.4,0.3-0.6,0.5c-0.2,0.2-0.3,0.4-0.5,0.6
			c-0.2,0.3-0.3,0.5-0.3,0.8c-0.1,0.2-0.1,0.5-0.2,0.8L149.7,70.3z"/>
		<path class="st4" d="M160.7,70.3c-0.1,0-0.3,0.1-0.5,0.1c-0.2,0.1-0.4,0.1-0.7,0.1c-0.5,0-0.8-0.1-1-0.4c-0.2-0.2-0.2-0.7-0.1-1.3
			l1.3-6.2l-1.2,0l0.2-0.8l1.2,0l0.5-2.3l1,0l-0.5,2.3l1.6,0l-0.2,0.8l-1.6,0l-1.2,5.8c0,0.2-0.1,0.4-0.1,0.5c0,0.2,0,0.3,0,0.4
			c0,0.1,0.1,0.2,0.2,0.2c0.1,0,0.3,0.1,0.5,0.1c0.1,0,0.3,0,0.4,0c0.1,0,0.3,0,0.4-0.1L160.7,70.3z"/>
		<path class="st4" d="M169.7,70.2c-0.1,0-0.3,0.1-0.5,0.1c-0.2,0.1-0.4,0.1-0.7,0.1c-0.5,0-0.8-0.1-1-0.4c-0.2-0.2-0.2-0.7-0.1-1.3
			l1.3-6.2l-1.2,0l0.2-0.8l1.2,0l0.5-2.3l1,0l-0.5,2.3l1.6,0l-0.2,0.8l-1.6,0l-1.2,5.8c0,0.2-0.1,0.4-0.1,0.5c0,0.2,0,0.3,0,0.4
			c0,0.1,0.1,0.2,0.2,0.2c0.1,0,0.3,0.1,0.5,0.1c0.1,0,0.3,0,0.4,0c0.1,0,0.3,0,0.4-0.1L169.7,70.2z"/>
		<path class="st4" d="M174.6,70.4c-0.5,0-1-0.1-1.5-0.3c-0.4-0.2-0.8-0.5-1.1-0.8c-0.3-0.4-0.5-0.8-0.6-1.4
			c-0.1-0.6-0.1-1.2,0.1-1.9c0.1-0.6,0.3-1.2,0.6-1.7c0.3-0.5,0.6-1,1-1.4s0.9-0.7,1.4-1c0.5-0.2,1.1-0.4,1.8-0.4
			c0.7,0,1.2,0.1,1.6,0.3c0.4,0.2,0.8,0.5,1,0.9c0.2,0.4,0.4,0.9,0.4,1.4c0,0.5,0,1.1-0.1,1.7c-0.1,0.7-0.4,1.3-0.7,1.8
			c-0.3,0.5-0.7,1-1.1,1.4c-0.4,0.4-0.9,0.7-1.4,0.9C175.7,70.3,175.1,70.4,174.6,70.4z M178.3,65.9c0.1-0.5,0.1-1,0.1-1.4
			c0-0.4-0.1-0.8-0.3-1.1c-0.2-0.3-0.4-0.6-0.7-0.8c-0.3-0.2-0.7-0.3-1.3-0.3c-0.5,0-1,0.1-1.4,0.3c-0.4,0.2-0.8,0.5-1.1,0.8
			c-0.3,0.3-0.5,0.7-0.7,1.1c-0.2,0.4-0.3,0.9-0.4,1.3c-0.1,0.5-0.1,1-0.1,1.4c0,0.4,0.1,0.8,0.3,1.1c0.2,0.3,0.4,0.6,0.7,0.7
			s0.7,0.3,1.2,0.3c0.5,0,1-0.1,1.4-0.3c0.4-0.2,0.8-0.5,1-0.8c0.3-0.3,0.5-0.7,0.7-1.1C178.1,66.8,178.2,66.4,178.3,65.9z"/>
	</g>
	<g class="st18">
		<path class="st7" d="M40.8,79.9l-8.6,10.6l9.6,11.5l-5.8,0l-6.8-8.6L27.9,95l0,7l-4.5,0L23.3,80l4.5,0l0.1,10l7.4-10L40.8,79.9z"
			/>
		<path class="st7" d="M58.4,79.7l4.2,0l0.1,22.1l-4.3,0l-9.8-15.2l0.1,15.2l-4.2,0l-0.1-22.1l4.3,0L58.5,95L58.4,79.7z"/>
		<path class="st7" d="M85.1,86.5l0,8.3c0,4.7-3.6,7.3-8.8,7.3l-0.5,0c-5.2,0-8.9-2.4-8.9-7.2l0-8.3c0-4.5,3.7-7.2,8.8-7.3l0.5,0
			C81.2,79.3,85.1,82,85.1,86.5z M80.6,86.9c0-2.4-1.8-3.7-4.3-3.7l-0.5,0c-2.5,0-4.3,1.4-4.2,3.7l0,7.7c0,2.5,1.7,3.7,4.3,3.7
			l0.5,0c2.6,0,4.3-1.3,4.3-3.8L80.6,86.9z"/>
		<path class="st7" d="M103.7,79.5l4.1,16.4l2.8-16.5l4.7,0l-4.5,22.1l-5,0l-4.1-15.7l-3.8,15.8l-5,0L88,79.6l4.7,0l3,16.3l3.9-16.4
			L103.7,79.5z"/>
		<path class="st7" d="M136.5,79.1l7.4,22.3l-4.9,0l-1.5-5.1l-6.9,0l-1.5,5.1l-4.9,0l7.3-22.4L136.5,79.1z M136.6,92.8l-2.6-8.6
			l-2.6,8.6L136.6,92.8z"/>
		<path class="st7" d="M159.5,89.7c2.3,0.8,3.9,2.4,3.9,4.8l0,1.2c0,3.6-2.7,5.5-6.9,5.6l-9.5,0.1l-0.1-22.1l8.9-0.1
			c4.1,0,6.9,2.2,6.9,5.8l0,0.7C162.7,87.3,161.4,89.1,159.5,89.7z M151.4,88.4l4.1,0c1.6,0,2.7-0.9,2.7-2.4l0-0.7
			c0-1.9-1.3-2.5-3.3-2.5l-3.5,0L151.4,88.4z M158.8,94.1c0-1.6-1.5-2.5-3.2-2.5l-4.2,0l0,6.1l4.2,0c1.7,0,3.2-0.5,3.1-2.5
			L158.8,94.1z"/>
		<path class="st7" d="M185.2,85.9l0,8.3c0,4.7-3.6,7.3-8.8,7.3l-0.5,0c-5.2,0-8.9-2.4-8.9-7.2l0-8.3c0-4.5,3.7-7.2,8.8-7.3l0.5,0
			C181.3,78.7,185.2,81.4,185.2,85.9z M180.7,86.3c0-2.4-1.8-3.7-4.3-3.7l-0.5,0c-2.5,0-4.3,1.4-4.2,3.7l0,7.7
			c0,2.5,1.7,3.7,4.3,3.7l0.5,0c2.6,0,4.3-1.3,4.3-3.8L180.7,86.3z"/>
		<path class="st7" d="M203,78.9l4.5,0l0.1,15c0,5-4,7.5-9,7.5c-5,0-9.1-2.4-9.1-7.4l-0.1-15l4.5,0l0.1,14.8c0,2.7,2.2,3.9,4.5,3.8
			s4.5-1.3,4.5-3.9L203,78.9z"/>
		<path class="st7" d="M210.4,82.7l0-3.8l18-0.1l0,3.8l-6.7,0l0.1,18.3l-4.6,0l-0.1-18.3L210.4,82.7z"/>
	</g>
	<g class="st18">
		<path class="st7" d="M50,115.8l-9.3,0.1l0,5.2l7.4,0l0,3.7l-7.4,0l0.1,9.4l-4.5,0l-0.1-22.1L50,112L50,115.8z"/>
		<path class="st7" d="M53.6,112l4.5,0l0.1,22.1l-4.5,0L53.6,112z"/>
		<path class="st7" d="M77.2,111.8l4.2,0l0.1,22.1l-4.3,0l-9.8-15.2l0.1,15.2l-4.2,0l-0.1-22.1l4.3,0l9.7,15.2L77.2,111.8z"/>
		<path class="st7" d="M96.9,111.5l7.4,22.3l-4.9,0l-1.5-5.1l-6.9,0l-1.5,5.1l-4.9,0l7.3-22.4L96.9,111.5z M97,125.2l-2.6-8.6
			l-2.6,8.6L97,125.2z"/>
		<path class="st7" d="M121.1,111.6l4.2,0l0.1,22.1l-4.3,0l-9.8-15.2l0.1,15.2l-4.2,0l-0.1-22.1l4.3,0l9.7,15.2L121.1,111.6z"/>
		<path class="st7" d="M134.2,118.7l0,7.7c0,2.5,1.9,3.7,4.4,3.7c2,0,3.7-0.5,4.9-1.4l1.7,3.1c-1.8,1.4-3.8,2-7,2.1
			c-4.9,0-8.6-2.4-8.6-7.2l0-8.2c0-4.6,3.8-7.3,8.5-7.4c3.3,0,5.3,0.7,7.2,2.2l-1.8,3.2c-1.3-0.9-2.8-1.5-5.1-1.5
			C136,115,134.2,116.4,134.2,118.7z"/>
		<path class="st7" d="M148.9,111.4l4.5,0l0.1,22.1l-4.5,0L148.9,111.4z"/>
		<path class="st7" d="M172.5,111.3l4.2,0l0.1,22.1l-4.3,0l-9.8-15.2l0.1,15.2l-4.2,0l-0.1-22.1l4.3,0l9.7,15.2L172.5,111.3z"/>
		<path class="st7" d="M190.3,120.8l8.1,0l0.1,10.2c-2.2,1.6-4.8,2.6-8.3,2.6c-5.1,0-9.1-2.5-9.2-7.2l0-8.2c0-4.7,4.1-7.3,9.1-7.3
			c3.2,0,5.6,0.8,7.6,2.1l-1.6,3.3c-1.7-1-3.2-1.6-5.8-1.6c-2.7,0-4.8,1.3-4.8,3.8l0,7.6c0,2.5,2,3.7,4.6,3.7c1.6,0,2.7-0.2,3.8-0.8
			l0-4.7l-3.5,0L190.3,120.8z"/>
		<path class="st7" d="M214.7,115.5l0,1.1c0,2-1.6,3.2-2.9,4.3c-1.6,1.2-2.3,2-2.3,3.7l0,1.4l-4.4,0l0-1.9c0-1.9,0.9-3.2,2.4-4.3
			c1.3-0.9,2.5-1.8,2.5-2.8l0-0.8c0-1.2-1.2-1.6-2.9-1.6c-1.6,0-3.4,0.7-4.5,1.5l-1.5-3.1c1.7-1.2,4.2-2.2,6.6-2.3
			C212,110.7,214.7,112.1,214.7,115.5z M204.9,129.2l5.2,0l0,4l-5.2,0L204.9,129.2z"/>
	</g>
</g>
<g id="Layer_2" class="st19">
	<text transform="matrix(1 -6.010000e-03 6.010000e-03 1 66.4148 70.7361)" class="st20 st5 st6">Do You Want to </text>
	<text transform="matrix(1 -6.010000e-03 6.010000e-03 1 21.0968 102.0227)" class="st21 st8 st9">KNOW ABOUT</text>
	<text transform="matrix(1 -6.010000e-03 6.010000e-03 1 33.931 134.1417)" class="st21 st8 st9">FINANCING?</text>
</g>
</svg>
