<?xml version="1.0" encoding="utf-8"?>
<!-- Generator: Adobe Illustrator 21.1.0, SVG Export Plug-In . SVG Version: 6.00 Build 0)  -->
<svg version="1.1" xmlns="http://www.w3.org/2000/svg" xmlns:xlink="http://www.w3.org/1999/xlink" x="0px" y="0px"
	 viewBox="0 0 250 250" style="enable-background:new 0 0 250 250;" xml:space="preserve">
<style type="text/css">
	
		.st0{opacity:0.5;fill:none;stroke:#7AA154;stroke-width:3;stroke-linecap:round;stroke-miterlimit:10;stroke-dasharray:0,6.49,0,6.49,0,6.49;enable-background:new    ;}
	.st1{fill:none;stroke:#78A140;stroke-miterlimit:10;}
	.st2{fill:#FFFFFF;}
	.st3{fill:#FFFFFF;stroke:#555555;stroke-width:2;stroke-linecap:round;stroke-miterlimit:10;}
	.st4{fill:none;}
	.st5{enable-background:new    ;}
	.st6{fill:#7AA154;}
	.st7{fill:#555555;}
	.st8{opacity:0.1;fill:#555555;enable-background:new    ;}
	.st9{opacity:0.75;fill:#555555;enable-background:new    ;}
	.st10{opacity:0.75;fill:#7AA154;enable-background:new    ;}
	.st11{opacity:0.75;fill:#FFFFFF;enable-background:new    ;}
	.st12{opacity:0.25;fill:#555555;enable-background:new    ;}
	.st13{opacity:0.5;fill:#555555;enable-background:new    ;}
	.st14{opacity:0.25;}
	.st15{opacity:0.5;fill:#7AA154;enable-background:new    ;}
	.st16{font-family:'PillGothic600mg-Regular';}
	.st17{font-size:4.1063px;}
	.st18{font-family:'PillGothic600mg-Bold';}
	.st19{font-size:7.4218px;}
	.st20{fill:none;stroke:#555555;stroke-width:0.25;stroke-linecap:round;stroke-miterlimit:10;}
	.st21{display:none;}
	.st22{display:inline;fill:#7AA154;}
	.st23{font-family:'Helvetica-LightOblique';}
	.st24{font-size:16px;}
	.st25{display:inline;fill:#555555;}
	.st26{font-size:32px;}
</style>
<g id="Layer_1">
	<circle class="st0" cx="125" cy="100" r="95"/>
	<circle class="st1" cx="125" cy="100" r="84"/>
	
		<rect x="1.9" y="64.6" transform="matrix(1 -6.009739e-03 6.009739e-03 1 -0.5921 0.753)" class="st2" width="246.2" height="68.6"/>
	<ellipse transform="matrix(1 -6.009739e-03 6.009739e-03 1 -2.779174e-02 0.7513)" class="st3" cx="125" cy="5" rx="4" ry="4"/>
	<rect class="st4" width="250" height="198"/>
	<rect y="46" class="st2" width="250" height="105.2"/>
	<g class="st5">
		<path class="st6" d="M70.5,62.3l2.4-11.5l3.9,0c0.3,0,0.6,0,0.9,0c0.3,0,0.6,0,0.9,0.1c0.3,0.1,0.6,0.1,0.8,0.3
			c0.3,0.1,0.5,0.3,0.7,0.5c0.3,0.3,0.6,0.6,0.7,1s0.3,0.8,0.3,1.3c0.1,0.4,0.1,0.9,0,1.3c0,0.5-0.1,0.9-0.2,1.3
			c-0.1,0.4-0.2,0.8-0.3,1.2c-0.1,0.4-0.3,0.8-0.5,1.2c-0.2,0.4-0.4,0.7-0.7,1.1c-0.3,0.3-0.5,0.7-0.9,1c-0.3,0.3-0.7,0.5-1,0.7
			c-0.4,0.2-0.7,0.3-1.1,0.4c-0.4,0.1-0.7,0.2-1.1,0.2c-0.4,0-0.8,0.1-1.1,0.1L70.5,62.3z M71.8,61.3l2.6,0c0.5,0,1,0,1.4-0.1
			c0.4-0.1,0.9-0.2,1.4-0.4c0.4-0.2,0.8-0.5,1.1-0.8c0.3-0.3,0.6-0.7,0.8-1.1c0.2-0.4,0.4-0.8,0.6-1.2c0.1-0.4,0.3-0.8,0.3-1.2
			c0.1-0.4,0.1-0.8,0.2-1.3c0-0.4,0-0.8,0-1.2c-0.1-0.4-0.2-0.7-0.4-1.1c-0.2-0.3-0.5-0.6-0.8-0.8c-0.3-0.2-0.7-0.3-1.1-0.3
			c-0.5-0.1-0.9-0.1-1.4-0.1l-2.6,0L71.8,61.3z"/>
		<path class="st6" d="M85.2,62.4c-0.5,0-1-0.1-1.4-0.3c-0.4-0.2-0.8-0.4-1-0.8c-0.3-0.4-0.5-0.8-0.5-1.4s-0.1-1.2,0.1-1.9
			c0.1-0.6,0.3-1.2,0.6-1.7c0.3-0.5,0.6-1,1-1.4s0.9-0.7,1.4-0.9c0.5-0.2,1.1-0.4,1.8-0.4c0.7,0,1.2,0.1,1.6,0.3
			c0.4,0.2,0.8,0.5,1,0.9c0.2,0.4,0.4,0.8,0.4,1.4c0,0.5,0,1.1-0.1,1.7c-0.1,0.7-0.3,1.3-0.6,1.8c-0.3,0.5-0.6,1-1.1,1.4
			c-0.4,0.4-0.9,0.7-1.4,0.9C86.3,62.3,85.8,62.4,85.2,62.4z M88.9,58c0.1-0.5,0.1-0.9,0.1-1.4s-0.1-0.8-0.3-1.1
			c-0.2-0.3-0.4-0.6-0.7-0.7c-0.3-0.2-0.7-0.3-1.2-0.3c-0.5,0-1,0.1-1.4,0.3c-0.4,0.2-0.7,0.5-1,0.8c-0.3,0.3-0.5,0.7-0.7,1.1
			c-0.2,0.4-0.3,0.9-0.4,1.3c-0.1,0.5-0.1,1-0.1,1.4c0,0.4,0.1,0.8,0.3,1.1c0.2,0.3,0.4,0.5,0.7,0.7c0.3,0.2,0.7,0.3,1.2,0.2
			c0.5,0,1-0.1,1.4-0.3c0.4-0.2,0.7-0.5,1-0.8c0.3-0.3,0.5-0.7,0.7-1.1C88.7,58.9,88.8,58.5,88.9,58z"/>
		<path class="st6" d="M100.2,56.1l4.6-5.6l1.3,0l-5.5,6.5l-1,5l-1.1,0l1-5l-2.8-6.6l1.2,0L100.2,56.1z"/>
		<path class="st6" d="M108.3,62.3c-0.5,0-1-0.1-1.4-0.3c-0.4-0.2-0.8-0.4-1-0.8c-0.3-0.4-0.5-0.8-0.5-1.4s-0.1-1.2,0.1-1.9
			c0.1-0.6,0.3-1.2,0.6-1.7c0.3-0.5,0.6-1,1-1.4s0.9-0.7,1.4-0.9c0.5-0.2,1.1-0.4,1.8-0.4c0.7,0,1.2,0.1,1.6,0.3
			c0.4,0.2,0.8,0.5,1,0.9c0.2,0.4,0.4,0.8,0.4,1.4c0,0.5,0,1.1-0.1,1.7c-0.1,0.7-0.3,1.3-0.6,1.8s-0.6,1-1.1,1.4
			c-0.4,0.4-0.9,0.7-1.4,0.9C109.4,62.2,108.9,62.3,108.3,62.3z M112,57.9c0.1-0.5,0.1-1,0.1-1.4s-0.1-0.8-0.3-1.1
			c-0.2-0.3-0.4-0.6-0.7-0.7c-0.3-0.2-0.7-0.3-1.2-0.3c-0.5,0-1,0.1-1.4,0.3c-0.4,0.2-0.7,0.5-1,0.8c-0.3,0.3-0.5,0.7-0.7,1.1
			c-0.2,0.4-0.3,0.9-0.4,1.3c-0.1,0.5-0.1,1-0.1,1.4c0,0.4,0.1,0.8,0.3,1.1c0.2,0.3,0.4,0.5,0.7,0.7c0.3,0.2,0.7,0.3,1.2,0.2
			c0.5,0,1-0.1,1.4-0.3c0.4-0.2,0.7-0.5,1-0.8c0.3-0.3,0.5-0.7,0.7-1.1C111.8,58.8,111.9,58.3,112,57.9z"/>
		<path class="st6" d="M121.3,53.7l1,0l-1.7,8.3l-1,0l0.2-1.2c-0.2,0.2-0.3,0.3-0.5,0.5c-0.2,0.2-0.4,0.3-0.6,0.4
			c-0.2,0.1-0.5,0.2-0.8,0.3c-0.3,0.1-0.6,0.1-1,0.1c-0.6,0-1-0.1-1.3-0.2c-0.3-0.2-0.6-0.4-0.8-0.6c-0.2-0.3-0.3-0.6-0.3-1
			s0-0.8,0.1-1.2l1.1-5.5l1,0l-1.1,5.4c-0.1,0.7-0.1,1.3,0.2,1.6c0.3,0.4,0.8,0.6,1.5,0.6c0.4,0,0.8-0.1,1.1-0.2
			c0.3-0.2,0.7-0.4,0.9-0.7c0.3-0.3,0.5-0.6,0.7-1c0.2-0.4,0.3-0.8,0.4-1.3L121.3,53.7z"/>
		<path class="st6" d="M136.8,60.3L136.8,60.3l4.6-10l1.1,0l-5.4,11.6l-1.2,0l-0.6-10.2l0,0l-4.8,10.2l-1.2,0l-0.6-11.5l1.1,0
			l0.4,10l0,0l4.7-10l1.2,0L136.8,60.3z"/>
		<path class="st6" d="M146.3,57c0.2,0,0.4-0.1,0.7-0.1c0.3,0,0.5-0.1,0.7-0.2c0.2-0.1,0.3-0.2,0.4-0.4c0.1-0.2,0.1-0.3,0.1-0.5
			c0.1-0.2,0.1-0.5,0-0.7c0-0.2-0.1-0.4-0.3-0.5c-0.1-0.1-0.3-0.3-0.6-0.3s-0.5-0.1-0.9-0.1c-0.7,0-1.2,0.1-1.7,0.4
			c-0.5,0.3-0.8,0.8-1.1,1.5l-1,0c0.1-0.5,0.3-0.9,0.6-1.3c0.3-0.3,0.6-0.6,0.9-0.9c0.4-0.2,0.7-0.4,1.2-0.5
			c0.4-0.1,0.9-0.2,1.3-0.2c0.4,0,0.8,0,1.1,0.1c0.3,0.1,0.6,0.2,0.9,0.4c0.2,0.2,0.4,0.5,0.5,0.8c0.1,0.3,0.1,0.7,0,1.2l-0.9,4.5
			c-0.1,0.4-0.1,0.6,0,0.7c0.1,0.1,0.4,0.1,0.8-0.1l-0.2,0.8c-0.1,0-0.2,0.1-0.3,0.1c-0.2,0-0.3,0.1-0.4,0.1c-0.1,0-0.3,0-0.4,0
			c-0.3-0.1-0.5-0.2-0.5-0.4c0-0.2,0-0.5,0-0.8c-0.5,0.5-1,0.8-1.6,1s-1.2,0.4-1.8,0.4c-0.4,0-0.7,0-1-0.1c-0.3-0.1-0.6-0.2-0.8-0.4
			c-0.2-0.2-0.4-0.4-0.5-0.7c-0.1-0.3-0.1-0.6,0-1c0.3-1.4,1.4-2.2,3.4-2.5L146.3,57z M147.8,57.5c-0.4,0.2-0.9,0.3-1.3,0.3
			c-0.4,0.1-0.8,0.1-1.3,0.1c-0.7,0.1-1.4,0.2-1.8,0.5c-0.5,0.3-0.8,0.7-0.9,1.3c-0.1,0.3,0,0.5,0,0.7c0.1,0.2,0.2,0.3,0.3,0.5
			c0.1,0.1,0.3,0.2,0.5,0.3c0.2,0.1,0.4,0.1,0.6,0.1c0.4,0,0.8-0.1,1.1-0.2c0.4-0.1,0.7-0.2,1.1-0.4c0.3-0.2,0.6-0.5,0.8-0.8
			c0.2-0.3,0.4-0.7,0.5-1.1L147.8,57.5z"/>
		<path class="st6" d="M151.4,61.8l-1,0l1.7-8.3l1,0l-0.2,1.2c0.5-0.4,0.9-0.7,1.4-1c0.5-0.3,1-0.4,1.6-0.4c0.5,0,1,0.1,1.4,0.3
			c0.4,0.2,0.7,0.5,0.9,0.9c0.1,0.3,0.2,0.6,0.2,0.9c0,0.3-0.1,0.6-0.1,1l-1.1,5.4l-1,0l1.1-5.4c0.2-0.7,0.1-1.3-0.1-1.7
			c-0.3-0.4-0.8-0.6-1.5-0.6c-0.3,0-0.6,0-0.8,0.1c-0.3,0.1-0.5,0.2-0.7,0.4c-0.2,0.2-0.4,0.3-0.6,0.5c-0.2,0.2-0.3,0.4-0.4,0.6
			c-0.1,0.3-0.3,0.5-0.3,0.8c-0.1,0.2-0.1,0.5-0.2,0.8L151.4,61.8z"/>
		<path class="st6" d="M162.2,61.8c-0.1,0-0.3,0.1-0.5,0.1c-0.2,0.1-0.4,0.1-0.7,0.1c-0.5,0-0.8-0.1-1-0.4c-0.2-0.2-0.2-0.7-0.1-1.3
			l1.2-6.1l-1.2,0l0.2-0.8l1.2,0l0.5-2.3l1,0l-0.5,2.3l1.6,0l-0.2,0.8l-1.6,0l-1.2,5.7c0,0.2-0.1,0.4-0.1,0.5c0,0.1,0,0.3,0,0.4
			c0,0.1,0.1,0.2,0.2,0.2c0.1,0,0.3,0.1,0.5,0.1c0.1,0,0.3,0,0.4,0c0.1,0,0.3,0,0.4-0.1L162.2,61.8z"/>
		<path class="st6" d="M171.1,61.7c-0.1,0-0.3,0.1-0.5,0.1c-0.2,0.1-0.4,0.1-0.7,0.1c-0.5,0-0.8-0.1-1-0.4c-0.2-0.2-0.2-0.7-0.1-1.3
			l1.2-6.1l-1.2,0l0.2-0.8l1.2,0l0.5-2.3l1,0l-0.5,2.3l1.6,0l-0.2,0.8l-1.6,0l-1.2,5.7c0,0.2-0.1,0.4-0.1,0.5c0,0.1,0,0.3,0,0.4
			c0,0.1,0.1,0.2,0.2,0.2c0.1,0,0.3,0.1,0.5,0.1c0.1,0,0.3,0,0.4,0c0.1,0,0.3,0,0.4-0.1L171.1,61.7z"/>
		<path class="st6" d="M175.9,61.9c-0.5,0-1-0.1-1.4-0.3c-0.4-0.2-0.8-0.4-1-0.8c-0.3-0.4-0.5-0.8-0.5-1.4s-0.1-1.2,0.1-1.9
			c0.1-0.6,0.3-1.2,0.6-1.7c0.3-0.5,0.6-1,1-1.4s0.9-0.7,1.4-0.9c0.5-0.2,1.1-0.4,1.8-0.4c0.7,0,1.2,0.1,1.6,0.3
			c0.4,0.2,0.8,0.5,1,0.9s0.4,0.8,0.4,1.4c0,0.5,0,1.1-0.1,1.7c-0.1,0.7-0.3,1.3-0.6,1.8s-0.6,1-1.1,1.4c-0.4,0.4-0.9,0.7-1.4,0.9
			C177,61.8,176.5,61.9,175.9,61.9z M179.6,57.5c0.1-0.5,0.1-1,0.1-1.4s-0.1-0.8-0.3-1.1c-0.2-0.3-0.4-0.6-0.7-0.7
			c-0.3-0.2-0.7-0.3-1.2-0.3c-0.5,0-1,0.1-1.4,0.3c-0.4,0.2-0.7,0.5-1,0.8c-0.3,0.3-0.5,0.7-0.7,1.1c-0.2,0.4-0.3,0.9-0.4,1.3
			c-0.1,0.5-0.1,1-0.1,1.4c0,0.4,0.1,0.8,0.3,1.1c0.2,0.3,0.4,0.5,0.7,0.7c0.3,0.2,0.7,0.3,1.2,0.2c0.5,0,1-0.1,1.4-0.3
			c0.4-0.2,0.7-0.5,1-0.8c0.3-0.3,0.5-0.7,0.7-1.1C179.4,58.4,179.5,57.9,179.6,57.5z"/>
	</g>
	<g class="st5">
		<path class="st6" d="M67.2,79.7l2.4-11.5l1.1,0l-1.2,6l7.1-6l1.2,0l-5.5,4.6l3.9,6.9l-1.3,0l-3.5-6.2l-2.2,1.8l-0.9,4.5L67.2,79.7
			z"/>
		<path class="st6" d="M78.7,79.6l-1,0l1.7-8.3l1,0l-0.2,1.2c0.5-0.4,0.9-0.7,1.4-1c0.5-0.3,1-0.4,1.6-0.4c0.5,0,1,0.1,1.4,0.3
			c0.4,0.2,0.7,0.5,0.9,0.9c0.1,0.3,0.2,0.6,0.2,0.9c0,0.3-0.1,0.6-0.1,1l-1.1,5.4l-1,0l1.1-5.4c0.2-0.7,0.1-1.3-0.1-1.7
			C84,72.1,83.5,72,82.8,72c-0.3,0-0.6,0-0.8,0.1c-0.3,0.1-0.5,0.2-0.7,0.4c-0.2,0.2-0.4,0.3-0.6,0.5c-0.2,0.2-0.3,0.4-0.4,0.6
			c-0.1,0.3-0.3,0.5-0.3,0.8c-0.1,0.2-0.1,0.5-0.2,0.8L78.7,79.6z"/>
		<path class="st6" d="M89.8,79.8c-0.5,0-1-0.1-1.4-0.3c-0.4-0.2-0.8-0.4-1-0.8c-0.3-0.4-0.5-0.8-0.5-1.4s-0.1-1.2,0.1-1.9
			c0.1-0.6,0.3-1.2,0.6-1.7c0.3-0.5,0.6-1,1-1.4s0.9-0.7,1.4-0.9c0.5-0.2,1.1-0.4,1.8-0.4c0.7,0,1.2,0.1,1.6,0.3
			c0.4,0.2,0.8,0.5,1,0.9s0.4,0.8,0.4,1.4c0,0.5,0,1.1-0.1,1.7c-0.1,0.7-0.3,1.3-0.6,1.8s-0.6,1-1.1,1.4c-0.4,0.4-0.9,0.7-1.4,0.9
			C91,79.7,90.4,79.8,89.8,79.8z M93.6,75.4c0.1-0.5,0.1-1,0.1-1.4s-0.1-0.8-0.3-1.1c-0.2-0.3-0.4-0.6-0.7-0.7
			c-0.3-0.2-0.7-0.3-1.2-0.3c-0.5,0-1,0.1-1.4,0.3c-0.4,0.2-0.7,0.5-1,0.8c-0.3,0.3-0.5,0.7-0.7,1.1c-0.2,0.4-0.3,0.9-0.4,1.3
			c-0.1,0.5-0.1,1-0.1,1.4c0,0.4,0.1,0.8,0.3,1.1c0.2,0.3,0.4,0.5,0.7,0.7c0.3,0.2,0.7,0.3,1.2,0.2c0.5,0,1-0.1,1.4-0.3
			c0.4-0.2,0.7-0.5,1-0.8c0.3-0.3,0.5-0.7,0.7-1.1C93.3,76.3,93.5,75.9,93.6,75.4z"/>
		<path class="st6" d="M102.8,78.2l3.6-7l1,0l-4.4,8.3l-1,0l-0.4-7h0l-3.3,7l-1.2,0l-0.8-8.3l1,0l0.7,7.1l3.4-7.1l1.1,0L102.8,78.2z
			"/>
		<path class="st6" d="M110.6,79.4l6.9-11.6l1.2,0l2,11.5l-1.1,0l-0.6-3.6l-5.2,0l-2.1,3.6L110.6,79.4z M114.4,74.9l4.5,0l-1-6
			L114.4,74.9z"/>
		<path class="st6" d="M123.2,79.4l-1,0l2.4-11.5l1,0l-0.9,4.6c0.4-0.5,0.9-0.9,1.5-1.2c0.6-0.3,1.2-0.4,1.8-0.4
			c0.6,0,1.2,0.1,1.6,0.4c0.4,0.2,0.7,0.6,1,1c0.2,0.4,0.4,0.9,0.4,1.4c0,0.5,0,1.1-0.1,1.7c-0.1,0.6-0.3,1.2-0.6,1.7s-0.6,1-1,1.4
			c-0.4,0.4-0.8,0.7-1.3,0.9c-0.5,0.2-1.1,0.3-1.8,0.3c-0.3,0-0.5,0-0.8-0.1c-0.3-0.1-0.5-0.2-0.7-0.3s-0.4-0.3-0.6-0.5
			s-0.3-0.4-0.4-0.7h0L123.2,79.4z M124.1,75.2c-0.1,0.5-0.1,1-0.1,1.4c0,0.4,0.1,0.8,0.3,1.1c0.2,0.3,0.4,0.6,0.7,0.7
			c0.3,0.2,0.7,0.3,1.1,0.3c0.4,0,0.8-0.1,1.2-0.2c0.4-0.1,0.7-0.4,1-0.6c0.3-0.3,0.6-0.6,0.8-1c0.2-0.4,0.4-0.9,0.5-1.4
			c0.1-0.5,0.2-1,0.2-1.5c0-0.5-0.1-0.9-0.3-1.2c-0.2-0.3-0.4-0.6-0.7-0.8c-0.3-0.2-0.7-0.3-1.2-0.3c-0.4,0-0.8,0.1-1.2,0.3
			c-0.4,0.2-0.7,0.4-1,0.8c-0.3,0.3-0.6,0.7-0.8,1.1C124.3,74.3,124.2,74.7,124.1,75.2z"/>
		<path class="st6" d="M135.2,79.5c-0.5,0-1-0.1-1.4-0.3c-0.4-0.2-0.8-0.4-1-0.8c-0.3-0.4-0.5-0.8-0.5-1.4s-0.1-1.2,0.1-1.9
			c0.1-0.6,0.3-1.2,0.6-1.7c0.3-0.5,0.6-1,1-1.4s0.9-0.7,1.4-0.9c0.5-0.2,1.1-0.4,1.8-0.4c0.7,0,1.2,0.1,1.6,0.3
			c0.4,0.2,0.8,0.5,1,0.9c0.2,0.4,0.4,0.8,0.4,1.4c0,0.5,0,1.1-0.1,1.7c-0.1,0.7-0.3,1.3-0.6,1.8s-0.6,1-1.1,1.4
			c-0.4,0.4-0.9,0.7-1.4,0.9C136.3,79.4,135.8,79.5,135.2,79.5z M138.9,75.1c0.1-0.5,0.1-1,0.1-1.4s-0.1-0.8-0.3-1.1
			c-0.2-0.3-0.4-0.6-0.7-0.7c-0.3-0.2-0.7-0.3-1.2-0.3c-0.5,0-1,0.1-1.4,0.3c-0.4,0.2-0.7,0.5-1,0.8c-0.3,0.3-0.5,0.7-0.7,1.1
			c-0.2,0.4-0.3,0.9-0.4,1.3c-0.1,0.5-0.1,1-0.1,1.4c0,0.4,0.1,0.8,0.3,1.1c0.2,0.3,0.4,0.5,0.7,0.7c0.3,0.2,0.7,0.3,1.2,0.2
			c0.5,0,1-0.1,1.4-0.3c0.4-0.2,0.7-0.5,1-0.8c0.3-0.3,0.5-0.7,0.7-1.1C138.7,76,138.8,75.6,138.9,75.1z"/>
		<path class="st6" d="M148.2,70.9l1,0l-1.7,8.3l-1,0l0.2-1.2c-0.2,0.2-0.3,0.3-0.5,0.5c-0.2,0.2-0.4,0.3-0.6,0.4
			c-0.2,0.1-0.5,0.2-0.8,0.3c-0.3,0.1-0.6,0.1-1,0.1c-0.6,0-1-0.1-1.3-0.2c-0.3-0.2-0.6-0.4-0.8-0.6c-0.2-0.3-0.3-0.6-0.3-1
			s0-0.8,0.1-1.2l1.1-5.5l1,0l-1.1,5.4c-0.1,0.7-0.1,1.3,0.2,1.6c0.3,0.4,0.8,0.6,1.5,0.6c0.4,0,0.8-0.1,1.1-0.2
			c0.3-0.2,0.7-0.4,0.9-0.7c0.3-0.3,0.5-0.6,0.7-1c0.2-0.4,0.3-0.8,0.4-1.3L148.2,70.9z"/>
		<path class="st6" d="M152.6,79.2c-0.1,0-0.3,0.1-0.5,0.1c-0.2,0.1-0.4,0.1-0.7,0.1c-0.5,0-0.8-0.1-1-0.4c-0.2-0.2-0.2-0.7-0.1-1.3
			l1.2-6.1l-1.2,0l0.2-0.8l1.2,0l0.5-2.3l1,0l-0.5,2.3l1.6,0l-0.2,0.8l-1.6,0l-1.2,5.7c0,0.2-0.1,0.4-0.1,0.5c0,0.1,0,0.3,0,0.4
			c0,0.1,0.1,0.2,0.2,0.2c0.1,0,0.3,0.1,0.5,0.1c0.1,0,0.3,0,0.4,0c0.1,0,0.3,0,0.4-0.1L152.6,79.2z"/>
		<path class="st6" d="M161.5,79.2c-0.1,0-0.3,0.1-0.5,0.1c-0.2,0.1-0.4,0.1-0.7,0.1c-0.5,0-0.8-0.1-1-0.4c-0.2-0.2-0.2-0.7-0.1-1.3
			l1.2-6.1l-1.2,0l0.2-0.8l1.2,0l0.5-2.3l1,0l-0.5,2.3l1.6,0l-0.2,0.8l-1.6,0l-1.2,5.7c0,0.2-0.1,0.4-0.1,0.5c0,0.1,0,0.3,0,0.4
			c0,0.1,0.1,0.2,0.2,0.2c0.1,0,0.3,0.1,0.5,0.1c0.1,0,0.3,0,0.4,0c0.1,0,0.3,0,0.4-0.1L161.5,79.2z"/>
		<path class="st6" d="M163.1,79.1l2.4-11.5l1,0l-0.9,4.4c0.5-0.4,0.9-0.7,1.4-1c0.5-0.3,1-0.4,1.6-0.4c0.5,0,1,0.1,1.4,0.3
			s0.7,0.5,0.9,0.9c0.1,0.3,0.2,0.6,0.2,0.9c0,0.3-0.1,0.6-0.1,1l-1.1,5.4l-1,0l1.1-5.4c0.2-0.7,0.1-1.3-0.1-1.7
			c-0.3-0.4-0.8-0.6-1.5-0.6c-0.3,0-0.6,0-0.8,0.1c-0.3,0.1-0.5,0.2-0.7,0.4c-0.2,0.2-0.4,0.3-0.6,0.5c-0.2,0.2-0.3,0.4-0.4,0.6
			c-0.1,0.3-0.3,0.5-0.3,0.8c-0.1,0.2-0.1,0.5-0.2,0.8l-0.9,4.5L163.1,79.1z"/>
		<path class="st6" d="M173.4,75.2c-0.1,0.4-0.1,0.9-0.1,1.3c0,0.4,0.1,0.7,0.3,1c0.2,0.3,0.4,0.5,0.7,0.7c0.3,0.2,0.7,0.3,1.2,0.3
			c0.6,0,1.2-0.2,1.7-0.5c0.5-0.3,0.9-0.8,1.2-1.4l1.1,0c-0.2,0.4-0.4,0.8-0.7,1.1c-0.3,0.3-0.6,0.6-0.9,0.9
			c-0.3,0.3-0.7,0.5-1.1,0.6c-0.4,0.1-0.9,0.2-1.4,0.2c-0.7,0-1.2-0.1-1.6-0.3c-0.4-0.2-0.8-0.5-1-0.9c-0.2-0.4-0.4-0.8-0.4-1.4
			c0-0.5,0-1.1,0.1-1.7c0.1-0.6,0.3-1.2,0.6-1.7c0.3-0.5,0.6-1,1-1.4c0.4-0.4,0.9-0.7,1.4-1c0.5-0.2,1.1-0.4,1.7-0.4
			c1.1,0,2,0.4,2.4,1.2c0.5,0.8,0.6,1.9,0.3,3.4L173.4,75.2z M179,74.3c0.1-0.4,0.1-0.8,0.1-1.1s-0.1-0.7-0.3-0.9
			c-0.2-0.3-0.4-0.5-0.7-0.6s-0.7-0.2-1.1-0.2s-0.8,0.1-1.2,0.2c-0.4,0.2-0.7,0.4-1,0.6c-0.3,0.3-0.5,0.6-0.7,0.9
			c-0.2,0.4-0.4,0.7-0.5,1.1L179,74.3z"/>
	</g>
	<g class="st5">
		<path class="st7" d="M31,90.6l4.4,0l0.1,21.8l-4.4,0l-0.1-8.8l-9.2,0.1l0.1,8.8l-4.4,0l-0.1-21.8l4.4,0l0.1,9.2l9.2-0.1L31,90.6z"
			/>
		<path class="st7" d="M57.6,97.2l0,8.2c0,4.7-3.5,7.2-8.6,7.2l-0.5,0c-5.2,0-8.7-2.4-8.7-7.1l0-8.2c0-4.4,3.7-7.1,8.6-7.2l0.5,0
			C53.8,90.1,57.6,92.8,57.6,97.2z M53.2,97.6c0-2.4-1.8-3.7-4.2-3.7l-0.5,0c-2.5,0-4.2,1.4-4.2,3.7l0,7.6c0,2.5,1.7,3.7,4.2,3.7
			l0.5,0c2.6,0,4.2-1.2,4.2-3.7L53.2,97.6z"/>
		<path class="st7" d="M66.6,90.3l6.5,12l6.4-12.1l4.8,0l0.1,21.8l-4.5,0l-0.1-15.2l-5.4,10.7l-2.7,0l-5.5-10.6l0.1,15.2l-4.4,0
			l-0.1-21.8L66.6,90.3z"/>
		<path class="st7" d="M93.4,102.7l0,5.5l9.9-0.1l0,3.7L89.1,112l-0.1-21.8l13.6-0.1l0,3.8L93.4,94l0,5.1l7.3,0l0,3.6L93.4,102.7z"
			/>
		<path class="st7" d="M126.4,100.4c2.3,0.8,3.8,2.4,3.8,4.7l0,1.2c0,3.6-2.7,5.5-6.8,5.5l-9.3,0.1l-0.1-21.8l8.7-0.1
			c4.1,0,6.8,2.1,6.8,5.7l0,0.7C129.5,98,128.2,99.8,126.4,100.4z M118.4,99.1l4,0c1.6,0,2.7-0.8,2.6-2.4l0-0.7
			c0-1.9-1.3-2.4-3.2-2.4l-3.5,0L118.4,99.1z M125.7,104.7c0-1.6-1.5-2.4-3.1-2.4l-4.2,0l0,6l4.2,0c1.7,0,3.1-0.5,3.1-2.5
			L125.7,104.7z"/>
		<path class="st7" d="M147.5,89.9l4.4,0l0.1,14.8c0,4.9-4,7.4-8.8,7.4c-4.9,0-8.9-2.3-9-7.3l-0.1-14.8l4.4,0l0.1,14.5
			c0,2.6,2.1,3.8,4.5,3.8c2.3,0,4.4-1.3,4.4-3.8L147.5,89.9z"/>
		<path class="st7" d="M162.1,103.4l-7-13.6l5.1,0l4.1,9.4l4.1-9.4l5.1,0l-6.9,13.7l0,8.1l-4.5,0L162.1,103.4z"/>
		<path class="st7" d="M177.1,89.7l4.4,0l0.1,21.8l-4.4,0L177.1,89.7z"/>
		<path class="st7" d="M200.3,89.5l4.1,0l0.1,21.8l-4.2,0l-9.6-14.9l0.1,15l-4.1,0l-0.1-21.8l4.2,0l9.6,15L200.3,89.5z"/>
		<path class="st7" d="M217.9,98.9l8,0l0.1,10c-2.2,1.5-4.7,2.6-8.2,2.6c-5.1,0-9-2.4-9-7.1l0-8.1c0-4.6,4-7.2,9-7.2
			c3.1,0,5.5,0.8,7.5,2l-1.5,3.3c-1.6-1-3.2-1.5-5.7-1.5c-2.7,0-4.8,1.3-4.7,3.7l0,7.5c0,2.5,2,3.7,4.5,3.7c1.6,0,2.6-0.2,3.7-0.8
			l0-4.6l-3.5,0L217.9,98.9z"/>
	</g>
	<g class="st5">
		<path class="st7" d="M60.4,122.2c4.4,0,7.3,2.1,7.4,6.1l0,2.4c0,3.8-3.2,5.8-7.2,5.8l-4.6,0l0,7.5l-4.4,0l-0.1-21.8L60.4,122.2z
			 M63.3,128.8c0-1.8-1.3-2.9-3.2-2.9l-4.2,0l0,7l4.2,0c1.8,0,3.2-0.8,3.2-2.8L63.3,128.8z"/>
		<path class="st7" d="M83.9,134.6l4.7,9.2l-4.8,0l-4-8.2l-3.8,0l0,8.2l-4.4,0l-0.1-21.8l9.1-0.1c4.4,0,7.2,1.9,7.2,6.1l0,1.1
			C87.8,132,86.3,133.9,83.9,134.6z M75.9,132.1l4.4,0c1.5,0,2.9-0.9,2.9-2.5l0-1.3c0-1.6-1.3-2.5-3.1-2.5l-4.4,0L75.9,132.1z"/>
		<path class="st7" d="M109,128.7l0,8.2c0,4.7-3.5,7.2-8.6,7.2l-0.5,0c-5.2,0-8.7-2.4-8.7-7.1l0-8.2c0-4.4,3.7-7.1,8.6-7.2l0.5,0
			C105.2,121.6,109,124.2,109,128.7z M104.6,129c0-2.4-1.8-3.7-4.2-3.7l-0.5,0c-2.5,0-4.2,1.4-4.2,3.7l0,7.6c0,2.5,1.7,3.7,4.2,3.7
			l0.5,0c2.6,0,4.2-1.2,4.2-3.7L104.6,129z"/>
		<path class="st7" d="M117.3,129l0,7.6c0,2.5,1.8,3.6,4.4,3.6c2,0,3.6-0.5,4.9-1.3l1.7,3.1c-1.8,1.4-3.7,2-6.9,2
			c-4.8,0-8.5-2.3-8.5-7.1l0-8c0-4.5,3.8-7.2,8.4-7.3c3.2,0,5.2,0.7,7.1,2.1l-1.8,3.1c-1.3-0.9-2.8-1.5-5-1.5
			C119.1,125.3,117.3,126.6,117.3,129z"/>
		<path class="st7" d="M135.9,134.2l0,5.5l9.9-0.1l0,3.7l-14.3,0.1l-0.1-21.8l13.6-0.1l0,3.8l-9.2,0.1l0,5.1l7.3,0l0,3.6
			L135.9,134.2z"/>
		<path class="st7" d="M164.7,137.2c0,4-3.1,6.4-7.7,6.4c-3.1,0-6.3-1.1-8.3-3.3l2.1-2.8c1.6,1.6,3.8,2.4,6,2.4
			c2.2,0,3.5-0.9,3.4-2.5c0-1.6-1-2.3-4.2-3.2c-4.4-1.3-6.8-3-6.9-6.5c-0.1-4.3,3.6-6.4,7.6-6.4c2.9,0,5.3,0.8,7.6,2.7l-2,3
			c-1.8-1.4-3.4-1.9-5.4-1.9c-2.1,0-3.3,0.9-3.3,2.5c0,1.6,1.1,2.2,4.3,3.2C162.4,132,164.6,133.9,164.7,137.2z"/>
		<path class="st7" d="M183.8,137.1c0,4-3.1,6.4-7.7,6.4c-3.1,0-6.3-1.1-8.3-3.3l2.1-2.8c1.6,1.6,3.8,2.4,6,2.4
			c2.2,0,3.5-0.9,3.4-2.5c0-1.6-1-2.3-4.2-3.2c-4.4-1.3-6.8-3-6.9-6.5c-0.1-4.3,3.6-6.4,7.6-6.4c2.9,0,5.3,0.8,7.6,2.7l-2,3
			c-1.8-1.4-3.4-1.9-5.4-1.9c-2.1,0-3.3,0.9-3.3,2.5c0,1.6,1.1,2.2,4.3,3.2C181.5,131.9,183.7,133.8,183.8,137.1z"/>
		<path class="st7" d="M199.4,125.8l0,1.1c0,2-1.5,3.1-2.9,4.2c-1.6,1.2-2.3,1.9-2.3,3.7l0,1.4l-4.3,0l0-1.9c0-1.9,0.8-3.1,2.4-4.2
			c1.2-0.9,2.5-1.8,2.4-2.7l0-0.8c0-1.2-1.2-1.6-2.9-1.6c-1.6,0-3.4,0.7-4.4,1.4l-1.5-3c1.7-1.2,4.1-2.2,6.5-2.2
			C196.8,121,199.4,122.4,199.4,125.8z M189.7,139.2l5.1,0l0,3.9l-5.1,0L189.7,139.2z"/>
	</g>
	<path class="st2" d="M179.8,179.5c0-0.2,0.1-0.4,0.1-0.5s0-0.1,0-0.2c0-0.2,0-0.5,0-0.7c0-3.3-2.7-6-6-6c-0.4,0-0.7,0-1,0.1l0,0
		c0-3.3-2.7-6-6-6c-0.8,0-1.5,0.1-2.1,0.4c-0.9-2.1-3.1-3.6-5.5-3.6c-2.5,0-4.6,1.5-5.5,3.6c-0.1,0-0.1,0-0.2-0.1
		c-1.6-3.4-3.3-5.6-5.2-5.6c-3,0-5.8,5.6-7.8,12.8c-0.3,0.3-0.7,0.7-0.9,1c-1.5-3.5-3.2-5.9-5-5.9c-4.5,0-8.3,14-9.5,25L108,171.7
		h-1.6v-1.8l0,0l-0.7-1l-1.5-2l0,0H98l0,0l0,0v4.7H75.6l0,0l0,0l0,0l0,0L54.3,199l0,0H56h0.5l0,0h2.3l0,0v34.1l0,0h9.5h1.3h12.8h1.3
		h8.2H93l0,0h1.5h30.8v-25c1.4,6.4,4.4,11.1,8,11.9c-0.4,4.9-1.1,9.5-2,13.1h4.3h3.3c-0.9-3.6-1.6-8.4-2.1-13.5
		c1.7-0.8,3.3-2.5,4.5-4.8c1.5,2.3,3.3,3.8,5.2,4.4c-0.4,5.2-1.1,10.1-2.1,13.9h4.3h3.3c-0.9-3.6-1.6-8.5-2.1-13.5h9.2v13.5h3.2
		v-13.5h10.2v-16.7h-13.3c0.2-1.8,0.4-3.7,0.4-5.7c0-3.7-0.5-8.4-1.2-13.2h15.8l0,0C176.9,184,179.2,182.1,179.8,179.5
		c0,0.1,0,0.1,0,0.1V179.5z"/>
	<path class="st2" d="M187,179.5c0-0.2,0.1-0.4,0.1-0.5s0-0.1,0-0.2c0-0.2,0-0.5,0-0.7c0-3.3-2.7-6-6-6c-0.4,0-0.7,0-1,0.1l0,0
		c0-3.3-2.7-6-6-6c-0.8,0-1.5,0.1-2.1,0.4c-0.9-2.1-3.1-3.6-5.5-3.6c-2.5,0-4.6,1.5-5.5,3.6c-0.1,0-0.1,0-0.2-0.1
		c-1.6-3.4-3.3-5.6-5.2-5.6c-3,0-5.8,5.6-7.8,12.8c-0.3,0.3-0.7,0.7-0.9,1c-1.5-3.5-3.2-5.9-5-5.9c-4.5,0-8.3,14-9.5,25l-17.2-22.1
		h-1.6v-1.8l0,0l-0.7-1l-1.5-2l0,0h-6.2l0,0l0,0v4.7H82.8l0,0l0,0l0,0l0,0L61.5,199l0,0h1.7h0.5l0,0H66l0,0v34.1l0,0h9.5h1.3h12.8
		h1.3H99h1.2l0,0h1.5h30.8v-25c1.4,6.4,4.4,11.1,8,11.9c-0.4,4.9-1.1,9.5-2,13.1h4.3h3.3c-0.9-3.6-1.6-8.4-2.1-13.5
		c1.7-0.8,3.3-2.5,4.5-4.8c1.5,2.3,3.3,3.8,5.2,4.4c-0.4,5.2-1.1,10.1-2.1,13.9h4.3h3.3c-0.9-3.6-1.6-8.5-2.1-13.5h9.2v13.5h3.2
		v-13.5h10.2v-16.7h-13.3c0.2-1.8,0.4-3.7,0.4-5.7c0-3.7-0.5-8.4-1.2-13.2h15.8l0,0C184.1,184,186.4,182.1,187,179.5
		c0,0.1,0,0.1,0,0.1V179.5z"/>
	<g>
		<g>
			<g>
				<path class="st8" d="M187,178.1c0-3.3-2.7-6-6-6c-0.4,0-0.7,0-1,0.1l0,0c0-3.3-2.7-6-6-6c-0.8,0-1.5,0.1-2.1,0.4
					c-0.9-2.1-3.1-3.6-5.5-3.6c-2.5,0-4.6,1.5-5.5,3.6c-0.7-0.3-1.4-0.4-2.1-0.4c-3.3,0-6,2.7-6,6l0,0c-0.3-0.1-0.7-0.1-1-0.1
					c-3.3,0-6,2.7-6,6c0,3.2,2.5,5.8,5.6,6l0,0h30.1l0,0C184.4,184,187,181.3,187,178.1z"/>
				<path class="st8" d="M151.5,175.1c0.4,0,0.7,0,1,0.1l0,0c0-3.3,2.7-6,6-6c0.8,0,1.5,0.1,2.1,0.4c0.9-2.1,3.1-3.6,5.5-3.6
					c2.5,0,4.6,1.5,5.5,3.6c0.7-0.3,1.4-0.4,2.1-0.4c3.3,0,6,2.7,6,6l0,0c0.3-0.1,0.7-0.1,1-0.1c2.8,0,5.2,1.9,5.8,4.5
					c0.1-0.5,0.2-1,0.2-1.5c0-3.3-2.7-6-6-6c-0.4,0-0.7,0-1,0.1l0,0c0-3.3-2.7-6-6-6c-0.8,0-1.5,0.1-2.1,0.4
					c-0.9-2.1-3.1-3.6-5.5-3.6c-2.5,0-4.6,1.5-5.5,3.6c-0.7-0.3-1.4-0.4-2.1-0.4c-3.3,0-6,2.7-6,6l0,0c-0.3-0.1-0.7-0.1-1-0.1
					c-3.3,0-6,2.7-6,6c0,0.5,0.1,1,0.2,1.5C146.3,177,148.7,175.1,151.5,175.1z"/>
				<path class="st2" d="M136.2,199.1l-21.3-27.4h-1.6v-1.8l0,0l-2.2-2.9h-6.2l0,0l0,0v4.7H82.6l0,0l0,0l-21.3,27.4H63h0.5h2.3v34.1
					h10.8h14.1h8.2h1.2h32.3v-30.7v-3.4L136.2,199.1L136.2,199.1z"/>
				<polygon class="st6" points="65.8,199.1 63,199.1 64.5,196.4 65.8,195.8 				"/>
				<g>
					<path class="st9" d="M145.9,233.1c-1.8-7.1-2.8-18.9-2.4-27.8h-1.9l0,0h-0.9c0.5,8.9-0.6,20.7-2.4,27.8h4.3l0,0H145.9z"/>
					<path class="st9" d="M159.1,233.1c-1.8-7.1-2.8-18.9-2.4-27.8h-1.9l0,0h-0.9c0.5,8.9-0.6,20.7-2.4,27.8h4.3l0,0H159.1z"/>
					<path class="st6" d="M166.6,197.2c0,12.3-5.1,22.3-11.4,22.3c-6.3,0-11.4-10-11.4-22.3s5.1-36.5,11.4-36.5
						C161.6,160.8,166.6,184.9,166.6,197.2z"/>
					<path class="st2" d="M151.5,200.7c0,10.8-4.5,19.5-10,19.5s-10-8.7-10-19.5s4.5-32,10-32S151.5,189.9,151.5,200.7z"/>
				</g>
				<path class="st10" d="M151.5,200.7c0,10.8-4.5,19.5-10,19.5s-10-8.7-10-19.5s4.5-32,10-32S151.5,189.9,151.5,200.7z"/>
				<g>
					<rect x="100" y="196.1" class="st2" width="32.3" height="37"/>
					<rect x="101.5" y="196.1" class="st8" width="30.8" height="37"/>
					<polygon class="st11" points="114.9,171.7 82.6,171.7 102.6,199.1 136.2,199.1 					"/>
					<polygon class="st12" points="82.4,174.9 65.8,196.1 65.8,196.1 65.8,233.1 101.5,233.1 101.5,201.1 					"/>
					<polygon class="st13" points="100.1,199.1 82.4,174.9 65.8,196.1 65.8,196.1 65.8,233.1 101.5,201.2 					"/>
					<polygon class="st2" points="82.4,174.9 100.1,199.1 102.6,199.1 82.6,171.7 61.3,199.1 63.5,199.1 					"/>
					<rect x="75.3" y="205.2" class="st7" width="14.1" height="27.9"/>
					<g>
						<g>
							<rect x="117.8" y="205.2" class="st2" width="6.5" height="16.7"/>
							<rect x="109.5" y="205.2" class="st2" width="6.5" height="16.7"/>
						</g>
						<g class="st14">
							<polygon class="st7" points="117.8,222 124.4,205.2 117.8,205.2 							"/>
							<polygon class="st7" points="109.5,205.2 109.5,222 116.1,205.2 							"/>
						</g>
						<rect x="108" y="223.2" class="st9" width="17.8" height="2"/>
					</g>
					<polygon class="st15" points="82.4,174.9 100.1,199.1 102.6,199.1 82.6,171.7 61.3,199.1 63.5,199.1 					"/>
				</g>
				<rect x="166.2" y="217.8" class="st7" width="3.2" height="15.3"/>
				<rect x="156.1" y="202.9" class="st2" width="23.5" height="16.7"/>
				<polygon class="st6" points="114.9,171.7 82.6,171.7 102.6,199.1 136.2,199.1 				"/>
				<polygon class="st8" points="179.6,202.9 156.1,202.9 156.1,219.6 				"/>
				<rect x="156.1" y="202.9" class="st8" width="23.5" height="16.7"/>
				<polygon class="st2" points="113.3,169.9 111.1,167 104.9,167 104.9,167 104.9,167 104.9,177 104.9,177 107.1,180 113.3,180 
									"/>
				<g>
					<rect x="107.1" y="169.9" class="st12" width="6.2" height="10"/>
					<polygon class="st9" points="104.9,167 104.9,177 104.9,177 107.1,180 107.1,170 					"/>
					<polygon class="st7" points="111.1,167 104.9,167 107.1,169.9 113.3,169.9 					"/>
				</g>
				<circle class="st2" cx="81.7" cy="193.5" r="3.9"/>
				<circle class="st7" cx="81.7" cy="193.5" r="2.6"/>
				<polygon class="st2" points="137.7,201.1 101.5,201.1 99.9,198.9 136,198.9 				"/>
				<polygon class="st15" points="137.7,201.1 101.5,201.1 99.9,198.9 136,198.9 				"/>
			</g>
		</g>
		<g>
			<text transform="matrix(1 0 0 1 163.8145 209.6038)" class="st7 st16 st17">FOR </text>
			<text transform="matrix(1 0 0 1 157.9145 215.8038)" class="st7 st18 st19">SALE</text>
			<line class="st20" x1="172.8" y1="208.2" x2="177.3" y2="208.2"/>
			<line class="st20" x1="158.6" y1="208.2" x2="163.2" y2="208.2"/>
		</g>
	</g>
</g>
<g id="Layer_2" class="st21">
	<text transform="matrix(1 -6.010000e-03 6.010000e-03 1 69.2316 62.2881)" class="st22 st23 st24">Do You Want to</text>
	<text transform="matrix(1 -6.010000e-03 6.010000e-03 1 65.8795 79.7173)" class="st22 st23 st24">Know About the </text>
	<text transform="matrix(1 -6.010000e-03 6.010000e-03 1 15.2314 112.4154)" class="st25 st18 st26">HOME BUYING </text>
	<text transform="matrix(1 -6.010000e-03 6.010000e-03 1 49.2471 143.9873)" class="st25 st18 st26">PROCESS?</text>
</g>
</svg>
