<?xml version="1.0" encoding="utf-8"?>
<!-- Generator: Adobe Illustrator 21.1.0, SVG Export Plug-In . SVG Version: 6.00 Build 0)  -->
<svg version="1.1" xmlns="http://www.w3.org/2000/svg" xmlns:xlink="http://www.w3.org/1999/xlink" x="0px" y="0px"
	 viewBox="0 0 250 250" style="enable-background:new 0 0 250 250;" xml:space="preserve">
<style type="text/css">
	
		.st0{opacity:0.5;fill:none;stroke:#7AA154;stroke-width:3;stroke-linecap:round;stroke-miterlimit:10;stroke-dasharray:0,6.49,0,6.49,0,6.49;enable-background:new    ;}
	.st1{fill:none;stroke:#78A140;stroke-miterlimit:10;}
	.st2{fill:#FFFFFF;stroke:#555555;stroke-width:2;stroke-linecap:round;stroke-miterlimit:10;}
	.st3{fill:none;}
	.st4{opacity:0.15;fill:#4C4C4C;enable-background:new    ;}
	.st5{fill:#FFFFFF;}
	.st6{opacity:0.5;fill:#4C4C4C;enable-background:new    ;}
	.st7{opacity:0.25;fill:#4C4C4C;enable-background:new    ;}
	.st8{fill:#DFE0CF;}
	.st9{fill:#555555;}
	.st10{opacity:0.5;fill:#7AA154;enable-background:new    ;}
	.st11{fill:#7AA154;}
	.st12{opacity:0.5;fill:#FFFFFF;enable-background:new    ;}
	.st13{enable-background:new    ;}
	.st14{display:none;}
	.st15{display:inline;fill:#7AA154;}
	.st16{font-family:'Helvetica-LightOblique';}
	.st17{font-size:16px;}
	.st18{display:inline;fill:#555555;}
	.st19{font-family:'PillGothic600mg-Bold';}
	.st20{font-size:32px;}
</style>
<g id="Layer_1">
	<g id="Layer_1_1_">
		<circle class="st0" cx="125" cy="100" r="95"/>
		<circle class="st1" cx="125" cy="100" r="84"/>
		<ellipse transform="matrix(1 -6.009521e-03 6.009521e-03 1 -2.779098e-02 0.7513)" class="st2" cx="125" cy="5" rx="4" ry="4"/>
		<rect class="st3" width="250" height="198"/>
	</g>
	<g>
		<ellipse class="st4" cx="97.3" cy="221.8" rx="5.4" ry="2.6"/>
		<ellipse class="st4" cx="154.8" cy="221.8" rx="5.4" ry="2.6"/>
		<path class="st5" d="M97.3,169.2c-9.7,0-17.6,7.9-17.6,17.6c0,1.1,0.1,2.3,0.3,3.3c0.1,0.8,0.3,1.5,0.6,2.3l1.7,3.6l15,26.6
			l15-26.6l1.7-3.6c0.2-0.7,0.4-1.5,0.6-2.3c0.2-1.1,0.3-2.2,0.3-3.3C115,177.1,107.1,169.2,97.3,169.2z"/>
		<g>
			<g>
				<g>
					<path class="st5" d="M97.3,169.2c-9.7,0-17.6,7.9-17.6,17.6c0,1.1,0.1,2.3,0.3,3.3c0.1,0.8,0.3,1.5,0.6,2.3l1.7,3.6l15,26.6
						l15-26.6l1.7-3.6c0.2-0.7,0.4-1.5,0.6-2.3c0.2-1.1,0.3-2.2,0.3-3.3C115,177.1,107.1,169.2,97.3,169.2z"/>
					<path class="st6" d="M97.3,169.2c-9.7,0-17.6,7.9-17.6,17.6c0,1.1,0.1,2.3,0.3,3.3c0.1,0.8,0.3,1.5,0.6,2.3l1.7,3.6l15,26.6
						l15-26.6l1.7-3.6c0.2-0.7,0.4-1.5,0.6-2.3c0.2-1.1,0.3-2.2,0.3-3.3C115,177.1,107.1,169.2,97.3,169.2z"/>
					<path class="st7" d="M103.4,170.3c-3.1,4.5-4.9,10-4.9,15.9c0,1.8,0.2,3.6,0.5,5.3c0.2,1.2,0.5,2.4,0.9,3.6l2.7,5.8l3.5,6.2
						l6.2-11l1.7-3.6c0.2-0.7,0.4-1.5,0.6-2.3c0.2-1.1,0.3-2.2,0.3-3.3C115,179.2,110.2,172.8,103.4,170.3z"/>
					<g>
						<circle class="st8" cx="97.3" cy="186.7" r="14.1"/>
						<circle class="st5" cx="97.3" cy="186.7" r="11.9"/>
						<path class="st7" d="M100.7,175.3c-1.4,3.3-2.2,7-2.2,10.9c0,1.8,0.2,3.6,0.5,5.3c0.2,1.2,0.5,2.4,0.9,3.6l1.3,2.8
							c4.6-1.6,7.9-6,7.9-11.2C109.2,181.3,105.6,176.8,100.7,175.3z"/>
					</g>
				</g>
				<path class="st9" d="M105.5,185.6l-7.7-7.7c-0.1-0.1-0.3-0.2-0.5-0.2s-0.4,0.1-0.5,0.2l-7.7,7.7c-0.2,0.2-0.3,0.5-0.2,0.8
					c0.1,0.3,0.4,0.5,0.7,0.5h1.2v9.7c1.3,0.9,2.8,1.5,4.4,1.7l4.8-0.1c1.4-0.3,2.7-0.9,3.9-1.6v-9.7h1.2c0.3,0,0.6-0.2,0.7-0.5
					C105.8,186.1,105.8,185.8,105.5,185.6z"/>
			</g>
			<g>
				<g>
					<path class="st5" d="M154.8,169.2c-9.7,0-17.6,7.9-17.6,17.6c0,1.1,0.1,2.3,0.3,3.3c0.1,0.8,0.3,1.5,0.6,2.3l1.7,3.6l15,26.6
						l15-26.6l1.7-3.6c0.2-0.7,0.4-1.5,0.6-2.3c0.2-1.1,0.3-2.2,0.3-3.3C172.4,177.1,164.5,169.2,154.8,169.2z"/>
					<path class="st6" d="M154.8,169.2c-9.7,0-17.6,7.9-17.6,17.6c0,1.1,0.1,2.3,0.3,3.3c0.1,0.8,0.3,1.5,0.6,2.3l1.7,3.6l15,26.6
						l15-26.6l1.7-3.6c0.2-0.7,0.4-1.5,0.6-2.3c0.2-1.1,0.3-2.2,0.3-3.3C172.4,177.1,164.5,169.2,154.8,169.2z"/>
					<path class="st7" d="M160.9,170.3c-3.1,4.5-4.9,10-4.9,15.9c0,1.8,0.2,3.6,0.5,5.3c0.2,1.2,0.5,2.4,0.9,3.6l2.7,5.8l3.5,6.2
						l6.2-11l1.7-3.6c0.2-0.7,0.4-1.5,0.6-2.3c0.2-1.1,0.3-2.2,0.3-3.3C172.4,179.2,167.6,172.8,160.9,170.3z"/>
					<g>
						<circle class="st8" cx="154.8" cy="186.7" r="14.1"/>
						<circle class="st5" cx="154.8" cy="186.7" r="11.9"/>
						<path class="st7" d="M158.1,175.3c-1.4,3.3-2.2,7-2.2,10.9c0,1.8,0.2,3.6,0.5,5.3c0.2,1.2,0.5,2.4,0.9,3.6l1.3,2.8
							c4.6-1.6,7.9-6,7.9-11.2C166.6,181.3,163.1,176.8,158.1,175.3z"/>
					</g>
				</g>
				<path class="st9" d="M163,185.6l-7.7-7.7c-0.1-0.1-0.3-0.2-0.5-0.2s-0.4,0.1-0.5,0.2l-7.7,7.7c-0.2,0.2-0.3,0.5-0.2,0.8
					s0.4,0.5,0.7,0.5h1.2v9.7c1.3,0.9,2.8,1.5,4.4,1.7l4.8-0.1c1.4-0.3,2.7-0.9,3.9-1.6v-9.7h1.2c0.3,0,0.6-0.2,0.7-0.5
					C163.3,186.1,163.2,185.8,163,185.6z"/>
			</g>
			<g>
				<ellipse class="st4" cx="126.3" cy="234.6" rx="7.3" ry="3.5"/>
				<g>
					<path class="st5" d="M126.3,164.1c-13.1,0-23.7,10.6-23.7,23.7c0,1.5,0.1,3,0.4,4.5c0.2,1,0.5,2,0.8,3l2.3,4.9l20.2,35.6
						l20.2-35.6l2.3-4.9c0.3-1,0.6-2,0.8-3c0.3-1.5,0.4-2.9,0.4-4.5C150,174.7,139.4,164.1,126.3,164.1z"/>
					<path class="st10" d="M126.3,164.1c-13.1,0-23.7,10.6-23.7,23.7c0,1.5,0.1,3,0.4,4.5c0.2,1,0.5,2,0.8,3l2.3,4.9l20.2,35.6
						l20.2-35.6l2.3-4.9c0.3-1,0.6-2,0.8-3c0.3-1.5,0.4-2.9,0.4-4.5C150,174.7,139.4,164.1,126.3,164.1z"/>
					<circle class="st8" cx="126.3" cy="187.5" r="18.9"/>
					<circle class="st11" cx="126.3" cy="187.5" r="15.9"/>
					<path class="st12" d="M127.6,178.3c6.6,0,12.2,4,14.6,9.6c0-0.1,0-0.3,0-0.4c0-8.8-7.1-15.9-15.9-15.9s-15.9,7.1-15.9,15.9
						c0,2.2,0.5,4.3,1.3,6.3C111.9,185.2,119,178.3,127.6,178.3z"/>
					<path class="st10" d="M127.6,178.3c6.6,0,12.2,4,14.6,9.6c0-0.1,0-0.3,0-0.4c0-8.8-7.1-15.9-15.9-15.9s-15.9,7.1-15.9,15.9
						c0,2.2,0.5,4.3,1.3,6.3C111.9,185.2,119,178.3,127.6,178.3z"/>
				</g>
			</g>
			<g>
				<path class="st5" d="M138.1,189.8c0.2-0.4,0.1-0.9-0.2-1.2L127,177.8c-0.2-0.2-0.5-0.3-0.8-0.3s-0.5,0.1-0.8,0.3l-10.8,10.8
					c-0.3,0.3-0.4,0.8-0.2,1.2c0.2,0.4,0.6,0.7,1,0.7h1.7v10c2.5,2.1,5.7,3.4,9.2,3.4s6.7-1.3,9.2-3.4v-10h1.7
					C137.5,190.4,137.9,190.2,138.1,189.8z"/>
			</g>
			<path class="st9" d="M128.7,189.8h-4.9c-0.6,0-1.1,0.5-1.1,1.2v12.5c1.1,0.3,2.3,0.4,3.5,0.4c1.3,0,2.5-0.2,3.7-0.4V191
				C129.8,190.4,129.3,189.8,128.7,189.8z"/>
		</g>
		<path class="st5" d="M156.6,188.1H153c-0.5,0-0.8,0.4-0.8,0.9v9.3c0.8,0.2,1.7,0.3,2.6,0.3c0.9,0,1.9-0.1,2.7-0.3V189
			C157.5,188.4,157.1,188.1,156.6,188.1z"/>
		<path class="st5" d="M156.6,188.1H153c-0.5,0-0.8,0.4-0.8,0.9v9.3c0.8,0.2,1.7,0.3,2.6,0.3c0.9,0,1.9-0.1,2.7-0.3V189
			C157.5,188.4,157.1,188.1,156.6,188.1z"/>
	</g>
	<rect y="67" class="st5" width="250" height="66"/>
	<g class="st13">
		<path class="st11" d="M70.5,87l2.4-11.5l3.9,0c0.3,0,0.6,0,0.9,0c0.3,0,0.6,0,0.9,0.1c0.3,0.1,0.6,0.1,0.8,0.3
			c0.3,0.1,0.5,0.3,0.7,0.5c0.3,0.3,0.6,0.6,0.7,1s0.3,0.8,0.3,1.3c0.1,0.4,0.1,0.9,0,1.3c0,0.5-0.1,0.9-0.2,1.3
			c-0.1,0.4-0.2,0.8-0.3,1.2c-0.1,0.4-0.3,0.8-0.5,1.2c-0.2,0.4-0.4,0.7-0.7,1.1c-0.3,0.3-0.5,0.7-0.9,1c-0.3,0.3-0.7,0.5-1,0.7
			c-0.4,0.2-0.7,0.3-1.1,0.4c-0.4,0.1-0.7,0.2-1.1,0.2c-0.4,0-0.8,0.1-1.1,0.1L70.5,87z M71.8,86.1l2.6,0c0.5,0,1,0,1.4-0.1
			c0.4-0.1,0.9-0.2,1.4-0.4c0.4-0.2,0.8-0.5,1.1-0.8c0.3-0.3,0.6-0.7,0.8-1.1c0.2-0.4,0.4-0.8,0.6-1.2c0.1-0.4,0.3-0.8,0.3-1.2
			c0.1-0.4,0.1-0.8,0.2-1.3c0-0.4,0-0.8,0-1.2c-0.1-0.4-0.2-0.7-0.4-1.1c-0.2-0.3-0.5-0.6-0.8-0.8c-0.3-0.2-0.7-0.3-1.1-0.3
			c-0.5-0.1-0.9-0.1-1.4-0.1l-2.6,0L71.8,86.1z"/>
		<path class="st11" d="M85.2,87.1c-0.5,0-1-0.1-1.4-0.3c-0.4-0.2-0.8-0.4-1-0.8c-0.3-0.4-0.5-0.8-0.5-1.4s-0.1-1.2,0.1-1.9
			c0.1-0.6,0.3-1.2,0.6-1.7c0.3-0.5,0.6-1,1-1.4s0.9-0.7,1.4-0.9c0.5-0.2,1.1-0.4,1.8-0.4c0.7,0,1.2,0.1,1.6,0.3
			c0.4,0.2,0.8,0.5,1,0.9C89.9,80,90,80.5,90,81c0,0.5,0,1.1-0.1,1.7c-0.1,0.7-0.3,1.3-0.6,1.8c-0.3,0.5-0.6,1-1.1,1.4
			c-0.4,0.4-0.9,0.7-1.4,0.9C86.3,87,85.8,87.1,85.2,87.1z M88.9,82.7c0.1-0.5,0.1-0.9,0.1-1.4s-0.1-0.8-0.3-1.1
			c-0.2-0.3-0.4-0.6-0.7-0.7c-0.3-0.2-0.7-0.3-1.2-0.3c-0.5,0-1,0.1-1.4,0.3c-0.4,0.2-0.7,0.5-1,0.8c-0.3,0.3-0.5,0.7-0.7,1.1
			c-0.2,0.4-0.3,0.9-0.4,1.3c-0.1,0.5-0.1,1-0.1,1.4c0,0.4,0.1,0.8,0.3,1.1c0.2,0.3,0.4,0.5,0.7,0.7c0.3,0.2,0.7,0.3,1.2,0.2
			c0.5,0,1-0.1,1.4-0.3c0.4-0.2,0.7-0.5,1-0.8c0.3-0.3,0.5-0.7,0.7-1.1C88.7,83.6,88.8,83.2,88.9,82.7z"/>
		<path class="st11" d="M100.2,80.8l4.6-5.6l1.3,0l-5.5,6.5l-1,5l-1.1,0l1-5l-2.8-6.6l1.2,0L100.2,80.8z"/>
		<path class="st11" d="M108.3,87c-0.5,0-1-0.1-1.4-0.3c-0.4-0.2-0.8-0.4-1-0.8c-0.3-0.4-0.5-0.8-0.5-1.4s-0.1-1.2,0.1-1.9
			c0.1-0.6,0.3-1.2,0.6-1.7c0.3-0.5,0.6-1,1-1.4s0.9-0.7,1.4-0.9c0.5-0.2,1.1-0.4,1.8-0.4c0.7,0,1.2,0.1,1.6,0.3
			c0.4,0.2,0.8,0.5,1,0.9c0.2,0.4,0.4,0.8,0.4,1.4c0,0.5,0,1.1-0.1,1.7c-0.1,0.7-0.3,1.3-0.6,1.8s-0.6,1-1.1,1.4
			c-0.4,0.4-0.9,0.7-1.4,0.9C109.4,86.9,108.9,87,108.3,87z M112,82.6c0.1-0.5,0.1-1,0.1-1.4s-0.1-0.8-0.3-1.1
			c-0.2-0.3-0.4-0.6-0.7-0.7c-0.3-0.2-0.7-0.3-1.2-0.3c-0.5,0-1,0.1-1.4,0.3c-0.4,0.2-0.7,0.5-1,0.8c-0.3,0.3-0.5,0.7-0.7,1.1
			c-0.2,0.4-0.3,0.9-0.4,1.3c-0.1,0.5-0.1,1-0.1,1.4c0,0.4,0.1,0.8,0.3,1.1c0.2,0.3,0.4,0.5,0.7,0.7c0.3,0.2,0.7,0.3,1.2,0.2
			c0.5,0,1-0.1,1.4-0.3c0.4-0.2,0.7-0.5,1-0.8c0.3-0.3,0.5-0.7,0.7-1.1C111.8,83.5,111.9,83,112,82.6z"/>
		<path class="st11" d="M121.3,78.4l1,0l-1.7,8.3l-1,0l0.2-1.2c-0.2,0.2-0.3,0.3-0.5,0.5c-0.2,0.2-0.4,0.3-0.6,0.4
			c-0.2,0.1-0.5,0.2-0.8,0.3c-0.3,0.1-0.6,0.1-1,0.1c-0.6,0-1-0.1-1.3-0.2c-0.3-0.2-0.6-0.4-0.8-0.6c-0.2-0.3-0.3-0.6-0.3-1
			s0-0.8,0.1-1.2l1.1-5.5l1,0l-1.1,5.4c-0.1,0.7-0.1,1.3,0.2,1.6c0.3,0.4,0.8,0.6,1.5,0.6c0.4,0,0.8-0.1,1.1-0.2
			c0.3-0.2,0.7-0.4,0.9-0.7c0.3-0.3,0.5-0.6,0.7-1c0.2-0.4,0.3-0.8,0.4-1.3L121.3,78.4z"/>
		<path class="st11" d="M136.8,85.1L136.8,85.1l4.6-10l1.1,0l-5.4,11.6l-1.2,0l-0.6-10.2l0,0l-4.8,10.2l-1.2,0l-0.6-11.5l1.1,0
			l0.4,10l0,0l4.7-10l1.2,0L136.8,85.1z"/>
		<path class="st11" d="M146.3,81.7c0.2,0,0.4-0.1,0.7-0.1c0.3,0,0.5-0.1,0.7-0.2c0.2-0.1,0.3-0.2,0.4-0.4c0.1-0.2,0.1-0.3,0.1-0.5
			c0.1-0.2,0.1-0.5,0-0.7c0-0.2-0.1-0.4-0.3-0.5c-0.1-0.1-0.3-0.3-0.6-0.3s-0.5-0.1-0.9-0.1c-0.7,0-1.2,0.1-1.7,0.4
			c-0.5,0.3-0.8,0.8-1.1,1.5l-1,0c0.1-0.5,0.3-0.9,0.6-1.3c0.3-0.3,0.6-0.6,0.9-0.9c0.4-0.2,0.7-0.4,1.2-0.5
			c0.4-0.1,0.9-0.2,1.3-0.2c0.4,0,0.8,0,1.1,0.1c0.3,0.1,0.6,0.2,0.9,0.4c0.2,0.2,0.4,0.5,0.5,0.8c0.1,0.3,0.1,0.7,0,1.2l-0.9,4.5
			c-0.1,0.4-0.1,0.6,0,0.7c0.1,0.1,0.4,0.1,0.8-0.1l-0.2,0.8c-0.1,0-0.2,0.1-0.3,0.1c-0.2,0-0.3,0.1-0.4,0.1c-0.1,0-0.3,0-0.4,0
			c-0.3-0.1-0.5-0.2-0.5-0.4c0-0.2,0-0.5,0-0.8c-0.5,0.5-1,0.8-1.6,1s-1.2,0.4-1.8,0.4c-0.4,0-0.7,0-1-0.1c-0.3-0.1-0.6-0.2-0.8-0.4
			c-0.2-0.2-0.4-0.4-0.5-0.7c-0.1-0.3-0.1-0.6,0-1c0.3-1.4,1.4-2.2,3.4-2.5L146.3,81.7z M147.8,82.2c-0.4,0.2-0.9,0.3-1.3,0.3
			c-0.4,0.1-0.8,0.1-1.3,0.1c-0.7,0.1-1.4,0.2-1.8,0.5c-0.5,0.3-0.8,0.7-0.9,1.3c-0.1,0.3,0,0.5,0,0.7c0.1,0.2,0.2,0.3,0.3,0.5
			c0.1,0.1,0.3,0.2,0.5,0.3c0.2,0.1,0.4,0.1,0.6,0.1c0.4,0,0.8-0.1,1.1-0.2c0.4-0.1,0.7-0.2,1.1-0.4c0.3-0.2,0.6-0.5,0.8-0.8
			c0.2-0.3,0.4-0.7,0.5-1.1L147.8,82.2z"/>
		<path class="st11" d="M151.4,86.5l-1,0l1.7-8.3l1,0l-0.2,1.2c0.5-0.4,0.9-0.7,1.4-1c0.5-0.3,1-0.4,1.6-0.4c0.5,0,1,0.1,1.4,0.3
			c0.4,0.2,0.7,0.5,0.9,0.9c0.1,0.3,0.2,0.6,0.2,0.9c0,0.3-0.1,0.6-0.1,1l-1.1,5.4l-1,0l1.1-5.4c0.2-0.7,0.1-1.3-0.1-1.7
			c-0.3-0.4-0.8-0.6-1.5-0.6c-0.3,0-0.6,0-0.8,0.1c-0.3,0.1-0.5,0.2-0.7,0.4c-0.2,0.2-0.4,0.3-0.6,0.5c-0.2,0.2-0.3,0.4-0.4,0.6
			c-0.1,0.3-0.3,0.5-0.3,0.8c-0.1,0.2-0.1,0.5-0.2,0.8L151.4,86.5z"/>
		<path class="st11" d="M162.2,86.5c-0.1,0-0.3,0.1-0.5,0.1c-0.2,0.1-0.4,0.1-0.7,0.1c-0.5,0-0.8-0.1-1-0.4
			c-0.2-0.2-0.2-0.7-0.1-1.3l1.2-6.1l-1.2,0l0.2-0.8l1.2,0l0.5-2.3l1,0l-0.5,2.3l1.6,0l-0.2,0.8l-1.6,0l-1.2,5.7
			c0,0.2-0.1,0.4-0.1,0.5c0,0.1,0,0.3,0,0.4c0,0.1,0.1,0.2,0.2,0.2c0.1,0,0.3,0.1,0.5,0.1c0.1,0,0.3,0,0.4,0c0.1,0,0.3,0,0.4-0.1
			L162.2,86.5z"/>
		<path class="st11" d="M171.1,86.4c-0.1,0-0.3,0.1-0.5,0.1c-0.2,0.1-0.4,0.1-0.7,0.1c-0.5,0-0.8-0.1-1-0.4
			c-0.2-0.2-0.2-0.7-0.1-1.3l1.2-6.1l-1.2,0l0.2-0.8l1.2,0l0.5-2.3l1,0l-0.5,2.3l1.6,0l-0.2,0.8l-1.6,0l-1.2,5.7
			c0,0.2-0.1,0.4-0.1,0.5c0,0.1,0,0.3,0,0.4c0,0.1,0.1,0.2,0.2,0.2c0.1,0,0.3,0.1,0.5,0.1c0.1,0,0.3,0,0.4,0c0.1,0,0.3,0,0.4-0.1
			L171.1,86.4z"/>
		<path class="st11" d="M175.9,86.6c-0.5,0-1-0.1-1.4-0.3c-0.4-0.2-0.8-0.4-1-0.8c-0.3-0.4-0.5-0.8-0.5-1.4s-0.1-1.2,0.1-1.9
			c0.1-0.6,0.3-1.2,0.6-1.7c0.3-0.5,0.6-1,1-1.4s0.9-0.7,1.4-0.9c0.5-0.2,1.1-0.4,1.8-0.4c0.7,0,1.2,0.1,1.6,0.3
			c0.4,0.2,0.8,0.5,1,0.9s0.4,0.8,0.4,1.4c0,0.5,0,1.1-0.1,1.7c-0.1,0.7-0.3,1.3-0.6,1.8s-0.6,1-1.1,1.4c-0.4,0.4-0.9,0.7-1.4,0.9
			C177,86.5,176.5,86.6,175.9,86.6z M179.6,82.2c0.1-0.5,0.1-1,0.1-1.4s-0.1-0.8-0.3-1.1c-0.2-0.3-0.4-0.6-0.7-0.7
			c-0.3-0.2-0.7-0.3-1.2-0.3c-0.5,0-1,0.1-1.4,0.3c-0.4,0.2-0.7,0.5-1,0.8c-0.3,0.3-0.5,0.7-0.7,1.1c-0.2,0.4-0.3,0.9-0.4,1.3
			c-0.1,0.5-0.1,1-0.1,1.4c0,0.4,0.1,0.8,0.3,1.1c0.2,0.3,0.4,0.5,0.7,0.7c0.3,0.2,0.7,0.3,1.2,0.2c0.5,0,1-0.1,1.4-0.3
			c0.4-0.2,0.7-0.5,1-0.8c0.3-0.3,0.5-0.7,0.7-1.1C179.4,83.1,179.5,82.6,179.6,82.2z"/>
	</g>
	<g class="st13">
		<path class="st9" d="M35.9,100.3l-9.2,0.1l0,5.1l7.3,0l0,3.6l-7.3,0l0.1,9.2l-4.4,0l-0.1-21.8l13.6-0.1L35.9,100.3z"/>
		<path class="st9" d="M39.5,96.5l4.4,0l0.1,21.8l-4.4,0L39.5,96.5z"/>
		<path class="st9" d="M62.7,96.3l4.1,0l0.1,21.8l-4.2,0l-9.6-14.9l0.1,15l-4.1,0L49,96.4l4.2,0l9.6,15L62.7,96.3z"/>
		<path class="st9" d="M79.4,96.2c5.1,0,8.7,2.4,8.7,7.6l0,6.6c0,5.2-4,7.6-8.9,7.6l-7.7,0l-0.1-21.8L79.4,96.2z M83.7,104.2
			c0-2.9-1.9-4.2-4.3-4.2l-3.6,0l0.1,14.2l3.3,0c2.4,0,4.5-1.2,4.5-4.2L83.7,104.2z"/>
		<path class="st9" d="M110,95.9l7.3,21.9l-4.9,0l-1.5-5l-6.8,0l-1.4,5l-4.9,0l7.2-22L110,95.9z M110.1,109.3l-2.6-8.5l-2.5,8.5
			L110.1,109.3z"/>
		<path class="st9" d="M140.8,95.9l4.4,0l0.1,21.8l-4.4,0l-0.1-8.8l-9.2,0.1l0.1,8.8l-4.4,0L127.2,96l4.4,0l0.1,9.2l9.2-0.1
			L140.8,95.9z"/>
		<path class="st9" d="M167.4,102.5l0,8.2c0,4.7-3.5,7.2-8.6,7.2l-0.5,0c-5.2,0-8.7-2.4-8.7-7.1l0-8.2c0-4.4,3.7-7.1,8.6-7.2l0.5,0
			C163.6,95.4,167.4,98.1,167.4,102.5z M162.9,102.9c0-2.4-1.8-3.7-4.2-3.7l-0.5,0c-2.5,0-4.2,1.4-4.2,3.7l0,7.6
			c0,2.5,1.7,3.7,4.2,3.7l0.5,0c2.6,0,4.2-1.2,4.2-3.7L162.9,102.9z"/>
		<path class="st9" d="M176.4,95.7l6.5,12l6.4-12.1l4.8,0l0.1,21.8l-4.5,0l-0.1-15.2l-5.4,10.7l-2.7,0l-5.5-10.6l0.1,15.2l-4.4,0
			l-0.1-21.8L176.4,95.7z"/>
		<path class="st9" d="M203.2,108l0,5.5l9.9-0.1l0,3.7l-14.3,0.1l-0.1-21.8l13.6-0.1l0,3.8l-9.2,0.1l0,5.1l7.3,0l0,3.6L203.2,108z"
			/>
		<path class="st9" d="M228.5,99.8l0,1.1c0,2-1.5,3.1-2.9,4.2c-1.6,1.2-2.3,1.9-2.3,3.7l0,1.4l-4.3,0l0-1.9c0-1.9,0.8-3.1,2.4-4.2
			c1.2-0.9,2.5-1.8,2.4-2.7l0-0.8c0-1.2-1.2-1.6-2.9-1.6c-1.6,0-3.4,0.7-4.4,1.4l-1.5-3c1.7-1.2,4.1-2.2,6.5-2.2
			C225.9,95,228.5,96.5,228.5,99.8z M218.8,113.2l5.1,0l0,3.9l-5.1,0L218.8,113.2z"/>
	</g>
</g>
<g id="Layer_2" class="st14">
	<text transform="matrix(1 -6.010000e-03 6.010000e-03 1 68.952 87.2764)" class="st15 st16 st17">Do You Want to</text>
	<text transform="matrix(1 -6.010000e-03 6.010000e-03 1 19.8637 118.6398)" class="st18 st19 st20">FIND A HOME?</text>
</g>
</svg>
