<?xml version="1.0" encoding="utf-8"?>
<!-- Generator: Adobe Illustrator 21.0.2, SVG Export Plug-In . SVG Version: 6.00 Build 0)  -->
<svg version="1.1" id="Layer_1" xmlns="http://www.w3.org/2000/svg" xmlns:xlink="http://www.w3.org/1999/xlink" x="0px" y="0px"
	 viewBox="0 0 220 145" style="enable-background:new 0 0 220 145;" xml:space="preserve">
<style type="text/css">
	.st0{clip-path:url(#SVGID_2_);fill:#78A140;}
	.st1{clip-path:url(#SVGID_4_);fill:#BDD1A8;}
	.st2{clip-path:url(#SVGID_6_);fill:#7AA154;}
	.st3{clip-path:url(#SVGID_8_);fill:#7AA154;}
	.st4{fill:#7AA154;}
	.st5{clip-path:url(#SVGID_10_);fill:#7AA154;}
	.st6{clip-path:url(#SVGID_12_);fill:#7AA154;}
	.st7{clip-path:url(#SVGID_14_);fill:#7AA154;}
	.st8{clip-path:url(#SVGID_16_);fill:#7AA154;}
	.st9{clip-path:url(#SVGID_18_);fill:#7AA154;}
	.st10{clip-path:url(#SVGID_20_);fill:#7AA154;}
	.st11{clip-path:url(#SVGID_22_);fill:#7AA154;}
	.st12{clip-path:url(#SVGID_24_);fill:#7AA154;}
	.st13{clip-path:url(#SVGID_26_);fill:#7AA154;}
	.st14{clip-path:url(#SVGID_28_);fill:#7AA154;}
	.st15{clip-path:url(#SVGID_30_);fill:#7AA154;}
	.st16{fill:#77777A;}
	.st17{clip-path:url(#SVGID_32_);fill:#77777A;}
	.st18{clip-path:url(#SVGID_34_);fill:#77777A;}
	.st19{clip-path:url(#SVGID_36_);fill:#77777A;}
	.st20{clip-path:url(#SVGID_38_);fill:#77777A;}
	.st21{clip-path:url(#SVGID_40_);fill:#799900;}
	.st22{clip-path:url(#SVGID_42_);fill:#799900;}
	.st23{clip-path:url(#SVGID_44_);fill:#799900;}
	.st24{clip-path:url(#SVGID_46_);fill:#799900;}
	.st25{clip-path:url(#SVGID_48_);fill:#799900;}
	.st26{clip-path:url(#SVGID_50_);fill:#799900;}
	.st27{clip-path:url(#SVGID_52_);fill:#799900;}
	.st28{clip-path:url(#SVGID_54_);fill:#78A140;}
	.st29{clip-path:url(#SVGID_56_);fill:#BDD1A8;}
</style>
<g>
	<g>
		<g>
			<g>
				<defs>
					<rect id="SVGID_1_" x="19" width="180.2" height="144.1"/>
				</defs>
				<clipPath id="SVGID_2_">
					<use xlink:href="#SVGID_1_"  style="overflow:visible;"/>
				</clipPath>
				<path class="st0" d="M153.6,28.4c-12.5-12.8-29.9-19.7-47.8-19c-16.3,0.6-31.6,7.4-43,19L62.5,28C74,16.2,89.4,9.4,105.8,8.8
					c18-0.7,35.6,6.3,48.2,19.2L153.6,28.4z"/>
			</g>
		</g>
		<g>
			<g>
				<defs>
					<rect id="SVGID_3_" x="19" width="180.2" height="144.1"/>
				</defs>
				<clipPath id="SVGID_4_">
					<use xlink:href="#SVGID_3_"  style="overflow:visible;"/>
				</clipPath>
				<path class="st1" d="M164.7,27.3c-0.2,0-0.5,0.1-0.7,0.2c-0.5,0.4-0.6,1.1-0.2,1.5c0.2,0.3,0.5,0.4,0.9,0.4
					c0.2,0,0.5-0.1,0.7-0.2c0.5-0.4,0.6-1.1,0.2-1.5C165.3,27.5,165,27.3,164.7,27.3 M53.5,25.5c-0.3,0-0.6,0.1-0.8,0.4
					c-0.4,0.5-0.3,1.2,0.1,1.5c0.2,0.2,0.5,0.3,0.7,0.3c0.3,0,0.6-0.1,0.8-0.4c0.4-0.5,0.3-1.2-0.1-1.5C54,25.6,53.7,25.5,53.5,25.5
					 M161.9,24c-0.3,0-0.5,0.1-0.7,0.3c-0.5,0.4-0.5,1.1-0.1,1.5c0.2,0.2,0.5,0.4,0.8,0.4s0.5-0.1,0.7-0.3c0.4-0.4,0.5-1.1,0.1-1.6
					C162.5,24.1,162.2,24,161.9,24 M56.4,22.2c-0.3,0-0.6,0.1-0.8,0.3c-0.4,0.4-0.4,1.1,0,1.6c0.2,0.2,0.5,0.3,0.8,0.3
					s0.6-0.1,0.8-0.3c0.4-0.4,0.4-1.1,0-1.6C56.9,22.3,56.7,22.2,56.4,22.2 M158.9,20.8c-0.3,0-0.6,0.1-0.8,0.3
					c-0.4,0.4-0.4,1.1,0,1.6c0.2,0.2,0.5,0.3,0.8,0.3s0.6-0.1,0.8-0.3c0.4-0.4,0.4-1.1,0-1.6C159.4,20.9,159.1,20.8,158.9,20.8
					 M59.5,19.2c-0.3,0-0.5,0.1-0.7,0.3c-0.4,0.4-0.5,1.1-0.1,1.6c0.2,0.2,0.5,0.3,0.8,0.3s0.5-0.1,0.8-0.3c0.4-0.4,0.5-1.1,0.1-1.5
					C60.1,19.3,59.8,19.2,59.5,19.2 M155.6,17.8c-0.3,0-0.6,0.1-0.8,0.4c-0.4,0.5-0.3,1.1,0.1,1.5c0.2,0.2,0.5,0.3,0.7,0.3
					c0.3,0,0.6-0.1,0.8-0.4c0.4-0.5,0.4-1.2-0.1-1.6l0,0C156.2,17.9,155.9,17.8,155.6,17.8 M62.8,16.3c-0.2,0-0.5,0.1-0.7,0.2
					c-0.5,0.4-0.5,1.1-0.1,1.5c0.2,0.3,0.5,0.4,0.8,0.4c0.2,0,0.5-0.1,0.7-0.3c0.5-0.4,0.5-1.1,0.2-1.5
					C63.5,16.4,63.1,16.3,62.8,16.3 M152.3,15c-0.3,0-0.7,0.1-0.9,0.4c-0.4,0.5-0.3,1.2,0.2,1.5c0.2,0.1,0.4,0.2,0.7,0.2
					s0.7-0.1,0.9-0.4c0.4-0.5,0.3-1.2-0.2-1.5C152.7,15.1,152.5,15,152.3,15 M66.3,13.6c-0.2,0-0.5,0.1-0.6,0.2
					c-0.5,0.4-0.6,1-0.2,1.5c0.2,0.3,0.6,0.5,0.9,0.5c0.2,0,0.4-0.1,0.6-0.2c0.5-0.4,0.6-1,0.2-1.5C67,13.7,66.6,13.6,66.3,13.6
					 M148.7,12.4c-0.4,0-0.7,0.2-0.9,0.5c-0.3,0.5-0.2,1.2,0.3,1.5c0.2,0.1,0.4,0.2,0.6,0.2c0.3,0,0.7-0.2,0.9-0.5
					c0.3-0.5,0.2-1.2-0.3-1.5C149.1,12.5,148.9,12.4,148.7,12.4 M69.9,11.1c-0.2,0-0.4,0.1-0.6,0.2c-0.5,0.3-0.7,1-0.3,1.5
					c0.2,0.3,0.6,0.5,0.9,0.5c0.2,0,0.4-0.1,0.6-0.2c0.5-0.3,0.7-1,0.3-1.5C70.7,11.3,70.3,11.1,69.9,11.1 M145,10.1
					c-0.4,0-0.7,0.2-0.9,0.5c-0.3,0.5-0.1,1.2,0.4,1.5c0.2,0.1,0.4,0.2,0.6,0.2c0.4,0,0.7-0.2,0.9-0.5c0.3-0.5,0.1-1.2-0.4-1.5
					C145.4,10.1,145.2,10.1,145,10.1 M73.7,8.9c-0.2,0-0.4,0-0.5,0.1c-0.5,0.3-0.7,1-0.4,1.5c0.2,0.4,0.6,0.6,1,0.6
					c0.2,0,0.4,0,0.5-0.1c0.5-0.3,0.7-1,0.4-1.5C74.5,9.1,74.1,8.9,73.7,8.9 M141.2,7.9c-0.4,0-0.8,0.2-1,0.6
					c-0.3,0.5-0.1,1.2,0.5,1.5l0,0c0.2,0.1,0.3,0.1,0.5,0.1c0.4,0,0.8-0.2,1-0.6c0.3-0.5,0.1-1.2-0.5-1.5l0,0
					C141.5,8,141.3,7.9,141.2,7.9 M77.6,6.9c-0.2,0-0.3,0-0.5,0.1c-0.6,0.3-0.8,0.9-0.5,1.5c0.2,0.4,0.6,0.6,1,0.6
					c0.2,0,0.3,0,0.5-0.1c0.6-0.3,0.8-0.9,0.5-1.5C78.4,7.1,78,6.9,77.6,6.9 M137.2,6c-0.4,0-0.8,0.2-1,0.7c-0.2,0.6,0,1.2,0.6,1.4
					c0.1,0.1,0.3,0.1,0.4,0.1c0.4,0,0.8-0.2,1-0.7c0.2-0.6,0-1.2-0.6-1.5C137.5,6.1,137.4,6,137.2,6 M81.6,5.1c-0.1,0-0.3,0-0.4,0.1
					c-0.6,0.2-0.8,0.9-0.6,1.4c0.2,0.4,0.6,0.7,1,0.7c0.1,0,0.3,0,0.4-0.1c0.6-0.2,0.8-0.9,0.6-1.4C82.5,5.4,82.1,5.1,81.6,5.1
					 M133.1,4.4c-0.4,0-0.9,0.3-1,0.7c-0.2,0.6,0.1,1.2,0.6,1.4c0.1,0.1,0.3,0.1,0.4,0.1c0.4,0,0.9-0.3,1-0.7
					c0.2-0.6-0.1-1.2-0.6-1.4C133.4,4.4,133.3,4.4,133.1,4.4 M85.8,3.6c-0.1,0-0.2,0-0.3,0.1c-0.6,0.2-0.9,0.8-0.7,1.4
					c0.2,0.5,0.6,0.8,1,0.8c0.1,0,0.2,0,0.3-0.1C86.7,5.6,87,5,86.8,4.4C86.7,3.9,86.2,3.6,85.8,3.6 M129,3c-0.5,0-0.9,0.3-1,0.8
					c-0.2,0.6,0.1,1.2,0.7,1.4c0.1,0,0.2,0,0.3,0c0.5,0,0.9-0.3,1-0.8c0.2-0.6-0.1-1.2-0.7-1.4l0,0C129.2,3,129.1,3,129,3 M90,2.4
					c-0.1,0-0.2,0-0.3,0c-0.6,0.2-0.9,0.8-0.8,1.3C89,4.2,89.5,4.6,90,4.6c0.1,0,0.2,0,0.3,0c0.6-0.2,0.9-0.8,0.8-1.3
					C90.9,2.7,90.5,2.4,90,2.4 M124.8,1.9c-0.5,0-1,0.3-1.1,0.8c-0.1,0.6,0.2,1.2,0.8,1.3l0,0c0.1,0,0.2,0,0.2,0
					c0.5,0,1-0.3,1.1-0.9s-0.2-1.2-0.8-1.3C124.9,1.9,124.8,1.9,124.8,1.9 M94.3,1.4c-0.1,0-0.1,0-0.2,0l0,0c-0.6,0.1-1,0.7-0.9,1.3
					c0.1,0.5,0.6,0.9,1.1,0.9c0.1,0,0.1,0,0.2,0c0.6-0.1,1-0.7,0.9-1.3C95.2,1.7,94.8,1.4,94.3,1.4 M120.4,1c-0.5,0-1,0.4-1.1,0.9
					c-0.1,0.6,0.3,1.2,0.9,1.3h0.2c0.5,0,1-0.4,1.1-0.9c0.1-0.6-0.3-1.2-0.9-1.3C120.6,1,120.5,1,120.4,1 M98.6,0.7c0,0-0.1,0-0.2,0
					c-0.6,0.1-1,0.6-0.9,1.2s0.5,0.9,1.1,0.9h0.1c0.6-0.1,1-0.6,0.9-1.2C99.6,1.1,99.1,0.7,98.6,0.7 M116.1,0.4c-0.6,0-1,0.4-1.1,1
					s0.4,1.1,1,1.2h0.1c0.5,0,1-0.4,1.1-1S116.8,0.5,116.1,0.4C116.2,0.4,116.1,0.4,116.1,0.4 M103,0.2C102.9,0.2,102.9,0.2,103,0.2
					c-0.7,0-1.1,0.6-1.1,1.2s0.5,1,1.1,1h0.1c0.6,0,1.1-0.6,1-1.2S103.5,0.2,103,0.2 M111.7,0.1c-0.6,0-1.1,0.5-1.1,1
					c0,0.6,0.4,1.1,1,1.1l0,0c0.6,0,1.1-0.5,1.1-1C112.8,0.6,112.4,0.1,111.7,0.1C111.8,0.1,111.7,0.1,111.7,0.1 M107.3,0L107.3,0
					c-0.6,0-1.1,0.5-1.1,1.1s0.5,1.1,1.1,1.1l0,0c0.6,0,1.1-0.5,1.1-1.1S107.9,0,107.3,0"/>
			</g>
		</g>
		<g>
			<g>
				<defs>
					<rect id="SVGID_5_" x="19" width="180.2" height="144.1"/>
				</defs>
				<clipPath id="SVGID_6_">
					<use xlink:href="#SVGID_5_"  style="overflow:visible;"/>
				</clipPath>
				<path class="st2" d="M48,44.3l0.2-0.8h4.2l-1.1,5.1h-0.8l0.4-1.7c-0.5,0.6-1,1.1-1.7,1.4c-0.6,0.4-1.5,0.5-2.4,0.5
					c-0.6,0-1.2-0.1-1.7-0.3s-0.9-0.5-1.2-1c-0.3-0.4-0.5-1-0.5-1.6c-0.1-0.7,0-1.4,0.2-2.3c0.2-0.7,0.4-1.4,0.7-2s0.7-1.2,1.2-1.6
					c0.5-0.5,1-0.8,1.7-1.1c0.6-0.3,1.3-0.4,2.1-0.4c0.5,0,1,0.1,1.4,0.2c0.4,0.1,0.8,0.3,1.1,0.6s0.5,0.6,0.7,1s0.2,0.8,0.2,1.4h-1
					c0-0.4-0.1-0.7-0.2-1c-0.1-0.3-0.3-0.5-0.6-0.7c-0.2-0.2-0.5-0.3-0.8-0.5c-0.3-0.1-0.7-0.2-1-0.2c-0.6,0-1.2,0.1-1.7,0.3
					s-1,0.5-1.4,1c-0.4,0.4-0.7,0.9-1,1.5s-0.5,1.2-0.6,1.9c-0.1,0.5-0.2,1.1-0.1,1.6s0.2,0.9,0.4,1.3c0.2,0.4,0.5,0.7,0.9,0.9
					s0.9,0.3,1.4,0.3c0.3,0,0.5,0,0.8-0.1s0.6-0.2,0.9-0.3s0.6-0.3,0.9-0.5c0.3-0.2,0.5-0.5,0.8-0.8c0.2-0.3,0.4-0.6,0.5-1
					c0.1-0.3,0.2-0.7,0.3-1.1C51.2,44.3,48,44.3,48,44.3z"/>
			</g>
		</g>
		<g>
			<g>
				<defs>
					<rect id="SVGID_7_" x="19" width="180.2" height="144.1"/>
				</defs>
				<clipPath id="SVGID_8_">
					<use xlink:href="#SVGID_7_"  style="overflow:visible;"/>
				</clipPath>
				<path class="st3" d="M58.3,44.5c0.2,0,0.3,0,0.6-0.1c0.2,0,0.4-0.1,0.6-0.2c0.2-0.1,0.3-0.2,0.3-0.3c0.1-0.2,0.1-0.3,0.1-0.4
					c0-0.2,0.1-0.4,0-0.6c0-0.2-0.1-0.3-0.2-0.5c-0.1-0.1-0.3-0.2-0.5-0.3S58.7,42,58.4,42c-0.6,0-1.1,0.1-1.5,0.3s-0.7,0.6-0.9,1.3
					h-0.8c0.1-0.4,0.3-0.8,0.5-1.1s0.5-0.5,0.8-0.7s0.6-0.3,1-0.4c0.4-0.1,0.7-0.1,1.1-0.1c0.4,0,0.7,0,1,0.1s0.5,0.2,0.7,0.4
					s0.3,0.4,0.4,0.7c0.1,0.3,0.1,0.6,0,1l-0.8,3.9c-0.1,0.3-0.1,0.5,0,0.6s0.3,0.1,0.7-0.1l-0.1,0.6c-0.1,0-0.2,0-0.3,0.1
					c-0.1,0-0.3,0.1-0.4,0.1c-0.1,0-0.2,0-0.4,0c-0.3,0-0.4-0.2-0.5-0.4c0-0.2,0-0.4,0-0.7c-0.4,0.4-0.9,0.7-1.4,0.9s-1,0.3-1.5,0.3
					c-0.3,0-0.6,0-0.9-0.1c-0.3-0.1-0.5-0.2-0.7-0.4s-0.3-0.4-0.4-0.6c-0.1-0.3-0.1-0.5,0-0.9c0.2-1.2,1.2-1.9,2.9-2.1L58.3,44.5z
					 M59.6,44.9c-0.4,0.1-0.8,0.2-1.1,0.3c-0.4,0-0.7,0.1-1.1,0.1c-0.6,0-1.2,0.2-1.6,0.4c-0.4,0.2-0.7,0.6-0.8,1.1
					c0,0.2,0,0.4,0,0.6c0.1,0.2,0.1,0.3,0.3,0.4c0.1,0.1,0.3,0.2,0.4,0.2c0.2,0.1,0.4,0.1,0.5,0.1c0.3,0,0.7,0,1-0.1
					s0.6-0.2,0.9-0.4c0.3-0.2,0.5-0.4,0.7-0.6c0.2-0.3,0.3-0.6,0.4-0.9L59.6,44.9z"/>
			</g>
		</g>
	</g>
	<path class="st4" d="M62.6,48.6l1.5-7.1h0.8l-1.5,7.1H62.6z M64.4,40l0.3-1.2h0.9L65.3,40H64.4z"/>
	<g>
		<g>
			<g>
				<defs>
					<rect id="SVGID_9_" x="19" width="180.2" height="144.1"/>
				</defs>
				<clipPath id="SVGID_10_">
					<use xlink:href="#SVGID_9_"  style="overflow:visible;"/>
				</clipPath>
				<path class="st5" d="M67,48.6h-0.8l1.5-7.1h0.8l-0.2,1c0.4-0.3,0.8-0.6,1.2-0.8s0.8-0.3,1.3-0.3c0.4,0,0.8,0.1,1.2,0.2
					c0.3,0.2,0.6,0.4,0.8,0.8c0.1,0.3,0.2,0.5,0.1,0.8c0,0.3-0.1,0.5-0.1,0.8l-1,4.6H71l1-4.6c0.1-0.6,0.1-1.1-0.1-1.4
					c-0.2-0.3-0.6-0.5-1.3-0.5c-0.3,0-0.5,0-0.7,0.1s-0.4,0.2-0.6,0.3s-0.4,0.3-0.5,0.4c-0.2,0.2-0.3,0.3-0.4,0.5s-0.2,0.4-0.3,0.7
					c-0.1,0.2-0.1,0.4-0.2,0.7L67,48.6z"/>
			</g>
		</g>
	</g>
	<path class="st4" d="M78.2,48.6l6-9.8h1.1l1.7,9.8h-1l-0.5-3.1H81l-1.8,3.1H78.2z M81.4,44.7h3.9l-0.8-5.2L81.4,44.7z"/>
	<g>
		<g>
			<g>
				<defs>
					<rect id="SVGID_11_" x="19" width="180.2" height="144.1"/>
				</defs>
				<clipPath id="SVGID_12_">
					<use xlink:href="#SVGID_11_"  style="overflow:visible;"/>
				</clipPath>
				<path class="st6" d="M94.8,43.8c0-0.5-0.2-0.9-0.5-1.2s-0.7-0.4-1.3-0.4c-0.4,0-0.8,0.1-1.1,0.3c-0.3,0.2-0.6,0.4-0.9,0.7
					s-0.5,0.6-0.6,1c-0.2,0.4-0.3,0.7-0.4,1.1c-0.1,0.4-0.1,0.7-0.1,1.1c0,0.4,0.1,0.7,0.2,1s0.3,0.5,0.6,0.7c0.3,0.2,0.6,0.3,1,0.3
					c0.6,0,1.1-0.2,1.6-0.5c0.4-0.3,0.8-0.8,1-1.4h0.9c-0.2,0.4-0.3,0.8-0.6,1.1c-0.2,0.3-0.5,0.6-0.8,0.8s-0.6,0.4-1,0.5
					s-0.8,0.2-1.2,0.2c-0.6,0-1-0.1-1.4-0.3s-0.7-0.5-0.8-0.8c-0.2-0.3-0.3-0.7-0.3-1.2s0-0.9,0.1-1.5c0.1-0.5,0.3-1,0.5-1.4
					c0.2-0.5,0.5-0.8,0.9-1.2c0.3-0.3,0.7-0.6,1.2-0.8s0.9-0.3,1.5-0.3c0.8,0,1.4,0.2,1.9,0.6c0.4,0.4,0.6,1,0.6,1.8h-1L94.8,43.8
					L94.8,43.8z"/>
			</g>
		</g>
		<g>
			<g>
				<defs>
					<rect id="SVGID_13_" x="19" width="180.2" height="144.1"/>
				</defs>
				<clipPath id="SVGID_14_">
					<use xlink:href="#SVGID_13_"  style="overflow:visible;"/>
				</clipPath>
				<path class="st7" d="M103.1,43.8c0-0.5-0.2-0.9-0.5-1.2s-0.7-0.4-1.3-0.4c-0.4,0-0.8,0.1-1.1,0.3c-0.3,0.2-0.6,0.4-0.9,0.7
					s-0.5,0.6-0.6,1c-0.2,0.4-0.3,0.7-0.4,1.1c-0.1,0.4-0.1,0.7-0.1,1.1c0,0.4,0.1,0.7,0.2,1s0.3,0.5,0.6,0.7c0.3,0.2,0.6,0.3,1,0.3
					c0.6,0,1.1-0.2,1.6-0.5c0.4-0.3,0.8-0.8,1-1.4h0.9c-0.2,0.4-0.3,0.8-0.6,1.1c-0.2,0.3-0.5,0.6-0.8,0.8s-0.6,0.4-1,0.5
					s-0.8,0.2-1.2,0.2c-0.6,0-1-0.1-1.4-0.3s-0.7-0.5-0.8-0.8c-0.2-0.3-0.3-0.7-0.3-1.2s0-0.9,0.1-1.5c0.1-0.5,0.3-1,0.5-1.4
					c0.2-0.5,0.5-0.8,0.9-1.2c0.3-0.3,0.7-0.6,1.2-0.8s0.9-0.3,1.5-0.3c0.8,0,1.4,0.2,1.9,0.6c0.4,0.4,0.6,1,0.6,1.8h-1L103.1,43.8
					L103.1,43.8z"/>
			</g>
		</g>
		<g>
			<g>
				<defs>
					<rect id="SVGID_15_" x="19" width="180.2" height="144.1"/>
				</defs>
				<clipPath id="SVGID_16_">
					<use xlink:href="#SVGID_15_"  style="overflow:visible;"/>
				</clipPath>
				<path class="st8" d="M106.5,45.3c-0.1,0.4-0.1,0.7-0.1,1.1c0,0.3,0.1,0.6,0.3,0.9c0.1,0.3,0.4,0.5,0.6,0.6
					c0.3,0.2,0.6,0.2,1,0.2c0.5,0,1-0.1,1.5-0.4c0.4-0.3,0.8-0.7,1-1.2h0.9c-0.2,0.3-0.4,0.6-0.6,0.9c-0.2,0.3-0.5,0.5-0.8,0.8
					c-0.3,0.2-0.6,0.4-1,0.5s-0.8,0.2-1.2,0.2c-0.6,0-1-0.1-1.4-0.3s-0.7-0.5-0.8-0.8c-0.2-0.3-0.3-0.7-0.3-1.2s0-0.9,0.1-1.5
					c0.1-0.5,0.3-1,0.5-1.5s0.5-0.9,0.9-1.2s0.7-0.6,1.2-0.8c0.4-0.2,0.9-0.3,1.4-0.3c1,0,1.7,0.3,2.1,1s0.5,1.6,0.2,2.9L106.5,45.3
					L106.5,45.3z M111.3,44.6c0.1-0.3,0.1-0.7,0.1-1s-0.1-0.6-0.3-0.8c-0.1-0.2-0.3-0.4-0.6-0.5c-0.3-0.1-0.6-0.2-0.9-0.2
					c-0.4,0-0.7,0.1-1,0.2c-0.3,0.1-0.6,0.3-0.8,0.5c-0.2,0.2-0.5,0.5-0.6,0.8c-0.2,0.3-0.3,0.6-0.4,1H111.3z"/>
			</g>
		</g>
		<g>
			<g>
				<defs>
					<rect id="SVGID_17_" x="19" width="180.2" height="144.1"/>
				</defs>
				<clipPath id="SVGID_18_">
					<use xlink:href="#SVGID_17_"  style="overflow:visible;"/>
				</clipPath>
				<path class="st9" d="M114.5,46.4c0,0.6,0.2,1,0.4,1.3c0.3,0.3,0.7,0.4,1.3,0.4c0.3,0,0.6,0,0.8-0.1c0.2-0.1,0.4-0.2,0.6-0.3
					s0.3-0.3,0.4-0.4c0.1-0.2,0.2-0.3,0.2-0.5c0.1-0.3,0-0.6-0.2-0.8s-0.4-0.3-0.8-0.4s-0.7-0.2-1-0.2c-0.4-0.1-0.7-0.2-1-0.3
					s-0.5-0.3-0.7-0.6s-0.2-0.6-0.1-1.1c0.1-0.6,0.4-1.1,1-1.5c0.5-0.4,1.2-0.6,2-0.6s1.4,0.2,1.8,0.5s0.6,0.9,0.5,1.7h-0.8
					c0-0.5-0.1-0.9-0.4-1.2c-0.3-0.2-0.7-0.3-1.2-0.3s-0.9,0.1-1.3,0.3c-0.3,0.2-0.5,0.5-0.6,0.9c-0.1,0.2,0,0.4,0.1,0.6
					c0.1,0.2,0.2,0.3,0.4,0.4c0.2,0.1,0.4,0.2,0.7,0.3c0.3,0.1,0.5,0.1,0.8,0.2c0.3,0.1,0.5,0.1,0.8,0.2c0.3,0.1,0.5,0.2,0.6,0.4
					c0.2,0.2,0.3,0.3,0.4,0.6c0.1,0.2,0.1,0.5,0,0.8s-0.2,0.6-0.4,0.9c-0.2,0.3-0.4,0.5-0.7,0.6c-0.3,0.2-0.6,0.3-1,0.4
					c-0.4,0.1-0.8,0.1-1.2,0.1c-0.4,0-0.8-0.1-1.1-0.2c-0.3-0.1-0.5-0.3-0.7-0.5s-0.3-0.5-0.4-0.8s-0.1-0.6,0-0.9L114.5,46.4
					L114.5,46.4z"/>
			</g>
		</g>
		<g>
			<g>
				<defs>
					<rect id="SVGID_19_" x="19" width="180.2" height="144.1"/>
				</defs>
				<clipPath id="SVGID_20_">
					<use xlink:href="#SVGID_19_"  style="overflow:visible;"/>
				</clipPath>
				<path class="st10" d="M122.1,46.4c0,0.6,0.2,1,0.4,1.3c0.3,0.3,0.7,0.4,1.3,0.4c0.3,0,0.6,0,0.8-0.1c0.2-0.1,0.4-0.2,0.6-0.3
					s0.3-0.3,0.4-0.4c0.1-0.2,0.2-0.3,0.2-0.5c0.1-0.3,0-0.6-0.2-0.8s-0.4-0.3-0.8-0.4s-0.7-0.2-1-0.2c-0.4-0.1-0.7-0.2-1-0.3
					s-0.5-0.3-0.7-0.6s-0.2-0.6-0.1-1.1c0.1-0.6,0.4-1.1,1-1.5c0.5-0.4,1.2-0.6,2-0.6s1.4,0.2,1.8,0.5s0.6,0.9,0.5,1.7h-0.8
					c0-0.5-0.1-0.9-0.4-1.2c-0.3-0.2-0.7-0.3-1.2-0.3s-0.9,0.1-1.3,0.3c-0.3,0.2-0.5,0.5-0.6,0.9c-0.1,0.2,0,0.4,0.1,0.6
					c0.1,0.2,0.2,0.3,0.4,0.4c0.2,0.1,0.4,0.2,0.7,0.3c0.3,0.1,0.5,0.1,0.8,0.2c0.3,0.1,0.5,0.1,0.8,0.2c0.3,0.1,0.5,0.2,0.6,0.4
					c0.2,0.2,0.3,0.3,0.4,0.6c0.1,0.2,0.1,0.5,0,0.8s-0.2,0.6-0.4,0.9c-0.2,0.3-0.4,0.5-0.7,0.6c-0.3,0.2-0.6,0.3-1,0.4
					c-0.4,0.1-0.8,0.1-1.2,0.1c-0.4,0-0.8-0.1-1.1-0.2c-0.3-0.1-0.5-0.3-0.7-0.5s-0.3-0.5-0.4-0.8s-0.1-0.6,0-0.9L122.1,46.4
					L122.1,46.4z"/>
			</g>
		</g>
		<g>
			<g>
				<defs>
					<rect id="SVGID_21_" x="19" width="180.2" height="144.1"/>
				</defs>
				<clipPath id="SVGID_22_">
					<use xlink:href="#SVGID_21_"  style="overflow:visible;"/>
				</clipPath>
				<path class="st11" d="M135.6,48.7c-0.1,0-0.2,0-0.4,0.1c-0.2,0-0.4,0.1-0.6,0.1c-0.4,0-0.7-0.1-0.9-0.3s-0.2-0.6-0.1-1.1
					l1.1-5.2h-1l0.2-0.7h1l0.4-2h0.8l-0.4,2h1.3l-0.2,0.7h-1.3l-1,4.9c0,0.2-0.1,0.3-0.1,0.5c0,0.1,0,0.2,0,0.3s0.1,0.1,0.2,0.2
					c0.1,0,0.2,0.1,0.4,0.1c0.1,0,0.2,0,0.3,0s0.2,0,0.3-0.1V48.7z"/>
			</g>
		</g>
		<g>
			<g>
				<defs>
					<rect id="SVGID_23_" x="19" width="180.2" height="144.1"/>
				</defs>
				<clipPath id="SVGID_24_">
					<use xlink:href="#SVGID_23_"  style="overflow:visible;"/>
				</clipPath>
				<path class="st12" d="M140.4,48.8c-0.5,0-0.9-0.1-1.2-0.2c-0.4-0.2-0.7-0.4-0.9-0.7s-0.4-0.7-0.5-1.2s0-1,0.1-1.6
					c0.1-0.5,0.3-1,0.5-1.5s0.5-0.8,0.9-1.2c0.3-0.3,0.7-0.6,1.2-0.8s1-0.3,1.5-0.3c0.6,0,1,0.1,1.4,0.3s0.7,0.5,0.9,0.8
					s0.3,0.7,0.4,1.2c0,0.5,0,0.9-0.1,1.5s-0.3,1.1-0.6,1.5c-0.3,0.5-0.6,0.8-0.9,1.2c-0.4,0.3-0.8,0.6-1.2,0.8
					C141.4,48.7,140.9,48.8,140.4,48.8 M143.6,45.1c0.1-0.4,0.1-0.8,0.1-1.2s-0.1-0.7-0.2-0.9c-0.1-0.3-0.3-0.5-0.6-0.6
					c-0.3-0.2-0.6-0.2-1.1-0.2c-0.4,0-0.8,0.1-1.2,0.3c-0.3,0.2-0.6,0.4-0.9,0.7c-0.3,0.3-0.5,0.6-0.6,1c-0.2,0.4-0.3,0.7-0.4,1.1
					c-0.1,0.4-0.1,0.8-0.1,1.2s0.1,0.7,0.3,1c0.1,0.3,0.4,0.5,0.6,0.6c0.3,0.1,0.6,0.2,1,0.2s0.8-0.1,1.2-0.3
					c0.3-0.2,0.6-0.4,0.9-0.7s0.5-0.6,0.6-1C143.4,45.8,143.5,45.5,143.6,45.1"/>
			</g>
		</g>
		<g>
			<g>
				<defs>
					<rect id="SVGID_25_" x="19" width="180.2" height="144.1"/>
				</defs>
				<clipPath id="SVGID_26_">
					<use xlink:href="#SVGID_25_"  style="overflow:visible;"/>
				</clipPath>
				<path class="st13" d="M151.2,43.7c0.1-0.7,0.4-1.4,0.7-2s0.7-1.2,1.2-1.6c0.5-0.5,1-0.8,1.7-1.1c0.6-0.3,1.3-0.4,2-0.4
					c0.8,0,1.4,0.1,1.9,0.4c0.5,0.3,0.9,0.6,1.2,1.1s0.5,1,0.5,1.7c0.1,0.6,0,1.3-0.1,2c-0.2,0.7-0.4,1.4-0.7,2s-0.7,1.2-1.2,1.6
					c-0.5,0.5-1,0.8-1.7,1.1c-0.6,0.3-1.3,0.4-2.1,0.4s-1.4-0.1-1.9-0.4c-0.5-0.3-0.9-0.6-1.2-1.1s-0.5-1-0.5-1.6
					C151,45.1,151,44.4,151.2,43.7 M154.8,48.1c0.6,0,1.2-0.1,1.7-0.4c0.5-0.2,1-0.6,1.3-1c0.4-0.4,0.7-0.9,1-1.4s0.4-1.1,0.6-1.7
					c0.1-0.7,0.2-1.3,0.1-1.8c-0.1-0.5-0.2-1-0.4-1.4s-0.6-0.7-1-0.9s-0.9-0.3-1.5-0.3s-1.2,0.1-1.7,0.4c-0.5,0.2-1,0.6-1.3,1
					c-0.4,0.4-0.7,0.9-1,1.4s-0.4,1.1-0.6,1.7c-0.1,0.6-0.2,1.1-0.1,1.7c0,0.5,0.2,1,0.4,1.4s0.5,0.7,0.9,1
					C153.7,48,154.2,48.1,154.8,48.1"/>
			</g>
		</g>
		<g>
			<g>
				<defs>
					<rect id="SVGID_27_" x="19" width="180.2" height="144.1"/>
				</defs>
				<clipPath id="SVGID_28_">
					<use xlink:href="#SVGID_27_"  style="overflow:visible;"/>
				</clipPath>
				<path class="st14" d="M168,41.5h0.8l-1.5,7.1h-0.8l0.2-1c-0.1,0.1-0.3,0.3-0.5,0.4c-0.2,0.1-0.3,0.3-0.6,0.4
					c-0.2,0.1-0.4,0.2-0.7,0.3c-0.2,0.1-0.5,0.1-0.8,0.1c-0.5,0-0.9-0.1-1.1-0.2c-0.3-0.1-0.5-0.3-0.7-0.6c-0.1-0.2-0.2-0.5-0.2-0.8
					s0-0.7,0.1-1l1-4.7h0.8l-1,4.6c-0.1,0.6-0.1,1.1,0.1,1.4c0.2,0.3,0.6,0.5,1.3,0.5c0.3,0,0.7-0.1,1-0.2c0.3-0.1,0.6-0.3,0.8-0.6
					c0.2-0.2,0.4-0.5,0.6-0.8c0.2-0.3,0.3-0.7,0.4-1.1L168,41.5z"/>
			</g>
		</g>
		<g>
			<g>
				<defs>
					<rect id="SVGID_29_" x="19" width="180.2" height="144.1"/>
				</defs>
				<clipPath id="SVGID_30_">
					<use xlink:href="#SVGID_29_"  style="overflow:visible;"/>
				</clipPath>
				<path class="st15" d="M170.9,48.6H170l1.5-7.1h0.8l-0.3,1.3l0,0c0.3-0.6,0.7-1,1.1-1.2c0.4-0.2,0.9-0.3,1.5-0.3l-0.2,0.9
					c-0.5,0-0.9,0.1-1.2,0.2c-0.3,0.2-0.6,0.4-0.8,0.6c-0.2,0.3-0.4,0.6-0.6,0.9c-0.2,0.4-0.3,0.7-0.3,1.1L170.9,48.6z"/>
			</g>
		</g>
	</g>
	<rect x="19" y="59.9" class="st16" width="2.4" height="21"/>
	<polygon class="st16" points="41.4,59.9 43.8,59.9 43.8,80.9 41.3,80.9 29.9,63.6 29.9,80.9 27.5,80.9 27.5,59.9 30.1,59.9 
		41.4,77.2 	"/>
	<g>
		<g>
			<g>
				<defs>
					<rect id="SVGID_31_" x="19" width="180.2" height="144.1"/>
				</defs>
				<clipPath id="SVGID_32_">
					<use xlink:href="#SVGID_31_"  style="overflow:visible;"/>
				</clipPath>
				<path class="st17" d="M62.8,75.6c0,3.6-2.9,5.6-6.9,5.6c-3.1,0-6-1.2-7.7-3.4l1.4-1.5c1.4,1.9,3.8,2.8,6.2,2.8
					c2.7,0,4.5-1.2,4.5-3.4c0-2.3-1.3-3.2-5-4.3c-4-1.2-6.5-2.8-6.5-6.2c0-3.7,3-5.6,6.9-5.6c3,0,5.3,1,7,2.8L61.4,64
					c-1.4-1.4-3.2-2.3-5.6-2.3c-2.6,0-4.5,1.1-4.5,3.3c0,2.3,1.8,3.2,5.3,4.3C60.7,70.6,62.8,72.2,62.8,75.6"/>
			</g>
		</g>
		<g>
			<g>
				<defs>
					<rect id="SVGID_33_" x="19" width="180.2" height="144.1"/>
				</defs>
				<clipPath id="SVGID_34_">
					<use xlink:href="#SVGID_33_"  style="overflow:visible;"/>
				</clipPath>
				<path class="st18" d="M79.4,65.9c0-2.3-1.6-3.8-4.5-3.8h-5.2v8.6H75c2.8,0,4.5-1.1,4.5-3.5L79.4,65.9L79.4,65.9z M75.1,59.9
					c4.3,0,6.8,2.2,6.8,5.8v1.7c0,3.6-2.6,5.4-6.8,5.4h-5.4v8.1h-2.4v-21H75.1z"/>
			</g>
		</g>
	</g>
	<rect x="86.6" y="59.9" class="st16" width="2.4" height="21"/>
	<g>
		<g>
			<g>
				<defs>
					<rect id="SVGID_35_" x="19" width="180.2" height="144.1"/>
				</defs>
				<clipPath id="SVGID_36_">
					<use xlink:href="#SVGID_35_"  style="overflow:visible;"/>
				</clipPath>
				<path class="st19" d="M97.7,70h5.8c2-0.1,3.7-1.1,3.7-3.3v-1.3c0-2-1.5-3.3-4-3.3h-5.5V70z M105.3,71.5l4.9,9.4h-2.7l-4.5-8.8
					h-5.4V81h-2.4V60h8.2c3.9,0,6.3,2,6.3,5.5v1.2C109.6,69.3,108,71,105.3,71.5"/>
			</g>
		</g>
	</g>
	<path class="st16" d="M124.4,72.5l-3.4-9.7l-3.5,9.7H124.4z M122.4,59.7l7.5,21.3h-2.7l-2.1-6.3h-8l-2.2,6.3h-2.7l7.6-21.3H122.4z"
		/>
	<polygon class="st16" points="129.5,62.1 129.5,59.9 146.1,59.9 146.1,62.1 138.9,62.1 138.9,80.9 136.5,80.9 136.5,62.1 	"/>
	<rect x="149.9" y="59.9" class="st16" width="2.4" height="21"/>
	<g>
		<g>
			<g>
				<defs>
					<rect id="SVGID_37_" x="19" width="180.2" height="144.1"/>
				</defs>
				<clipPath id="SVGID_38_">
					<use xlink:href="#SVGID_37_"  style="overflow:visible;"/>
				</clipPath>
				<path class="st20" d="M171.7,66.5c0-2.9-2.3-4.7-5.5-4.7h-0.5c-3.1,0-5.3,1.8-5.3,4.7v7.8c0,3.1,2.1,4.7,5.3,4.7h0.5
					c3.3,0,5.5-1.6,5.5-4.7V66.5z M174.1,66.4v8.1c0,4.3-3.2,6.8-8,6.8h-0.5c-4.6,0-7.8-2.4-7.8-6.8v-8.1c0-4.2,3.3-6.8,7.8-6.8h0.5
					C170.8,59.6,174.1,62.2,174.1,66.4"/>
			</g>
		</g>
	</g>
	<polygon class="st16" points="192.8,59.9 195.2,59.9 195.2,80.9 192.7,80.9 181.2,63.6 181.2,80.9 178.9,80.9 178.9,59.9 
		181.5,59.9 192.8,77.2 	"/>
	<polygon class="st16" points="191.5,84.8 191.5,84.6 193.1,84.6 193.1,84.8 192.4,84.8 192.4,86.6 192.2,86.6 192.2,84.8 	"/>
	<polygon class="st16" points="193.2,84.6 193.9,85.8 194.6,84.6 194.9,84.6 194.9,86.6 194.6,86.6 194.6,85 194,86.1 193.9,86.1 
		193.2,85 193.2,86.6 193,86.6 193,84.6 	"/>
	<g>
		<g>
			<g>
				<defs>
					<rect id="SVGID_39_" x="19" width="180.2" height="144.1"/>
				</defs>
				<clipPath id="SVGID_40_">
					<use xlink:href="#SVGID_39_"  style="overflow:visible;"/>
				</clipPath>
				<path class="st21" d="M112.3,105.8c0,0,0,0,0,0.2c0,0.4-0.1,1.4-0.1,1.8c0,0.5,0,1,0.1,1.4c0.7,2.4,3.6,3.1,5.7,3.1
					c6.6,0,11.9-7.8,11.9-18.8c0-2.5,0.1-6.1,0.8-8.4c0.1-0.3,0.3-1.2,0.3-1.3c-0.4,0-0.5,1.7-2.3,6.1c-0.2,0.5-0.3,1-0.4,1.4
					l-0.3,0.5c-0.2,1.1-0.9,1.8-2.1,4c-1.8,3.2-5.1,4.6-8,4.6c-3.9,0-6.9-3.8-6.9-7.8c0-6.2,6.2-15.5,12-15.5h0.9V77
					c0-0.7,1.1-4,2.4-5.8c0-0.1,0.3-0.5,0.5-0.5c0.9,0,1.3,1.3,1.3,1.9c0,2-0.2,3.9-0.6,5.9c0,0.1-0.1,0.3-0.2,0.4
					c-0.1,0.7-0.4,1.4-0.4,2.3c-0.3,0.6-0.7,2.9-1.6,2.9c-0.4,0-0.2-0.7-0.2-1c-0.2,0-0.4,0.1-0.5,0.1c-0.9,0-1.2-1.6-1.2-2.9
					c0-0.8,0-1.4,0.1-1.7c0,0,0.2-0.2,0.2-0.3l0,0c-0.3,0-0.5,0-0.8,0c-5.6,0-10.8,8.8-10.8,14.1c0,2.3,1.2,5.1,4,5.1
					c7,0,13.7-11.9,15.7-18.7c0.1-0.2,0.3-0.5,0.6-0.6c0.3,0,1.1,0.4,1.1,1.1c-0.4,1.3-1.3,3.7-1.6,5.3c-0.1,0.4-0.3,1.5-0.3,1.8
					l-0.2,2.2l-0.1,0.3c-0.1,1.3-0.1,2.4-0.1,3.6v1.7c0,0.3,0,0.6-0.1,1c-0.1,2.5-0.1,3.7-0.2,4.4c0,0.3-0.2,0.8-0.2,1.2
					c0,0,0,0.1,0,0.2c-0.5,1.6-0.8,3.2-1.5,4.8c0,0.1,0,0.1-0.2,0.2c-1.8,4.1-6.6,7.8-11,7.8c-0.2,0-0.4,0-0.5,0s-0.2,0-0.2,0
					c-2.2-0.1-5.6-1.9-5.6-4.5C111.5,108.2,111.8,107.1,112.3,105.8"/>
			</g>
		</g>
		<g>
			<g>
				<defs>
					<rect id="SVGID_41_" x="19" width="180.2" height="144.1"/>
				</defs>
				<clipPath id="SVGID_42_">
					<use xlink:href="#SVGID_41_"  style="overflow:visible;"/>
				</clipPath>
				<path class="st22" d="M145.5,92.1c0-0.1,0.1-0.2,0.2-0.2c0,0,0.1,0,0.1,0.1v0.1c-0.1,0.2-0.9,1.6-1,1.7s-0.5,1.1-0.5,1.1
					c-0.3,0.6-0.5,1.1-0.9,1.7c-0.9,0.8-0.5,2.8-2,2.8c-1.8,0-3.1-1.6-3.1-4.1v-0.4c0-0.1,0-0.1,0-0.1c-0.3,0-2.2,5.2-3,5.2
					c-1.7,0-3.1-1.4-3.1-3.5c0-2.9,3.9-9.1,6.5-9.1c1.6,0,2.4,1.2,2.4,2.8v0.1c0,0,0,0,0-0.1c0-0.3-0.2-0.6-0.5-0.6
					c-0.2,0-0.2,0.1-0.3,0.1c-3.1,0.4-6.3,5.9-6.3,8.2c0,0.3,0.4,0.6,0.7,0.6c1,0,2.6-2.8,3.8-4.8c0-0.1,0.3-0.4,0.6-0.4
					c0.2,0,0.1-0.1,0.2-0.1c0.6,0,1.2,0.6,1.2,0.8c0,1.9,0.1,3.5,0.9,3.5c0.6,0,1.6-1.4,2.7-2.8C144.2,94,145.2,92.5,145.5,92.1"/>
			</g>
		</g>
		<g>
			<g>
				<defs>
					<rect id="SVGID_43_" x="19" width="180.2" height="144.1"/>
				</defs>
				<clipPath id="SVGID_44_">
					<use xlink:href="#SVGID_43_"  style="overflow:visible;"/>
				</clipPath>
				<path class="st23" d="M145.8,92.9c0.1-0.1,0.2-0.2,0.3-0.4c3.2-4.2,7.6-8,9.2-16.3c0-0.1,0-0.3,0-0.5c0-0.5,0-0.9-0.7-0.9
					c-0.4,0-0.7,0.6-1.1,0.8h-0.1c-0.6,0.6-1.3,1.5-1.8,2.4C149,81,146.4,87.3,145.8,92.9 M143.9,95.1c-0.1-0.8-0.1-1.7-0.1-2.5
					c0-1.3,0-2.5,0.2-3.6c0,0,0-0.2,0-0.1c0.6-4.5,2.4-11.9,6.3-14.9c0.4-0.6,1.3-1.3,2.3-1.3c0.2,0,0.3,0,0.4,0
					c0.3,0,0.4-0.1,0.8-0.1c0.3,0,0.2,0.2,0.3,0.2s0.1,0,0.2,0c0.1,0,0.2,0,0.4,0.1c1.2,0.4,1.7,1.6,1.7,3.1
					c0,4.1-3.7,10.7-5.8,12.5c-0.2,0-0.6,0.5-0.7,0.6l-0.3,0.7l-0.4,0.1c0,0.5-1.3,1.1-1.5,1.5c-0.8,0.8-1.4,1.5-2.1,2.4
					c-0.2,1,0,7.4,1.8,7.4c2.2,0,2.3-1.5,3.4-2.4c0.2-0.2,0.7-0.1,1-0.4c0.3-0.4,0.6-1.1,0.9-1.5l1.5-1.7l0.9-1.3
					c0.8-1.5,0.7-1.6,1.1-2.2c0.2,0,0.2,0.1,0.3,0.2c0,0.3-0.4,0.8-1.9,4c-0.1,0.1-0.5,0.8-1.3,2c-0.2,0.3-0.2,0.6-0.3,0.8l-0.6,0.7
					c-1.3,1.4-2.1,3.1-3.7,3.2c-2.6,0-4.1-2.9-4.6-6.4l-0.1,0.1"/>
			</g>
		</g>
		<g>
			<g>
				<defs>
					<rect id="SVGID_45_" x="19" width="180.2" height="144.1"/>
				</defs>
				<clipPath id="SVGID_46_">
					<use xlink:href="#SVGID_45_"  style="overflow:visible;"/>
				</clipPath>
				<path class="st24" d="M156.4,92.9c0.1-0.1,0.2-0.2,0.3-0.4c3.2-4.2,7.6-8,9.2-16.3c0-0.1,0-0.3,0-0.5c0-0.5,0-0.9-0.7-0.9
					c-0.4,0-0.7,0.6-1.1,0.8H164c-0.6,0.6-1.3,1.5-1.8,2.4C159.6,81,157,87.3,156.4,92.9 M154.5,95.1c-0.1-0.8-0.1-1.7-0.1-2.5
					c0-1.3,0-2.5,0.2-3.6c0,0,0-0.2,0-0.1c0.6-4.5,2.4-11.9,6.3-14.9c0.4-0.6,1.3-1.3,2.3-1.3c0.2,0,0.3,0,0.4,0
					c0.3,0,0.4-0.1,0.8-0.1c0.3,0,0.2,0.2,0.3,0.2s0.1,0,0.2,0c0.1,0,0.2,0,0.4,0.1c1.2,0.4,1.7,1.6,1.7,3.1
					c0,4.1-3.7,10.7-5.8,12.5c-0.2,0-0.6,0.5-0.7,0.6l-0.3,0.7l-0.4,0.1c0,0.5-1.3,1.1-1.5,1.5c-0.8,0.8-1.4,1.5-2.1,2.4
					c-0.2,1,0,7.4,1.8,7.4c2.2,0,2.3-1.5,3.4-2.4c0.2-0.2,0.7-0.1,1-0.4c0.3-0.4,0.6-1.1,0.9-1.5l1.5-1.7l0.9-1.3
					c0.8-1.5,0.7-1.6,1.1-2.2c0.2,0,0.2,0.1,0.3,0.2c0,0.3-0.4,0.8-1.9,4c-0.1,0.1-0.5,0.8-1.3,2c-0.2,0.3-0.2,0.6-0.3,0.8l-0.6,0.7
					c-1.3,1.4-2.1,3.1-3.7,3.2c-2.6,0-4.1-2.9-4.6-6.4l-0.1,0.1"/>
			</g>
		</g>
		<g>
			<g>
				<defs>
					<rect id="SVGID_47_" x="19" width="180.2" height="144.1"/>
				</defs>
				<clipPath id="SVGID_48_">
					<use xlink:href="#SVGID_47_"  style="overflow:visible;"/>
				</clipPath>
				<path class="st25" d="M168.3,93c0,0,0.1,0,0.3,0c0.5,0,1.2-0.4,1.6-0.7c0.7-0.7,1.1-1.3,1.1-2.4c0-0.1-0.1-0.2-0.2-0.2
					c-0.5,0-1,0.6-1.3,1c-0.2,0.1-0.2,0.4-0.4,0.5c-0.3,0.4-0.5,0.7-0.7,1.1C168.4,92.6,168.3,92.7,168.3,93 M174.4,91.9
					c0,0.1,0,0.2,0,0.3c0,0-2.3,4.4-2.5,4.6c-0.1,0.1-0.1,0.2-0.2,0.3l-0.3,0.4c0,0-0.1,0.2-0.3,0.3c-0.1,0.1-1.3,1.2-2,1.2
					c-0.2,0-0.5,0-0.5,0c-1.5-0.4-3.3-2.7-3.3-5.3c0-3.2,2.8-5.9,4.2-5.9c0,0,0.1,0,0.2,0c0.2,0,0.3-0.1,0.5-0.1
					c0.3,0,0.5,0.1,0.6,0.3c0.2,0.2,0.5,0.6,0.7,0.7l0.2,0.5c0,0.1,0.1,0.2,0.2,0.4c0.1,0.2,0.1,0.6,0.1,1c0,0.3-0.1,0.7-0.1,0.7
					c0,0.3,0,0.5-0.2,0.8c-0.5,0.7-1.5,1-2.5,1.2l-1.2,0.2c-0.3,0.3-0.3,1.4-0.3,2c0,1.6,0.8,2.3,1.3,2.3c0.6,0,1.3-0.4,1.4-0.6
					c0.3-0.2,1.3-1.6,1.7-2c0.1-0.1,0.1-0.3,0.2-0.5l0.2-0.2l0.3-0.4c0.2-0.3,0.4-0.8,0.6-1.1c0.1-0.1,0.5-0.8,0.6-1
					c0.1-0.1,0.2-0.3,0.3-0.3C174.3,91.8,174.4,91.8,174.4,91.9"/>
			</g>
		</g>
		<g>
			<g>
				<defs>
					<rect id="SVGID_49_" x="19" width="180.2" height="144.1"/>
				</defs>
				<clipPath id="SVGID_50_">
					<use xlink:href="#SVGID_49_"  style="overflow:visible;"/>
				</clipPath>
				<path class="st26" d="M174.7,90.4c0.2-0.5,1.6-2.8,1.6-3.2c0-0.2-0.6-0.5-0.6-0.5c-0.2,0-0.2,0.2-0.5,0.2c0,0-0.1,0-0.2,0
					c-0.2,0.1-0.6,0.5-0.8,0.8c0,0-0.2,0.5-0.2,0.7c-0.1,0.2-0.3,0.4-0.3,0.8c0,0,0,0.2,0,0.4V90c0.2,0.9,0.7,1.2,1,1.4
					c0.5,0.4,3.4-0.4,3.8,1.7v1.4c0,0-0.1,0.5-0.1,0.6c0,0,0.1,2.7,0.2,3.3c0,0.3,0.1,0.4,0.3,0.4c1.1,0,4.1-5.4,4.9-6.9
					c0-0.1,0.1-0.1,0.2-0.1c0.1,0,0.2,0,0.2,0.1V92l-1.4,3.4l-1,1.8c0,0-0.1,0.1-0.2,0.2c-0.3,0.5-0.4,1.1-0.9,1.5
					c-0.1,0.3-1.5,0.8-2.2,0.9c-0.6,0-1.8-0.7-2-1.6c-0.2-1.5,0-5.6-0.9-6.1l-1.1-0.4c0,0-1.1-0.5-1.3-1.5c0-0.1,0-0.2,0-0.3
					c0-1.5,1.5-4.1,3.4-4.4h0.3c0.5,0,0.7,0.2,0.7,0.6c0,0.3-0.2,0.8-0.4,1.1l-1.9,3.5C174.9,90.8,174.5,90.8,174.7,90.4"/>
			</g>
		</g>
		<g>
			<g>
				<defs>
					<rect id="SVGID_51_" x="19" width="180.2" height="144.1"/>
				</defs>
				<clipPath id="SVGID_52_">
					<use xlink:href="#SVGID_51_"  style="overflow:visible;"/>
				</clipPath>
				<path class="st27" d="M191.8,101.7v-1.8c-1.3,0.5-2.7,1.4-3.5,2.5c-0.5,0.3-1.3,0.8-1.5,1.4l-2.2,2.3c-0.8,0.4-1.3,1.9-1.9,2.7
					l-0.7,1c-0.2,0.2-0.5,0.9-0.6,1.2c-0.4,0.8-1.5,3.4-1.5,5.2c0,1,0.3,1.7,1.1,2C182.4,118.1,191.8,113.2,191.8,101.7
					 M179.2,116.1c0-6.6,8.8-15.1,12.6-17.2c0-0.3,0.1-2.5,0.1-3.3v-1.1c0-1.2-0.1-2.4-0.1-3.7c-0.2,0-0.2,0.5-0.5,0.6
					c0,0.5-0.2,0.9-0.5,1.1l-0.9,1.5c-0.2,0.3-0.3,0.8-0.6,1c-0.4,0.7-1.1,1.5-1.9,1.5c-0.7,0-3.4-1.5-3.6-2.2
					c-0.2-0.7-0.3-1.4-0.3-6.2c0-0.7-0.4-0.5-0.3-0.6c0.2-0.4,0.7-0.7,1.3-0.7c1,0,1.4,0.8,1.7,1.7c0,0.2,0,0.3,0,2.6
					c-0.3,1,0,2.2-0.3,2.2c0,0.4,0,2.2,0.8,2.2c1.2,0,2.8-2.2,4.6-5.3c0.1-0.3,0.8-1.6,1.1-1.6c0.2,0,0.1-0.5,0.7-0.5
					c0.9,0,1.8,0.9,1.8,1.8c0,2.6,0.1,7.3,0.1,7.3c1.3-0.7,1.5-0.7,1.8-0.8s1.1-0.3,1.1-0.3c0.5,0,0.9,0,1.3,0.3
					c-0.6-0.1-0.7-0.1-1.1,0c-0.3,0-0.6,0.3-0.9,0.5c-0.4,0.2-0.6,0.4-1,0.7c-0.5,0.3-1.1,0.5-1.1,0.6c0,1,0,1.9,0,2.9
					c0,2-0.1,4-0.8,6.1c-0.5,0.5-0.8,2.7-1.5,3c-0.9,0.6-1.7,2.2-1.9,2.2c-1,0-1.3,1.9-2.4,2.1c-0.7,0.6-1.5,1.4-2.1,1.9
					c-0.8,0.4-1.5,1.1-2.5,1.6c-1.1,0-1.3,1.1-3.1,1.1C179.5,118.9,179.2,116.5,179.2,116.1"/>
			</g>
		</g>
		<g>
			<g>
				<defs>
					<rect id="SVGID_53_" x="19" width="180.2" height="144.1"/>
				</defs>
				<clipPath id="SVGID_54_">
					<use xlink:href="#SVGID_53_"  style="overflow:visible;"/>
				</clipPath>
				<path class="st28" d="M64.6,115.7c12.5,12.8,29.9,19.7,47.8,19c16.3-0.6,31.6-7.4,43-19l0.4,0.4c-11.5,11.8-26.9,18.6-43.3,19.2
					c-18,0.7-35.6-6.3-48.2-19.2L64.6,115.7z"/>
			</g>
		</g>
		<g>
			<g>
				<defs>
					<rect id="SVGID_55_" x="19" width="180.2" height="144.1"/>
				</defs>
				<clipPath id="SVGID_56_">
					<use xlink:href="#SVGID_55_"  style="overflow:visible;"/>
				</clipPath>
				<path class="st29" d="M53.5,116.8c0.2,0,0.5-0.1,0.7-0.2c0.5-0.4,0.6-1.1,0.2-1.5c-0.2-0.3-0.5-0.4-0.9-0.4
					c-0.2,0-0.5,0.1-0.7,0.2c-0.5,0.4-0.6,1.1-0.2,1.5C52.8,116.6,53.1,116.8,53.5,116.8 M164.7,118.6c0.3,0,0.6-0.1,0.8-0.4
					c0.4-0.5,0.3-1.2-0.1-1.5c-0.2-0.2-0.5-0.3-0.7-0.3c-0.3,0-0.6,0.1-0.8,0.4c-0.4,0.5-0.3,1.2,0.1,1.5
					C164.2,118.5,164.5,118.6,164.7,118.6 M56.3,120.1c0.3,0,0.5-0.1,0.7-0.3c0.5-0.4,0.5-1.1,0.1-1.5c-0.2-0.2-0.5-0.4-0.8-0.4
					s-0.5,0.1-0.7,0.3c-0.4,0.4-0.5,1.1-0.1,1.6C55.7,120,56,120.1,56.3,120.1 M161.8,121.9c0.3,0,0.6-0.1,0.8-0.3
					c0.4-0.4,0.4-1.1,0-1.6c-0.2-0.2-0.5-0.3-0.8-0.3s-0.6,0.1-0.8,0.3c-0.4,0.4-0.4,1.1,0,1.6C161.2,121.8,161.5,121.9,161.8,121.9
					 M59.3,123.3c0.3,0,0.6-0.1,0.8-0.3c0.4-0.4,0.4-1.1,0-1.6c-0.2-0.2-0.5-0.3-0.8-0.3s-0.6,0.1-0.8,0.3c-0.4,0.4-0.4,1.1,0,1.6
					C58.8,123.2,59,123.3,59.3,123.3 M158.6,125c0.3,0,0.5-0.1,0.7-0.3c0.4-0.4,0.5-1.1,0.1-1.6c-0.2-0.2-0.5-0.3-0.8-0.3
					s-0.5,0.1-0.8,0.3c-0.4,0.4-0.5,1.1-0.1,1.5C158.1,124.8,158.4,125,158.6,125 M62.5,126.3c0.3,0,0.6-0.1,0.8-0.4
					c0.4-0.5,0.3-1.1-0.1-1.5c-0.2-0.2-0.5-0.3-0.7-0.3c-0.3,0-0.6,0.1-0.8,0.4c-0.4,0.5-0.4,1.2,0.1,1.6l0,0
					C62,126.2,62.3,126.3,62.5,126.3 M155.3,127.8c0.2,0,0.5-0.1,0.7-0.2c0.5-0.4,0.5-1.1,0.1-1.5c-0.2-0.3-0.5-0.4-0.8-0.4
					c-0.2,0-0.5,0.1-0.7,0.3c-0.5,0.4-0.5,1.1-0.2,1.5C154.7,127.7,155,127.8,155.3,127.8 M65.9,129.1c0.3,0,0.7-0.1,0.9-0.4
					c0.4-0.5,0.3-1.2-0.2-1.5c-0.2-0.1-0.4-0.2-0.7-0.2s-0.7,0.1-0.9,0.4c-0.4,0.5-0.3,1.2,0.2,1.5C65.4,129,65.7,129.1,65.9,129.1
					 M151.9,130.5c0.2,0,0.5-0.1,0.6-0.2c0.5-0.4,0.6-1,0.2-1.5c-0.2-0.3-0.6-0.5-0.9-0.5c-0.2,0-0.4,0.1-0.6,0.2
					c-0.5,0.4-0.6,1-0.2,1.5C151.2,130.4,151.5,130.5,151.9,130.5 M69.5,131.7c0.4,0,0.7-0.2,0.9-0.5c0.3-0.5,0.2-1.2-0.3-1.5
					c-0.2-0.1-0.4-0.2-0.6-0.2c-0.3,0-0.7,0.2-0.9,0.5c-0.3,0.5-0.2,1.2,0.3,1.5C69,131.6,69.3,131.7,69.5,131.7 M148.2,133
					c0.2,0,0.4-0.1,0.6-0.2c0.5-0.3,0.7-1,0.3-1.5c-0.2-0.3-0.6-0.5-0.9-0.5c-0.2,0-0.4,0.1-0.6,0.2c-0.5,0.3-0.7,1-0.3,1.5
					C147.5,132.8,147.9,133,148.2,133 M73.2,134c0.4,0,0.7-0.2,0.9-0.5c0.3-0.5,0.1-1.2-0.4-1.5c-0.2-0.1-0.4-0.2-0.6-0.2
					c-0.4,0-0.7,0.2-0.9,0.5c-0.3,0.5-0.1,1.2,0.4,1.5C72.8,134,73,134,73.2,134 M144.5,135.2c0.2,0,0.4,0,0.5-0.1
					c0.5-0.3,0.7-1,0.4-1.5c-0.2-0.4-0.6-0.6-1-0.6c-0.2,0-0.4,0-0.5,0.1c-0.5,0.3-0.7,1-0.4,1.5C143.7,135,144.1,135.2,144.5,135.2
					 M77,136.2c0.4,0,0.8-0.2,1-0.6c0.3-0.5,0.1-1.2-0.5-1.5l0,0c-0.2-0.1-0.3-0.1-0.5-0.1c-0.4,0-0.8,0.2-1,0.6
					c-0.3,0.5-0.1,1.2,0.5,1.5l0,0C76.7,136.1,76.8,136.2,77,136.2 M140.6,137.2c0.2,0,0.3,0,0.5-0.1c0.6-0.3,0.8-0.9,0.5-1.5
					c-0.2-0.4-0.6-0.6-1-0.6c-0.2,0-0.3,0-0.5,0.1c-0.6,0.3-0.8,0.9-0.5,1.5C139.8,137,140.1,137.2,140.6,137.2 M81,138.1
					c0.4,0,0.8-0.2,1-0.7c0.2-0.6,0-1.2-0.6-1.4c-0.1-0.1-0.3-0.1-0.4-0.1c-0.4,0-0.8,0.2-1,0.7c-0.2,0.6,0,1.2,0.6,1.5
					C80.7,138,80.8,138.1,81,138.1 M136.5,139c0.1,0,0.3,0,0.4-0.1c0.6-0.2,0.8-0.9,0.6-1.4c-0.2-0.4-0.6-0.7-1-0.7
					c-0.1,0-0.3,0-0.4,0.1c-0.6,0.2-0.8,0.9-0.6,1.4C135.7,138.7,136.1,139,136.5,139 M85,139.7c0.4,0,0.9-0.3,1-0.7
					c0.2-0.6-0.1-1.2-0.6-1.4c-0.1-0.1-0.3-0.1-0.4-0.1c-0.4,0-0.9,0.3-1,0.7c-0.2,0.6,0.1,1.2,0.6,1.4
					C84.8,139.7,84.9,139.7,85,139.7 M132.4,140.5c0.1,0,0.2,0,0.3-0.1c0.6-0.2,0.9-0.8,0.7-1.4c-0.2-0.5-0.6-0.8-1-0.8
					c-0.1,0-0.2,0-0.3,0.1c-0.6,0.2-0.9,0.8-0.7,1.4C131.5,140.2,131.9,140.5,132.4,140.5 M89.2,141.1c0.5,0,0.9-0.3,1-0.8
					c0.2-0.6-0.1-1.2-0.7-1.4c-0.1,0-0.2,0-0.3,0c-0.5,0-0.9,0.3-1,0.8c-0.2,0.6,0.1,1.2,0.7,1.4l0,0
					C89,141.1,89.1,141.1,89.2,141.1 M128.2,141.7c0.1,0,0.2,0,0.3,0c0.6-0.2,0.9-0.8,0.8-1.3s-0.6-0.8-1.1-0.8c-0.1,0-0.2,0-0.3,0
					c-0.6,0.2-0.9,0.8-0.8,1.3C127.3,141.4,127.7,141.7,128.2,141.7 M93.4,142.2c0.5,0,1-0.3,1.1-0.8c0.1-0.6-0.2-1.2-0.8-1.3l0,0
					c-0.1,0-0.2,0-0.2,0c-0.5,0-1,0.3-1.1,0.9c-0.1,0.6,0.2,1.2,0.8,1.3C93.3,142.2,93.3,142.2,93.4,142.2 M123.9,142.7
					c0.1,0,0.1,0,0.2,0l0,0c0.6-0.1,1-0.7,0.9-1.3c-0.1-0.5-0.6-0.9-1.1-0.9c-0.1,0-0.1,0-0.2,0c-0.6,0.1-1,0.7-0.9,1.3
					C122.9,142.4,123.4,142.7,123.9,142.7 M97.7,143.1c0.5,0,1-0.4,1.1-0.9c0.1-0.6-0.3-1.2-0.9-1.3h-0.2c-0.5,0-1,0.4-1.1,0.9
					c-0.1,0.6,0.3,1.2,0.9,1.3C97.6,143.1,97.7,143.1,97.7,143.1 M119.6,143.5c0,0,0.1,0,0.2,0c0.6-0.1,1-0.6,0.9-1.2
					c-0.1-0.6-0.5-0.9-1.1-0.9h-0.1c-0.6,0.1-1,0.6-0.9,1.2C118.6,143.1,119,143.5,119.6,143.5 M102.1,143.7c0.6,0,1-0.4,1.1-1
					s-0.4-1.1-1-1.2h-0.1c-0.5,0-1,0.4-1.1,1S101.4,143.6,102.1,143.7C102,143.7,102,143.7,102.1,143.7 M115.2,143.9
					C115.3,143.9,115.3,143.9,115.2,143.9c0.7,0,1.1-0.6,1.1-1.2c0-0.6-0.5-1-1.1-1h-0.1c-0.6,0-1.1,0.6-1,1.2
					C114.2,143.5,114.7,143.9,115.2,143.9 M106.5,144c0.6,0,1.1-0.5,1.1-1c0-0.6-0.4-1.1-1-1.1l0,0c-0.6,0-1.1,0.5-1.1,1
					C105.3,143.5,105.8,144,106.5,144C106.4,144,106.4,144,106.5,144 M110.8,144.1L110.8,144.1c0.6,0,1.1-0.5,1.1-1.1
					s-0.5-1.1-1.1-1.1l0,0c-0.6,0-1.1,0.5-1.1,1.1C109.8,143.6,110.2,144.1,110.8,144.1"/>
			</g>
		</g>
	</g>
</g>
</svg>
