<?xml version="1.0" encoding="utf-8"?>
<!-- Generator: Adobe Illustrator 21.1.0, SVG Export Plug-In . SVG Version: 6.00 Build 0)  -->
<svg version="1.1" xmlns="http://www.w3.org/2000/svg" xmlns:xlink="http://www.w3.org/1999/xlink" x="0px" y="0px"
	 viewBox="0 0 250 250" style="enable-background:new 0 0 250 250;" xml:space="preserve">
<style type="text/css">
	
		.st0{opacity:0.5;fill:none;stroke:#7AA154;stroke-width:3;stroke-linecap:round;stroke-miterlimit:10;stroke-dasharray:0,6.49,0,6.49,0,6.49;enable-background:new    ;}
	.st1{fill:none;stroke:#78A140;stroke-miterlimit:10;}
	.st2{fill:#FFFFFF;}
	.st3{fill:#FFFFFF;stroke:#555555;stroke-width:2;stroke-linecap:round;stroke-miterlimit:10;}
	.st4{fill:none;}
	.st5{enable-background:new    ;}
	.st6{fill:#7AA154;}
	.st7{fill:#555555;}
	.st8{font-family:'PillGothic600mg-Bold';}
	.st9{font-size:32.5331px;}
	.st10{display:none;}
	.st11{display:inline;fill:#7AA154;}
	.st12{font-family:'Helvetica-LightOblique';}
	.st13{font-size:16.2216px;}
	.st14{display:inline;}
</style>
<g id="Layer_1">
	<circle class="st0" cx="125" cy="100" r="95"/>
	<circle class="st1" cx="125" cy="100" r="84"/>
	
		<rect x="1.9" y="64.6" transform="matrix(1 -6.009630e-03 6.009630e-03 1 -0.5921 0.753)" class="st2" width="246.2" height="68.6"/>
	<ellipse transform="matrix(1 -6.009630e-03 6.009630e-03 1 -2.779136e-02 0.7513)" class="st3" cx="125" cy="5" rx="4" ry="4"/>
	<rect class="st4" width="250" height="198"/>
	<rect y="56" class="st2" width="250" height="87.3"/>
	<g class="st5">
		<path class="st6" d="M67.7,70.8l2.4-11.7l4,0c0.3,0,0.6,0,0.9,0s0.6,0.1,0.9,0.1c0.3,0.1,0.6,0.1,0.8,0.3c0.3,0.1,0.5,0.3,0.7,0.5
			c0.3,0.3,0.6,0.6,0.7,1c0.2,0.4,0.3,0.8,0.3,1.3c0.1,0.4,0.1,0.9,0,1.4s-0.1,0.9-0.2,1.3c-0.1,0.4-0.2,0.8-0.3,1.2
			c-0.1,0.4-0.3,0.8-0.5,1.2c-0.2,0.4-0.4,0.8-0.7,1.1s-0.5,0.7-0.9,1c-0.3,0.3-0.7,0.6-1,0.7c-0.4,0.2-0.7,0.3-1.1,0.4
			s-0.8,0.2-1.1,0.2c-0.4,0-0.8,0.1-1.2,0.1L67.7,70.8z M69,69.8l2.6,0c0.5,0,1,0,1.4-0.1c0.5-0.1,0.9-0.2,1.4-0.5
			c0.4-0.2,0.8-0.5,1.1-0.8c0.3-0.3,0.6-0.7,0.8-1.1c0.2-0.4,0.4-0.8,0.6-1.2c0.1-0.4,0.3-0.9,0.3-1.3c0.1-0.4,0.1-0.9,0.2-1.3
			c0-0.4,0-0.9,0-1.2c-0.1-0.4-0.2-0.8-0.4-1.1c-0.2-0.3-0.5-0.6-0.8-0.8c-0.3-0.2-0.7-0.3-1.2-0.4S74.2,60,73.7,60l-2.6,0L69,69.8z
			"/>
		<path class="st6" d="M82.6,70.9c-0.5,0-1-0.1-1.5-0.3c-0.4-0.2-0.8-0.5-1.1-0.8c-0.3-0.4-0.5-0.8-0.6-1.4
			c-0.1-0.6-0.1-1.2,0.1-1.9c0.1-0.6,0.3-1.2,0.6-1.7c0.3-0.5,0.6-1,1-1.4s0.9-0.7,1.4-1c0.5-0.2,1.1-0.4,1.8-0.4
			c0.7,0,1.2,0.1,1.6,0.3c0.4,0.2,0.8,0.5,1,0.9c0.2,0.4,0.4,0.9,0.4,1.4c0,0.5,0,1.1-0.1,1.7c-0.1,0.7-0.4,1.3-0.7,1.8
			c-0.3,0.5-0.7,1-1.1,1.4c-0.4,0.4-0.9,0.7-1.4,0.9C83.7,70.8,83.2,70.9,82.6,70.9z M86.4,66.5c0.1-0.5,0.1-1,0.1-1.4
			c0-0.4-0.1-0.8-0.3-1.1c-0.2-0.3-0.4-0.6-0.7-0.8c-0.3-0.2-0.7-0.3-1.3-0.3c-0.5,0-1,0.1-1.4,0.3c-0.4,0.2-0.8,0.5-1.1,0.8
			c-0.3,0.3-0.5,0.7-0.7,1.1c-0.2,0.4-0.3,0.9-0.4,1.3c-0.1,0.5-0.1,1-0.1,1.4c0,0.4,0.1,0.8,0.3,1.1c0.2,0.3,0.4,0.6,0.7,0.7
			s0.7,0.3,1.2,0.3c0.5,0,1-0.1,1.4-0.3c0.4-0.2,0.8-0.5,1-0.8c0.3-0.3,0.5-0.7,0.7-1.1C86.1,67.4,86.3,66.9,86.4,66.5z"/>
		<path class="st6" d="M97.8,64.6l4.7-5.7l1.3,0l-5.6,6.6l-1.1,5.1l-1.1,0l1-5L94.3,59l1.3,0L97.8,64.6z"/>
		<path class="st6" d="M106,70.8c-0.5,0-1-0.1-1.5-0.3c-0.4-0.2-0.8-0.5-1.1-0.8c-0.3-0.4-0.5-0.8-0.6-1.4c-0.1-0.6-0.1-1.2,0.1-1.9
			c0.1-0.6,0.3-1.2,0.6-1.7c0.3-0.5,0.6-1,1-1.4s0.9-0.7,1.4-1c0.5-0.2,1.1-0.4,1.8-0.4c0.7,0,1.2,0.1,1.6,0.3s0.8,0.5,1,0.9
			c0.2,0.4,0.4,0.9,0.4,1.4c0,0.5,0,1.1-0.1,1.7c-0.1,0.7-0.4,1.3-0.7,1.8c-0.3,0.5-0.7,1-1.1,1.4c-0.4,0.4-0.9,0.7-1.4,0.9
			C107.2,70.7,106.6,70.8,106,70.8z M109.8,66.3c0.1-0.5,0.1-1,0.1-1.4c0-0.4-0.1-0.8-0.3-1.1c-0.2-0.3-0.4-0.6-0.7-0.8
			c-0.3-0.2-0.7-0.3-1.3-0.3c-0.5,0-1,0.1-1.4,0.3c-0.4,0.2-0.8,0.5-1.1,0.8c-0.3,0.3-0.5,0.7-0.7,1.1c-0.2,0.4-0.3,0.9-0.4,1.3
			c-0.1,0.5-0.1,1-0.1,1.4c0,0.4,0.1,0.8,0.3,1.1c0.2,0.3,0.4,0.6,0.7,0.7s0.7,0.3,1.2,0.3c0.5,0,1-0.1,1.4-0.3
			c0.4-0.2,0.8-0.5,1-0.8c0.3-0.3,0.5-0.7,0.7-1.1C109.6,67.2,109.7,66.8,109.8,66.3z"/>
		<path class="st6" d="M119.2,62.1l1,0l-1.7,8.4l-1,0l0.2-1.2c-0.2,0.2-0.3,0.3-0.5,0.5c-0.2,0.2-0.4,0.3-0.7,0.5
			c-0.2,0.1-0.5,0.3-0.8,0.3c-0.3,0.1-0.6,0.1-1,0.1c-0.6,0-1-0.1-1.4-0.2c-0.3-0.2-0.6-0.4-0.8-0.7c-0.2-0.3-0.3-0.6-0.3-1
			c0-0.4,0-0.8,0.1-1.2l1.1-5.5l1,0l-1.1,5.5c-0.1,0.7-0.1,1.3,0.2,1.7c0.3,0.4,0.8,0.6,1.5,0.6c0.4,0,0.8-0.1,1.1-0.2
			c0.4-0.2,0.7-0.4,0.9-0.7c0.3-0.3,0.5-0.6,0.7-1c0.2-0.4,0.3-0.8,0.4-1.3L119.2,62.1z"/>
		<path class="st6" d="M134.9,68.8L134.9,68.8l4.7-10.2l1.1,0l-5.5,11.7l-1.2,0l-0.6-10.3h0l-4.8,10.3l-1.2,0l-0.6-11.7l1.1,0
			l0.4,10.1h0l4.8-10.2l1.2,0L134.9,68.8z"/>
		<path class="st6" d="M144.6,65.4c0.2,0,0.4-0.1,0.7-0.1c0.3,0,0.5-0.1,0.7-0.2c0.2-0.1,0.3-0.2,0.4-0.4c0.1-0.2,0.1-0.3,0.2-0.5
			c0.1-0.2,0.1-0.5,0-0.7c0-0.2-0.1-0.4-0.3-0.5s-0.3-0.3-0.6-0.4c-0.2-0.1-0.6-0.1-0.9-0.1c-0.7,0-1.3,0.1-1.8,0.4
			c-0.5,0.3-0.9,0.8-1.1,1.5l-1,0c0.1-0.5,0.3-0.9,0.6-1.3c0.3-0.4,0.6-0.6,0.9-0.9s0.7-0.4,1.2-0.5c0.4-0.1,0.9-0.2,1.3-0.2
			c0.4,0,0.8,0,1.2,0.1s0.6,0.2,0.9,0.4c0.2,0.2,0.4,0.5,0.5,0.8c0.1,0.3,0.1,0.7,0,1.2l-0.9,4.6c-0.1,0.4-0.1,0.6,0,0.7
			c0.1,0.1,0.4,0.1,0.8-0.1l-0.2,0.8c-0.1,0-0.2,0.1-0.3,0.1c-0.2,0-0.3,0.1-0.4,0.1s-0.3,0-0.4,0c-0.3-0.1-0.5-0.2-0.5-0.4
			c0-0.2,0-0.5,0-0.8c-0.5,0.5-1,0.8-1.6,1c-0.6,0.2-1.2,0.4-1.8,0.4c-0.4,0-0.7,0-1-0.1c-0.3-0.1-0.6-0.2-0.8-0.4
			c-0.2-0.2-0.4-0.5-0.5-0.8c-0.1-0.3-0.1-0.7,0-1.1c0.3-1.4,1.4-2.3,3.5-2.6L144.6,65.4z M146.1,65.9c-0.5,0.2-0.9,0.3-1.3,0.3
			c-0.4,0.1-0.9,0.1-1.3,0.1c-0.8,0.1-1.4,0.2-1.9,0.5c-0.5,0.3-0.8,0.7-0.9,1.3c-0.1,0.3,0,0.5,0,0.7c0.1,0.2,0.2,0.3,0.3,0.5
			c0.1,0.1,0.3,0.2,0.5,0.3c0.2,0.1,0.4,0.1,0.6,0.1c0.4,0,0.8-0.1,1.2-0.2c0.4-0.1,0.7-0.3,1.1-0.5s0.6-0.5,0.8-0.8
			c0.2-0.3,0.4-0.7,0.5-1.1L146.1,65.9z"/>
		<path class="st6" d="M149.7,70.3l-1,0l1.7-8.4l1,0l-0.2,1.2c0.5-0.4,0.9-0.8,1.4-1c0.5-0.3,1-0.4,1.6-0.4c0.5,0,1,0.1,1.4,0.3
			c0.4,0.2,0.7,0.5,0.9,0.9c0.1,0.3,0.2,0.6,0.2,0.9c0,0.3-0.1,0.7-0.1,1l-1.1,5.5l-1,0l1.1-5.5c0.2-0.8,0.1-1.3-0.1-1.7
			c-0.3-0.4-0.8-0.6-1.6-0.6c-0.3,0-0.6,0-0.9,0.1s-0.5,0.2-0.8,0.4s-0.4,0.3-0.6,0.5c-0.2,0.2-0.3,0.4-0.5,0.6
			c-0.2,0.3-0.3,0.5-0.3,0.8c-0.1,0.2-0.1,0.5-0.2,0.8L149.7,70.3z"/>
		<path class="st6" d="M160.7,70.3c-0.1,0-0.3,0.1-0.5,0.1c-0.2,0.1-0.4,0.1-0.7,0.1c-0.5,0-0.8-0.1-1-0.4c-0.2-0.2-0.2-0.7-0.1-1.3
			l1.3-6.2l-1.2,0l0.2-0.8l1.2,0l0.5-2.3l1,0l-0.5,2.3l1.6,0l-0.2,0.8l-1.6,0l-1.2,5.8c0,0.2-0.1,0.4-0.1,0.5c0,0.2,0,0.3,0,0.4
			c0,0.1,0.1,0.2,0.2,0.2c0.1,0,0.3,0.1,0.5,0.1c0.1,0,0.3,0,0.4,0c0.1,0,0.3,0,0.4-0.1L160.7,70.3z"/>
		<path class="st6" d="M169.7,70.2c-0.1,0-0.3,0.1-0.5,0.1c-0.2,0.1-0.4,0.1-0.7,0.1c-0.5,0-0.8-0.1-1-0.4c-0.2-0.2-0.2-0.7-0.1-1.3
			l1.3-6.2l-1.2,0l0.2-0.8l1.2,0l0.5-2.3l1,0l-0.5,2.3l1.6,0l-0.2,0.8l-1.6,0l-1.2,5.8c0,0.2-0.1,0.4-0.1,0.5c0,0.2,0,0.3,0,0.4
			c0,0.1,0.1,0.2,0.2,0.2c0.1,0,0.3,0.1,0.5,0.1c0.1,0,0.3,0,0.4,0c0.1,0,0.3,0,0.4-0.1L169.7,70.2z"/>
		<path class="st6" d="M174.6,70.4c-0.5,0-1-0.1-1.5-0.3c-0.4-0.2-0.8-0.5-1.1-0.8c-0.3-0.4-0.5-0.8-0.6-1.4
			c-0.1-0.6-0.1-1.2,0.1-1.9c0.1-0.6,0.3-1.2,0.6-1.7c0.3-0.5,0.6-1,1-1.4s0.9-0.7,1.4-1c0.5-0.2,1.1-0.4,1.8-0.4
			c0.7,0,1.2,0.1,1.6,0.3c0.4,0.2,0.8,0.5,1,0.9c0.2,0.4,0.4,0.9,0.4,1.4c0,0.5,0,1.1-0.1,1.7c-0.1,0.7-0.4,1.3-0.7,1.8
			c-0.3,0.5-0.7,1-1.1,1.4c-0.4,0.4-0.9,0.7-1.4,0.9C175.7,70.3,175.1,70.4,174.6,70.4z M178.3,65.9c0.1-0.5,0.1-1,0.1-1.4
			c0-0.4-0.1-0.8-0.3-1.1c-0.2-0.3-0.4-0.6-0.7-0.8c-0.3-0.2-0.7-0.3-1.3-0.3c-0.5,0-1,0.1-1.4,0.3c-0.4,0.2-0.8,0.5-1.1,0.8
			c-0.3,0.3-0.5,0.7-0.7,1.1c-0.2,0.4-0.3,0.9-0.4,1.3c-0.1,0.5-0.1,1-0.1,1.4c0,0.4,0.1,0.8,0.3,1.1c0.2,0.3,0.4,0.6,0.7,0.7
			s0.7,0.3,1.2,0.3c0.5,0,1-0.1,1.4-0.3c0.4-0.2,0.8-0.5,1-0.8c0.3-0.3,0.5-0.7,0.7-1.1C178.1,66.8,178.2,66.4,178.3,65.9z"/>
	</g>
	<text transform="matrix(1 -6.010000e-03 6.010000e-03 1 114.0636 102.4392)" class="st7 st8 st9"> </text>
	<g class="st5">
		<path class="st7" d="M40.8,79.9l-8.6,10.6l9.6,11.5l-5.8,0l-6.8-8.6L27.9,95l0,7l-4.5,0L23.3,80l4.5,0l0.1,10l7.4-10L40.8,79.9z"
			/>
		<path class="st7" d="M58.4,79.7l4.2,0l0.1,22.1l-4.3,0l-9.8-15.2l0.1,15.2l-4.2,0l-0.1-22.1l4.3,0L58.5,95L58.4,79.7z"/>
		<path class="st7" d="M85.1,86.5l0,8.3c0,4.7-3.6,7.3-8.8,7.3l-0.5,0c-5.2,0-8.9-2.4-8.9-7.2l0-8.3c0-4.5,3.7-7.2,8.8-7.3l0.5,0
			C81.2,79.3,85.1,82,85.1,86.5z M80.6,86.9c0-2.4-1.8-3.7-4.3-3.7l-0.5,0c-2.5,0-4.3,1.4-4.2,3.7l0,7.7c0,2.5,1.7,3.7,4.3,3.7
			l0.5,0c2.6,0,4.3-1.3,4.3-3.8L80.6,86.9z"/>
		<path class="st7" d="M103.7,79.5l4.1,16.4l2.8-16.5l4.7,0l-4.5,22.1l-5,0l-4.1-15.7l-3.8,15.8l-5,0L88,79.6l4.7,0l3,16.3l3.9-16.4
			L103.7,79.5z"/>
		<path class="st7" d="M136.5,79.1l7.4,22.3l-4.9,0l-1.5-5.1l-6.9,0l-1.5,5.1l-4.9,0l7.3-22.4L136.5,79.1z M136.6,92.8l-2.6-8.6
			l-2.6,8.6L136.6,92.8z"/>
		<path class="st7" d="M159.5,89.7c2.3,0.8,3.9,2.4,3.9,4.8l0,1.2c0,3.6-2.7,5.5-6.9,5.6l-9.5,0.1l-0.1-22.1l8.9-0.1
			c4.1,0,6.9,2.2,6.9,5.8l0,0.7C162.7,87.3,161.4,89.1,159.5,89.7z M151.4,88.4l4.1,0c1.6,0,2.7-0.9,2.7-2.4l0-0.7
			c0-1.9-1.3-2.5-3.3-2.5l-3.5,0L151.4,88.4z M158.8,94.1c0-1.6-1.5-2.5-3.2-2.5l-4.2,0l0,6.1l4.2,0c1.7,0,3.2-0.5,3.1-2.5
			L158.8,94.1z"/>
		<path class="st7" d="M185.2,85.9l0,8.3c0,4.7-3.6,7.3-8.8,7.3l-0.5,0c-5.2,0-8.9-2.4-8.9-7.2l0-8.3c0-4.5,3.7-7.2,8.8-7.3l0.5,0
			C181.3,78.7,185.2,81.4,185.2,85.9z M180.7,86.3c0-2.4-1.8-3.7-4.3-3.7l-0.5,0c-2.5,0-4.3,1.4-4.2,3.7l0,7.7
			c0,2.5,1.7,3.7,4.3,3.7l0.5,0c2.6,0,4.3-1.3,4.3-3.8L180.7,86.3z"/>
		<path class="st7" d="M203,78.9l4.5,0l0.1,15c0,5-4,7.5-9,7.5c-5,0-9.1-2.4-9.1-7.4l-0.1-15l4.5,0l0.1,14.8c0,2.7,2.2,3.9,4.5,3.8
			s4.5-1.3,4.5-3.9L203,78.9z"/>
		<path class="st7" d="M210.4,82.7l0-3.8l18-0.1l0,3.8l-6.7,0l0.1,18.3l-4.6,0l-0.1-18.3L210.4,82.7z"/>
	</g>
	<g class="st5">
		<path class="st7" d="M50,115.8l-9.3,0.1l0,5.2l7.4,0l0,3.7l-7.4,0l0.1,9.4l-4.5,0l-0.1-22.1L50,112L50,115.8z"/>
		<path class="st7" d="M53.6,112l4.5,0l0.1,22.1l-4.5,0L53.6,112z"/>
		<path class="st7" d="M77.2,111.8l4.2,0l0.1,22.1l-4.3,0l-9.8-15.2l0.1,15.2l-4.2,0l-0.1-22.1l4.3,0l9.7,15.2L77.2,111.8z"/>
		<path class="st7" d="M96.9,111.5l7.4,22.3l-4.9,0l-1.5-5.1l-6.9,0l-1.5,5.1l-4.9,0l7.3-22.4L96.9,111.5z M97,125.2l-2.6-8.6
			l-2.6,8.6L97,125.2z"/>
		<path class="st7" d="M121.1,111.6l4.2,0l0.1,22.1l-4.3,0l-9.8-15.2l0.1,15.2l-4.2,0l-0.1-22.1l4.3,0l9.7,15.2L121.1,111.6z"/>
		<path class="st7" d="M134.2,118.7l0,7.7c0,2.5,1.9,3.7,4.4,3.7c2,0,3.7-0.5,4.9-1.4l1.7,3.1c-1.8,1.4-3.8,2-7,2.1
			c-4.9,0-8.6-2.4-8.6-7.2l0-8.2c0-4.6,3.8-7.3,8.5-7.4c3.3,0,5.3,0.7,7.2,2.2l-1.8,3.2c-1.3-0.9-2.8-1.5-5.1-1.5
			C136,115,134.2,116.4,134.2,118.7z"/>
		<path class="st7" d="M148.9,111.4l4.5,0l0.1,22.1l-4.5,0L148.9,111.4z"/>
		<path class="st7" d="M172.5,111.3l4.2,0l0.1,22.1l-4.3,0l-9.8-15.2l0.1,15.2l-4.2,0l-0.1-22.1l4.3,0l9.7,15.2L172.5,111.3z"/>
		<path class="st7" d="M190.3,120.8l8.1,0l0.1,10.2c-2.2,1.6-4.8,2.6-8.3,2.6c-5.1,0-9.1-2.5-9.2-7.2l0-8.2c0-4.7,4.1-7.3,9.1-7.3
			c3.2,0,5.6,0.8,7.6,2.1l-1.6,3.3c-1.7-1-3.2-1.6-5.8-1.6c-2.7,0-4.8,1.3-4.8,3.8l0,7.6c0,2.5,2,3.7,4.6,3.7c1.6,0,2.7-0.2,3.8-0.8
			l0-4.7l-3.5,0L190.3,120.8z"/>
		<path class="st7" d="M214.7,115.5l0,1.1c0,2-1.6,3.2-2.9,4.3c-1.6,1.2-2.3,2-2.3,3.7l0,1.4l-4.4,0l0-1.9c0-1.9,0.9-3.2,2.4-4.3
			c1.3-0.9,2.5-1.8,2.5-2.8l0-0.8c0-1.2-1.2-1.6-2.9-1.6c-1.6,0-3.4,0.7-4.5,1.5l-1.5-3.1c1.7-1.2,4.2-2.2,6.6-2.3
			C212,110.7,214.7,112.1,214.7,115.5z M204.9,129.2l5.2,0l0,4l-5.2,0L204.9,129.2z"/>
	</g>
</g>
<g id="Layer_2" class="st10">
	<text transform="matrix(1 -6.010000e-03 6.010000e-03 1 66.1674 71.0531)" class="st11 st12 st13">Do You Want to </text>
	<g class="st14">
		<text transform="matrix(1 -6.010000e-03 6.010000e-03 1 20.8494 102.3397)" class="st7 st8 st9">KNOW ABOUT</text>
	</g>
	<g class="st14">
		<text transform="matrix(1 -6.010000e-03 6.010000e-03 1 33.6836 134.4587)" class="st7 st8 st9">FINANCING?</text>
	</g>
</g>
</svg>
