<?xml version="1.0" standalone="no"?>
<!DOCTYPE svg PUBLIC "-//W3C//DTD SVG 1.1//EN" "http://www.w3.org/Graphics/SVG/1.1/DTD/svg11.dtd" >
<svg xmlns="http://www.w3.org/2000/svg" xmlns:xlink="http://www.w3.org/1999/xlink" version="1.1">
<metadata>
Created by FontForge 20161013 at Sat Aug 25 12:32:22 2007
 By ,,,
Copyright (c) 2007 by Betatype. All rights reserved.
</metadata>
<defs>
<font id="PillGothic600mg-Regular" horiz-adv-x="592" >
  <font-face 
    font-family="Pill Gothic 600mg Rg"
    font-weight="400"
    font-stretch="squinchy"
    units-per-em="1000"
    panose-1="2 0 5 3 3 0 0 2 0 4"
    ascent="800"
    descent="-200"
    x-height="510"
    cap-height="680"
    bbox="-47 -251 1028 918"
    underline-thickness="50"
    underline-position="-200"
    unicode-range="U+000D-FB04"
  />
<missing-glyph horiz-adv-x="218" 
 />
    <glyph glyph-name="germandbls" unicode="ss" horiz-adv-x="657" 
d="M43 446v64h58v81q0 65 50.5 107t122.5 42q52 0 106 -19l-19 -62q-39 11 -76 11q-52 0 -80 -23.5t-28 -68.5v-68h400v-61l-143 -150h40q67 -3 98.5 -38t31.5 -81v-66q0 -51 -44.5 -86t-113.5 -35q-54 0 -95.5 18t-61.5 50l42 42q13 -21 41.5 -34t63.5 -13q40 0 65.5 16.5
t25.5 45.5v57q0 30 -21 47.5t-62 17.5h-98v57l142 148h-309v-445h-78v446h-58z" />
    <glyph glyph-name="arrowleft" unicode="&#x3c;&#x2d;" horiz-adv-x="446" 
d="M218 448l39 -32l-111 -135h245v-59h-245l107 -125l-39 -30l-160 185z" />
    <glyph glyph-name="arrowright" unicode="&#x2d;&#x3e;" horiz-adv-x="446" 
d="M185 420l38 32l168 -200l-158 -196l-40 32l106 135h-245v58h245z" />
    <glyph glyph-name="smiley" unicode="&#x28;&#x3a;" horiz-adv-x="797" 
d="M38 350q0 151 105.5 255.5t257.5 104.5t257 -104.5t105 -255.5t-105.5 -255t-256.5 -104q-152 0 -257.5 104t-105.5 255zM88 350q0 -130 91.5 -221t222.5 -91q130 0 220.5 91t90.5 221t-91 220t-221 90q-131 0 -222 -90t-91 -220zM567 311l42 -19q-20 -59 -66.5 -96
t-105.5 -37h-72q-56 0 -102.5 37t-67.5 94l48 19q16 -43 49 -71.5t73 -28.5h72q43 0 78.5 29t51.5 73zM259 391v121h78v-121h-78zM468 391v121h78v-121h-78z" />
    <glyph glyph-name="fi" unicode="fi" horiz-adv-x="591" 
d="M113 511v62q0 71 57 109.5t145 38.5q95 0 193 -28l-14 -59q-104 18 -168 18q-134 0 -134 -90v-51h124v-59h-124v-452h-79v452h-68v59h68zM430 0v513h80v-513h-80z" />
    <glyph glyph-name="fl" unicode="fl" horiz-adv-x="591" 
d="M420 0v643q-63 9 -110 9q-134 0 -134 -90v-51h124v-59h-124v-452h-79v452h-68v59h68v62q0 71 57 109.5t145 38.5q95 0 193 -28l-1 -3h9v-690h-80z" />
    <glyph glyph-name="wink" unicode="&#x28;&#x3b;" horiz-adv-x="797" 
d="M38 350q0 151 105.5 255.5t257.5 104.5t257 -104.5t105 -255.5q0 -150 -105.5 -254.5t-256.5 -104.5q-152 0 -257.5 104t-105.5 255zM88 350q0 -130 91.5 -221t222.5 -91q130 0 220.5 91t90.5 221t-91 220.5t-221 90.5q-131 0 -222 -90.5t-91 -220.5zM564 296l42 -18
q-21 -60 -67.5 -97t-104.5 -37h-72q-56 0 -102.5 37t-67.5 95l48 18q15 -43 48.5 -71.5t73.5 -28.5h72q43 0 78.5 29t51.5 73zM243 390v108h91v-108h-91zM607 421h-175v43h175v-43z" />
    <glyph glyph-name="T_h" unicode="Th" horiz-adv-x="1101" 
d="M240 608h-222v72h571v-72h-269v-608h-80v608zM846 520q89 0 135.5 -45t46.5 -127v-348h-80v344q0 50 -31 77.5t-85 27.5q-58 0 -111 -39.5t-53 -89.5v-320h-79v680h79v-258q27 46 73.5 72t104.5 26z" />
    <glyph glyph-name="f_j" unicode="fj" horiz-adv-x="581" 
d="M416 43l1 468h79v-472q0 -204 -211 -247l-24 58q87 25 121 65.5t34 127.5zM94 511v62q0 71 57 109.5t145 38.5q95 0 193 -28l-14 -59q-104 18 -168 18q-134 0 -134 -90v-51h124v-59h-124v-452h-79v452h-68v59h68z" />
    <glyph glyph-name=".notdef" horiz-adv-x="218" 
 />
    <glyph glyph-name=".null" horiz-adv-x="0" 
 />
    <glyph glyph-name="nonmarkingreturn" horiz-adv-x="333" 
 />
    <glyph glyph-name="CR" unicode="&#xd;" horiz-adv-x="218" 
 />
    <glyph glyph-name="space" unicode=" " horiz-adv-x="218" 
 />
    <glyph glyph-name="exclam" unicode="!" horiz-adv-x="261" 
d="M182 680l-5 -444h-74l-5 444h84zM88 0v101h106v-101h-106z" />
    <glyph glyph-name="quotedbl" unicode="&#x22;" horiz-adv-x="307" 
d="M66 462l-3 221h59l-2 -221h-54zM188 462l-3 221h58l-2 -221h-53z" />
    <glyph glyph-name="numbersign" unicode="#" horiz-adv-x="704" 
d="M321 460h136l32 171h62l-30 -171h128l-1 -55h-139l-35 -196h144l-1 -55h-154l-26 -154h-64l26 154h-136l-28 -154h-62l26 154h-144v55h155l36 196h-162l1 55h173l30 171h64zM274 209h137l35 196h-136z" />
    <glyph glyph-name="dollar" unicode="$" horiz-adv-x="582" 
d="M160 433l367 -143v-122q0 -78 -51 -121.5t-137 -52.5v-118h-67v117q-148 6 -222 97l45 51q32 -38 85.5 -58.5t111.5 -20.5q67 0 110 28t43 81v73l-368 145v132q0 78 53 120t143 48v94h68v-95q109 -10 184 -76l-39 -60q-30 28 -78 47t-100 19q-66 0 -107 -24t-41 -76v-85z
" />
    <glyph glyph-name="percent" unicode="%" horiz-adv-x="736" 
d="M330 584v-96q0 -47 -38 -77t-93 -30q-57 0 -95 29.5t-38 77.5v96q0 46 39 76t94 30q54 0 92.5 -30.5t38.5 -75.5zM670 198v-102q0 -47 -37 -76t-93 -29q-53 0 -91.5 29t-38.5 73v103q0 46 37.5 75.5t92.5 29.5q54 0 92 -29t38 -74zM129 578v-85q0 -24 20 -38.5t50 -14.5
q28 0 48.5 15.5t20.5 37.5v86q0 23 -20 37t-49 14q-28 0 -49 -15t-21 -37zM470 188l1 -86q0 -22 20.5 -37.5t48.5 -15.5t49 15.5t21 37.5v86q0 24 -20 38.5t-50 14.5q-28 0 -49 -15.5t-21 -37.5zM195 0h-77l423 680h75z" />
    <glyph glyph-name="ampersand" unicode="&#x26;" horiz-adv-x="720" 
d="M134 484v85q0 53 46.5 87.5t114.5 34.5q82 0 127.5 -36t45.5 -101q0 -51 -32.5 -92t-93.5 -88l-1 -1l166 -168l107 108l54 -48l-110 -111l122 -122l-55 -48l-117 119q-108 -113 -242 -113q-101 0 -157.5 43t-56.5 127q0 25 11 49.5t24 42.5t41.5 43t46 38.5t54.5 41.5
l7 5zM263 60q94 0 194 95l-172 175l-9 -7q-8 -6 -24.5 -18.5t-24 -18t-21.5 -17t-21 -18t-17 -16.5t-15 -18t-10.5 -17.5t-7.5 -19t-2 -19.5q0 -101 130 -101zM207 561v-53l87 -88q48 36 74 66.5t26 65.5q0 72 -99 72q-41 0 -64.5 -18t-23.5 -45z" />
    <glyph glyph-name="quotesingle" unicode="'" horiz-adv-x="228" 
d="M86 481l-5 229h66l-6 -229h-55z" />
    <glyph glyph-name="parenleft" unicode="(" horiz-adv-x="341" 
d="M89 97v342q0 107 40 192t109 126l37 -40q-53 -33 -84 -105t-31 -173v-342q0 -203 115 -274l-37 -42q-69 41 -109 125t-40 191z" />
    <glyph glyph-name="parenright" unicode=")" horiz-adv-x="348" 
d="M248 433v-328q0 -107 -40.5 -194.5t-108.5 -127.5l-36 38q52 34 83 107.5t31 176.5v328q0 101 -30 174.5t-81 106.5l33 43q68 -41 108.5 -128.5t40.5 -195.5z" />
    <glyph glyph-name="asterisk" unicode="*" horiz-adv-x="394" 
d="M222 594l103 33l14 -45l-102 -33l64 -86l-40 -29l-64 87l-65 -87l-39 29l64 86l-103 33l14 45l104 -32v106h50v-107z" />
    <glyph glyph-name="plus" unicode="+" horiz-adv-x="578" 
d="M321 620v-205h220v-61h-220v-224h-66v224h-219v61h219v205h66z" />
    <glyph glyph-name="comma" unicode="," horiz-adv-x="197" 
d="M62 79h71v-26q0 -69 -16 -106.5t-46 -70.5l-44 25q35 52 35 121v57z" />
    <glyph glyph-name="hyphen" unicode="-" horiz-adv-x="349" 
d="M50 250v68h248v-68h-248z" />
    <glyph glyph-name="period" unicode="." horiz-adv-x="245" 
d="M71 0v100h102v-100h-102z" />
    <glyph glyph-name="slash" unicode="/" horiz-adv-x="391" 
d="M98 -85h-73l270 765h75z" />
    <glyph glyph-name="zero" unicode="0" horiz-adv-x="635" 
d="M317 690q106 0 176.5 -57.5t70.5 -156.5v-275q0 -99 -70 -155t-177 -56q-106 0 -176.5 56t-70.5 155v275q0 99 71 156.5t176 57.5zM485 203v271q0 69 -47.5 106.5t-120.5 37.5t-120 -37.5t-47 -106.5v-271q0 -69 47.5 -105.5t119.5 -36.5q73 0 120.5 36.5t47.5 105.5z
" />
    <glyph glyph-name="one" unicode="1" horiz-adv-x="369" 
d="M182 0v608h-151v72h230v-680h-79z" />
    <glyph glyph-name="two" unicode="2" horiz-adv-x="552" 
d="M309 293q-89 -47 -127 -97t-40 -126h361v-70h-443v37q0 108 46 178.5t155 130.5q80 44 115.5 77.5t35.5 83.5t-36 76.5t-97 26.5q-50 0 -98.5 -22t-82.5 -53l-40 55q96 91 229 91q88 0 146.5 -43.5t58.5 -125.5q0 -72 -46 -119.5t-137 -99.5z" />
    <glyph glyph-name="three" unicode="3" horiz-adv-x="585" 
d="M511 524v-37q0 -48 -33.5 -85t-82.5 -52q53 -15 88 -50t35 -88v-56q0 -78 -68 -121t-161 -43q-95 0 -162 40t-75 108l70 19q6 -46 53 -71.5t110 -25.5q61 0 107 25t46 74v54q0 49 -43 76.5t-101 27.5h-94v66h92q54 0 96.5 25.5t42.5 70.5v37q0 52 -40.5 76.5t-105.5 24.5
q-53 0 -99 -26t-51 -70l-68 19q8 65 74 106.5t149 41.5q97 0 159 -42t62 -124z" />
    <glyph glyph-name="four" unicode="4" horiz-adv-x="581" 
d="M443 680v-451h115v-71h-115v-158h-79v158h-337v65l321 457h95zM364 229v341h-9l-241 -341h250z" />
    <glyph glyph-name="five" unicode="5" horiz-adv-x="582" 
d="M184 413h131q91 0 148 -46.5t57 -128.5v-70q0 -80 -66 -129t-154 -49q-97 0 -161.5 45.5t-70.5 125.5l75 14q2 -52 45.5 -83t109.5 -31q57 0 100 29.5t43 79.5v67q0 51 -36.5 79.5t-98.5 28.5h-205l33 335h350v-72h-281z" />
    <glyph glyph-name="six" unicode="6" horiz-adv-x="580" 
d="M310 433q90 0 151 -45t61 -128v-87q0 -87 -68 -135t-162 -48t-161 49t-67 137v329q0 83 65.5 134t166.5 51q115 0 191 -63l-36 -58q-63 50 -152 50q-69 0 -112.5 -31t-43.5 -83v-144q28 34 73 53t94 19zM443 179v76q0 56 -44 85t-106 29q-60 0 -105 -31t-45 -83v-76
q0 -59 44 -89t105 -30t106 30t45 89z" />
    <glyph glyph-name="seven" unicode="7" horiz-adv-x="470" 
d="M10 605v75h437v-50l-219 -630h-88l217 605h-347z" />
    <glyph glyph-name="eight" unicode="8" horiz-adv-x="609" 
d="M523 490q0 -44 -31.5 -82t-75.5 -55q52 -20 86.5 -56t34.5 -87v-50q0 -83 -68 -126.5t-164 -43.5q-98 0 -165.5 43.5t-67.5 126.5v50q0 50 34.5 87t86.5 56q-48 18 -77.5 55.5t-29.5 84.5v32q0 78 64 121.5t155 43.5q89 0 153.5 -43.5t64.5 -121.5v-35zM457 163v54
q0 46 -44.5 74.5t-98.5 28.5h-18q-57 -2 -100.5 -29.5t-43.5 -73.5v-53q0 -53 44.5 -78t108.5 -25q62 0 107 25t45 77zM165 484q0 -44 39 -71t92 -29h18q53 2 91.5 28.5t38.5 71.5v34q0 50 -41 75.5t-98 25.5t-98.5 -26t-41.5 -75v-34z" />
    <glyph glyph-name="nine" unicode="9" horiz-adv-x="586" 
d="M293 690q91 0 160 -49t69 -128v-346q0 -84 -68 -130.5t-161 -46.5q-56 0 -111.5 17.5t-91.5 48.5l31 56q78 -51 172 -51q65 0 110.5 29t45.5 86v124q-61 -68 -165 -68q-93 0 -156.5 46.5t-63.5 130.5v104q0 79 68.5 128t160.5 49zM442 411v97q0 50 -45 80t-104 30
q-60 0 -105 -30t-45 -80v-97q0 -55 44.5 -83t106.5 -28q59 0 103.5 30t44.5 81z" />
    <glyph glyph-name="colon" unicode=":" horiz-adv-x="282" 
d="M95 0v111h99v-111h-99zM95 410v110h99v-110h-99z" />
    <glyph glyph-name="semicolon" unicode=";" horiz-adv-x="306" 
d="M217 520v-114h-95v114h95zM137 79h71v-26q0 -69 -16 -106.5t-46 -70.5l-44 25q35 52 35 121v57z" />
    <glyph glyph-name="less" unicode="&#x3c;" horiz-adv-x="618" 
d="M561 44l-29 -52l-471 252l454 267l28 -52l-363 -213z" />
    <glyph glyph-name="equal" unicode="=" horiz-adv-x="631" 
d="M55 414v61h520v-61h-520zM55 198v62h520v-62h-520z" />
    <glyph glyph-name="greater" unicode="&#x3e;" horiz-adv-x="599" 
d="M107 509l436 -259l-449 -261l-32 53l359 206l-348 209z" />
    <glyph glyph-name="question" unicode="?" horiz-adv-x="449" 
d="M213 690q90 0 139.5 -36.5t49.5 -108.5v-42q0 -11 -3 -21.5t-5.5 -18.5t-10.5 -18l-12 -15t-16 -15.5t-15 -13.5t-17.5 -14.5t-16.5 -12.5q-40 -28 -58.5 -52.5t-18.5 -61.5v-58h-79v71q0 70 85 127q5 4 17 13t17.5 13.5t15.5 13t15 14.5t10.5 14t8 16t2.5 16v37
q0 43 -32.5 62t-82.5 19q-82 0 -145 -52l-31 57q84 67 183 67zM136 0v101h112v-101h-112z" />
    <glyph glyph-name="at" unicode="@" horiz-adv-x="816" 
d="M417 696q149 0 245 -79.5t96 -202.5q0 -247 -163 -247q-34 0 -62.5 15t-39.5 43q-25 -32 -65 -52t-84 -20q-62 0 -92.5 29t-30.5 74q0 51 25 142q16 62 70 104.5t119 42.5q60 0 94 -26.5t34 -72.5q0 -13 -13 -82q-13 -59 -13 -86q0 -25 16.5 -43.5t41.5 -18.5
q110 0 110 200q0 102 -80.5 167t-207.5 65q-121 0 -203 -73.5t-95 -183.5q-12 -94 -12 -131q0 -95 86.5 -158t221.5 -63q83 0 160 41l25 -43q-82 -46 -185 -46q-159 0 -259.5 75.5t-100.5 191.5q0 59 11 136q18 129 114 215.5t237 86.5zM353 205q48 0 85.5 29t44.5 73
q22 98 22 128q0 59 -75 59q-48 0 -86 -35.5t-46 -83.5q-17 -77 -17 -102q0 -68 72 -68z" />
    <glyph glyph-name="A" unicode="A" horiz-adv-x="634" 
d="M277 688h85l241 -688h-86l-69 205h-260l-71 -205h-87zM207 273h222l-110 315z" />
    <glyph glyph-name="B" unicode="B" horiz-adv-x="621" 
d="M533 484q0 -44 -28 -80t-72 -50q57 -19 90.5 -57.5t33.5 -94.5v-38q0 -80 -55 -122t-146 -42h-267v680h244q90 0 145 -44.5t55 -125.5v-26zM478 170v37q0 53 -39.5 81.5t-101.5 28.5h-168v-250h178q58 0 94.5 25.5t36.5 77.5zM169 612v-231h164q54 0 88 26.5t34 73.5v26
q0 105 -133 105h-153z" />
    <glyph glyph-name="C" unicode="C" horiz-adv-x="577" 
d="M322 618q-75 0 -125.5 -41.5t-50.5 -110.5v-252q0 -75 48.5 -114t129.5 -39q111 0 177 50l35 -57q-78 -64 -217 -64q-113 0 -183 57.5t-70 162.5v259q0 99 72.5 160t179.5 61q141 0 220 -76l-39 -58q-67 62 -177 62z" />
    <glyph glyph-name="D" unicode="D" horiz-adv-x="655" 
d="M89 680h227q114 0 188.5 -60t74.5 -168v-227q0 -109 -75.5 -167t-191.5 -58h-223v680zM500 230v218q0 75 -53.5 117.5t-130.5 42.5h-148v-537h144q82 0 135 40t53 119z" />
    <glyph glyph-name="E" unicode="E" horiz-adv-x="554" 
d="M424 312h-256v-241h332v-71h-411v680h387v-72h-308v-226h256v-70z" />
    <glyph glyph-name="F" unicode="F" horiz-adv-x="505" 
d="M474 680v-72h-306v-220h255v-70h-254v-318h-80v680h385z" />
    <glyph glyph-name="G" unicode="G" horiz-adv-x="643" 
d="M328 290v68h244v-292q-106 -76 -246 -76q-111 0 -185.5 61t-74.5 158v262q0 100 75 159.5t186 59.5q137 0 225 -70l-33 -60q-79 58 -190 58q-77 0 -130 -41t-53 -110v-254q0 -67 52 -109.5t128 -42.5q98 0 167 43v186h-165z" />
    <glyph glyph-name="H" unicode="H" horiz-adv-x="707" 
d="M537 365v315h79v-680h-79v294h-369v-294h-79v680h79v-315h369z" />
    <glyph glyph-name="I" unicode="I" horiz-adv-x="293" 
d="M106 0v680h79v-680h-79z" />
    <glyph glyph-name="J" unicode="J" horiz-adv-x="549" 
d="M380 175v505h80v-507q0 -86 -58.5 -134t-157.5 -48q-92 0 -153.5 44t-65.5 119l78 14q1 -45 41.5 -76t97.5 -31q62 0 100 29.5t38 84.5z" />
    <glyph glyph-name="K" unicode="K" horiz-adv-x="628" 
d="M475 680h101l-298 -320l333 -360h-105l-281 305l-57 -59v-246h-79v680h79v-340z" />
    <glyph glyph-name="L" unicode="L" horiz-adv-x="532" 
d="M89 680h79v-609h351v-71h-430v680z" />
    <glyph glyph-name="M" unicode="M" horiz-adv-x="831" 
d="M89 680h88l238 -408l238 408h88v-680h-80v558l-223 -386h-47l-223 384v-556h-79v680z" />
    <glyph glyph-name="N" unicode="N" horiz-adv-x="704" 
d="M539 121v559h75v-680h-81l-369 560v-560h-75v680h83z" />
    <glyph glyph-name="O" unicode="O" horiz-adv-x="662" 
d="M338 690q113 0 185.5 -60t72.5 -160v-261q0 -103 -70.5 -161t-187.5 -58h-16q-115 0 -184 57.5t-69 161.5v261q0 100 70.5 160t181.5 60h17zM517 213v253q0 70 -50 111t-129 41h-17q-76 0 -124 -41t-48 -111v-253q0 -73 46.5 -112.5t126.5 -39.5h16q82 0 130.5 39.5
t48.5 112.5z" />
    <glyph glyph-name="P" unicode="P" horiz-adv-x="608" 
d="M89 680h251q103 0 162 -50.5t59 -138.5v-55q0 -85 -58 -130t-161 -45h-174v-261h-79v680zM481 443v42q0 56 -38 89.5t-106 33.5h-169v-279h169q144 0 144 114z" />
    <glyph glyph-name="Q" unicode="Q" horiz-adv-x="662" 
d="M338 690q113 0 185.5 -60t72.5 -160v-261q0 -99 -67 -158l70 -79l-46 -36l-73 83q-61 -29 -142 -29h-16q-115 0 -184 57.5t-69 161.5v261q0 100 70.5 160t181.5 60h17zM517 213v253q0 70 -50 111t-129 41h-17q-76 0 -124 -41t-48 -111v-253q0 -73 46.5 -112.5
t126.5 -39.5h16q53 0 91 16l-68 77l45 36l72 -81q39 39 39 104z" />
    <glyph glyph-name="R" unicode="R" horiz-adv-x="606" 
d="M557 465q0 -65 -37 -106t-102 -55l158 -304h-87l-146 287h-174v-287h-79v680h264q95 0 149 -47t54 -130v-38zM169 608v-254h187q53 2 87 29.5t34 76.5v41q0 48 -35 77.5t-94 29.5h-179z" />
    <glyph glyph-name="S" unicode="S" horiz-adv-x="583" 
d="M324 373q105 -31 153.5 -76t48.5 -123q1 -85 -61 -133.5t-163 -48.5q-76 0 -142.5 29t-105.5 82l46 50q68 -91 201 -91q67 0 107 29t40 81q0 54 -35 82.5t-127 55.5q-105 32 -158 77.5t-53 121.5q-1 87 61.5 133.5t161.5 46.5q138 0 226 -91l-43 -53q-73 73 -182 73
q-65 0 -105.5 -28t-40.5 -79q0 -52 39.5 -81t131.5 -57z" />
    <glyph glyph-name="T" unicode="T" horiz-adv-x="575" 
d="M245 608h-226v72h537v-72h-231v-608h-80v608z" />
    <glyph glyph-name="U" unicode="U" horiz-adv-x="694" 
d="M527 214v466h80v-469q0 -106 -73 -163.5t-187 -57.5q-115 0 -188 56.5t-73 164.5v469h79v-466q0 -75 52 -114t130 -39q75 0 127.5 41t52.5 112z" />
    <glyph glyph-name="V" unicode="V" 
d="M26 680h87l180 -574l186 574h86l-231 -680h-82z" />
    <glyph glyph-name="W" unicode="W" horiz-adv-x="892" 
d="M409 680h73l162 -576l121 576h83l-154 -680h-92l-157 560l-159 -560h-92l-151 680h83l121 -575z" />
    <glyph glyph-name="X" unicode="X" horiz-adv-x="579" 
d="M47 680h91l155 -276l160 276h92l-204 -339l204 -341h-93l-159 278l-166 -278h-94l210 341z" />
    <glyph glyph-name="Y" unicode="Y" horiz-adv-x="591" 
d="M253 0v266l-217 414h92l166 -333l167 333h93l-221 -414v-266h-80z" />
    <glyph glyph-name="Z" unicode="Z" horiz-adv-x="577" 
d="M64 680h452v-50l-361 -559h369v-71h-472v49l363 559h-351v72z" />
    <glyph glyph-name="bracketleft" unicode="[" horiz-adv-x="281" 
d="M87 680h149v-60h-76v-725h72v-59h-145v844z" />
    <glyph glyph-name="backslash" unicode="\" horiz-adv-x="419" 
d="M318 0l-282 680h74l282 -680h-74z" />
    <glyph glyph-name="bracketright" unicode="]" horiz-adv-x="279" 
d="M54 680h147v-838h-146v60h73v715h-74v63z" />
    <glyph glyph-name="asciicircum" unicode="^" horiz-adv-x="415" 
d="M209 588l-99 -163l-56 13l156 253l150 -253l-54 -13z" />
    <glyph glyph-name="underscore" unicode="_" horiz-adv-x="546" 
d="M54 -84v57h437v-57h-437z" />
    <glyph glyph-name="grave" unicode="`" horiz-adv-x="256" 
d="M48 673l59 39l97 -147l-44 -29z" />
    <glyph glyph-name="a" unicode="a" horiz-adv-x="539" 
d="M280 519q88 0 138.5 -42.5t50.5 -120.5v-356h-70l-5 58q-50 -63 -159 -63q-85 0 -132.5 36.5t-47.5 103.5v113l334 51v56q0 92 -116 92q-87 0 -169 -41l-25 60q36 21 93 37t108 16zM388 149v93l-253 -40v-62q0 -40 30.5 -60.5t84.5 -20.5t96 25t42 65z" />
    <glyph glyph-name="b" unicode="b" horiz-adv-x="574" 
d="M154 690v-244q52 74 164 74q91 0 144.5 -49.5t53.5 -134.5v-161q0 -87 -53 -135.5t-145 -48.5q-114 0 -165 76l-9 -67h-69v690h79zM153 343v-177q0 -52 43 -80t104 -28q62 0 99.5 30.5t37.5 86.5v161q0 53 -38 84.5t-97 31.5q-63 0 -106 -28t-43 -81z" />
    <glyph glyph-name="c" unicode="c" horiz-adv-x="475" 
d="M275 448q-60 0 -99.5 -31t-39.5 -85v-157q0 -55 41.5 -85t99.5 -30q75 -1 130 40l32 -57q-63 -52 -168 -52q-93 0 -154 46t-61 132v170q0 83 60 132t153 49q101 0 169 -63l-35 -55q-54 46 -128 46z" />
    <glyph glyph-name="d" unicode="d" horiz-adv-x="574" 
d="M420 446v244h79v-690h-70l-9 67q-49 -76 -164 -76q-92 0 -145 48.5t-53 135.5v161q0 85 53.5 134.5t144.5 49.5q112 0 164 -74zM420 166v177q0 53 -42.5 81t-105.5 28q-59 0 -97 -31.5t-38 -84.5v-161q0 -56 37.5 -86.5t99.5 -30.5q61 0 103.5 28t42.5 80z" />
    <glyph glyph-name="e" unicode="e" horiz-adv-x="534" 
d="M288 62q98 0 157 39l28 -55q-70 -52 -189 -52q-94 0 -161 46.5t-67 129.5v179q0 72 65 121t152 49t148.5 -48t61.5 -122v-107h-348v-69q0 -53 44.5 -82t108.5 -29zM273 452q-55 0 -96 -30t-42 -74v-46h272v46q0 45 -39.5 74.5t-94.5 29.5z" />
    <glyph glyph-name="f" unicode="f" horiz-adv-x="315" 
d="M94 510v62q0 68 46.5 105t117.5 37q63 0 112 -19l-14 -61q-42 11 -86 11t-70.5 -20t-26.5 -59v-56h123v-59h-123v-451h-79v451h-67v59h67z" />
    <glyph glyph-name="g" unicode="g" horiz-adv-x="566" 
d="M289 151q-53 0 -90 11q-37 -17 -37 -50q0 -23 20 -37t48 -19l283 -44v-99q0 -67 -60 -102t-144 -35h-55q-89 0 -146.5 32t-57.5 99q0 43 25.5 71.5t69.5 41.5q-58 28 -58 81q0 24 16.5 48t42.5 35q-73 44 -73 133v33q0 81 59.5 125t150.5 44q68 0 116 -24l127 39l20 -56
l-90 -25q37 -43 37 -101v-38q0 -80 -57.5 -121.5t-146.5 -41.5zM153 350v-40q0 -46 36 -71.5t98 -25.5q55 0 90.5 23.5t35.5 73.5v40q-3 48 -40 73.5t-90 25.5t-91.5 -26t-38.5 -73zM310 -159q115 0 123 75v47l-210 31q-41 -3 -68.5 -22.5t-27.5 -57.5q0 -39 37 -56t92 -17
h54z" />
    <glyph glyph-name="h" unicode="h" horiz-adv-x="594" 
d="M342 519q87 0 133 -46t46 -131v-342h-79v339q0 52 -32 80.5t-87 28.5q-62 0 -113 -37.5t-51 -88.5v-322h-80v690h80v-273q27 47 75.5 74.5t107.5 27.5z" />
    <glyph glyph-name="i" unicode="i" horiz-adv-x="265" 
d="M93 0v510h80v-510h-80zM89 616v74h86v-74h-86z" />
    <glyph glyph-name="j" unicode="j" horiz-adv-x="281" 
d="M111 50v460h80v-467q0 -109 -51 -165.5t-166 -81.5l-21 66q89 23 123.5 62t34.5 126zM108 616v74h82v-74h-82z" />
    <glyph glyph-name="k" unicode="k" horiz-adv-x="501" 
d="M480 510l-214 -232l233 -278h-95l-200 238h-45v-238h-80v690h80v-380h38l189 200h94z" />
    <glyph glyph-name="l" unicode="l" horiz-adv-x="265" 
d="M92 0v690h80v-690h-80z" />
    <glyph glyph-name="m" unicode="m" horiz-adv-x="895" 
d="M655 520q81 0 124 -42t43 -119v-359h-79v344q0 48 -28 76.5t-78 28.5q-63 0 -105 -32.5t-42 -86.5v-330h-80v351q0 47 -28 73t-79 26q-54 0 -99 -38.5t-45 -86.5v-325h-80v510h66l4 -86q26 43 71.5 69t97.5 26q127 0 155 -93q59 94 182 94z" />
    <glyph glyph-name="n" unicode="n" horiz-adv-x="595" 
d="M338 519q88 0 136 -46t48 -130v-343h-80v336q0 54 -32 83.5t-90 29.5q-59 0 -110 -38t-51 -89v-322h-80v510h68l5 -95q67 104 186 104z" />
    <glyph glyph-name="o" unicode="o" horiz-adv-x="555" 
d="M278 519q94 0 157 -49t63 -129v-170q0 -80 -65 -129.5t-155 -49.5q-91 0 -156.5 49.5t-65.5 129.5v170q0 80 64.5 129t157.5 49zM418 175v162q0 50 -41.5 80.5t-98.5 30.5t-100 -30.5t-43 -80.5v-162q0 -51 42.5 -82t100.5 -31q56 0 98 31t42 82z" />
    <glyph glyph-name="p" unicode="p" horiz-adv-x="571" 
d="M150 62v-268h-79v716h70l9 -69q50 78 164 78q92 0 145 -49t53 -136v-162q0 -85 -53.5 -133.5t-144.5 -48.5q-113 0 -164 72zM150 342v-176q0 -53 42.5 -81t105.5 -28q59 0 97 31.5t38 85.5v158q0 57 -37.5 88t-99.5 31q-61 0 -103.5 -28.5t-42.5 -80.5z" />
    <glyph glyph-name="q" unicode="q" horiz-adv-x="571" 
d="M420 -206v268q-51 -72 -164 -72q-91 0 -144.5 48.5t-53.5 133.5v162q0 87 53 136t145 49q115 0 164 -76l9 67h70v-716h-79zM420 166v176q0 52 -42.5 80.5t-103.5 28.5q-63 0 -100 -30.5t-37 -87.5v-160q0 -54 38 -85t97 -31q63 0 105.5 28t42.5 81z" />
    <glyph glyph-name="r" unicode="r" horiz-adv-x="365" 
d="M293 520q32 0 59 -7l-11 -79q-25 5 -57 5q-53 0 -87 -44t-34 -101v-294h-81v510h68l8 -93q16 44 52 73.5t83 29.5z" />
    <glyph glyph-name="s" unicode="s" horiz-adv-x="482" 
d="M265 286q93 -20 132 -55t40 -94q0 -72 -53.5 -109.5t-136.5 -37.5q-53 0 -109 17t-96 49l33 56q30 -25 77.5 -40t89.5 -15q119 0 119 78q0 33 -28.5 52.5t-100.5 36.5q-92 20 -131.5 55.5t-39.5 94.5q0 73 53 109t133 36q104 0 182 -48l-30 -57q-71 38 -144 38
q-117 0 -117 -79q0 -34 28 -53.5t99 -33.5z" />
    <glyph glyph-name="t" unicode="t" horiz-adv-x="392" 
d="M260 67q58 0 99 17l18 -63q-63 -25 -134 -25q-140 0 -140 132v322h-76v60h76v131h79v-131h150v-60h-150v-312q0 -71 78 -71z" />
    <glyph glyph-name="u" unicode="u" horiz-adv-x="588" 
d="M436 173v337h79v-341q0 -83 -61.5 -131t-157.5 -48t-157 47.5t-61 131.5v341h79v-337q0 -53 38.5 -82.5t100.5 -29.5t101 29.5t39 82.5z" />
    <glyph glyph-name="v" unicode="v" horiz-adv-x="527" 
d="M109 510l154 -415l154 415h85l-202 -510h-75l-201 510h85z" />
    <glyph glyph-name="w" unicode="w" horiz-adv-x="740" 
d="M402 510l131 -414l97 414h79l-137 -510h-76l-125 401l-125 -401h-78l-138 510h80l100 -415l126 415h66z" />
    <glyph glyph-name="x" unicode="x" horiz-adv-x="499" 
d="M30 510h91l129 -198l127 198h96l-176 -255l182 -255h-94l-136 197l-136 -197h-93l182 255z" />
    <glyph glyph-name="y" unicode="y" horiz-adv-x="505" 
d="M197 -49l12 32l-186 527h85l142 -427l142 427h85l-201 -566q-57 -158 -205 -158l-7 64q46 0 81 25.5t52 75.5z" />
    <glyph glyph-name="z" unicode="z" horiz-adv-x="490" 
d="M54 510h369v-43l-279 -400h297v-67h-393v49l280 397h-274v64z" />
    <glyph glyph-name="braceleft" unicode="{" horiz-adv-x="309" 
d="M235 742l30 -44q-115 -66 -100 -178l23 -178l-38 -46l39 -40l-24 -205q-13 -114 103 -180l-32 -46q-160 83 -141 229l24 192l-45 47l46 56l-25 169q-21 146 140 224z" />
    <glyph glyph-name="bar" unicode="|" horiz-adv-x="235" 
d="M83 -147v827h68v-827h-68z" />
    <glyph glyph-name="braceright" unicode="}" horiz-adv-x="316" 
d="M75 698l28 43q78 -39 116.5 -96t27.5 -127l-26 -169l47 -56l-47 -47l26 -192q9 -67 -27.5 -126t-118.5 -101l-30 44q122 77 109 180l-25 205l38 40l-37 45l24 179q14 100 -105 178z" />
    <glyph glyph-name="asciitilde" unicode="~" horiz-adv-x="402" 
d="M138 628q-28 0 -49 -35l-38 30q38 63 88 63q24 0 68 -23t64 -23q26 2 42 33l41 -27q-36 -64 -81 -64q-29 0 -71.5 23t-63.5 23z" />
    <glyph glyph-name="uni00A0" unicode="&#xa0;" horiz-adv-x="229" 
 />
    <glyph glyph-name="exclamdown" unicode="&#xa1;" horiz-adv-x="255" 
d="M191 -171h-98l12 464h74zM190 514v-83h-95v83h95z" />
    <glyph glyph-name="cent" unicode="&#xa2;" horiz-adv-x="471" 
d="M277 448q-60 0 -99.5 -31t-39.5 -85v-157q0 -55 41.5 -85t99.5 -30q75 -1 130 40l32 -57q-63 -52 -168 -52q-4 0 -12 0.5t-11 0.5l-21 -125l-58 9l21 125q-62 17 -98 59.5t-36 108.5v170q0 83 60 132t153 49l20 129l59 -9l-21 -126q62 -12 111 -57l-35 -55
q-54 46 -128 46z" />
    <glyph glyph-name="sterling" unicode="&#xa3;" horiz-adv-x="572" 
d="M287 214q1 -53 -8 -85.5t-43 -57.5h285v-71h-454v52q83 2 112.5 41t27.5 113l-9 89h-134v61h128l-10 114q-6 104 75 160t215 57v-71q-101 0 -158 -36.5t-52 -107.5l11 -116h199v-61h-192q1 -19 3 -38.5t3 -30.5t1 -12z" />
    <glyph glyph-name="yen" unicode="&#xa5;" horiz-adv-x="581" 
d="M52 201h201v65l-8 14h-193v47h169l-185 353h92l166 -333l167 333h93l-189 -353h160v-47h-185l-7 -14v-65h191v-46h-191v-155h-80v155h-201v46z" />
    <glyph glyph-name="brokenbar" unicode="&#xa6;" horiz-adv-x="166" 
d="M54 -111v327h58v-327h-58zM54 363v328h58v-328h-58z" />
    <glyph glyph-name="section" unicode="&#xa7;" horiz-adv-x="565" 
d="M348 363q82 -38 126 -78t44 -105q0 -101 -85 -134q34 -42 34 -99q0 -79 -55 -125t-138 -46q-64 0 -117 27.5t-78 74.5l46 34q16 -34 58 -56t89 -22q56 0 92.5 28t36.5 81q0 25 -13.5 48.5t-31.5 40.5t-48 34.5t-53 28t-55 23.5q-72 31 -110 68.5t-38 107.5q0 41 26.5 77
t59.5 45q-31 40 -31 104q0 80 54 124.5t139 44.5q131 0 186 -93l-42 -36q-20 33 -58 52t-85 19q-54 0 -91 -31t-37 -80q0 -73 102 -124q19 -10 73 -33zM455 170q0 47 -32 74.5t-110 61.5q-83 36 -126 68q-29 -3 -49 -27t-20 -52q0 -47 31.5 -73.5t103.5 -56.5
q89 -38 133 -71q27 3 48 27t21 49z" />
    <glyph glyph-name="dieresis" unicode="&#xa8;" horiz-adv-x="360" 
d="M129 659v-78h-74v78h74zM304 659v-78h-74v78h74z" />
    <glyph glyph-name="copyright" unicode="&#xa9;" horiz-adv-x="809" 
d="M54 348q0 146 102 248.5t249 102.5q146 0 248 -102.5t102 -248.5q0 -145 -102 -246.5t-248 -101.5q-147 0 -249 101t-102 247zM103 348q0 -125 88.5 -213t214.5 -88q125 0 212.5 88t87.5 213q0 126 -87.5 214t-213.5 88t-214 -88t-88 -214zM410 472q-51 0 -88 -32
t-37 -76v-47q0 -47 37.5 -77t90.5 -31q74 0 120 44l30 -44q-26 -27 -67.5 -41.5t-83.5 -14.5q-80 0 -134 46.5t-54 117.5v47q0 67 55 115.5t131 48.5q95 0 151 -66l-33 -41q-19 23 -52 37t-66 14z" />
    <glyph glyph-name="ordfeminine" unicode="&#xaa;" horiz-adv-x="350" 
d="M173 689q55 0 87 -25t32 -75v-207h-42l-10 29q-31 -31 -83 -31q-45 0 -74 24t-29 62v70l182 27v15q0 34 -16.5 47.5t-48.5 13.5q-37 0 -80 -24l-20 45q49 28 102 29zM233 469v51l-124 -17v-36q0 -14 17.5 -25t40.5 -11q24 0 45 11t21 27z" />
    <glyph glyph-name="guillemotleft" unicode="&#xab;" horiz-adv-x="468" 
d="M413 36l-30 -36l-158 174l158 180l30 -35l-113 -143zM242 36l-30 -36l-158 174l158 180l31 -35l-114 -143z" />
    <glyph glyph-name="logicalnot" unicode="&#xac;" horiz-adv-x="453" 
d="M54 281v56h345v-152h-55v96h-290z" />
    <glyph glyph-name="registered" unicode="&#xae;" horiz-adv-x="809" 
d="M54 348q0 148 101.5 249.5t249.5 101.5q147 0 248.5 -101.5t101.5 -249.5q0 -147 -101.5 -247.5t-248.5 -100.5q-149 0 -250 100t-101 248zM103 348q0 -127 87.5 -214t215.5 -87q127 0 213.5 87t86.5 214t-87 214.5t-214 87.5t-214.5 -87.5t-87.5 -214.5zM552 414
q0 -37 -24 -63.5t-63 -34.5l99 -160h-65l-96 155h-72v-155h-55v383h162q48 0 81 -32t33 -77v-16zM331 490v-133h100q26 0 47 15.5t21 39.5v16q-1 26 -20.5 44t-47.5 18h-100z" />
    <glyph glyph-name="macron" unicode="&#xaf;" horiz-adv-x="469" 
d="M414 681v-45h-359v45h359z" />
    <glyph glyph-name="degree" unicode="&#xb0;" horiz-adv-x="380" 
d="M189 690q56 -2 96 -33t40 -78v-27q0 -48 -39.5 -78.5t-96.5 -30.5t-96 30.5t-39 78.5v27q0 48 39 78.5t96 32.5zM268 548v35q0 24 -23 40t-56 16q-32 0 -55.5 -16t-23.5 -40v-35q1 -24 24 -39.5t55 -15.5t55.5 15.5t23.5 39.5z" />
    <glyph glyph-name="plusminus" unicode="&#xb1;" horiz-adv-x="551" 
d="M301 533v-169h183v-58h-183v-181h-63v181h-178v58h178v169h63zM54 0v55h442v-55h-442z" />
    <glyph glyph-name="twosuperior" unicode="&#xb2;" horiz-adv-x="393" 
d="M206 689q66 0 99 -26.5t33 -73.5q0 -65 -102 -111q-36 -16 -52 -25t-34 -27t-19 -39h213v-55h-282v41q0 50 30.5 81t88.5 56q30 12 45 19t32 22.5t17 32.5q0 50 -78 50q-62 0 -109 -45l-29 41q52 59 147 59z" />
    <glyph glyph-name="threesuperior" unicode="&#xb3;" horiz-adv-x="369" 
d="M335 593v-8q0 -61 -70 -79q29 -8 51.5 -26.5t22.5 -50.5v-16q0 -50 -40 -73.5t-100 -23.5q-55 0 -98.5 24t-51.5 62l43 20q5 -24 34 -38t67 -14q83 0 83 45v14q0 24 -26 38.5t-59 14.5h-67v49h62q85 0 85 51v8q0 46 -81 46q-37 0 -64.5 -14t-32.5 -38l-39 23
q8 36 49.5 59.5t92.5 23.5q60 0 99.5 -23t39.5 -74z" />
    <glyph glyph-name="acute" unicode="&#xb4;" horiz-adv-x="256" 
d="M51 564l101 143l55 -36l-110 -132z" />
    <glyph glyph-name="paragraph" unicode="&#xb6;" horiz-adv-x="524" 
d="M208 680h225v-680h-52v635h-85v-635h-53v374h-35q-69 0 -111.5 35.5t-42.5 98.5v31q0 60 41.5 100t112.5 41z" />
    <glyph glyph-name="periodcentered" unicode="&#xb7;" horiz-adv-x="197" 
d="M71 199v100h102v-100h-102z" />
    <glyph glyph-name="cedilla" unicode="&#xb8;" horiz-adv-x="241" 
d="M75 0h55l-15 -52q71 -27 71 -93q0 -38 -29.5 -65t-79.5 -41l-20 39q71 27 71 62q0 50 -73 67z" />
    <glyph glyph-name="onesuperior" unicode="&#xb9;" horiz-adv-x="277" 
d="M146 337v283h-110v60h175v-343h-65z" />
    <glyph glyph-name="ordmasculine" unicode="&#xba;" horiz-adv-x="373" 
d="M186 689q54 0 93 -31.5t39 -77.5v-88q0 -46 -39 -77t-93 -31q-55 0 -93.5 31t-38.5 78v87q0 47 38.5 78t93.5 31zM260 490v93q-1 24 -23 39t-51 15q-30 0 -52 -15t-22 -40v-86q1 -29 21 -45t53 -16q30 0 52 15.5t22 39.5z" />
    <glyph glyph-name="guillemotright" unicode="&#xbb;" horiz-adv-x="462" 
d="M43 36l112 140l-112 143l30 35l158 -180l-158 -174zM215 36l112 140l-113 143l30 35l158 -180l-158 -174z" />
    <glyph glyph-name="onequarter" unicode="&#xbc;" horiz-adv-x="677" 
d="M152 337v283h-110v60h175v-343h-65zM145 0h-77l423 680h75zM575 358v-224h64v-49h-64v-83h-63v83h-200v41l177 232h86zM512 134v161h-6l-126 -161h132z" />
    <glyph glyph-name="onehalf" unicode="&#xbd;" horiz-adv-x="685" 
d="M152 337v283h-110v60h175v-343h-65zM134 0h-77l423 680h75zM514 354q66 0 99 -26.5t33 -73.5q0 -65 -102 -111q-36 -16 -52 -25t-34 -27t-19 -39h213v-55h-282v41q0 50 30.5 81t88.5 56q30 12 45 19t32 22.5t17 32.5q0 50 -78 50q-62 0 -109 -45l-29 41q52 59 147 59z
" />
    <glyph glyph-name="threequarters" unicode="&#xbe;" horiz-adv-x="738" 
d="M328 593v-8q0 -61 -70 -79q29 -8 51.5 -26.5t22.5 -50.5v-16q0 -50 -40 -73.5t-100 -23.5q-55 0 -98.5 24t-51.5 62l43 20q5 -24 34 -38t67 -14q83 0 83 45v14q0 24 -26 38.5t-59 14.5h-67v49h62q85 0 85 51v8q0 46 -81 46q-37 0 -64.5 -14t-32.5 -38l-39 23
q8 36 49.5 59.5t92.5 23.5q60 0 99.5 -23t39.5 -74zM223 0h-77l423 680h75zM642 357v-224h64v-49h-64v-83h-63v83h-200v41l177 232h86zM579 133v161h-6l-126 -161h132z" />
    <glyph glyph-name="questiondown" unicode="&#xbf;" horiz-adv-x="406" 
d="M211 -189q-169 0 -169 145v55q0 19 5 35t20.5 33.5t21.5 23.5t30 27q36 30 53 54t17 59v66h79v-78q0 -57 -79 -123q-22 -20 -32.5 -30.5t-22 -28.5t-11.5 -33v-52q0 -81 96 -81q60 0 125 54l32 -56q-79 -70 -165 -70zM281 514v-102h-112v102h112z" />
    <glyph glyph-name="Agrave" unicode="&#xc0;" horiz-adv-x="634" 
d="M277 688h85l241 -688h-86l-69 205h-260l-71 -205h-87zM207 273h222l-110 315zM203 874l59 39l97 -147l-44 -29z" />
    <glyph glyph-name="Aacute" unicode="&#xc1;" horiz-adv-x="634" 
d="M277 688h85l241 -688h-86l-69 205h-260l-71 -205h-87zM207 273h222l-110 315zM277 760l101 143l55 -36l-110 -132z" />
    <glyph glyph-name="Acircumflex" unicode="&#xc2;" horiz-adv-x="634" 
d="M277 688h85l241 -688h-86l-69 205h-260l-71 -205h-87zM207 273h222l-110 315zM190 770l126 86l127 -87l-30 -37l-97 61l-98 -60z" />
    <glyph glyph-name="Atilde" unicode="&#xc3;" horiz-adv-x="634" 
d="M277 688h85l241 -688h-86l-69 205h-260l-71 -205h-87zM207 273h222l-110 315zM252 778q-28 0 -49 -35l-38 30q38 63 88 63q24 0 68 -23t64 -23q26 2 42 33l41 -27q-36 -64 -81 -64q-29 0 -71.5 23t-63.5 23z" />
    <glyph glyph-name="Adieresis" unicode="&#xc4;" horiz-adv-x="634" 
d="M277 688h85l241 -688h-86l-69 205h-260l-71 -205h-87zM207 273h222l-110 315zM266 829v-78h-74v78h74zM441 829v-78h-74v78h74z" />
    <glyph glyph-name="Aring" unicode="&#xc5;" horiz-adv-x="634" 
d="M277 688h85l241 -688h-86l-69 205h-260l-71 -205h-87zM207 273h222l-110 315zM315 733q-32 0 -55 23t-23 55q0 33 23 55t55 22q33 0 56.5 -22t23.5 -55q0 -32 -24 -55t-56 -23zM275 809q0 -16 12 -28t29 -12t29 12t12 28q0 17 -12 29.5t-29 12.5t-29 -12.5t-12 -29.5z
" />
    <glyph glyph-name="AE" unicode="&#xc6;" horiz-adv-x="876" 
d="M764 317h-219v-246h288v-71h-368v186h-243l-115 -186h-93l420 680h375v-72h-264v-223h219v-68zM257 254h208v345z" />
    <glyph glyph-name="Ccedilla" unicode="&#xc7;" horiz-adv-x="595" 
d="M324 618q-75 0 -125.5 -41.5t-50.5 -110.5v-252q0 -75 48.5 -114t129.5 -39q111 0 177 50l35 -57q-76 -62 -209 -64l-12 -42q71 -27 71 -93q0 -38 -29.5 -65t-79.5 -41l-20 39q71 27 71 62q0 50 -73 67l18 76q-95 11 -151 67t-56 150v259q0 99 72.5 160t179.5 61
q141 0 220 -76l-39 -58q-67 62 -177 62z" />
    <glyph glyph-name="Egrave" unicode="&#xc8;" horiz-adv-x="556" 
d="M424 312h-256v-241h332v-71h-411v680h387v-72h-308v-226h256v-70zM174 865l59 39l97 -147l-44 -29z" />
    <glyph glyph-name="Eacute" unicode="&#xc9;" horiz-adv-x="556" 
d="M424 312h-256v-241h332v-71h-411v680h387v-72h-308v-226h256v-70zM249 752l101 143l55 -36l-110 -132z" />
    <glyph glyph-name="Ecircumflex" unicode="&#xca;" horiz-adv-x="556" 
d="M424 312h-256v-241h332v-71h-411v680h387v-72h-308v-226h256v-70zM161 762l126 86l127 -87l-30 -37l-97 61l-98 -60z" />
    <glyph glyph-name="Edieresis" unicode="&#xcb;" horiz-adv-x="556" 
d="M424 312h-256v-241h332v-71h-411v680h387v-72h-308v-226h256v-70zM238 821v-78h-74v78h74zM413 821v-78h-74v78h74z" />
    <glyph glyph-name="Igrave" unicode="&#xcc;" horiz-adv-x="293" 
d="M106 0v680h79v-680h-79zM33 865l59 39l97 -147l-44 -29z" />
    <glyph glyph-name="Iacute" unicode="&#xcd;" horiz-adv-x="293" 
d="M106 0v680h79v-680h-79zM106 752l101 143l55 -36l-110 -132z" />
    <glyph glyph-name="Icircumflex" unicode="&#xce;" horiz-adv-x="293" 
d="M106 0v680h79v-680h-79zM20 762l126 86l127 -87l-30 -37l-97 61l-98 -60z" />
    <glyph glyph-name="Idieresis" unicode="&#xcf;" horiz-adv-x="293" 
d="M106 0v680h79v-680h-79zM96 821v-78h-74v78h74zM271 821v-78h-74v78h74z" />
    <glyph glyph-name="Eth" unicode="&#xd0;" horiz-adv-x="689" 
d="M34 311v65h108v310h220q118 0 196 -58.5t78 -157.5v-253q0 -105 -75.5 -161t-199.5 -56h-219v311h-108zM556 220v247q0 69 -54.5 108.5t-139.5 39.5h-139v-239h159v-65h-160v-241h139q92 0 143.5 37.5t51.5 112.5z" />
    <glyph glyph-name="Ntilde" unicode="&#xd1;" horiz-adv-x="704" 
d="M534 121v559h75v-680h-81l-369 560v-560h-75v680h83zM287 769q-28 0 -49 -35l-38 30q38 63 88 63q24 0 68 -23t64 -23q26 2 42 33l41 -27q-36 -64 -81 -64q-29 0 -71.5 23t-63.5 23z" />
    <glyph glyph-name="Ograve" unicode="&#xd2;" horiz-adv-x="661" 
d="M338 690q113 0 185.5 -60t72.5 -160v-261q0 -103 -70.5 -161t-187.5 -58h-16q-115 0 -184 57.5t-69 161.5v261q0 100 70.5 160t181.5 60h17zM517 213v253q0 70 -50 111t-129 41h-17q-76 0 -124 -41t-48 -111v-253q0 -73 46.5 -112.5t126.5 -39.5h16q82 0 130.5 39.5
t48.5 112.5zM214 875l59 39l97 -147l-44 -29z" />
    <glyph glyph-name="Oacute" unicode="&#xd3;" horiz-adv-x="661" 
d="M338 690q113 0 185.5 -60t72.5 -160v-261q0 -103 -70.5 -161t-187.5 -58h-16q-115 0 -184 57.5t-69 161.5v261q0 100 70.5 160t181.5 60h17zM517 213v253q0 70 -50 111t-129 41h-17q-76 0 -124 -41t-48 -111v-253q0 -73 46.5 -112.5t126.5 -39.5h16q82 0 130.5 39.5
t48.5 112.5zM288 762l101 143l55 -36l-110 -132z" />
    <glyph glyph-name="Ocircumflex" unicode="&#xd4;" horiz-adv-x="661" 
d="M338 690q113 0 185.5 -60t72.5 -160v-261q0 -103 -70.5 -161t-187.5 -58h-16q-115 0 -184 57.5t-69 161.5v261q0 100 70.5 160t181.5 60h17zM517 213v253q0 70 -50 111t-129 41h-17q-76 0 -124 -41t-48 -111v-253q0 -73 46.5 -112.5t126.5 -39.5h16q82 0 130.5 39.5
t48.5 112.5zM201 772l126 86l127 -87l-30 -37l-97 61l-98 -60z" />
    <glyph glyph-name="Otilde" unicode="&#xd5;" horiz-adv-x="661" 
d="M338 690q113 0 185.5 -60t72.5 -160v-261q0 -103 -70.5 -161t-187.5 -58h-16q-115 0 -184 57.5t-69 161.5v261q0 100 70.5 160t181.5 60h17zM517 213v253q0 70 -50 111t-129 41h-17q-76 0 -124 -41t-48 -111v-253q0 -73 46.5 -112.5t126.5 -39.5h16q82 0 130.5 39.5
t48.5 112.5zM263 779q-28 0 -49 -35l-38 30q38 63 88 63q24 0 68 -23t64 -23q26 2 42 33l41 -27q-36 -64 -81 -64q-29 0 -71.5 23t-63.5 23z" />
    <glyph glyph-name="Odieresis" unicode="&#xd6;" horiz-adv-x="661" 
d="M338 690q113 0 185.5 -60t72.5 -160v-261q0 -103 -70.5 -161t-187.5 -58h-16q-115 0 -184 57.5t-69 161.5v261q0 100 70.5 160t181.5 60h17zM517 213v253q0 70 -50 111t-129 41h-17q-76 0 -124 -41t-48 -111v-253q0 -73 46.5 -112.5t126.5 -39.5h16q82 0 130.5 39.5
t48.5 112.5zM277 831v-78h-74v78h74zM452 831v-78h-74v78h74z" />
    <glyph glyph-name="multiply" unicode="&#xd7;" horiz-adv-x="574" 
d="M438 490h71l-186 -238l197 -252h-76l-159 204l-158 -204h-74l196 252l-185 238h71l150 -190z" />
    <glyph glyph-name="Oslash" unicode="&#xd8;" horiz-adv-x="632" 
d="M335 690q58 0 112 -19l40 90h55l-50 -111q101 -62 101 -180v-261q0 -103 -70.5 -161t-187.5 -58h-16q-62 0 -113 17l-36 -81h-58l47 104q-93 57 -93 179v261q0 100 70.5 160t181.5 60h17zM514 213v253q0 71 -53 113l-225 -504q37 -14 83 -14h16q82 0 130.5 39.5
t48.5 112.5zM146 213q0 -72 45 -112l225 503q-37 14 -81 14h-17q-76 0 -124 -41t-48 -111v-253z" />
    <glyph glyph-name="Ugrave" unicode="&#xd9;" horiz-adv-x="694" 
d="M527 214v466h80v-469q0 -106 -73 -163.5t-187 -57.5q-115 0 -188 56.5t-73 164.5v469h79v-466q0 -75 52 -114t130 -39q75 0 127.5 41t52.5 112zM232 865l59 39l97 -147l-44 -29z" />
    <glyph glyph-name="Uacute" unicode="&#xda;" horiz-adv-x="694" 
d="M527 214v466h80v-469q0 -106 -73 -163.5t-187 -57.5q-115 0 -188 56.5t-73 164.5v469h79v-466q0 -75 52 -114t130 -39q75 0 127.5 41t52.5 112zM307 752l101 143l55 -36l-110 -132z" />
    <glyph glyph-name="Ucircumflex" unicode="&#xdb;" horiz-adv-x="694" 
d="M527 214v466h80v-469q0 -106 -73 -163.5t-187 -57.5q-115 0 -188 56.5t-73 164.5v469h79v-466q0 -75 52 -114t130 -39q75 0 127.5 41t52.5 112zM219 762l126 86l127 -87l-30 -37l-97 61l-98 -60z" />
    <glyph glyph-name="Udieresis" unicode="&#xdc;" horiz-adv-x="694" 
d="M527 214v466h80v-469q0 -106 -73 -163.5t-187 -57.5q-115 0 -188 56.5t-73 164.5v469h79v-466q0 -75 52 -114t130 -39q75 0 127.5 41t52.5 112zM296 821v-78h-74v78h74zM471 821v-78h-74v78h74z" />
    <glyph glyph-name="Yacute" unicode="&#xdd;" horiz-adv-x="599" 
d="M253 0v266l-217 414h92l166 -333l167 333h93l-221 -414v-266h-80zM257 752l101 143l55 -36l-110 -132z" />
    <glyph glyph-name="Thorn" unicode="&#xde;" horiz-adv-x="539" 
d="M132 546h166q84 0 136 -50.5t52 -127.5v-19q0 -75 -51 -120t-137 -45h-166v-184h-80v680h80v-134zM407 349v19q0 43 -31.5 75.5t-82.5 32.5h-161v-221h162q52 0 82.5 26.5t30.5 67.5z" />
    <glyph glyph-name="agrave" unicode="&#xe0;" horiz-adv-x="542" 
d="M281 519q88 0 138.5 -42.5t50.5 -120.5v-356h-70l-5 58q-50 -63 -159 -63q-85 0 -132.5 36.5t-47.5 103.5v113l334 51v56q0 92 -116 92q-87 0 -169 -41l-25 60q36 21 93 37t108 16zM389 149v93l-253 -40v-62q0 -40 30.5 -60.5t84.5 -20.5t96 25t42 65zM144 719l59 39
l97 -147l-44 -29z" />
    <glyph glyph-name="aacute" unicode="&#xe1;" horiz-adv-x="542" 
d="M281 519q88 0 138.5 -42.5t50.5 -120.5v-356h-70l-5 58q-50 -63 -159 -63q-85 0 -132.5 36.5t-47.5 103.5v113l334 51v56q0 92 -116 92q-87 0 -169 -41l-25 60q36 21 93 37t108 16zM389 149v93l-253 -40v-62q0 -40 30.5 -60.5t84.5 -20.5t96 25t42 65zM219 605l101 143
l55 -36l-110 -132z" />
    <glyph glyph-name="acircumflex" unicode="&#xe2;" horiz-adv-x="542" 
d="M281 519q88 0 138.5 -42.5t50.5 -120.5v-356h-70l-5 58q-50 -63 -159 -63q-85 0 -132.5 36.5t-47.5 103.5v113l334 51v56q0 92 -116 92q-87 0 -169 -41l-25 60q36 21 93 37t108 16zM389 149v93l-253 -40v-62q0 -40 30.5 -60.5t84.5 -20.5t96 25t42 65zM131 615l126 86
l127 -87l-30 -37l-97 61l-98 -60z" />
    <glyph glyph-name="atilde" unicode="&#xe3;" horiz-adv-x="542" 
d="M281 519q88 0 138.5 -42.5t50.5 -120.5v-356h-70l-5 58q-50 -63 -159 -63q-85 0 -132.5 36.5t-47.5 103.5v113l334 51v56q0 92 -116 92q-87 0 -169 -41l-25 60q36 21 93 37t108 16zM389 149v93l-253 -40v-62q0 -40 30.5 -60.5t84.5 -20.5t96 25t42 65zM193 623
q-28 0 -49 -35l-38 30q38 63 88 63q24 0 68 -23t64 -23q26 2 42 33l41 -27q-36 -64 -81 -64q-29 0 -71.5 23t-63.5 23z" />
    <glyph glyph-name="adieresis" unicode="&#xe4;" horiz-adv-x="542" 
d="M281 519q88 0 138.5 -42.5t50.5 -120.5v-356h-70l-5 58q-50 -63 -159 -63q-85 0 -132.5 36.5t-47.5 103.5v113l334 51v56q0 92 -116 92q-87 0 -169 -41l-25 60q36 21 93 37t108 16zM389 149v93l-253 -40v-62q0 -40 30.5 -60.5t84.5 -20.5t96 25t42 65zM208 674v-78h-74
v78h74zM383 674v-78h-74v78h74z" />
    <glyph glyph-name="aring" unicode="&#xe5;" horiz-adv-x="542" 
d="M281 519q88 0 138.5 -42.5t50.5 -120.5v-356h-70l-5 58q-50 -63 -159 -63q-85 0 -132.5 36.5t-47.5 103.5v113l334 51v56q0 92 -116 92q-87 0 -169 -41l-25 60q36 21 93 37t108 16zM389 149v93l-253 -40v-62q0 -40 30.5 -60.5t84.5 -20.5t96 25t42 65zM257 578
q-32 0 -55 23t-23 55q0 33 23 55t55 22q33 0 56.5 -22t23.5 -55q0 -32 -24 -55t-56 -23zM217 654q0 -16 12 -28t29 -12t29 12t12 28q0 17 -12 29.5t-29 12.5t-29 -12.5t-12 -29.5z" />
    <glyph glyph-name="ae" unicode="&#xe6;" horiz-adv-x="859" 
d="M623 63q49 0 91.5 14t65.5 30l32 -52q-75 -62 -192 -62q-156 0 -209 92q-51 -92 -183 -92q-79 0 -130 41t-51 110v102l332 40v67q0 103 -118 103q-39 0 -88 -14t-79 -29l-21 58q34 21 88 37.5t105 16.5q116 0 157 -78q26 36 74 57.5t107 21.5q90 0 146.5 -45.5
t56.5 -125.5v-81l-343 -35v-68q0 -53 44.5 -80.5t114.5 -27.5zM603 459q-57 0 -98 -30.5t-41 -73.5v-61l269 26v40q0 48 -36 73.5t-94 25.5zM380 150v82l-256 -30v-57q0 -41 34 -64t85 -23q55 0 96 23.5t41 68.5z" />
    <glyph glyph-name="ccedilla" unicode="&#xe7;" horiz-adv-x="480" 
d="M277 448q-60 0 -99.5 -31t-39.5 -85v-157q0 -55 41.5 -85t99.5 -30q75 -1 130 40l32 -57q-60 -50 -165 -52l-12 -43q71 -27 71 -93q0 -38 -29.5 -65t-79.5 -41l-20 39q71 27 71 62q0 50 -73 67l19 78q-74 11 -119.5 55.5t-45.5 118.5v170q0 83 60 132t153 49
q101 0 169 -63l-35 -55q-54 46 -128 46z" />
    <glyph glyph-name="egrave" unicode="&#xe8;" horiz-adv-x="534" 
d="M288 62q98 0 157 39l28 -55q-70 -52 -189 -52q-94 0 -161 46.5t-67 129.5v179q0 72 65 121t152 49t148.5 -48t61.5 -122v-107h-348v-69q0 -53 44.5 -82t108.5 -29zM273 452q-55 0 -96 -30t-42 -74v-46h272v46q0 45 -39.5 74.5t-94.5 29.5zM152 719l59 39l97 -147l-44 -29
z" />
    <glyph glyph-name="eacute" unicode="&#xe9;" horiz-adv-x="534" 
d="M288 62q98 0 157 39l28 -55q-70 -52 -189 -52q-94 0 -161 46.5t-67 129.5v179q0 72 65 121t152 49t148.5 -48t61.5 -122v-107h-348v-69q0 -53 44.5 -82t108.5 -29zM273 452q-55 0 -96 -30t-42 -74v-46h272v46q0 45 -39.5 74.5t-94.5 29.5zM227 606l101 143l55 -36
l-110 -132z" />
    <glyph glyph-name="ecircumflex" unicode="&#xea;" horiz-adv-x="534" 
d="M288 62q98 0 157 39l28 -55q-70 -52 -189 -52q-94 0 -161 46.5t-67 129.5v179q0 72 65 121t152 49t148.5 -48t61.5 -122v-107h-348v-69q0 -53 44.5 -82t108.5 -29zM273 452q-55 0 -96 -30t-42 -74v-46h272v46q0 45 -39.5 74.5t-94.5 29.5zM139 616l126 86l127 -87
l-30 -37l-97 61l-98 -60z" />
    <glyph glyph-name="edieresis" unicode="&#xeb;" horiz-adv-x="534" 
d="M288 62q98 0 157 39l28 -55q-70 -52 -189 -52q-94 0 -161 46.5t-67 129.5v179q0 72 65 121t152 49t148.5 -48t61.5 -122v-107h-348v-69q0 -53 44.5 -82t108.5 -29zM273 452q-55 0 -96 -30t-42 -74v-46h272v46q0 45 -39.5 74.5t-94.5 29.5zM215 675v-78h-74v78h74z
M390 675v-78h-74v78h74z" />
    <glyph glyph-name="igrave" unicode="&#xec;" horiz-adv-x="255" 
d="M83 0v513h80v-513h-80zM10 712l59 39l97 -147l-44 -29z" />
    <glyph glyph-name="iacute" unicode="&#xed;" horiz-adv-x="255" 
d="M83 0v513h80v-513h-80zM83 599l101 143l55 -36l-110 -132z" />
    <glyph glyph-name="icircumflex" unicode="&#xee;" horiz-adv-x="255" 
d="M83 0v513h80v-513h-80zM-3 609l126 86l127 -87l-30 -37l-97 61l-98 -60z" />
    <glyph glyph-name="idieresis" unicode="&#xef;" horiz-adv-x="255" 
d="M83 0v513h80v-513h-80zM73 668v-78h-74v78h74zM248 668v-78h-74v78h74z" />
    <glyph glyph-name="eth" unicode="&#xf0;" horiz-adv-x="554" 
d="M338 658l127 57l22 -42l-112 -51q116 -119 116 -296v-159q0 -76 -65.5 -126.5t-158.5 -50.5q-91 0 -153 50t-62 127v142q0 76 56 126.5t143 50.5q101 0 153 -58q-23 89 -104 167l-143 -64l-20 43l120 53q-60 50 -132 64l29 61q107 -29 184 -94zM411 173v128
q0 48 -43 80.5t-101 32.5q-57 0 -96 -32t-39 -80v-128q0 -49 39.5 -81t95.5 -32q58 0 101 32.5t43 79.5z" />
    <glyph glyph-name="ntilde" unicode="&#xf1;" horiz-adv-x="595" 
d="M338 519q88 0 136 -46t48 -130v-343h-80v336q0 54 -32 83.5t-90 29.5q-59 0 -110 -38t-51 -89v-322h-80v510h68l5 -95q67 104 186 104zM232 624q-28 0 -49 -35l-38 30q38 63 88 63q24 0 68 -23t64 -23q26 2 42 33l41 -27q-36 -64 -81 -64q-29 0 -71.5 23t-63.5 23z" />
    <glyph glyph-name="ograve" unicode="&#xf2;" horiz-adv-x="555" 
d="M278 519q94 0 157 -49t63 -129v-170q0 -80 -65 -129.5t-155 -49.5q-91 0 -156.5 49.5t-65.5 129.5v170q0 80 64.5 129t157.5 49zM418 175v162q0 50 -41.5 80.5t-98.5 30.5t-100 -30.5t-43 -80.5v-162q0 -51 42.5 -82t100.5 -31q56 0 98 31t42 82zM159 719l59 39l97 -147
l-44 -29z" />
    <glyph glyph-name="oacute" unicode="&#xf3;" horiz-adv-x="555" 
d="M278 519q94 0 157 -49t63 -129v-170q0 -80 -65 -129.5t-155 -49.5q-91 0 -156.5 49.5t-65.5 129.5v170q0 80 64.5 129t157.5 49zM418 175v162q0 50 -41.5 80.5t-98.5 30.5t-100 -30.5t-43 -80.5v-162q0 -51 42.5 -82t100.5 -31q56 0 98 31t42 82zM234 606l101 143l55 -36
l-110 -132z" />
    <glyph glyph-name="ocircumflex" unicode="&#xf4;" horiz-adv-x="555" 
d="M278 519q94 0 157 -49t63 -129v-170q0 -80 -65 -129.5t-155 -49.5q-91 0 -156.5 49.5t-65.5 129.5v170q0 80 64.5 129t157.5 49zM418 175v162q0 50 -41.5 80.5t-98.5 30.5t-100 -30.5t-43 -80.5v-162q0 -51 42.5 -82t100.5 -31q56 0 98 31t42 82zM146 616l126 86l127 -87
l-30 -37l-97 61l-98 -60z" />
    <glyph glyph-name="otilde" unicode="&#xf5;" horiz-adv-x="555" 
d="M278 519q94 0 157 -49t63 -129v-170q0 -80 -65 -129.5t-155 -49.5q-91 0 -156.5 49.5t-65.5 129.5v170q0 80 64.5 129t157.5 49zM418 175v162q0 50 -41.5 80.5t-98.5 30.5t-100 -30.5t-43 -80.5v-162q0 -51 42.5 -82t100.5 -31q56 0 98 31t42 82zM208 624q-28 0 -49 -35
l-38 30q38 63 88 63q24 0 68 -23t64 -23q26 2 42 33l41 -27q-36 -64 -81 -64q-29 0 -71.5 23t-63.5 23z" />
    <glyph glyph-name="odieresis" unicode="&#xf6;" horiz-adv-x="555" 
d="M278 519q94 0 157 -49t63 -129v-170q0 -80 -65 -129.5t-155 -49.5q-91 0 -156.5 49.5t-65.5 129.5v170q0 80 64.5 129t157.5 49zM418 175v162q0 50 -41.5 80.5t-98.5 30.5t-100 -30.5t-43 -80.5v-162q0 -51 42.5 -82t100.5 -31q56 0 98 31t42 82zM223 675v-78h-74v78h74z
M398 675v-78h-74v78h74z" />
    <glyph glyph-name="divide" unicode="&#xf7;" horiz-adv-x="686" 
d="M54 255v55h578v-55h-578zM291 76v97h100v-97h-100zM391 486v-97h-100v97h100z" />
    <glyph glyph-name="oslash" unicode="&#xf8;" horiz-adv-x="548" 
d="M287 519q60 0 108 -21l41 69h51l-53 -90q73 -51 73 -136v-170q0 -80 -65 -129.5t-155 -49.5q-70 0 -123 28l-46 -78h-53l61 102q-61 50 -61 127v170q0 80 64.5 129t157.5 49zM427 175v162q0 43 -33 73l-193 -327q40 -21 86 -21q56 0 98 31t42 82zM144 175q0 -36 22 -63
l191 322q-33 14 -70 14q-57 0 -100 -30.5t-43 -80.5v-162z" />
    <glyph glyph-name="ugrave" unicode="&#xf9;" horiz-adv-x="588" 
d="M436 173v337h79v-341q0 -83 -61.5 -131t-157.5 -48t-157 47.5t-61 131.5v341h79v-337q0 -53 38.5 -82.5t100.5 -29.5t101 29.5t39 82.5zM179 709l59 39l97 -147l-44 -29z" />
    <glyph glyph-name="uacute" unicode="&#xfa;" horiz-adv-x="588" 
d="M436 173v337h79v-341q0 -83 -61.5 -131t-157.5 -48t-157 47.5t-61 131.5v341h79v-337q0 -53 38.5 -82.5t100.5 -29.5t101 29.5t39 82.5zM254 596l101 143l55 -36l-110 -132z" />
    <glyph glyph-name="ucircumflex" unicode="&#xfb;" horiz-adv-x="588" 
d="M436 173v337h79v-341q0 -83 -61.5 -131t-157.5 -48t-157 47.5t-61 131.5v341h79v-337q0 -53 38.5 -82.5t100.5 -29.5t101 29.5t39 82.5zM166 607l126 86l127 -87l-30 -37l-97 61l-98 -60z" />
    <glyph glyph-name="udieresis" unicode="&#xfc;" horiz-adv-x="588" 
d="M436 173v337h79v-341q0 -83 -61.5 -131t-157.5 -48t-157 47.5t-61 131.5v341h79v-337q0 -53 38.5 -82.5t100.5 -29.5t101 29.5t39 82.5zM242 665v-78h-74v78h74zM417 665v-78h-74v78h74z" />
    <glyph glyph-name="yacute" unicode="&#xfd;" horiz-adv-x="505" 
d="M198 -49l12 32l-186 527h85l142 -427l142 427h85l-201 -566q-57 -158 -205 -158l-7 64q46 0 81 25.5t52 75.5zM209 599l101 143l55 -36l-110 -132z" />
    <glyph glyph-name="thorn" unicode="&#xfe;" horiz-adv-x="589" 
d="M326 521q88 0 145 -50t57 -127v-175q0 -77 -57 -128t-145 -51q-111 0 -169 75v-297h-77v921h80v-246q63 78 166 78zM449 172v167q0 51 -40 83t-98 32t-101.5 -33.5t-43.5 -81.5v-168q0 -47 43 -80.5t102 -33.5q58 0 98 32t40 83z" />
    <glyph glyph-name="ydieresis" unicode="&#xff;" horiz-adv-x="513" 
d="M202 -49l12 32l-186 527h85l142 -427l142 427h85l-201 -566q-57 -158 -205 -158l-7 64q46 0 81 25.5t52 75.5zM205 665v-78h-74v78h74zM380 665v-78h-74v78h74z" />
    <glyph glyph-name="Abreve" unicode="&#x102;" horiz-adv-x="634" 
d="M277 688h85l241 -688h-86l-69 205h-260l-71 -205h-87zM207 273h222l-110 315zM316 732q-44 0 -76.5 21.5t-46.5 59.5l46 14q19 -51 77 -51q28 0 48.5 14t28.5 37l47 -14q-14 -38 -47.5 -59.5t-76.5 -21.5z" />
    <glyph glyph-name="abreve" unicode="&#x103;" horiz-adv-x="542" 
d="M281 519q88 0 138.5 -42.5t50.5 -120.5v-356h-70l-5 58q-50 -63 -159 -63q-85 0 -132.5 36.5t-47.5 103.5v113l334 51v56q0 92 -116 92q-87 0 -169 -41l-25 60q36 21 93 37t108 16zM389 149v93l-253 -40v-62q0 -40 30.5 -60.5t84.5 -20.5t96 25t42 65zM257 575
q-44 0 -76.5 21.5t-46.5 59.5l46 14q19 -51 77 -51q28 0 48.5 14t28.5 37l47 -14q-14 -38 -47.5 -59.5t-76.5 -21.5z" />
    <glyph glyph-name="Aogonek" unicode="&#x104;" horiz-adv-x="648" 
d="M519 0l-69 205h-260l-71 -205h-87l247 688h85l241 -688h-21l1 -54q-37 -2 -64 -22.5t-28 -63.5q0 -7 1 -12h129v-54h-195q-5 22 -5 38q0 64 28 100.5t68 48.5v19zM209 273h222l-110 315z" />
    <glyph glyph-name="aogonek" unicode="&#x105;" horiz-adv-x="546" 
d="M281 519q88 0 138.5 -42.5t50.5 -120.5v-356h-4l1 -51q-37 -2 -64 -22.5t-28 -63.5q0 -7 1 -12h129v-54h-195q-5 22 -5 38q0 64 28 100.5t68 48.5v16h-1l-5 58q-50 -63 -159 -63q-85 0 -132.5 36.5t-47.5 103.5v113l334 51v56q0 92 -116 92q-87 0 -169 -41l-25 60
q36 21 93 37t108 16zM389 149v93l-253 -40v-62q0 -40 30.5 -60.5t84.5 -20.5t96 25t42 65z" />
    <glyph glyph-name="Cacute" unicode="&#x106;" horiz-adv-x="576" 
d="M322 618q-75 0 -125.5 -41.5t-50.5 -110.5v-252q0 -75 48.5 -114t129.5 -39q111 0 177 50l35 -57q-78 -64 -217 -64q-113 0 -183 57.5t-70 162.5v259q0 99 72.5 160t179.5 61q141 0 220 -76l-39 -58q-67 62 -177 62zM264 762l101 143l55 -36l-110 -132z" />
    <glyph glyph-name="cacute" unicode="&#x107;" horiz-adv-x="480" 
d="M277 448q-60 0 -99.5 -31t-39.5 -85v-157q0 -55 41.5 -85t99.5 -30q75 -1 130 40l32 -57q-63 -52 -168 -52q-93 0 -154 46t-61 132v170q0 83 60 132t153 49q101 0 169 -63l-35 -55q-54 46 -128 46zM210 602l101 143l55 -36l-110 -132z" />
    <glyph glyph-name="Ccaron" unicode="&#x10c;" horiz-adv-x="576" 
d="M322 618q-75 0 -125.5 -41.5t-50.5 -110.5v-252q0 -75 48.5 -114t129.5 -39q111 0 177 50l35 -57q-78 -64 -217 -64q-113 0 -183 57.5t-70 162.5v259q0 99 72.5 160t179.5 61q141 0 220 -76l-39 -58q-67 62 -177 62zM413 838l-110 -104l-113 104l34 32l78 -70l77 70z" />
    <glyph glyph-name="ccaron" unicode="&#x10d;" horiz-adv-x="480" 
d="M277 448q-60 0 -99.5 -31t-39.5 -85v-157q0 -55 41.5 -85t99.5 -30q75 -1 130 40l32 -57q-63 -52 -168 -52q-93 0 -154 46t-61 132v170q0 83 60 132t153 49q101 0 169 -63l-35 -55q-54 46 -128 46zM359 678l-110 -104l-113 104l34 32l78 -70l77 70z" />
    <glyph glyph-name="Dcaron" unicode="&#x10e;" horiz-adv-x="654" 
d="M89 680h227q114 0 188.5 -60t74.5 -168v-227q0 -109 -75.5 -167t-191.5 -58h-223v680zM500 230v218q0 75 -53.5 117.5t-130.5 42.5h-148v-537h144q82 0 135 40t53 119zM420 828l-110 -104l-113 104l34 32l78 -70l77 70z" />
    <glyph glyph-name="dcaron" unicode="&#x10f;" horiz-adv-x="710" 
d="M419 446v244h79v-690h-70l-9 67q-49 -76 -164 -76q-92 0 -145 48.5t-53 135.5v161q0 85 53.5 134.5t144.5 49.5q112 0 164 -74zM419 166v177q0 53 -42.5 81t-105.5 28q-59 0 -97 -31.5t-38 -84.5v-161q0 -56 37.5 -86.5t99.5 -30.5q61 0 103.5 28t42.5 80zM613 709h71
v-26q0 -69 -16 -106.5t-46 -70.5l-44 25q35 52 35 121v57z" />
    <glyph glyph-name="Dcroat" unicode="&#x110;" horiz-adv-x="659" 
d="M20 315v60h69v305h227q114 0 188.5 -60t74.5 -168v-227q0 -109 -75.5 -167t-191.5 -58h-223v315h-69zM500 230v218q0 75 -53.5 117.5t-130.5 42.5h-148v-233h145v-60h-145v-244h144q82 0 135 40t53 119z" />
    <glyph glyph-name="dcroat" unicode="&#x111;" horiz-adv-x="574" 
d="M260 575v57h160v58h79v-58h65v-57h-65v-575h-70l-9 67q-49 -76 -164 -76q-92 0 -145 48.5t-53 135.5v161q0 85 53.5 134.5t144.5 49.5q112 0 164 -74v129h-160zM420 166v177q0 53 -42.5 81t-105.5 28q-59 0 -97 -31.5t-38 -84.5v-161q0 -56 37.5 -86.5t99.5 -30.5
q61 0 103.5 28t42.5 80z" />
    <glyph glyph-name="Eogonek" unicode="&#x118;" horiz-adv-x="562" 
d="M308 0h-219v680h387v-72h-308v-226h256v-70h-256v-241h332v-71h-127l1 -54q-37 -2 -64 -22.5t-28 -63.5q0 -7 1 -12h129v-54h-195q-5 22 -5 38q0 64 28 100.5t68 48.5v19z" />
    <glyph glyph-name="eogonek" unicode="&#x119;" horiz-adv-x="539" 
d="M288 62q98 0 157 39l28 -55q-57 -42 -146 -50l1 -50q-37 -2 -64 -22.5t-28 -63.5q0 -7 1 -12h129v-54h-195q-5 22 -5 38q0 64 28 100.5t68 48.5v14q-87 6 -146.5 51.5t-59.5 123.5v179q0 72 65 121t152 49t148.5 -48t61.5 -122v-107h-348v-69q0 -53 44.5 -82t108.5 -29z
M273 452q-55 0 -96 -30t-42 -74v-46h272v46q0 45 -39.5 74.5t-94.5 29.5z" />
    <glyph glyph-name="Ecaron" unicode="&#x11a;" horiz-adv-x="556" 
d="M424 312h-256v-241h332v-71h-411v680h387v-72h-308v-226h256v-70zM400 828l-110 -104l-113 104l34 32l78 -70l77 70z" />
    <glyph glyph-name="ecaron" unicode="&#x11b;" horiz-adv-x="534" 
d="M288 62q98 0 157 39l28 -55q-70 -52 -189 -52q-94 0 -161 46.5t-67 129.5v179q0 72 65 121t152 49t148.5 -48t61.5 -122v-107h-348v-69q0 -53 44.5 -82t108.5 -29zM273 452q-55 0 -96 -30t-42 -74v-46h272v46q0 45 -39.5 74.5t-94.5 29.5zM377 678l-110 -104l-113 104
l34 32l78 -70l77 70z" />
    <glyph glyph-name="dotlessi" unicode="&#x131;" horiz-adv-x="255" 
d="M83 0v513h80v-513h-80z" />
    <glyph glyph-name="Lacute" unicode="&#x139;" horiz-adv-x="532" 
d="M89 680h79v-609h351v-71h-430v680zM129 747l101 143l55 -36l-110 -132z" />
    <glyph glyph-name="lacute" unicode="&#x13a;" horiz-adv-x="265" 
d="M92 0v690h80v-690h-80zM94 772l101 143l55 -36l-110 -132z" />
    <glyph glyph-name="Lcaron" unicode="&#x13d;" horiz-adv-x="532" 
d="M89 680h79v-609h351v-71h-430v680zM325 679h71v-26q0 -69 -16 -106.5t-46 -70.5l-44 25q35 52 35 121v57z" />
    <glyph glyph-name="lcaron" unicode="&#x13e;" horiz-adv-x="398" 
d="M92 0v690h80v-690h-80zM298 699h71v-26q0 -69 -16 -106.5t-46 -70.5l-44 25q35 52 35 121v57z" />
    <glyph glyph-name="Lslash" unicode="&#x141;" 
d="M149 680h80v-277l125 70l21 -50l-146 -81v-271h345v-71h-425v307l-112 -62l-21 50l133 74v311z" />
    <glyph glyph-name="lslash" unicode="&#x142;" horiz-adv-x="385" 
d="M156 319l-109 -61l-22 50l131 73v349h79v-315l114 64l22 -50l-136 -75v-354h-79v319z" />
    <glyph glyph-name="Nacute" unicode="&#x143;" horiz-adv-x="704" 
d="M534 121v559h75v-680h-81l-369 560v-560h-75v680h83zM313 752l101 143l55 -36l-110 -132z" />
    <glyph glyph-name="nacute" unicode="&#x144;" horiz-adv-x="595" 
d="M338 519q88 0 136 -46t48 -130v-343h-80v336q0 54 -32 83.5t-90 29.5q-59 0 -110 -38t-51 -89v-322h-80v510h68l5 -95q67 104 186 104zM259 602l101 143l55 -36l-110 -132z" />
    <glyph glyph-name="Ncaron" unicode="&#x147;" horiz-adv-x="704" 
d="M534 121v559h75v-680h-81l-369 560v-560h-75v680h83zM463 828l-110 -104l-113 104l34 32l78 -70l77 70z" />
    <glyph glyph-name="ncaron" unicode="&#x148;" horiz-adv-x="595" 
d="M338 519q88 0 136 -46t48 -130v-343h-80v336q0 54 -32 83.5t-90 29.5q-59 0 -110 -38t-51 -89v-322h-80v510h68l5 -95q67 104 186 104zM408 678l-110 -104l-113 104l34 32l78 -70l77 70z" />
    <glyph glyph-name="Ohungarumlaut" unicode="&#x150;" horiz-adv-x="661" 
d="M338 690q113 0 185.5 -60t72.5 -160v-261q0 -103 -70.5 -161t-187.5 -58h-16q-115 0 -184 57.5t-69 161.5v261q0 100 70.5 160t181.5 60h17zM517 213v253q0 70 -50 111t-129 41h-17q-76 0 -124 -41t-48 -111v-253q0 -73 46.5 -112.5t126.5 -39.5h16q82 0 130.5 39.5
t48.5 112.5zM396 918l43 -38l-184 -140l-39 33zM559 914l43 -37l-184 -140l-39 32z" />
    <glyph glyph-name="ohungarumlaut" unicode="&#x151;" horiz-adv-x="555" 
d="M278 519q94 0 157 -49t63 -129v-170q0 -80 -65 -129.5t-155 -49.5q-91 0 -156.5 49.5t-65.5 129.5v170q0 80 64.5 129t157.5 49zM418 175v162q0 50 -41.5 80.5t-98.5 30.5t-100 -30.5t-43 -80.5v-162q0 -51 42.5 -82t100.5 -31q56 0 98 31t42 82zM340 758l43 -38
l-184 -140l-39 33zM503 754l43 -37l-184 -140l-39 32z" />
    <glyph glyph-name="OE" unicode="&#x152;" horiz-adv-x="910" 
d="M797 318h-245v-247h314v-71h-536q-115 0 -195.5 63.5t-80.5 154.5v242q0 87 82.5 153t192.5 66h512v-71h-290v-220h246v-70zM134 225q1 -67 58 -110.5t138 -43.5h142v537h-143q-73 0 -134 -47t-61 -107v-229z" />
    <glyph glyph-name="oe" unicode="&#x153;" horiz-adv-x="886" 
d="M657 62q41 0 85.5 12t68.5 29l34 -52q-70 -54 -191 -54q-146 0 -202 95q-25 -46 -76 -71t-112 -25q-91 0 -150.5 50t-59.5 127v174q0 76 59 125.5t150 49.5q60 0 113 -25t78 -71q24 41 71.5 69t105.5 28q89 0 150 -44t61 -126v-77l-343 -46v-63q0 -49 47.5 -77t110.5 -28
zM273 66q55 0 96.5 30t42.5 74v179q-1 44 -42.5 74t-97.5 30q-57 0 -97.5 -31.5t-40.5 -77.5v-168q0 -46 40.5 -78t98.5 -32zM638 453q-54 -1 -96 -31.5t-43 -72.5v-61l263 35v29q0 43 -36.5 72t-87.5 29z" />
    <glyph glyph-name="Racute" unicode="&#x154;" horiz-adv-x="605" 
d="M557 465q0 -65 -37 -106t-102 -55l158 -304h-87l-146 287h-174v-287h-79v680h264q95 0 149 -47t54 -130v-38zM169 608v-254h187q53 2 87 29.5t34 76.5v41q0 48 -35 77.5t-94 29.5h-179zM295 752l101 143l55 -36l-110 -132z" />
    <glyph glyph-name="racute" unicode="&#x155;" horiz-adv-x="362" 
d="M293 520q32 0 59 -7l-11 -79q-25 5 -57 5q-53 0 -87 -44t-34 -101v-294h-81v510h68l8 -93q16 44 52 73.5t83 29.5zM178 602l101 143l55 -36l-110 -132z" />
    <glyph glyph-name="Rcaron" unicode="&#x158;" horiz-adv-x="605" 
d="M557 465q0 -65 -37 -106t-102 -55l158 -304h-87l-146 287h-174v-287h-79v680h264q95 0 149 -47t54 -130v-38zM169 608v-254h187q53 2 87 29.5t34 76.5v41q0 48 -35 77.5t-94 29.5h-179zM444 828l-110 -104l-113 104l34 32l78 -70l77 70z" />
    <glyph glyph-name="rcaron" unicode="&#x159;" horiz-adv-x="362" 
d="M293 520q32 0 59 -7l-11 -79q-25 5 -57 5q-53 0 -87 -44t-34 -101v-294h-81v510h68l8 -93q16 44 52 73.5t83 29.5zM327 678l-110 -104l-113 104l34 32l78 -70l77 70z" />
    <glyph glyph-name="Sacute" unicode="&#x15a;" horiz-adv-x="582" 
d="M324 373q105 -31 153.5 -76t48.5 -123q1 -85 -61 -133.5t-163 -48.5q-76 0 -142.5 29t-105.5 82l46 50q68 -91 201 -91q67 0 107 29t40 81q0 54 -35 82.5t-127 55.5q-105 32 -158 77.5t-53 121.5q-1 87 61.5 133.5t161.5 46.5q138 0 226 -91l-43 -53q-73 73 -182 73
q-65 0 -105.5 -28t-40.5 -79q0 -52 39.5 -81t131.5 -57zM254 762l101 143l55 -36l-110 -132z" />
    <glyph glyph-name="sacute" unicode="&#x15b;" horiz-adv-x="484" 
d="M267 286q93 -20 132 -55t40 -94q0 -72 -53.5 -109.5t-136.5 -37.5q-53 0 -109 17t-96 49l33 56q30 -25 77.5 -40t89.5 -15q119 0 119 78q0 33 -28.5 52.5t-100.5 36.5q-92 20 -131.5 55.5t-39.5 94.5q0 73 53 109t133 36q104 0 182 -48l-30 -57q-71 38 -144 38
q-117 0 -117 -79q0 -34 28 -53.5t99 -33.5zM200 602l101 143l55 -36l-110 -132z" />
    <glyph glyph-name="Scedilla" unicode="&#x15e;" horiz-adv-x="582" 
d="M324 373q105 -31 153.5 -76t48.5 -123q1 -80 -54.5 -128t-146.5 -53l-13 -45q71 -27 71 -93q0 -38 -29.5 -65t-79.5 -41l-20 39q71 27 71 62q0 50 -73 67l18 76q-67 5 -124.5 33.5t-91.5 76.5l46 50q68 -91 201 -91q67 0 107 29t40 81q0 54 -35 82.5t-127 55.5
q-105 32 -158 77.5t-53 121.5q-1 87 61.5 133.5t161.5 46.5q138 0 226 -91l-43 -53q-73 73 -182 73q-65 0 -105.5 -28t-40.5 -79q0 -52 39.5 -81t131.5 -57z" />
    <glyph glyph-name="scedilla" unicode="&#x15f;" horiz-adv-x="484" 
d="M267 286q93 -20 132 -55t40 -94q0 -68 -47 -104.5t-123 -41.5l-12 -43q71 -27 71 -93q0 -38 -29.5 -65t-79.5 -41l-20 39q71 27 71 62q0 50 -73 67l18 75q-105 11 -171 64l33 56q30 -25 77.5 -40t89.5 -15q119 0 119 78q0 33 -28.5 52.5t-100.5 36.5q-92 20 -131.5 55.5
t-39.5 94.5q0 73 53 109t133 36q104 0 182 -48l-30 -57q-71 38 -144 38q-117 0 -117 -79q0 -34 28 -53.5t99 -33.5z" />
    <glyph glyph-name="Scaron" unicode="&#x160;" horiz-adv-x="612" 
d="M331 373q105 -31 153.5 -76t48.5 -123q1 -85 -61 -133.5t-163 -48.5q-76 0 -142.5 29t-105.5 82l46 50q68 -91 201 -91q67 0 107 29t40 81q0 54 -35 82.5t-127 55.5q-105 32 -158 77.5t-53 121.5q-1 87 61.5 133.5t161.5 46.5q138 0 226 -91l-43 -53q-73 73 -182 73
q-65 0 -105.5 -28t-40.5 -79q0 -52 39.5 -81t131.5 -57zM412 836l-110 -104l-113 104l34 32l78 -70l77 70z" />
    <glyph glyph-name="scaron" unicode="&#x161;" horiz-adv-x="487" 
d="M266 286q93 -20 132 -55t40 -94q0 -72 -53.5 -109.5t-136.5 -37.5q-53 0 -109 17t-96 49l33 56q30 -25 77.5 -40t89.5 -15q119 0 119 78q0 33 -28.5 52.5t-100.5 36.5q-92 20 -131.5 55.5t-39.5 94.5q0 73 53 109t133 36q104 0 182 -48l-30 -57q-71 38 -144 38
q-117 0 -117 -79q0 -34 28 -53.5t99 -33.5zM350 683l-110 -104l-113 104l34 32l78 -70l77 70z" />
    <glyph glyph-name="Tcommaaccent" unicode="&#x162;" horiz-adv-x="584" 
d="M246 608h-226v72h537v-72h-231v-608h-80v608zM251 -49h70v-25q0 -68 -15.5 -104.5t-45.5 -68.5l-44 24q35 52 35 118v56z" />
    <glyph glyph-name="tcommaaccent" unicode="&#x163;" horiz-adv-x="394" 
d="M260 67q58 0 99 17l18 -63q-63 -25 -134 -25q-140 0 -140 132v322h-76v60h76v131h79v-131h150v-60h-150v-312q0 -71 78 -71zM198 -39h71v-26q0 -69 -16 -106.5t-46 -70.5l-44 25q35 52 35 121v57z" />
    <glyph glyph-name="Tcaron" unicode="&#x164;" horiz-adv-x="578" 
d="M120 323v67h126v218h-226v72h537v-72h-231v-218h146v-67h-146v-323h-80v323h-126z" />
    <glyph glyph-name="tcaron" unicode="&#x165;" horiz-adv-x="528" 
d="M260 67q58 0 99 17l18 -63q-63 -25 -134 -25q-140 0 -140 132v322h-76v60h76v131h79v-131h150v-60h-150v-312q0 -71 78 -71zM422 644h71v-26q0 -69 -16 -106.5t-46 -70.5l-44 25q35 52 35 121v57z" />
    <glyph glyph-name="Uring" unicode="&#x16e;" horiz-adv-x="694" 
d="M527 214v466h80v-469q0 -106 -73 -163.5t-187 -57.5q-115 0 -188 56.5t-73 164.5v469h79v-466q0 -75 52 -114t130 -39q75 0 127.5 41t52.5 112zM345 725q-32 0 -55 23t-23 55q0 33 23 55t55 22q33 0 56.5 -22t23.5 -55q0 -32 -24 -55t-56 -23zM305 801q0 -16 12 -28
t29 -12t29 12t12 28q0 17 -12 29.5t-29 12.5t-29 -12.5t-12 -29.5z" />
    <glyph glyph-name="uring" unicode="&#x16f;" horiz-adv-x="588" 
d="M436 173v337h79v-341q0 -83 -61.5 -131t-157.5 -48t-157 47.5t-61 131.5v341h79v-337q0 -53 38.5 -82.5t100.5 -29.5t101 29.5t39 82.5zM292 564q-32 0 -55 23t-23 55q0 33 23 55t55 22q33 0 56.5 -22t23.5 -55q0 -32 -24 -55t-56 -23zM252 640q0 -16 12 -28t29 -12
t29 12t12 28q0 17 -12 29.5t-29 12.5t-29 -12.5t-12 -29.5z" />
    <glyph glyph-name="Uhungarumlaut" unicode="&#x170;" horiz-adv-x="694" 
d="M527 214v466h80v-469q0 -106 -73 -163.5t-187 -57.5q-115 0 -188 56.5t-73 164.5v469h79v-466q0 -75 52 -114t130 -39q75 0 127.5 41t52.5 112zM413 908l43 -38l-184 -140l-39 33zM576 904l43 -37l-184 -140l-39 32z" />
    <glyph glyph-name="uhungarumlaut" unicode="&#x171;" horiz-adv-x="588" 
d="M436 173v337h79v-341q0 -83 -61.5 -131t-157.5 -48t-157 47.5t-61 131.5v341h79v-337q0 -53 38.5 -82.5t100.5 -29.5t101 29.5t39 82.5zM360 748l43 -38l-184 -140l-39 33zM523 744l43 -37l-184 -140l-39 32z" />
    <glyph glyph-name="Ydieresis" unicode="&#x178;" 
d="M253 0v266l-217 414h92l166 -333l167 333h93l-221 -414v-266h-80zM245 821v-78h-74v78h74zM420 821v-78h-74v78h74z" />
    <glyph glyph-name="Zacute" unicode="&#x179;" horiz-adv-x="585" 
d="M70 680h452v-50l-361 -559h369v-71h-472v49l363 559h-351v72zM254 752l101 143l55 -36l-110 -132z" />
    <glyph glyph-name="zacute" unicode="&#x17a;" horiz-adv-x="491" 
d="M54 510h369v-43l-279 -400h297v-67h-393v49l280 397h-274v64zM204 592l101 143l55 -36l-110 -132z" />
    <glyph glyph-name="Zdotaccent" unicode="&#x17b;" horiz-adv-x="585" 
d="M70 680h452v-50l-361 -559h369v-71h-472v49l363 559h-351v72zM248 724v79h85v-79h-85z" />
    <glyph glyph-name="zdotaccent" unicode="&#x17c;" horiz-adv-x="491" 
d="M54 510h369v-43l-279 -400h297v-67h-393v49l280 397h-274v64zM198 565v79h85v-79h-85z" />
    <glyph glyph-name="Zcaron" unicode="&#x17d;" horiz-adv-x="593" 
d="M70 680h452v-50l-361 -559h369v-71h-472v49l363 559h-351v72zM407 827l-110 -104l-113 104l34 32l78 -70l77 70z" />
    <glyph glyph-name="zcaron" unicode="&#x17e;" horiz-adv-x="495" 
d="M54 510h369v-43l-279 -400h297v-67h-393v49l280 397h-274v64zM355 674l-110 -104l-113 104l34 32l78 -70l77 70z" />
    <glyph glyph-name="florin" unicode="&#x192;" horiz-adv-x="568" 
d="M427 759q87 0 129 -34l-26 -56q-42 23 -103 23q-41 0 -74 -26.5t-39 -64.5l-13 -90h115l-3 -63h-120l-58 -426q-10 -64 -74.5 -102.5t-147.5 -38.5l-6 68q57 0 99.5 26.5t49.5 70.5l55 402h-98l3 63h104l13 101q7 63 63 104.5t131 42.5z" />
    <glyph glyph-name="circumflex" unicode="&#x2c6;" horiz-adv-x="357" 
d="M52 609l126 86l127 -87l-30 -37l-97 61l-98 -60z" />
    <glyph glyph-name="caron" unicode="&#x2c7;" horiz-adv-x="322" 
d="M275 610l-110 -104l-113 104l34 32l78 -70l77 70z" />
    <glyph glyph-name="breve" unicode="&#x2d8;" horiz-adv-x="357" 
d="M178 597q-44 0 -76.5 21.5t-46.5 59.5l46 14q19 -51 77 -51q28 0 48.5 14t28.5 37l47 -14q-14 -38 -47.5 -59.5t-76.5 -21.5z" />
    <glyph glyph-name="dotaccent" unicode="&#x2d9;" horiz-adv-x="168" 
d="M41 634v79h85v-79h-85z" />
    <glyph glyph-name="ring" unicode="&#x2da;" horiz-adv-x="241" 
d="M120 557q-32 0 -55 23t-23 55q0 33 23 55t55 22q33 0 56.5 -22t23.5 -55q0 -32 -24 -55t-56 -23zM80 633q0 -16 12 -28t29 -12t29 12t12 28q0 17 -12 29.5t-29 12.5t-29 -12.5t-12 -29.5z" />
    <glyph glyph-name="ogonek" unicode="&#x2db;" horiz-adv-x="292" 
d="M131 0h65l1 -54q-37 -2 -64 -22.5t-28 -63.5q0 -7 1 -12h129v-54h-195q-5 22 -5 38q0 64 28 100.5t68 48.5v19z" />
    <glyph glyph-name="tilde" unicode="&#x2dc;" horiz-adv-x="412" 
d="M141 628q-28 0 -49 -35l-38 30q38 63 88 63q24 0 68 -23t64 -23q26 2 42 33l41 -27q-36 -64 -81 -64q-29 0 -71.5 23t-63.5 23z" />
    <glyph glyph-name="hungarumlaut" unicode="&#x2dd;" horiz-adv-x="508" 
d="M235 726l43 -38l-184 -140l-39 33zM398 722l43 -37l-184 -140l-39 32z" />
    <glyph glyph-name="endash" unicode="&#x2013;" horiz-adv-x="574" 
d="M7 263v57h555v-57h-555z" />
    <glyph glyph-name="emdash" unicode="&#x2014;" horiz-adv-x="787" 
d="M8 263v57h770v-57h-770z" />
    <glyph glyph-name="quoteleft" unicode="&#x2018;" horiz-adv-x="132" 
d="M96 504h-67v28q0 122 54 178l37 -24q-24 -43 -24 -124v-58z" />
    <glyph glyph-name="quoteright" unicode="&#x2019;" horiz-adv-x="135" 
d="M39 709h71v-26q0 -69 -16 -106.5t-46 -70.5l-44 25q35 52 35 121v57z" />
    <glyph glyph-name="quotesinglbase" unicode="&#x201a;" horiz-adv-x="228" 
d="M125 79h71v-26q0 -69 -16 -106.5t-46 -70.5l-44 25q35 52 35 121v57z" />
    <glyph glyph-name="quotedblleft" unicode="&#x201c;" horiz-adv-x="259" 
d="M225 504h-67v28q0 122 54 178l37 -24q-24 -43 -24 -124v-58zM96 504h-67v28q0 122 54 178l37 -24q-24 -43 -24 -124v-58z" />
    <glyph glyph-name="quotedblright" unicode="&#x201d;" horiz-adv-x="271" 
d="M39 686h71v-26q0 -69 -16 -106.5t-46 -70.5l-44 25q35 52 35 121v57zM173 686h71v-26q0 -69 -16 -106.5t-46 -70.5l-44 25q35 52 35 121v57z" />
    <glyph glyph-name="quotedblbase" unicode="&#x201e;" horiz-adv-x="400" 
d="M125 80h71v-26q0 -69 -16 -106.5t-46 -70.5l-44 25q35 52 35 121v57zM287 81h71v-26q0 -69 -16 -106.5t-46 -70.5l-44 25q35 52 35 121v57z" />
    <glyph glyph-name="dagger" unicode="&#x2020;" horiz-adv-x="522" 
d="M297 680v-190h168v-58h-168v-431h-67v431h-170v58h170v190h67z" />
    <glyph glyph-name="daggerdbl" unicode="&#x2021;" horiz-adv-x="535" 
d="M303 680v-190h187v-58h-187v-375h187v-57h-187v-186h-67v186h-191v57h191v375h-191v58h191v190h67z" />
    <glyph glyph-name="bullet" unicode="&#x2022;" horiz-adv-x="343" 
d="M81 174v178h181v-178h-181z" />
    <glyph glyph-name="ellipsis" unicode="&#x2026;" horiz-adv-x="744" 
d="M323 0v102h98v-102h-98zM564 0v102h99v-102h-99zM81 0v102h98v-102h-98z" />
    <glyph glyph-name="perthousand" unicode="&#x2030;" horiz-adv-x="1036" 
d="M125 8l421 689l54 -12l-418 -688zM329 604v-96q0 -46 -37.5 -76.5t-90.5 -30.5q-54 0 -91.5 30.5t-37.5 76.5v96q0 46 38 76t91 30t90.5 -30.5t37.5 -75.5zM523 303q53 0 91 -29.5t38 -73.5v-98q0 -48 -36.5 -77t-92.5 -29q-53 0 -91 29.5t-38 74.5v98q0 45 38 75t91 30z
M130 600v-89q0 -25 20 -40t51 -15q30 0 50.5 15t20.5 39v91q0 24 -20.5 39.5t-50.5 15.5t-50.5 -16t-20.5 -40zM594 103v92q0 24 -20 39t-51 15q-30 0 -50.5 -15.5t-20.5 -39.5v-90q0 -23 20.5 -38.5t50.5 -15.5q29 0 50 15t21 38zM834 303q53 0 91 -29.5t38 -73.5v-99
q0 -46 -37 -75.5t-92 -29.5q-54 0 -91.5 29t-37.5 74v99q0 45 38 75t91 30zM906 103v91q0 24 -20.5 39.5t-51.5 15.5q-29 0 -50 -15t-21 -37v-94q0 -23 21 -38t50 -15q30 0 51 15t21 38z" />
    <glyph glyph-name="guilsinglleft" unicode="&#x2039;" horiz-adv-x="297" 
d="M245 36l-39 -36l-156 174l156 180l39 -35l-113 -143z" />
    <glyph glyph-name="guilsinglright" unicode="&#x203a;" horiz-adv-x="297" 
d="M51 36l113 140l-113 143l39 35l156 -180l-156 -174z" />
    <glyph glyph-name="fraction" unicode="&#x2044;" horiz-adv-x="524" 
d="M91 0h-77l423 680h75z" />
    <glyph glyph-name="foursuperior" unicode="&#x2074;" horiz-adv-x="369" 
d="M288 680v-224h64v-49h-64v-83h-63v83h-200v41l177 232h86zM225 456v161h-6l-126 -161h132z" />
    <glyph glyph-name="Euro" unicode="&#x20ac;" horiz-adv-x="661" 
d="M39 306h87v77h-87v48h87v38q0 99 72.5 160t179.5 61q141 0 220 -76l-39 -58q-67 62 -177 62q-75 0 -125.5 -41.5t-50.5 -110.5v-35h290v-48h-290v-77h290v-48h-290v-44q0 -75 48.5 -114t129.5 -39q111 0 177 50l35 -57q-78 -64 -217 -64q-113 0 -183 57.5t-70 162.5v48
h-87v48z" />
    <glyph glyph-name="trademark" unicode="&#x2122;" horiz-adv-x="558" 
d="M270 700h45l59 -100l61 100h45v-210h-44v138l-52 -85h-21l-49 87v-140h-44v210zM43 658v42h185v-42h-70v-170h-44v170h-71z" />
    <glyph glyph-name="onethird" unicode="&#x2153;" horiz-adv-x="725" 
d="M152 337v283h-110v60h175v-343h-65zM143 0h-77l423 680h75zM670 270v-8q0 -61 -70 -79q29 -8 51.5 -26.5t22.5 -50.5v-16q0 -50 -40 -73.5t-100 -23.5q-55 0 -98.5 24t-51.5 62l43 20q5 -24 34 -38t67 -14q83 0 83 45v14q0 24 -26 38.5t-59 14.5h-67v49h62q85 0 85 51v8
q0 46 -81 46q-37 0 -64.5 -14t-32.5 -38l-39 23q8 36 49.5 59.5t92.5 23.5q60 0 99.5 -23t39.5 -74z" />
    <glyph glyph-name="twothirds" unicode="&#x2154;" horiz-adv-x="786" 
d="M228 0h-77l423 680h75zM739 272v-8q0 -61 -70 -79q29 -8 51.5 -26.5t22.5 -50.5v-16q0 -50 -40 -73.5t-100 -23.5q-55 0 -98.5 24t-51.5 62l43 20q5 -24 34 -38t67 -14q83 0 83 45v14q0 24 -26 38.5t-59 14.5h-67v49h62q85 0 85 51v8q0 46 -81 46q-37 0 -64.5 -14
t-32.5 -38l-39 23q8 36 49.5 59.5t92.5 23.5q60 0 99.5 -23t39.5 -74zM202 692q66 0 99 -26.5t33 -73.5q0 -65 -102 -111q-36 -16 -52 -25t-34 -27t-19 -39h213v-55h-282v41q0 50 30.5 81t88.5 56q30 12 45 19t32 22.5t17 32.5q0 50 -78 50q-62 0 -109 -45l-29 41
q52 59 147 59z" />
    <glyph glyph-name="minus" unicode="&#x2212;" horiz-adv-x="536" 
d="M54 366h428v-61h-428v61z" />
    <glyph glyph-name="asteriskmath" unicode="&#x2217;" horiz-adv-x="512" 
d="M277 391l126 41l15 -46l-126 -41l77 -106l-39 -29l-78 107l-81 -108l-40 29l80 107l-126 41l15 46l127 -41v131h50v-131z" />
    <glyph glyph-name="notequal" unicode="&#x2260;" horiz-adv-x="687" 
d="M525 537l-58 -95h165v-56h-197l-88 -143h285v-55h-317l-82 -136l-44 24l69 112h-204v55h236l88 143h-324v56h357l72 119z" />
    <glyph glyph-name="lessequal" unicode="&#x2264;" horiz-adv-x="624" 
d="M551 164v-58l-497 204l497 206v-58l-352 -148zM67 0v52h484v-52h-484z" />
    <glyph glyph-name="greaterequal" unicode="&#x2265;" horiz-adv-x="617" 
d="M551 52v-52h-497v52h497zM54 523l502 -212l-502 -207v58l364 149l-364 151v61z" />
    <glyph glyph-name="zerooldstyle" unicode="&#xf730;" horiz-adv-x="593" 
d="M296 521q108 0 178 -59t70 -149v-118q0 -89 -70 -147t-178 -58q-107 0 -177.5 58t-70.5 147v118q0 89 70 147.5t178 60.5zM465 199v110q0 61 -47.5 101t-121.5 40t-121.5 -40t-47.5 -101v-110q0 -60 47.5 -99.5t121.5 -39.5q75 0 122 39t47 100z" />
    <glyph glyph-name="oneoldstyle" unicode="&#xf731;" horiz-adv-x="435" 
d="M71 0v65h125v382h-118v65l198 5v-452h113v-65h-318z" />
    <glyph glyph-name="twooldstyle" unicode="&#xf732;" horiz-adv-x="572" 
d="M340 201q-116 -53 -138 -68q-36 -27 -36 -64h349v-69h-433v35q0 72 41 116t156 94q76 32 109.5 57t33.5 63q0 84 -130 84q-46 0 -97 -19t-76 -44l-39 52q34 34 96 58t125 24q97 0 149 -40t52 -109q0 -54 -36 -92.5t-126 -77.5z" />
    <glyph glyph-name="threeoldstyle" unicode="&#xf733;" horiz-adv-x="521" 
d="M434 369v-34q0 -43 -27.5 -79.5t-72.5 -56.5q56 -12 88 -46t32 -89v-28q0 -77 -62 -129.5t-150.5 -74t-193.5 -21.5l-6 69q82 0 154.5 15t125.5 51.5t53 88.5v28q0 47 -41.5 72t-102.5 27h-77l-3 70h69q55 0 95 28t40 69v33q0 41 -36.5 63.5t-94.5 22.5q-43 0 -86.5 -16
t-67.5 -39l-31 57q33 31 85.5 50.5t108.5 19.5q89 0 145 -41t56 -110z" />
    <glyph glyph-name="fouroldstyle" unicode="&#xf734;" horiz-adv-x="591" 
d="M465 510v-444h113v-66h-113v-211h-76v211h-344v58l316 452h104zM389 66v351h-14l-236 -351h250z" />
    <glyph glyph-name="fiveoldstyle" unicode="&#xf735;" horiz-adv-x="547" 
d="M264 290q107 0 163.5 -47.5t56.5 -135.5v-33q0 -59 -26.5 -105.5t-68 -75.5t-95.5 -48t-105 -26.5t-101 -7.5l-7 66q33 0 68.5 3.5t83.5 16t84.5 33t62 58t25.5 86.5v27q0 55 -38.5 86.5t-116.5 31.5h-179l41 291h328v-73h-258l-24 -147h106z" />
    <glyph glyph-name="sixoldstyle" unicode="&#xf736;" horiz-adv-x="599" 
d="M320 433q90 0 151 -45t61 -128v-87q0 -87 -68 -135t-162 -48t-161 49t-67 137v329q0 83 65.5 134t166.5 51q115 0 191 -63l-36 -58q-63 50 -152 50q-69 0 -112.5 -31t-43.5 -83v-144q28 34 73 53t94 19zM453 179v76q0 56 -44 85t-106 29q-60 0 -105 -31t-45 -83v-76
q0 -59 44 -89t105 -30t106 30t45 89z" />
    <glyph glyph-name="sevenoldstyle" unicode="&#xf737;" horiz-adv-x="513" 
d="M20 434v75h446v-49l-224 -637h-89l220 611h-353z" />
    <glyph glyph-name="eightoldstyle" unicode="&#xf738;" horiz-adv-x="609" 
d="M522 490q0 -44 -31.5 -82t-75.5 -55q52 -20 86.5 -56t34.5 -87v-50q0 -83 -68 -126.5t-164 -43.5q-98 0 -165.5 43.5t-67.5 126.5v50q0 50 34.5 87t86.5 56q-48 18 -77.5 55.5t-29.5 84.5v32q0 78 64 121.5t155 43.5q89 0 153.5 -43.5t64.5 -121.5v-35zM456 163v54
q0 46 -44.5 74.5t-98.5 28.5h-18q-57 -2 -100.5 -29.5t-43.5 -73.5v-53q0 -53 44.5 -78t108.5 -25q62 0 107 25t45 77zM164 484q0 -44 39 -71t92 -29h18q53 2 91.5 28.5t38.5 71.5v34q0 50 -41 75.5t-98 25.5t-98.5 -26t-41.5 -75v-34z" />
    <glyph glyph-name="nineoldstyle" unicode="&#xf739;" horiz-adv-x="598" 
d="M295 519q94 0 161 -51t67 -127v-248q0 -70 -30 -125.5t-81 -89.5t-114 -52t-134 -18l-5 66q48 0 94 10t91 32.5t72.5 66.5t27.5 104v37q-58 -67 -165 -67q-92 0 -153 49.5t-61 125.5v109q0 76 67.5 127t162.5 51zM444 238v99q0 47 -44 79t-105 32q-62 0 -106 -32t-44 -79
v-100q0 -46 42.5 -77.5t103.5 -31.5q62 0 107.5 32t45.5 78z" />
    <glyph glyph-name="Asmall" unicode="&#xf761;" horiz-adv-x="594" 
d="M262 563h77l231 -563h-86l-64 160h-243l-64 -160h-87zM200 220h199l-99 249z" />
    <glyph glyph-name="Bsmall" unicode="&#xf762;" horiz-adv-x="557" 
d="M478 422v-28q0 -33 -19.5 -64t-49.5 -43q41 -13 65.5 -45.5t25.5 -72.5v-34q0 -59 -44 -97t-116 -38h-255v559h234q73 0 116 -39t43 -98zM424 141v30q0 34 -25.5 59t-68.5 25h-165v-192h159q44 0 72 22.5t28 55.5zM165 496v-187h155q37 0 59.5 23t22.5 56v28
q-1 35 -27.5 57.5t-71.5 22.5h-138z" />
    <glyph glyph-name="Csmall" unicode="&#xf763;" horiz-adv-x="513" 
d="M299 499q-68 0 -114 -39.5t-46 -100.5v-156q0 -62 46 -100.5t116 -38.5q89 0 155 43l29 -58q-72 -56 -187 -56q-101 0 -169.5 58.5t-68.5 150.5v157q0 93 68 151.5t168 58.5q113 0 185 -57l-31 -57q-67 44 -151 44z" />
    <glyph glyph-name="Dsmall" unicode="&#xf764;" horiz-adv-x="594" 
d="M85 559h198q106 0 174 -54t69 -150v-152q0 -99 -67 -151t-176 -52h-198v559zM446 205v150q0 65 -45 99t-115 34h-121v-417h121q74 0 117 33t43 101z" />
    <glyph glyph-name="Esmall" unicode="&#xf765;" horiz-adv-x="503" 
d="M390 248h-223v-177h283v-71h-364v559h343v-71h-263v-180h224v-60z" />
    <glyph glyph-name="Fsmall" unicode="&#xf766;" horiz-adv-x="462" 
d="M432 559v-71h-266v-181h228v-64h-227v-243h-81v559h346z" />
    <glyph glyph-name="Gsmall" unicode="&#xf767;" horiz-adv-x="583" 
d="M302 499q-68 0 -115.5 -39t-47.5 -103v-154q0 -68 44.5 -104t114.5 -36q83 0 144 34v139h-145v60h219v-239q-99 -65 -218 -65q-104 0 -171 56.5t-67 154.5v154q0 93 69.5 152.5t165.5 59.5q118 0 201 -55l-26 -58q-86 43 -168 43z" />
    <glyph glyph-name="Hsmall" unicode="&#xf768;" horiz-adv-x="652" 
d="M487 320v240h79v-560h-79v249h-322v-249h-80v560h80v-240h322z" />
    <glyph glyph-name="Ismall" unicode="&#xf769;" horiz-adv-x="278" 
d="M99 0v560h79v-560h-79z" />
    <glyph glyph-name="Jsmall" unicode="&#xf76a;" horiz-adv-x="490" 
d="M330 152v408h80v-415q0 -71 -53 -113t-136 -42q-87 0 -143 43t-56 112l77 8q2 -40 35 -66.5t84 -26.5q50 0 81 24.5t31 67.5z" />
    <glyph glyph-name="Ksmall" unicode="&#xf76b;" horiz-adv-x="587" 
d="M166 559v-269l283 269h100l-272 -258l295 -301h-102l-247 248l-57 -48v-200h-80v559h80z" />
    <glyph glyph-name="Lsmall" unicode="&#xf76c;" horiz-adv-x="485" 
d="M86 559h80v-488h308v-71h-388v559z" />
    <glyph glyph-name="Msmall" unicode="&#xf76d;" horiz-adv-x="741" 
d="M85 559h89l196 -295l195 295h89v-559h-80v449l-184 -277h-42l-183 277v-449h-80v559z" />
    <glyph glyph-name="Nsmall" unicode="&#xf76e;" horiz-adv-x="673" 
d="M511 105v454h76v-559h-83l-343 453v-453h-76v559h82z" />
    <glyph glyph-name="Osmall" unicode="&#xf76f;" horiz-adv-x="636" 
d="M325 569q103 0 174.5 -58.5t71.5 -154.5v-155q0 -100 -70 -156t-177 -56h-13q-107 0 -177 56.5t-70 155.5v155q0 96 71.5 154.5t175.5 58.5h14zM492 203v152q0 68 -49 106t-118 38h-14q-69 0 -118 -38t-49 -106v-152q0 -71 47.5 -107.5t119.5 -36.5h13q73 0 120.5 36.5
t47.5 107.5z" />
    <glyph glyph-name="Psmall" unicode="&#xf770;" horiz-adv-x="540" 
d="M86 0v560h225q77 0 131 -45.5t54 -119.5v-41q0 -72 -53 -113.5t-133 -41.5h-144v-199h-80zM411 353v39q0 47 -30 72t-80 25h-135v-226h135q49 0 79.5 23t30.5 67z" />
    <glyph glyph-name="Qsmall" unicode="&#xf771;" horiz-adv-x="640" 
d="M325 569q103 0 174.5 -58.5t71.5 -154.5v-155q0 -95 -64 -151l63 -76l-44 -34l-66 78q-60 -29 -136 -29h-13q-107 0 -177 56.5t-70 155.5v155q0 96 71.5 154.5t175.5 58.5h14zM492 203v152q0 68 -49 106t-118 38h-14q-69 0 -118 -38t-49 -106v-152q0 -71 47.5 -107.5
t119.5 -36.5h13q51 0 88 17l-60 73l46 32l60 -73q34 37 34 95z" />
    <glyph glyph-name="Rsmall" unicode="&#xf772;" horiz-adv-x="589" 
d="M511 374q0 -56 -31.5 -92.5t-82.5 -49.5l139 -232h-86l-129 222h-156v-222h-81v559h256q75 0 123 -40t48 -110v-35zM165 492v-208h174q41 1 67 24t26 66v31q0 42 -29 64.5t-72 22.5h-166z" />
    <glyph glyph-name="Ssmall" unicode="&#xf773;" horiz-adv-x="530" 
d="M284 311q194 -34 194 -157q0 -83 -58 -123.5t-152 -40.5q-57 0 -119 18.5t-105 51.5l35 56q34 -26 86 -42.5t98 -16.5q139 0 139 94q0 37 -33.5 60t-114.5 38q-191 35 -191 158q0 82 58.5 122t146.5 40q109 0 200 -49l-28 -58q-83 39 -165 39q-134 0 -134 -94
q0 -37 32 -59.5t111 -36.5z" />
    <glyph glyph-name="Tsmall" unicode="&#xf774;" horiz-adv-x="506" 
d="M18 488v72h470v-72h-196v-488h-80v488h-194z" />
    <glyph glyph-name="Usmall" unicode="&#xf775;" horiz-adv-x="648" 
d="M485 204v356h79v-358q0 -101 -66 -154t-175 -53q-107 0 -173.5 52.5t-66.5 154.5v358h80v-356q0 -66 41 -102.5t120 -36.5q76 0 118.5 37t42.5 102z" />
    <glyph glyph-name="Vsmall" unicode="&#xf776;" horiz-adv-x="588" 
d="M24 560h86l183 -467l186 467h85l-235 -560h-73z" />
    <glyph glyph-name="Wsmall" unicode="&#xf777;" horiz-adv-x="805" 
d="M367 558h71l136 -448l115 450h83l-152 -560h-80l-138 435l-140 -435h-80l-150 560h83l114 -450z" />
    <glyph glyph-name="Xsmall" unicode="&#xf778;" horiz-adv-x="621" 
d="M51 560h98l164 -225l165 225h99l-212 -277l215 -283h-99l-169 228l-172 -228h-99l220 283z" />
    <glyph glyph-name="Ysmall" unicode="&#xf779;" horiz-adv-x="595" 
d="M31 560h94l169 -268l173 268h94l-227 -340v-220h-80v220z" />
    <glyph glyph-name="Zsmall" unicode="&#xf77a;" horiz-adv-x="549" 
d="M160 74h335v-74h-439l-3 51l333 438h-317v71h420l1 -50z" />
    <glyph glyph-name="ff" unicode="&#xfb00;" horiz-adv-x="675" 
d="M448 510v62q0 38 15 67q-71 13 -137 13q-134 0 -134 -90v-51h124v-59h-124v-452h-79v452h-68v59h68v62q0 71 57 109.5t145 38.5q95 0 193 -28l-2 -8q43 29 106 29t112 -19l-14 -61q-42 11 -86 11t-70.5 -20t-26.5 -59v-56h123v-59h-123v-451h-79v451h-67v59h67z" />
    <glyph glyph-name="ffi" unicode="&#xfb03;" horiz-adv-x="914" 
d="M425 511v62q0 39 17 68q-75 11 -127 11q-134 0 -134 -90v-51h124v-59h-124v-452h-79v452h-68v59h68v62q0 71 57 109.5t145 38.5q95 0 193 -28l-1 -2q52 30 131 30q95 0 193 -28l-14 -59q-104 18 -168 18q-134 0 -134 -90v-51h124v-59h-124v-452h-79v452h-68v59h68zM747 0
v513h80v-513h-80z" />
    <glyph glyph-name="ffl" unicode="&#xfb04;" horiz-adv-x="944" 
d="M432 511v62q0 39 17 68q-73 11 -126 11q-134 0 -134 -90v-51h124v-59h-124v-452h-79v452h-68v59h68v62q0 71 57 109.5t145 38.5q95 0 193 -28v-1q53 29 129 29q95 0 193 -28l-1 -3h25v-690h-80v641q-75 11 -126 11q-134 0 -134 -90v-51h124v-59h-124v-452h-79v452h-68v59
h68z" />
    <glyph glyph-name="e.alt1" horiz-adv-x="500" 
d="M284 61q97 0 160 38l28 -55q-72 -52 -193 -52q-95 0 -160.5 45t-65.5 129v184q0 73 62 120t150 47q90 0 148.5 -43.5t58.5 -117.5v-85l-339 -45v-55q0 -55 42.5 -82.5t108.5 -27.5zM265 449q-55 0 -93.5 -28.5t-38.5 -72.5v-65l263 35v34q0 43 -38 70t-93 27z" />
    <glyph glyph-name="Q.alt" horiz-adv-x="655" 
d="M338 690q113 0 185.5 -60t72.5 -160v-261q0 -96 -62 -153t-166 -65v-50l234 -45l-10 -66l-299 56v105q-103 7 -163.5 64t-60.5 154v261q0 100 70.5 160t181.5 60h17zM517 213v253q0 70 -50 111t-129 41h-17q-76 0 -124 -41t-48 -111v-253q0 -73 46.5 -112.5t126.5 -39.5
h16q82 0 130.5 39.5t48.5 112.5z" />
    <glyph glyph-name="y.alt" horiz-adv-x="502" 
d="M103 513l145 -405l151 405h83l-296 -750l-76 22l98 231l-188 497h83z" />
    <glyph glyph-name="k.alt" horiz-adv-x="531" 
d="M74 706h77v-405l232 223l75 -19l-236 -231q91 -26 165 -106.5t97 -167.5h-86q-13 30 -21.5 47.5t-32.5 51.5t-56 63q-38 35 -137 69v-231h-77v706z" />
    <glyph glyph-name="g.alt" horiz-adv-x="557" 
d="M66 -48l75 -4q-7 -21 -7 -36q0 -36 37.5 -55.5t88.5 -19.5h29q50 0 87 16.5t38 49.5v45l-258 65q-72 17 -72 84q0 55 54 83q-69 44 -69 128v51q0 73 56.5 117.5t148.5 44.5q73 0 125 -29l112 41l20 -59l-82 -25q30 -38 30 -88v-57q0 -72 -55.5 -115t-143.5 -43
q-49 0 -86 10q-33 -14 -33 -48q0 -20 13.5 -30.5t37.5 -16.5l281 -66v-95q0 -65 -58 -98t-143 -33h-33q-85 0 -144 34t-59 100q0 24 10 49zM149 357v-55q0 -41 37 -67t92 -26q52 0 86.5 24t34.5 64v60q-2 43 -37.5 68.5t-87.5 25.5q-51 0 -88 -27t-37 -67z" />
    <glyph glyph-name="germandbls.alt" horiz-adv-x="677" 
d="M191 550v-550h-77v438h-72v71h71v43q0 84 57.5 131.5t152.5 47.5q102 0 165 -47t63 -131l-108 -147q16 -5 37 -16t51 -33t49.5 -58t19.5 -79v-70q0 -73 -51 -115.5t-131 -42.5q-116 0 -172 64l32 57q46 -52 131 -52q48 0 80 25.5t32 70.5v64q0 39 -24.5 70t-58.5 47
t-60.5 23.5t-39.5 8.5l128 187q0 45 -39.5 74t-101.5 29q-61 0 -97.5 -29.5t-36.5 -80.5z" />
    <glyph glyph-name="germandbls.alt2" horiz-adv-x="624" 
d="M161 541v-541h-80v544q0 87 58 137.5t157 50.5q97 0 164 -48t67 -138q-54 -49 -75 -81.5t-21 -72.5q0 -25 12 -46t22.5 -30t36.5 -29q27 -22 42 -36.5t28.5 -43.5t13.5 -64q0 -72 -54 -112t-142 -40q-53 0 -100 18t-70 50l34 50q40 -50 132 -50q49 0 85 23.5t36 62.5
q0 13 -2 24t-7.5 21.5t-9.5 16.5t-14.5 15.5t-15 13t-18 13t-17.5 12.5q-35 25 -53 53.5t-18 74.5q0 97 91 172q0 49 -42.5 74t-101.5 26q-61 0 -99.5 -33.5t-38.5 -86.5z" />
    <glyph glyph-name="zero.small" horiz-adv-x="655" 
d="M327 563q108 0 182.5 -62.5t74.5 -153.5v-146q0 -91 -74.5 -152t-182.5 -61t-182.5 61t-74.5 152v146q0 91 74.5 153.5t182.5 62.5zM504 205v138q0 63 -51 106t-126 43q-74 0 -125.5 -43.5t-51.5 -105.5v-138q0 -62 51.5 -104.5t125.5 -42.5q75 0 126 42t51 105z" />
    <glyph glyph-name="one.small" horiz-adv-x="365" 
d="M178 0v492h-147v68h226v-560h-79z" />
    <glyph glyph-name="two.small" horiz-adv-x="544" 
d="M316 233q-94 -40 -134 -79t-41 -87h358v-67h-441v31q0 82 42 141t154 107q39 18 59.5 28.5t43 26.5t32 34t9.5 40q0 90 -127 90q-53 0 -101.5 -21.5t-75.5 -50.5l-39 53q89 91 225 91q95 0 146.5 -42t51.5 -115q0 -58 -37.5 -99.5t-124.5 -80.5z" />
    <glyph glyph-name="three.small" horiz-adv-x="555" 
d="M480 432v-20q0 -85 -99 -123q107 -40 107 -119v-33q0 -71 -62.5 -108t-159.5 -37q-85 0 -145.5 32.5t-67.5 91.5l60 23q6 -39 47.5 -59.5t102.5 -20.5q62 0 102.5 22t40.5 62v32q0 38 -40 61t-94 23h-89v65h87q56 0 92.5 22.5t36.5 61.5v17q0 41 -39 64t-97 23
q-59 0 -99.5 -23t-46.5 -63l-57 26q10 59 70 93.5t137 34.5q91 0 152 -39.5t61 -108.5z" />
    <glyph glyph-name="four.small" horiz-adv-x="536" 
d="M415 557v-366h100v-64h-100v-127h-80v127h-308v55l286 375h102zM335 191v277h-7l-210 -277h217z" />
    <glyph glyph-name="five.small" horiz-adv-x="555" 
d="M287 345q95 0 150.5 -39t55.5 -110v-49q0 -74 -58 -116.5t-152 -42.5q-89 0 -147 36.5t-68 102.5l62 24q7 -47 46.5 -71t104.5 -24q61 0 96.5 24t35.5 70v42q0 42 -35.5 65.5t-97.5 23.5h-183l28 276h332v-71h-267l-11 -141h108z" />
    <glyph glyph-name="six.small" horiz-adv-x="546" 
d="M293 366q88 0 143 -45t55 -116v-48q0 -76 -61 -123.5t-155 -47.5q-93 0 -152 47t-59 124v245q0 72 57 123t144 51q120 0 187 -64l-41 -55q-54 49 -141 49q-59 0 -92.5 -33t-33.5 -74v-99q19 26 60 46t89 20zM411 159v42q0 45 -37.5 73t-96.5 28q-57 0 -95 -30t-38 -74
v-39q0 -45 36.5 -74t94.5 -29q59 0 97.5 29t38.5 74z" />
    <glyph glyph-name="seven.small" horiz-adv-x="431" 
d="M10 492v68h398v-40l-199 -520h-85l194 492h-308z" />
    <glyph glyph-name="eight.small" horiz-adv-x="579" 
d="M495 411q0 -43 -29.5 -76.5t-72.5 -46.5q49 -11 82.5 -48t33.5 -80v-25q0 -74 -57.5 -113.5t-161.5 -39.5q-101 0 -159 40t-58 113v23q0 44 33.5 82t83.5 48q-46 14 -74.5 47t-28.5 74v19q0 70 56.5 111t146.5 41t147.5 -41t57.5 -111v-17zM429 139v24q0 43 -35 68.5
t-103 25.5q-63 0 -100.5 -26t-37.5 -68v-24q0 -44 38 -69.5t100 -25.5q61 0 99.5 25.5t38.5 69.5zM166 400q0 -40 31.5 -63.5t93.5 -23.5q53 0 88.5 24t35.5 63v22q0 43 -33.5 67.5t-90.5 24.5t-91 -24.5t-34 -67.5v-22z" />
    <glyph glyph-name="nine.small" horiz-adv-x="557" 
d="M276 572q93 0 155 -49t62 -125v-238q0 -80 -59 -127t-151 -47q-122 0 -199 60l29 57q64 -52 168 -52q59 0 95.5 28.5t36.5 80.5v95q-15 -27 -58.5 -46.5t-91.5 -19.5q-91 0 -148 45.5t-57 120.5v45q0 76 62 124t156 48zM413 357v43q0 47 -38.5 76t-98.5 29
q-61 0 -100 -29t-39 -76v-46q0 -47 39 -75t100 -28q60 0 98.5 30t38.5 76z" />
    <glyph glyph-name="h.alt" horiz-adv-x="583" 
d="M331 511l159 -1v-510h-79v437h-92q-58 0 -112 -42.5t-54 -88.5v-306h-79v710h79v-302q28 46 76 74.5t102 28.5z" />
    <glyph glyph-name="n.alt" horiz-adv-x="581" 
d="M327 511h161v-511h-80v439h-90q-58 0 -111 -42t-53 -88v-309h-80v510h75l5 -103q29 47 75 75t98 29z" />
    <glyph glyph-name="E.alt" horiz-adv-x="574" 
d="M162 521v-31q0 -45 37 -73.5t93 -28.5h94v-66h-95q-59 -2 -102.5 -32t-43.5 -74v-49q0 -44 47.5 -75t107.5 -31h40q51 0 95.5 22.5t62.5 46.5l49 -45q-64 -95 -207 -95h-39q-98 0 -167 50t-69 124v52q0 43 33.5 80.5t82.5 57.5q-42 17 -70 55t-28 80v39q0 72 63 117
t158 45h28q51 -2 104 -22t82 -48l-42 -55q-26 20 -67.5 36.5t-76.5 16.5h-28q-59 0 -100.5 -27t-41.5 -70z" />
    <glyph glyph-name="a.alt" horiz-adv-x="522" 
d="M274 520q92 0 137 -42.5t45 -118.5v-359h-66l-7 76q-21 -33 -67 -58t-112 -25q-74 0 -115.5 35t-41.5 99v19q0 146 330 154v56q0 48 -26 71.5t-86 23.5q-38 0 -89 -12.5t-74 -25.5l-22 59q30 20 87.5 34t106.5 14zM377 154v91q-50 -2 -87.5 -6t-78 -14t-62.5 -30t-22 -49
v-11q0 -77 97 -77q63 0 108 29.5t45 66.5z" />
    <glyph glyph-name="Ssmall.alt" horiz-adv-x="538" 
d="M151 347l324 -109v-92q0 -155 -210 -155q-64 0 -122.5 23.5t-86.5 62.5l38 49q19 -29 67.5 -50t95.5 -21q68 0 104.5 20.5t36.5 71.5v53l-325 109v99q0 41 18.5 71t50.5 45t66 21.5t74 6.5q123 0 193 -73l-39 -53q-54 57 -147 57q-138 0 -138 -82v-54z" />
    <glyph glyph-name="s.alt" horiz-adv-x="483" 
d="M139 334l293 -116v-81q0 -74 -53 -109.5t-141 -35.5q-119 0 -200 67l33 54q29 -24 74 -40.5t86 -16.5q124 0 124 81v44l-293 117v82q0 68 53.5 103.5t140.5 35.5q44 0 92 -15t81 -37l-30 -59q-68 42 -143 42q-117 0 -117 -76v-40z" />
    <glyph glyph-name="S.alt" horiz-adv-x="583" 
d="M163 433l367 -143v-122q0 -88 -64 -132t-168 -44q-165 0 -245 98l45 51q32 -38 85.5 -58.5t111.5 -20.5q67 0 110 28t43 81v73l-368 145v132q0 85 62.5 127t166.5 42q132 0 219 -78l-39 -60q-30 28 -78 47t-100 19q-66 0 -107 -24t-41 -76v-85z" />
    <glyph glyph-name="ft" horiz-adv-x="729" 
d="M94 510v65q0 66 53 102.5t133 36.5q138 0 238 -59l-14 -55q-93 47 -213 47q-118 0 -118 -81v-56h123v-59h-123v-451h-79v451h-71v59h71zM592 65q58 0 99 17l18 -63q-63 -25 -134 -25q-140 0 -140 132v322h-76v60h76v131h79v-131h150v-60h-150v-312q0 -71 78 -71z" />
    <glyph glyph-name="f.liga" horiz-adv-x="308" 
d="M94 511v62q0 71 57 109.5t145 38.5q95 0 193 -28l-14 -59q-104 18 -168 18q-134 0 -134 -90v-51h124v-59h-124v-452h-79v452h-68v59h68z" />
    <glyph glyph-name="Aacutesmall" 
d="M262 563h77l231 -563h-86l-64 160h-243l-64 -160h-87zM200 220h199l-99 249zM259 636l101 143l55 -36l-110 -132z" />
    <glyph glyph-name="Abrevesmall" 
d="M262 563h77l231 -563h-86l-64 160h-243l-64 -160h-87zM200 220h199l-99 249zM296 607q-44 0 -76.5 21.5t-46.5 59.5l46 14q19 -51 77 -51q28 0 48.5 14t28.5 37l47 -14q-14 -38 -47.5 -59.5t-76.5 -21.5z" />
    <glyph glyph-name="Acircumflexsmall" 
d="M262 563h77l231 -563h-86l-64 160h-243l-64 -160h-87zM200 220h199l-99 249zM170 646l126 86l127 -87l-30 -37l-97 61l-98 -60z" />
    <glyph glyph-name="Adieresissmall" 
d="M262 563h77l231 -563h-86l-64 160h-243l-64 -160h-87zM200 220h199l-99 249zM246 704v-78h-74v78h74zM421 704v-78h-74v78h74z" />
    <glyph glyph-name="Agravesmall" 
d="M262 563h77l231 -563h-86l-64 160h-243l-64 -160h-87zM200 220h199l-99 249zM182 748l59 39l97 -147l-44 -29z" />
    <glyph glyph-name="Aogoneksmall" 
d="M262 563h77l231 -563h-15l1 -34q-37 -2 -64 -22.5t-28 -63.5q0 -7 1 -12h129v-54h-195q-5 22 -5 38q0 62 26.5 98.5t65.5 49.5h-2l-64 160h-243l-64 -160h-87zM200 220h199l-99 249z" />
    <glyph glyph-name="Aringsmall" 
d="M262 563h77l231 -563h-86l-64 160h-243l-64 -160h-87zM200 220h199l-99 249zM296 608q-32 0 -55 23t-23 55q0 33 23 55t55 22q33 0 56.5 -22t23.5 -55q0 -32 -24 -55t-56 -23zM256 684q0 -16 12 -28t29 -12t29 12t12 28q0 17 -12 29.5t-29 12.5t-29 -12.5t-12 -29.5z" />
    <glyph glyph-name="Atildesmall" 
d="M262 563h77l231 -563h-86l-64 160h-243l-64 -160h-87zM200 220h199l-99 249zM232 653q-28 0 -49 -35l-38 30q38 63 88 63q24 0 68 -23t64 -23q26 2 42 33l41 -27q-36 -64 -81 -64q-29 0 -71.5 23t-63.5 23z" />
    <glyph glyph-name="Cacutesmall" horiz-adv-x="512" 
d="M299 499q-68 0 -114 -39.5t-46 -100.5v-156q0 -62 46 -100.5t116 -38.5q89 0 155 43l29 -58q-72 -56 -187 -56q-101 0 -169.5 58.5t-68.5 150.5v157q0 93 68 151.5t168 58.5q113 0 185 -57l-31 -57q-67 44 -151 44zM234 634l101 143l55 -36l-110 -132z" />
    <glyph glyph-name="Ccaronsmall" horiz-adv-x="512" 
d="M299 499q-68 0 -114 -39.5t-46 -100.5v-156q0 -62 46 -100.5t116 -38.5q89 0 155 43l29 -58q-72 -56 -187 -56q-101 0 -169.5 58.5t-68.5 150.5v157q0 93 68 151.5t168 58.5q113 0 185 -57l-31 -57q-67 44 -151 44zM384 709l-110 -104l-113 104l34 32l78 -70l77 70z" />
    <glyph glyph-name="Ccedillasmall" horiz-adv-x="525" 
d="M296 499q-68 0 -114 -39.5t-46 -100.5v-156q0 -62 46 -100.5t116 -38.5q89 0 155 43l29 -58q-62 -48 -158 -55l-7 -26q71 -27 71 -93q0 -38 -29.5 -65t-79.5 -41l-20 39q71 27 71 62q0 50 -73 67l13 57q-93 8 -153 65t-60 143v157q0 93 68 151.5t168 58.5q113 0 185 -57
l-31 -57q-67 44 -151 44z" />
    <glyph glyph-name="Dcaronsmall" 
d="M85 559h198q106 0 174 -54t69 -150v-152q0 -99 -67 -151t-176 -52h-198v559zM446 205v150q0 65 -45 99t-115 34h-121v-417h121q74 0 117 33t43 101zM416 705l-110 -104l-113 104l34 32l78 -70l77 70z" />
    <glyph glyph-name="Dcroatsmall" 
d="M25 257v61h60v241h198q106 0 174 -54t69 -150v-152q0 -99 -67 -151t-176 -52h-198v257h-60zM446 205v150q0 65 -45 99t-115 34h-121v-170h137v-61h-137v-186h121q74 0 117 33t43 101z" />
    <glyph glyph-name="Eacutesmall" horiz-adv-x="503" 
d="M390 248h-223v-177h283v-71h-364v559h343v-71h-263v-180h224v-60zM229 631l101 143l55 -36l-110 -132z" />
    <glyph glyph-name="Ecaronsmall" horiz-adv-x="503" 
d="M390 248h-223v-177h283v-71h-364v559h343v-71h-263v-180h224v-60zM379 706l-110 -104l-113 104l34 32l78 -70l77 70z" />
    <glyph glyph-name="Ecircumflexsmall" horiz-adv-x="503" 
d="M390 248h-223v-177h283v-71h-364v559h343v-71h-263v-180h224v-60zM140 640l126 86l127 -87l-30 -37l-97 61l-98 -60z" />
    <glyph glyph-name="Edieresissmall" horiz-adv-x="503" 
d="M390 248h-223v-177h283v-71h-364v559h343v-71h-263v-180h224v-60zM216 699v-78h-74v78h74zM391 699v-78h-74v78h74z" />
    <glyph glyph-name="Egravesmall" horiz-adv-x="503" 
d="M390 248h-223v-177h283v-71h-364v559h343v-71h-263v-180h224v-60zM152 743l59 39l97 -147l-44 -29z" />
    <glyph glyph-name="Eogoneksmall" horiz-adv-x="503" 
d="M390 248h-223v-177h283v-71h-133l1 -38q-37 -2 -64 -22.5t-28 -63.5q0 -7 1 -12h129v-54h-195q-5 22 -5 38q0 64 28 100.5t68 48.5v3h-166v559h343v-71h-263v-180h224v-60z" />
    <glyph glyph-name="Iacutesmall" horiz-adv-x="276" 
d="M99 0v560h79v-560h-79zM99 631l101 143l55 -36l-110 -132z" />
    <glyph glyph-name="Icircumflexsmall" horiz-adv-x="276" 
d="M99 0v560h79v-560h-79zM11 640l126 86l127 -87l-30 -37l-97 61l-98 -60z" />
    <glyph glyph-name="Idieresissmall" horiz-adv-x="276" 
d="M99 0v560h79v-560h-79zM87 699v-78h-74v78h74zM262 699v-78h-74v78h74z" />
    <glyph glyph-name="Igravesmall" horiz-adv-x="276" 
d="M99 0v560h79v-560h-79zM23 743l59 39l97 -147l-44 -29z" />
    <glyph glyph-name="Lacutesmall" horiz-adv-x="484" 
d="M86 559h80v-488h308v-71h-388v559zM194 624l101 143l55 -36l-110 -132z" />
    <glyph glyph-name="Lcaronsmall" horiz-adv-x="483" 
d="M83 559h80v-488h308v-71h-388v559zM304 559h71v-26q0 -69 -16 -106.5t-46 -70.5l-44 25q35 52 35 121v57z" />
    <glyph glyph-name="Nacutesmall" horiz-adv-x="672" 
d="M511 105v454h76v-559h-83l-343 453v-453h-76v559h82zM297 631l101 143l55 -36l-110 -132z" />
    <glyph glyph-name="Ncaronsmall" horiz-adv-x="672" 
d="M511 105v454h76v-559h-83l-343 453v-453h-76v559h82zM447 706l-110 -104l-113 104l34 32l78 -70l77 70z" />
    <glyph glyph-name="Ntildesmall" horiz-adv-x="672" 
d="M511 105v454h76v-559h-83l-343 453v-453h-76v559h82zM270 647q-28 0 -49 -35l-38 30q38 63 88 63q24 0 68 -23t64 -23q26 2 42 33l41 -27q-36 -64 -81 -64q-29 0 -71.5 23t-63.5 23z" />
    <glyph glyph-name="Oacutesmall" horiz-adv-x="632" 
d="M325 569q103 0 174.5 -58.5t71.5 -154.5v-155q0 -100 -70 -156t-177 -56h-13q-107 0 -177 56.5t-70 155.5v155q0 96 71.5 154.5t175.5 58.5h14zM492 203v152q0 68 -49 106t-118 38h-14q-69 0 -118 -38t-49 -106v-152q0 -71 47.5 -107.5t119.5 -36.5h13q73 0 120.5 36.5
t47.5 107.5zM278 640l101 143l55 -36l-110 -132z" />
    <glyph glyph-name="Ocircumflexsmall" horiz-adv-x="632" 
d="M325 569q103 0 174.5 -58.5t71.5 -154.5v-155q0 -100 -70 -156t-177 -56h-13q-107 0 -177 56.5t-70 155.5v155q0 96 71.5 154.5t175.5 58.5h14zM492 203v152q0 68 -49 106t-118 38h-14q-69 0 -118 -38t-49 -106v-152q0 -71 47.5 -107.5t119.5 -36.5h13q73 0 120.5 36.5
t47.5 107.5zM189 650l126 86l127 -87l-30 -37l-97 61l-98 -60z" />
    <glyph glyph-name="Odieresissmall" horiz-adv-x="632" 
d="M325 569q103 0 174.5 -58.5t71.5 -154.5v-155q0 -100 -70 -156t-177 -56h-13q-107 0 -177 56.5t-70 155.5v155q0 96 71.5 154.5t175.5 58.5h14zM492 203v152q0 68 -49 106t-118 38h-14q-69 0 -118 -38t-49 -106v-152q0 -71 47.5 -107.5t119.5 -36.5h13q73 0 120.5 36.5
t47.5 107.5zM265 708v-78h-74v78h74zM440 708v-78h-74v78h74z" />
    <glyph glyph-name="Ogravesmall" horiz-adv-x="632" 
d="M325 569q103 0 174.5 -58.5t71.5 -154.5v-155q0 -100 -70 -156t-177 -56h-13q-107 0 -177 56.5t-70 155.5v155q0 96 71.5 154.5t175.5 58.5h14zM492 203v152q0 68 -49 106t-118 38h-14q-69 0 -118 -38t-49 -106v-152q0 -71 47.5 -107.5t119.5 -36.5h13q73 0 120.5 36.5
t47.5 107.5zM201 752l59 39l97 -147l-44 -29z" />
    <glyph glyph-name="Ohungarumlautsmall" horiz-adv-x="632" 
d="M325 569q103 0 174.5 -58.5t71.5 -154.5v-155q0 -100 -70 -156t-177 -56h-13q-107 0 -177 56.5t-70 155.5v155q0 96 71.5 154.5t175.5 58.5h14zM492 203v152q0 68 -49 106t-118 38h-14q-69 0 -118 -38t-49 -106v-152q0 -71 47.5 -107.5t119.5 -36.5h13q73 0 120.5 36.5
t47.5 107.5zM379 796l43 -38l-184 -140l-39 33zM542 792l43 -37l-184 -140l-39 32z" />
    <glyph glyph-name="Otildesmall" horiz-adv-x="632" 
d="M325 569q103 0 174.5 -58.5t71.5 -154.5v-155q0 -100 -70 -156t-177 -56h-13q-107 0 -177 56.5t-70 155.5v155q0 96 71.5 154.5t175.5 58.5h14zM492 203v152q0 68 -49 106t-118 38h-14q-69 0 -118 -38t-49 -106v-152q0 -71 47.5 -107.5t119.5 -36.5h13q73 0 120.5 36.5
t47.5 107.5zM251 657q-28 0 -49 -35l-38 30q38 63 88 63q24 0 68 -23t64 -23q26 2 42 33l41 -27q-36 -64 -81 -64q-29 0 -71.5 23t-63.5 23z" />
    <glyph glyph-name="Racutesmall" horiz-adv-x="586" 
d="M511 374q0 -56 -31.5 -92.5t-82.5 -49.5l139 -232h-86l-129 222h-156v-222h-81v559h256q75 0 123 -40t48 -110v-35zM165 492v-208h174q41 1 67 24t26 66v31q0 42 -29 64.5t-72 22.5h-166zM272 631l101 143l55 -36l-110 -132z" />
    <glyph glyph-name="Rcaronsmall" horiz-adv-x="586" 
d="M511 374q0 -56 -31.5 -92.5t-82.5 -49.5l139 -232h-86l-129 222h-156v-222h-81v559h256q75 0 123 -40t48 -110v-35zM165 492v-208h174q41 1 67 24t26 66v31q0 42 -29 64.5t-72 22.5h-166zM421 706l-110 -104l-113 104l34 32l78 -70l77 70z" />
    <glyph glyph-name="Sacutesmall" horiz-adv-x="527" 
d="M284 311q194 -34 194 -157q0 -83 -58 -123.5t-152 -40.5q-57 0 -119 18.5t-105 51.5l35 56q34 -26 86 -42.5t98 -16.5q139 0 139 94q0 37 -33.5 60t-114.5 38q-191 35 -191 158q0 82 58.5 122t146.5 40q109 0 200 -49l-28 -58q-83 39 -165 39q-134 0 -134 -94
q0 -37 32 -59.5t111 -36.5zM219 639l101 143l55 -36l-110 -132z" />
    <glyph glyph-name="Scaronsmall" horiz-adv-x="527" 
d="M284 311q194 -34 194 -157q0 -83 -58 -123.5t-152 -40.5q-57 0 -119 18.5t-105 51.5l35 56q34 -26 86 -42.5t98 -16.5q139 0 139 94q0 37 -33.5 60t-114.5 38q-191 35 -191 158q0 82 58.5 122t146.5 40q109 0 200 -49l-28 -58q-83 39 -165 39q-134 0 -134 -94
q0 -37 32 -59.5t111 -36.5zM369 714l-110 -104l-113 104l34 32l78 -70l77 70z" />
    <glyph glyph-name="Scedillasmall" horiz-adv-x="527" 
d="M284 311q194 -34 194 -157q0 -83 -58 -123.5t-152 -40.5q-57 0 -119 18.5t-105 51.5l35 56q34 -26 86 -42.5t98 -16.5q139 0 139 94q0 37 -33.5 60t-114.5 38q-191 35 -191 158q0 82 58.5 122t146.5 40q109 0 200 -49l-28 -58q-83 39 -165 39q-134 0 -134 -94
q0 -37 32 -59.5t111 -36.5zM235 20h55l-15 -52q71 -27 71 -93q0 -38 -29.5 -65t-79.5 -41l-20 39q71 27 71 62q0 50 -73 67z" />
    <glyph glyph-name="Tcaronsmall" horiz-adv-x="504" 
d="M78 261v65h134v162h-194v72h470v-72h-196v-162h136v-65h-136v-261h-80v261h-134z" />
    <glyph glyph-name="Tcommaaccentsmall" horiz-adv-x="504" 
d="M18 488v72h470v-72h-196v-488h-80v488h-194zM215 -46h71v-26q0 -69 -16 -106.5t-46 -70.5l-44 25q35 52 35 121v57z" />
    <glyph glyph-name="Uacutesmall" horiz-adv-x="645" 
d="M485 204v356h79v-358q0 -101 -66 -154t-175 -53q-107 0 -173.5 52.5t-66.5 154.5v358h80v-356q0 -66 41 -102.5t120 -36.5q76 0 118.5 37t42.5 102zM284 630l101 143l55 -36l-110 -132z" />
    <glyph glyph-name="Ucircumflexsmall" horiz-adv-x="645" 
d="M485 204v356h79v-358q0 -101 -66 -154t-175 -53q-107 0 -173.5 52.5t-66.5 154.5v358h80v-356q0 -66 41 -102.5t120 -36.5q76 0 118.5 37t42.5 102zM195 640l126 86l127 -87l-30 -37l-97 61l-98 -60z" />
    <glyph glyph-name="Udieresissmall" horiz-adv-x="645" 
d="M485 204v356h79v-358q0 -101 -66 -154t-175 -53q-107 0 -173.5 52.5t-66.5 154.5v358h80v-356q0 -66 41 -102.5t120 -36.5q76 0 118.5 37t42.5 102zM271 699v-78h-74v78h74zM446 699v-78h-74v78h74z" />
    <glyph glyph-name="Ugravesmall" horiz-adv-x="645" 
d="M485 204v356h79v-358q0 -101 -66 -154t-175 -53q-107 0 -173.5 52.5t-66.5 154.5v358h80v-356q0 -66 41 -102.5t120 -36.5q76 0 118.5 37t42.5 102zM207 743l59 39l97 -147l-44 -29z" />
    <glyph glyph-name="Uhungarumlautsmall" horiz-adv-x="645" 
d="M485 204v356h79v-358q0 -101 -66 -154t-175 -53q-107 0 -173.5 52.5t-66.5 154.5v358h80v-356q0 -66 41 -102.5t120 -36.5q76 0 118.5 37t42.5 102zM385 787l43 -38l-184 -140l-39 33zM548 783l43 -37l-184 -140l-39 32z" />
    <glyph glyph-name="Uringsmall" horiz-adv-x="645" 
d="M485 204v356h79v-358q0 -101 -66 -154t-175 -53q-107 0 -173.5 52.5t-66.5 154.5v358h80v-356q0 -66 41 -102.5t120 -36.5q76 0 118.5 37t42.5 102zM321 602q-32 0 -55 23t-23 55q0 33 23 55t55 22q33 0 56.5 -22t23.5 -55q0 -32 -24 -55t-56 -23zM281 678q0 -16 12 -28
t29 -12t29 12t12 28q0 17 -12 29.5t-29 12.5t-29 -12.5t-12 -29.5z" />
    <glyph glyph-name="Yacutesmall" horiz-adv-x="593" 
d="M31 560h94l169 -268l173 268h94l-227 -340v-220h-80v220zM256 630l101 143l55 -36l-110 -132z" />
    <glyph glyph-name="Ydieresissmall" horiz-adv-x="593" 
d="M31 560h94l169 -268l173 268h94l-227 -340v-220h-80v220zM244 698v-78h-74v78h74zM419 698v-78h-74v78h74z" />
    <glyph glyph-name="Zacutesmall" horiz-adv-x="547" 
d="M160 74h335v-74h-439l-3 51l333 438h-317v71h420l1 -50zM235 630l101 143l55 -36l-110 -132z" />
    <glyph glyph-name="Zcaronsmall" horiz-adv-x="547" 
d="M160 74h335v-74h-439l-3 51l333 438h-317v71h420l1 -50zM384 705l-110 -104l-113 104l34 32l78 -70l77 70z" />
    <glyph glyph-name="Zdotaccentsmall" horiz-adv-x="547" 
d="M160 74h335v-74h-439l-3 51l333 438h-317v71h420l1 -50zM229 602v79h85v-79h-85z" />
    </font>
</defs>
</svg>
